%TF.GenerationSoftware,KiCad,Pcbnew,9.0.7*%
%TF.CreationDate,2026-03-27T14:11:07+00:00*%
%TF.ProjectId,StepUp,53746570-5570-42e6-9b69-6361645f7063,v0.4*%
%TF.SameCoordinates,Original*%
%TF.FileFunction,Copper,L3,Inr*%
%TF.FilePolarity,Positive*%
%FSLAX45Y45*%
G04 Gerber Fmt 4.5, Leading zero omitted, Abs format (unit mm)*
G04 Created by KiCad (PCBNEW 9.0.7) date 2026-03-27 14:11:07*
%MOMM*%
%LPD*%
G01*
G04 APERTURE LIST*
G04 Aperture macros list*
%AMRotRect*
0 Rectangle, with rotation*
0 The origin of the aperture is its center*
0 $1 length*
0 $2 width*
0 $3 Rotation angle, in degrees counterclockwise*
0 Add horizontal line*
21,1,$1,$2,0,0,$3*%
G04 Aperture macros list end*
%TA.AperFunction,ComponentPad*%
%ADD10O,1.000000X2.100000*%
%TD*%
%TA.AperFunction,ComponentPad*%
%ADD11O,1.000000X1.800000*%
%TD*%
%TA.AperFunction,ComponentPad*%
%ADD12C,0.600000*%
%TD*%
%TA.AperFunction,ComponentPad*%
%ADD13C,0.500000*%
%TD*%
%TA.AperFunction,ComponentPad*%
%ADD14R,1.700000X1.700000*%
%TD*%
%TA.AperFunction,ComponentPad*%
%ADD15O,1.700000X1.700000*%
%TD*%
%TA.AperFunction,ComponentPad*%
%ADD16RotRect,1.300000X1.300000X225.000000*%
%TD*%
%TA.AperFunction,ComponentPad*%
%ADD17C,1.416000*%
%TD*%
%TA.AperFunction,ComponentPad*%
%ADD18C,1.550000*%
%TD*%
%TA.AperFunction,ComponentPad*%
%ADD19C,2.000000*%
%TD*%
%TA.AperFunction,ComponentPad*%
%ADD20C,1.350000*%
%TD*%
%TA.AperFunction,ComponentPad*%
%ADD21C,1.650000*%
%TD*%
%TA.AperFunction,ComponentPad*%
%ADD22C,1.950000*%
%TD*%
%TA.AperFunction,ComponentPad*%
%ADD23C,2.400000*%
%TD*%
%TA.AperFunction,ComponentPad*%
%ADD24R,2.745000X2.745000*%
%TD*%
%TA.AperFunction,ComponentPad*%
%ADD25C,2.745000*%
%TD*%
%TA.AperFunction,ComponentPad*%
%ADD26R,2.745000X4.745000*%
%TD*%
%TA.AperFunction,ComponentPad*%
%ADD27O,2.745000X4.745000*%
%TD*%
%TA.AperFunction,ViaPad*%
%ADD28C,0.610000*%
%TD*%
%TA.AperFunction,ViaPad*%
%ADD29C,0.600000*%
%TD*%
G04 APERTURE END LIST*
D10*
%TO.N,GND*%
%TO.C,J1*%
X7773800Y-12352500D03*
D11*
X7773800Y-12770500D03*
D10*
X8637800Y-12352500D03*
D11*
X8637800Y-12770500D03*
%TD*%
D12*
%TO.N,GND*%
%TO.C,U3*%
X8473000Y-10777400D03*
X8600500Y-10777400D03*
X8728000Y-10777400D03*
X8473000Y-10649900D03*
X8600500Y-10649900D03*
X8728000Y-10649900D03*
X8473000Y-10522400D03*
X8600500Y-10522400D03*
X8728000Y-10522400D03*
%TD*%
D13*
%TO.N,/Power/BOOST_SW*%
%TO.C,U7*%
X6852500Y-7756250D03*
%TD*%
D14*
%TO.N,/MCU/GPIO12*%
%TO.C,J3*%
X10912500Y-10805000D03*
D15*
%TO.N,/MCU/GPIO13*%
X10658500Y-10805000D03*
%TO.N,/MCU/GPIO14*%
X10404500Y-10805000D03*
%TO.N,/MCU/GPIO15*%
X10150500Y-10805000D03*
%TD*%
D16*
%TO.N,Net-(LED2-Pad1)*%
%TO.C,LED2*%
X10837500Y-5725000D03*
D17*
%TO.N,GND*%
X10712500Y-5600000D03*
%TO.N,Net-(LED2-Pad3)*%
X10837500Y-5475000D03*
%TO.N,Net-(LED2-Pad4)*%
X10712500Y-5350000D03*
%TD*%
D18*
%TO.N,GND*%
%TO.C,SW3*%
X10600500Y-7110000D03*
%TO.N,Net-(D12-Pad3)*%
X10600500Y-7560000D03*
D19*
%TO.N,N/C*%
X10351500Y-6984500D03*
X10351500Y-7685500D03*
%TD*%
D20*
%TO.N,Net-(Q7-D)*%
%TO.C,BZ1*%
X9430000Y-12270000D03*
%TO.N,VMotor*%
X9430000Y-11770000D03*
%TD*%
D21*
%TO.N,+3V3*%
%TO.C,JOY1*%
X10800000Y-9100000D03*
%TO.N,JOY_AXIS_MCU_H*%
X10800000Y-9350000D03*
%TO.N,GND*%
X10800000Y-9600000D03*
%TO.N,+3V3*%
X9677000Y-8477000D03*
%TO.N,JOY_AXIS_MCU_V*%
X9927000Y-8477000D03*
%TO.N,GND*%
X10177000Y-8477000D03*
D22*
%TO.N,JOY_MCU_BTN*%
X9352000Y-9675000D03*
X9352000Y-9025000D03*
%TO.N,GND*%
X8902000Y-9675000D03*
X8902000Y-9025000D03*
D23*
%TO.N,unconnected-(JOY1-PadMH1)*%
X10427000Y-8717500D03*
%TO.N,unconnected-(JOY1-PadMH2)*%
X10427000Y-9982500D03*
%TO.N,unconnected-(JOY1-PadMH3)*%
X9427000Y-9982500D03*
%TO.N,unconnected-(JOY1-PadMH4)*%
X9427000Y-8717500D03*
%TD*%
%TO.N,/Motor Driver/OA2_OUT*%
%TO.C,J5*%
X8330000Y-5595000D03*
%TO.N,/Motor Driver/OA1_OUT*%
X8830000Y-5595000D03*
%TO.N,/Motor Driver/OB1_OUT*%
X9330000Y-5595000D03*
%TO.N,/Motor Driver/OB2_OUT*%
X9830000Y-5595000D03*
%TD*%
D14*
%TO.N,V_USB*%
%TO.C,J6*%
X9456500Y-12820000D03*
D15*
%TO.N,Vbat*%
X9710500Y-12820000D03*
%TO.N,VMotor*%
X9964500Y-12820000D03*
%TO.N,+3V3*%
X10218500Y-12820000D03*
%TO.N,GND*%
X10472500Y-12820000D03*
%TD*%
D14*
%TO.N,/MCU/SWCLK*%
%TO.C,J4*%
X10270000Y-11934000D03*
D15*
%TO.N,/MCU/UART_0_TX*%
X10524000Y-11934000D03*
%TO.N,/MCU/SWD*%
X10270000Y-11680000D03*
%TO.N,/MCU/UART_0_RX*%
X10524000Y-11680000D03*
%TO.N,GND*%
X10270000Y-11426000D03*
X10524000Y-11426000D03*
%TD*%
D14*
%TO.N,GND*%
%TO.C,J2*%
X10912500Y-12197000D03*
D15*
%TO.N,/MCU/GPIO2*%
X10912500Y-11943000D03*
%TO.N,/MCU/GPIO9*%
X10912500Y-11689000D03*
%TO.N,/MCU/GPIO10*%
X10912500Y-11435000D03*
%TO.N,/MCU/GPIO11*%
X10912500Y-11181000D03*
%TD*%
D24*
%TO.N,/Power/VBAT_PACK_POS*%
%TO.C,BT1*%
X6361800Y-6372000D03*
D25*
X6869800Y-6372000D03*
X6615800Y-5610000D03*
%TD*%
D26*
%TO.N,/Power/VBAT_PACK_NEG*%
%TO.C,BT2*%
X6869800Y-11072000D03*
D27*
X6361800Y-11072000D03*
X6615800Y-11834000D03*
%TD*%
D28*
%TO.N,GND*%
X6002500Y-6285000D03*
X6585000Y-8917500D03*
X9600000Y-7830000D03*
X6022500Y-8820000D03*
X8242500Y-7710000D03*
X7252500Y-11872500D03*
X6965000Y-10082500D03*
X9250000Y-6560000D03*
X7262500Y-7885000D03*
X9300000Y-10420000D03*
X7752500Y-10200000D03*
X6582500Y-8592500D03*
X6582500Y-8342500D03*
X7030000Y-12647500D03*
X9050000Y-7535000D03*
X7745000Y-11005000D03*
X6587500Y-9092500D03*
X9505000Y-8317500D03*
X10165000Y-6027500D03*
X9847500Y-7555000D03*
X6410000Y-7487500D03*
X8480000Y-8450000D03*
X8390000Y-7990000D03*
X9042571Y-10763260D03*
X7090000Y-9975000D03*
X9067500Y-6022500D03*
X6157500Y-5420000D03*
X9300000Y-11987500D03*
X6582500Y-8512500D03*
D29*
X7570000Y-6522500D03*
D28*
X6510000Y-12647500D03*
X6582500Y-8670000D03*
X10025000Y-6607500D03*
X7205000Y-5350000D03*
X6330000Y-5572500D03*
X6195000Y-9395000D03*
X6582500Y-8422500D03*
X7950000Y-6055000D03*
X6117500Y-9267500D03*
X6285000Y-7915000D03*
X8445000Y-11780000D03*
X6125000Y-7997500D03*
X9050000Y-7655000D03*
X8102500Y-11120000D03*
X7745000Y-10322500D03*
X9870000Y-10460000D03*
X9620000Y-10820000D03*
X9750000Y-10320000D03*
X8700000Y-9870000D03*
X9110000Y-7595000D03*
X9890000Y-9935000D03*
X6255000Y-5130000D03*
X6662500Y-8105000D03*
X6585000Y-8740000D03*
X6587500Y-9010000D03*
X6095000Y-6100000D03*
X8165000Y-12145000D03*
X9132500Y-12377500D03*
X8990000Y-8467500D03*
X9040000Y-6960000D03*
X7860000Y-11755000D03*
X9957500Y-7702500D03*
X6965000Y-11675000D03*
X7710000Y-10660000D03*
X9427500Y-8320000D03*
X7050000Y-11590000D03*
X7752500Y-7265000D03*
X8165000Y-6612500D03*
X9520000Y-10820000D03*
X9727500Y-8752500D03*
X8352500Y-7555000D03*
X6145000Y-5537500D03*
X9170000Y-7655000D03*
X7262500Y-7782500D03*
X8270000Y-9960000D03*
X7862500Y-10067500D03*
X10020000Y-8990000D03*
X9957500Y-7407500D03*
X6435000Y-7695000D03*
X5977500Y-7880000D03*
X8190000Y-9960000D03*
X8817500Y-11272500D03*
X8030000Y-7710000D03*
X10960000Y-8917500D03*
X8560000Y-8420000D03*
X5950000Y-9275000D03*
X9600000Y-7740000D03*
X7610000Y-11692500D03*
X6420000Y-8210000D03*
X7737500Y-11202500D03*
X8242500Y-7402500D03*
X8390000Y-7860000D03*
X8635000Y-11747500D03*
X8960000Y-6560000D03*
X9170000Y-7535000D03*
X7782500Y-10422500D03*
X9142500Y-6022500D03*
X7710000Y-10760000D03*
X5942500Y-8690000D03*
X6582500Y-8262500D03*
X6087500Y-5400000D03*
X7375000Y-5602500D03*
X6472500Y-10032500D03*
X9170000Y-6910000D03*
X8547500Y-11870000D03*
%TO.N,/Power/VBAT_PACK_NEG*%
X5830000Y-6030000D03*
X6987500Y-5625000D03*
%TO.N,+3V3*%
X7760000Y-7127500D03*
X8125000Y-10125000D03*
X8667500Y-8885000D03*
X8040000Y-11200000D03*
X7102500Y-9682500D03*
X7480000Y-11190000D03*
X9925000Y-8695000D03*
X8065000Y-10062500D03*
X10580000Y-10180000D03*
%TO.N,+1V1*%
X8390000Y-10570000D03*
X8024243Y-10690980D03*
X8810000Y-10590000D03*
X9080000Y-10550000D03*
%TO.N,/MCU/~{USB_BOOT}*%
X8050000Y-11330000D03*
X7980000Y-12506640D03*
%TO.N,/MCU/SWCLK*%
X9130000Y-10400000D03*
X8980000Y-11560000D03*
%TO.N,/MCU/RUN*%
X9260964Y-10319734D03*
X8720000Y-12630000D03*
%TO.N,/MCU/SWD*%
X9187466Y-10340000D03*
X9160000Y-11253360D03*
%TO.N,Vbat*%
X7262500Y-12707500D03*
X6092500Y-10547500D03*
%TO.N,VMotor*%
X8045740Y-6510000D03*
X9120000Y-7290000D03*
X8187668Y-7285370D03*
X9050000Y-7230000D03*
X8730000Y-7730000D03*
X9090000Y-6500000D03*
X9910000Y-10637500D03*
X10010000Y-7290000D03*
%TO.N,TMC_EN*%
X9050000Y-7867500D03*
X9280000Y-7980000D03*
%TO.N,TMC_DIR*%
X8300000Y-9290000D03*
X8150000Y-9290000D03*
%TO.N,TMC_UART_RX*%
X9610000Y-9500000D03*
X8292500Y-9500000D03*
%TO.N,TMC_UART_TX*%
X8569329Y-10200292D03*
X9142731Y-10012731D03*
%TO.N,TMC_DIAG*%
X9310000Y-8560000D03*
X9345326Y-7680529D03*
%TO.N,MCU_BOOST_EN*%
X8128360Y-9521640D03*
X8045793Y-8547335D03*
X7260000Y-8530000D03*
X8930837Y-10110837D03*
%TO.N,VBAT_MONITOR*%
X8130000Y-9440000D03*
X8075000Y-9835000D03*
%TO.N,VUSB_MONITOR*%
X8690000Y-11610000D03*
X8580000Y-11342269D03*
%TO.N,/Motor Driver/TMC_VCC_IO*%
X9285000Y-7795000D03*
X9150000Y-7880000D03*
%TO.N,/Motor Driver/BRA*%
X8977500Y-7435000D03*
X8655000Y-7635000D03*
X8692500Y-7572500D03*
X8662500Y-7507500D03*
%TO.N,/Motor Driver/BRB*%
X9240000Y-7435000D03*
X9552500Y-7627500D03*
X9520000Y-7570000D03*
X9550000Y-7512500D03*
X9267500Y-7377500D03*
%TO.N,BUZZER*%
X9180000Y-11680000D03*
X9330000Y-10270000D03*
%TO.N,JOY_AXIS_MCU_H*%
X10610000Y-9650000D03*
X8352269Y-9877731D03*
%TO.N,JOY_AXIS_MCU_V*%
X8195000Y-9640000D03*
X9790000Y-9090000D03*
%TO.N,/MCU/GPIO2*%
X10000000Y-11690000D03*
%TO.N,MCU_PWR_BTN*%
X10010000Y-11330000D03*
X7925000Y-6872500D03*
X10160000Y-7290000D03*
X10140000Y-10530000D03*
%TO.N,MCU_PWR_CTRL*%
X8027500Y-11650000D03*
X7992500Y-9492500D03*
X8651250Y-11191250D03*
X7772500Y-10050000D03*
%TO.N,MCU_LED_RED*%
X10226640Y-10627500D03*
X10050000Y-11590000D03*
%TO.N,MCU_LED_GREEN*%
X10330892Y-11560000D03*
X10390000Y-10557500D03*
%TO.N,MCU_LED_BLUE*%
X10290000Y-10520000D03*
X10130000Y-11650000D03*
%TO.N,/Power/BOOST_VOUT*%
X6950000Y-9202500D03*
X6492500Y-7922500D03*
%TO.N,Net-(D12-Pad3)*%
X7930000Y-6780000D03*
%TD*%
%TA.AperFunction,Conductor*%
%TO.N,GND*%
G36*
X10904204Y-5011243D02*
G01*
X10906382Y-5011374D01*
X10929028Y-5012744D01*
X10929892Y-5012827D01*
X10935551Y-5013572D01*
X10936162Y-5013668D01*
X10957686Y-5017613D01*
X10958655Y-5017831D01*
X10963474Y-5019122D01*
X10963940Y-5019257D01*
X10985613Y-5026011D01*
X10986666Y-5026392D01*
X10989824Y-5027700D01*
X10990166Y-5027848D01*
X11012333Y-5037825D01*
X11013658Y-5038520D01*
X11036656Y-5052422D01*
X11037887Y-5053272D01*
X11051572Y-5063994D01*
X11059041Y-5069845D01*
X11060161Y-5070838D01*
X11079162Y-5089839D01*
X11080155Y-5090959D01*
X11096727Y-5112113D01*
X11097578Y-5113345D01*
X11111480Y-5136341D01*
X11112175Y-5137667D01*
X11122152Y-5159834D01*
X11122301Y-5160178D01*
X11123607Y-5163333D01*
X11123990Y-5164389D01*
X11130740Y-5186052D01*
X11130879Y-5186532D01*
X11132168Y-5191342D01*
X11132388Y-5192316D01*
X11136331Y-5213835D01*
X11136428Y-5214452D01*
X11137172Y-5220105D01*
X11137256Y-5220975D01*
X11138757Y-5245796D01*
X11138780Y-5246545D01*
X11138780Y-12773455D01*
X11138757Y-12774204D01*
X11137256Y-12799025D01*
X11137172Y-12799895D01*
X11136428Y-12805548D01*
X11136331Y-12806164D01*
X11132388Y-12827684D01*
X11132168Y-12828658D01*
X11130879Y-12833468D01*
X11130740Y-12833947D01*
X11123990Y-12855611D01*
X11123607Y-12856667D01*
X11122301Y-12859822D01*
X11122152Y-12860165D01*
X11112175Y-12882333D01*
X11111480Y-12883659D01*
X11097578Y-12906655D01*
X11096727Y-12907887D01*
X11080155Y-12929040D01*
X11079162Y-12930161D01*
X11060161Y-12949162D01*
X11059041Y-12950155D01*
X11037887Y-12966727D01*
X11036655Y-12967578D01*
X11013659Y-12981479D01*
X11012333Y-12982175D01*
X11012333Y-12982175D01*
X10990166Y-12992152D01*
X10989822Y-12992301D01*
X10986667Y-12993607D01*
X10985611Y-12993990D01*
X10963948Y-13000740D01*
X10963468Y-13000879D01*
X10958658Y-13002168D01*
X10957684Y-13002388D01*
X10936164Y-13006331D01*
X10935548Y-13006428D01*
X10929895Y-13007172D01*
X10929025Y-13007256D01*
X10904204Y-13008757D01*
X10903455Y-13008780D01*
X5876545Y-13008780D01*
X5875796Y-13008757D01*
X5850974Y-13007256D01*
X5850105Y-13007172D01*
X5844452Y-13006428D01*
X5843835Y-13006331D01*
X5822316Y-13002388D01*
X5821342Y-13002168D01*
X5816532Y-13000879D01*
X5816053Y-13000741D01*
X5805028Y-12997305D01*
X5794389Y-12993990D01*
X5793333Y-12993607D01*
X5790178Y-12992301D01*
X5789834Y-12992152D01*
X5767667Y-12982175D01*
X5766341Y-12981479D01*
X5743345Y-12967578D01*
X5742113Y-12966727D01*
X5720959Y-12950155D01*
X5719839Y-12949162D01*
X5700838Y-12930161D01*
X5699845Y-12929040D01*
X5683273Y-12907887D01*
X5682422Y-12906655D01*
X5668520Y-12883658D01*
X5667824Y-12882333D01*
X5657848Y-12860165D01*
X5657700Y-12859824D01*
X5656392Y-12856666D01*
X5656011Y-12855613D01*
X5649257Y-12833940D01*
X5649122Y-12833474D01*
X5647831Y-12828655D01*
X5647613Y-12827686D01*
X5643668Y-12806162D01*
X5643572Y-12805551D01*
X5642827Y-12799892D01*
X5642744Y-12799027D01*
X5641243Y-12774203D01*
X5641220Y-12773455D01*
X5641220Y-12696675D01*
X5755720Y-12696675D01*
X5755720Y-12720984D01*
X5755720Y-12720986D01*
X5758893Y-12745087D01*
X5765185Y-12768568D01*
X5774488Y-12791027D01*
X5774488Y-12791029D01*
X5786643Y-12812081D01*
X5801442Y-12831368D01*
X5801443Y-12831369D01*
X5818631Y-12848557D01*
X5818632Y-12848558D01*
X5818632Y-12848558D01*
X5821348Y-12850642D01*
X5837918Y-12863357D01*
X5858971Y-12875512D01*
X5858973Y-12875512D01*
X5864139Y-12877652D01*
X5881431Y-12884815D01*
X5904913Y-12891107D01*
X5929015Y-12894280D01*
X5929016Y-12894280D01*
X5953324Y-12894280D01*
X5953325Y-12894280D01*
X5977427Y-12891107D01*
X6000909Y-12884815D01*
X6023368Y-12875512D01*
X6044422Y-12863357D01*
X6063708Y-12848558D01*
X6063708Y-12848557D01*
X6063709Y-12848557D01*
X6080897Y-12831369D01*
X6080897Y-12831368D01*
X6080898Y-12831368D01*
X6095697Y-12812081D01*
X6107852Y-12791028D01*
X6117155Y-12768569D01*
X6123447Y-12745087D01*
X6126620Y-12720985D01*
X6126620Y-12700845D01*
X7211950Y-12700845D01*
X7211950Y-12714155D01*
X7215395Y-12727012D01*
X7222050Y-12738538D01*
X7231462Y-12747950D01*
X7242988Y-12754605D01*
X7255845Y-12758050D01*
X7255845Y-12758050D01*
X7269155Y-12758050D01*
X7269155Y-12758050D01*
X7282012Y-12754605D01*
X7293538Y-12747950D01*
X7302950Y-12738538D01*
X7309605Y-12727012D01*
X7310650Y-12723113D01*
X7698800Y-12723113D01*
X7698800Y-12745500D01*
X7743800Y-12745500D01*
X7743800Y-12795500D01*
X7698800Y-12795500D01*
X7698800Y-12817887D01*
X7701682Y-12832376D01*
X7701682Y-12832377D01*
X7707336Y-12846025D01*
X7707336Y-12846026D01*
X7715544Y-12858310D01*
X7715544Y-12858310D01*
X7725990Y-12868756D01*
X7725991Y-12868757D01*
X7738274Y-12876964D01*
X7738274Y-12876964D01*
X7748800Y-12881324D01*
X7748800Y-12881324D01*
X7748800Y-12827199D01*
X7749794Y-12828920D01*
X7755379Y-12834506D01*
X7762220Y-12838456D01*
X7769850Y-12840500D01*
X7777750Y-12840500D01*
X7785380Y-12838456D01*
X7792220Y-12834506D01*
X7797806Y-12828920D01*
X7798800Y-12827199D01*
X7798800Y-12881324D01*
X7809326Y-12876964D01*
X7809326Y-12876964D01*
X7821609Y-12868757D01*
X7821610Y-12868756D01*
X7832056Y-12858310D01*
X7832056Y-12858310D01*
X7840264Y-12846026D01*
X7840264Y-12846025D01*
X7845918Y-12832377D01*
X7845918Y-12832376D01*
X7848800Y-12817887D01*
X7848800Y-12817887D01*
X7848800Y-12795500D01*
X7803800Y-12795500D01*
X7803800Y-12745500D01*
X7848800Y-12745500D01*
X7848800Y-12723113D01*
X7848800Y-12723113D01*
X8562800Y-12723113D01*
X8562800Y-12745500D01*
X8607800Y-12745500D01*
X8607800Y-12795500D01*
X8562800Y-12795500D01*
X8562800Y-12817887D01*
X8565682Y-12832376D01*
X8565682Y-12832377D01*
X8571336Y-12846025D01*
X8571336Y-12846026D01*
X8579544Y-12858310D01*
X8579544Y-12858310D01*
X8589990Y-12868756D01*
X8589991Y-12868757D01*
X8602274Y-12876964D01*
X8602274Y-12876964D01*
X8612800Y-12881324D01*
X8612800Y-12881324D01*
X8612800Y-12827199D01*
X8613794Y-12828920D01*
X8619380Y-12834506D01*
X8626220Y-12838456D01*
X8633850Y-12840500D01*
X8641750Y-12840500D01*
X8649380Y-12838456D01*
X8656221Y-12834506D01*
X8661806Y-12828920D01*
X8662800Y-12827199D01*
X8662800Y-12881324D01*
X8673326Y-12876964D01*
X8673326Y-12876964D01*
X8685609Y-12868757D01*
X8685610Y-12868756D01*
X8696056Y-12858310D01*
X8696056Y-12858310D01*
X8704264Y-12846026D01*
X8704264Y-12846025D01*
X8709918Y-12832377D01*
X8709918Y-12832376D01*
X8712800Y-12817887D01*
X8712800Y-12817887D01*
X8712800Y-12795500D01*
X8667800Y-12795500D01*
X8667800Y-12745500D01*
X8712800Y-12745500D01*
X8712800Y-12733025D01*
X9351450Y-12733025D01*
X9351450Y-12906975D01*
X9352613Y-12912823D01*
X9352613Y-12912823D01*
X9357045Y-12919455D01*
X9363677Y-12923887D01*
X9363677Y-12923887D01*
X9369525Y-12925050D01*
X9369525Y-12925050D01*
X9369525Y-12925050D01*
X9543475Y-12925050D01*
X9543475Y-12925050D01*
X9544957Y-12924755D01*
X9549323Y-12923887D01*
X9549323Y-12923887D01*
X9549323Y-12923887D01*
X9555955Y-12919455D01*
X9560387Y-12912823D01*
X9560387Y-12912823D01*
X9560387Y-12912823D01*
X9561369Y-12907887D01*
X9561550Y-12906975D01*
X9561550Y-12809653D01*
X9605450Y-12809653D01*
X9605450Y-12830347D01*
X9609487Y-12850641D01*
X9609487Y-12850642D01*
X9617406Y-12869760D01*
X9628902Y-12886966D01*
X9643534Y-12901597D01*
X9643535Y-12901598D01*
X9660740Y-12913094D01*
X9679858Y-12921013D01*
X9694305Y-12923887D01*
X9700153Y-12925050D01*
X9700153Y-12925050D01*
X9700154Y-12925050D01*
X9720847Y-12925050D01*
X9720847Y-12925050D01*
X9741142Y-12921013D01*
X9760260Y-12913094D01*
X9777466Y-12901598D01*
X9792098Y-12886965D01*
X9803594Y-12869760D01*
X9811513Y-12850642D01*
X9815550Y-12830346D01*
X9815550Y-12809653D01*
X9815550Y-12809653D01*
X9859450Y-12809653D01*
X9859450Y-12830347D01*
X9863487Y-12850641D01*
X9863487Y-12850642D01*
X9871406Y-12869760D01*
X9882902Y-12886966D01*
X9897534Y-12901597D01*
X9897535Y-12901598D01*
X9914740Y-12913094D01*
X9933858Y-12921013D01*
X9948305Y-12923887D01*
X9954153Y-12925050D01*
X9954153Y-12925050D01*
X9954154Y-12925050D01*
X9974847Y-12925050D01*
X9974847Y-12925050D01*
X9995142Y-12921013D01*
X10014260Y-12913094D01*
X10031466Y-12901598D01*
X10046098Y-12886965D01*
X10057594Y-12869760D01*
X10065513Y-12850642D01*
X10069550Y-12830346D01*
X10069550Y-12809653D01*
X10069550Y-12809653D01*
X10113450Y-12809653D01*
X10113450Y-12830347D01*
X10117487Y-12850641D01*
X10117487Y-12850642D01*
X10125406Y-12869760D01*
X10136902Y-12886966D01*
X10151534Y-12901597D01*
X10151535Y-12901598D01*
X10168740Y-12913094D01*
X10187858Y-12921013D01*
X10202305Y-12923887D01*
X10208153Y-12925050D01*
X10208153Y-12925050D01*
X10208154Y-12925050D01*
X10228847Y-12925050D01*
X10228847Y-12925050D01*
X10249142Y-12921013D01*
X10268260Y-12913094D01*
X10285466Y-12901598D01*
X10300098Y-12886965D01*
X10311594Y-12869760D01*
X10319513Y-12850642D01*
X10321530Y-12840500D01*
X10321853Y-12838877D01*
X10321854Y-12838874D01*
X10322928Y-12833474D01*
X10323550Y-12830346D01*
X10323550Y-12809653D01*
X10321854Y-12801125D01*
X10321854Y-12801125D01*
X10320635Y-12795000D01*
X10365088Y-12795000D01*
X10365089Y-12795000D01*
X10429199Y-12795000D01*
X10425908Y-12800701D01*
X10422500Y-12813417D01*
X10422500Y-12826583D01*
X10425908Y-12839299D01*
X10429199Y-12845000D01*
X10365089Y-12845000D01*
X10365209Y-12845758D01*
X10370559Y-12862225D01*
X10378420Y-12877652D01*
X10388597Y-12891660D01*
X10400840Y-12903903D01*
X10414848Y-12914080D01*
X10430274Y-12921941D01*
X10446742Y-12927291D01*
X10446741Y-12927291D01*
X10447500Y-12927411D01*
X10447500Y-12927411D01*
X10447500Y-12863301D01*
X10453201Y-12866592D01*
X10465917Y-12870000D01*
X10479083Y-12870000D01*
X10491799Y-12866592D01*
X10497500Y-12863301D01*
X10497500Y-12927411D01*
X10498258Y-12927291D01*
X10514726Y-12921941D01*
X10530152Y-12914080D01*
X10544160Y-12903903D01*
X10556403Y-12891660D01*
X10566580Y-12877652D01*
X10574441Y-12862225D01*
X10579791Y-12845758D01*
X10579912Y-12845000D01*
X10515801Y-12845000D01*
X10519093Y-12839299D01*
X10522500Y-12826583D01*
X10522500Y-12813417D01*
X10519093Y-12800701D01*
X10515801Y-12795000D01*
X10579912Y-12795000D01*
X10579912Y-12795000D01*
X10579791Y-12794241D01*
X10574441Y-12777774D01*
X10566580Y-12762347D01*
X10556403Y-12748340D01*
X10544160Y-12736097D01*
X10530152Y-12725919D01*
X10514726Y-12718059D01*
X10498259Y-12712709D01*
X10498258Y-12712708D01*
X10497500Y-12712588D01*
X10497500Y-12776699D01*
X10491799Y-12773407D01*
X10479083Y-12770000D01*
X10465917Y-12770000D01*
X10453201Y-12773407D01*
X10447500Y-12776699D01*
X10447500Y-12712588D01*
X10447500Y-12712588D01*
X10446742Y-12712708D01*
X10446741Y-12712709D01*
X10430274Y-12718059D01*
X10414848Y-12725919D01*
X10400840Y-12736097D01*
X10388597Y-12748340D01*
X10378420Y-12762347D01*
X10370559Y-12777774D01*
X10365209Y-12794241D01*
X10365088Y-12795000D01*
X10320635Y-12795000D01*
X10319513Y-12789359D01*
X10319513Y-12789358D01*
X10311594Y-12770240D01*
X10300098Y-12753034D01*
X10300098Y-12753034D01*
X10285466Y-12738402D01*
X10268666Y-12727177D01*
X10268260Y-12726906D01*
X10265878Y-12725919D01*
X10249142Y-12718987D01*
X10249141Y-12718987D01*
X10228847Y-12714950D01*
X10228847Y-12714950D01*
X10208154Y-12714950D01*
X10208153Y-12714950D01*
X10187859Y-12718987D01*
X10187858Y-12718987D01*
X10168740Y-12726906D01*
X10151534Y-12738402D01*
X10136902Y-12753034D01*
X10125406Y-12770240D01*
X10117487Y-12789358D01*
X10117487Y-12789359D01*
X10113450Y-12809653D01*
X10069550Y-12809653D01*
X10065513Y-12789358D01*
X10057594Y-12770240D01*
X10046098Y-12753034D01*
X10046098Y-12753034D01*
X10031466Y-12738402D01*
X10014666Y-12727177D01*
X10014260Y-12726906D01*
X10011878Y-12725919D01*
X9995142Y-12718987D01*
X9995141Y-12718987D01*
X9974847Y-12714950D01*
X9974847Y-12714950D01*
X9954154Y-12714950D01*
X9954153Y-12714950D01*
X9933859Y-12718987D01*
X9933858Y-12718987D01*
X9914740Y-12726906D01*
X9897534Y-12738402D01*
X9882902Y-12753034D01*
X9871406Y-12770240D01*
X9863487Y-12789358D01*
X9863487Y-12789359D01*
X9859450Y-12809653D01*
X9815550Y-12809653D01*
X9811513Y-12789358D01*
X9803594Y-12770240D01*
X9792098Y-12753034D01*
X9792098Y-12753034D01*
X9777466Y-12738402D01*
X9760666Y-12727177D01*
X9760260Y-12726906D01*
X9757878Y-12725919D01*
X9741142Y-12718987D01*
X9741141Y-12718987D01*
X9720847Y-12714950D01*
X9720847Y-12714950D01*
X9700154Y-12714950D01*
X9700153Y-12714950D01*
X9679859Y-12718987D01*
X9679858Y-12718987D01*
X9660740Y-12726906D01*
X9643534Y-12738402D01*
X9628902Y-12753034D01*
X9617406Y-12770240D01*
X9609487Y-12789358D01*
X9609487Y-12789359D01*
X9605450Y-12809653D01*
X9561550Y-12809653D01*
X9561550Y-12733025D01*
X9561550Y-12733025D01*
X9561550Y-12733025D01*
X9560387Y-12727177D01*
X9560387Y-12727177D01*
X9555955Y-12720545D01*
X9549323Y-12716113D01*
X9549323Y-12716113D01*
X9543475Y-12714950D01*
X9543475Y-12714950D01*
X9369525Y-12714950D01*
X9369525Y-12714950D01*
X9363677Y-12716113D01*
X9363677Y-12716113D01*
X9357045Y-12720545D01*
X9352613Y-12727177D01*
X9352613Y-12727177D01*
X9351450Y-12733025D01*
X8712800Y-12733025D01*
X8712800Y-12723113D01*
X8712800Y-12723113D01*
X8709918Y-12708624D01*
X8709918Y-12708623D01*
X8706766Y-12701014D01*
X8705391Y-12697695D01*
X8705282Y-12696675D01*
X10653380Y-12696675D01*
X10653380Y-12720984D01*
X10653380Y-12720986D01*
X10656553Y-12745087D01*
X10662845Y-12768568D01*
X10672147Y-12791027D01*
X10672148Y-12791029D01*
X10684303Y-12812081D01*
X10699102Y-12831368D01*
X10699103Y-12831369D01*
X10716291Y-12848557D01*
X10716292Y-12848558D01*
X10716292Y-12848558D01*
X10719008Y-12850642D01*
X10735578Y-12863357D01*
X10756631Y-12875512D01*
X10756633Y-12875512D01*
X10761799Y-12877652D01*
X10779091Y-12884815D01*
X10802573Y-12891107D01*
X10826675Y-12894280D01*
X10826676Y-12894280D01*
X10850984Y-12894280D01*
X10850985Y-12894280D01*
X10875087Y-12891107D01*
X10898569Y-12884815D01*
X10921028Y-12875512D01*
X10942082Y-12863357D01*
X10961368Y-12848558D01*
X10961368Y-12848557D01*
X10961369Y-12848557D01*
X10978557Y-12831369D01*
X10978557Y-12831368D01*
X10978558Y-12831368D01*
X10993357Y-12812081D01*
X11005512Y-12791028D01*
X11014815Y-12768569D01*
X11021107Y-12745087D01*
X11024280Y-12720985D01*
X11024280Y-12696675D01*
X11021107Y-12672573D01*
X11014815Y-12649091D01*
X11005512Y-12626631D01*
X11003615Y-12623345D01*
X10993357Y-12605578D01*
X10978558Y-12586292D01*
X10978557Y-12586291D01*
X10961369Y-12569103D01*
X10961368Y-12569102D01*
X10942082Y-12554303D01*
X10921029Y-12542148D01*
X10921027Y-12542147D01*
X10898569Y-12532845D01*
X10875087Y-12526553D01*
X10850986Y-12523380D01*
X10850986Y-12523380D01*
X10850985Y-12523380D01*
X10826675Y-12523380D01*
X10826674Y-12523380D01*
X10826674Y-12523380D01*
X10802573Y-12526553D01*
X10779091Y-12532845D01*
X10756633Y-12542147D01*
X10756631Y-12542148D01*
X10735578Y-12554303D01*
X10716292Y-12569102D01*
X10699102Y-12586292D01*
X10684303Y-12605578D01*
X10672148Y-12626631D01*
X10672147Y-12626633D01*
X10662845Y-12649091D01*
X10656553Y-12672573D01*
X10653380Y-12696674D01*
X10653380Y-12696675D01*
X8705282Y-12696675D01*
X8704644Y-12690748D01*
X8707772Y-12684500D01*
X8713781Y-12680935D01*
X8716847Y-12680550D01*
X8726655Y-12680550D01*
X8726655Y-12680550D01*
X8739512Y-12677105D01*
X8751038Y-12670450D01*
X8760450Y-12661038D01*
X8767105Y-12649512D01*
X8770550Y-12636655D01*
X8770550Y-12623345D01*
X8767105Y-12610488D01*
X8760450Y-12598962D01*
X8751038Y-12589550D01*
X8739512Y-12582895D01*
X8726655Y-12579450D01*
X8713345Y-12579450D01*
X8700488Y-12582895D01*
X8700488Y-12582895D01*
X8688962Y-12589550D01*
X8688961Y-12589550D01*
X8679550Y-12598961D01*
X8679550Y-12598962D01*
X8672895Y-12610488D01*
X8672895Y-12610488D01*
X8669450Y-12623345D01*
X8669450Y-12636655D01*
X8671372Y-12643829D01*
X8671315Y-12646221D01*
X8671698Y-12648583D01*
X8671234Y-12649650D01*
X8671206Y-12650814D01*
X8669864Y-12652796D01*
X8668909Y-12654990D01*
X8667557Y-12656204D01*
X8667289Y-12656600D01*
X8666284Y-12657348D01*
X8662800Y-12659676D01*
X8662800Y-12713801D01*
X8661806Y-12712079D01*
X8656221Y-12706494D01*
X8649380Y-12702544D01*
X8641750Y-12700500D01*
X8633850Y-12700500D01*
X8626220Y-12702544D01*
X8619380Y-12706494D01*
X8613794Y-12712079D01*
X8612800Y-12713801D01*
X8612800Y-12659676D01*
X8612800Y-12659676D01*
X8602275Y-12664036D01*
X8602274Y-12664036D01*
X8589990Y-12672244D01*
X8589990Y-12672244D01*
X8579544Y-12682690D01*
X8579544Y-12682690D01*
X8571336Y-12694973D01*
X8571336Y-12694974D01*
X8565682Y-12708623D01*
X8565682Y-12708624D01*
X8562800Y-12723113D01*
X7848800Y-12723113D01*
X7845918Y-12708624D01*
X7845918Y-12708623D01*
X7840264Y-12694974D01*
X7840264Y-12694973D01*
X7832056Y-12682690D01*
X7832056Y-12682690D01*
X7821610Y-12672244D01*
X7821610Y-12672244D01*
X7809326Y-12664036D01*
X7809325Y-12664036D01*
X7798800Y-12659676D01*
X7798800Y-12713801D01*
X7797806Y-12712079D01*
X7792220Y-12706494D01*
X7785380Y-12702544D01*
X7777750Y-12700500D01*
X7769850Y-12700500D01*
X7762220Y-12702544D01*
X7755379Y-12706494D01*
X7749794Y-12712079D01*
X7748800Y-12713801D01*
X7748800Y-12659676D01*
X7748800Y-12659676D01*
X7738274Y-12664036D01*
X7738273Y-12664036D01*
X7725990Y-12672244D01*
X7725990Y-12672244D01*
X7715544Y-12682690D01*
X7715544Y-12682690D01*
X7707336Y-12694973D01*
X7707336Y-12694974D01*
X7701682Y-12708623D01*
X7701682Y-12708624D01*
X7698800Y-12723113D01*
X7310650Y-12723113D01*
X7313050Y-12714155D01*
X7313050Y-12700845D01*
X7309605Y-12687988D01*
X7302950Y-12676462D01*
X7293538Y-12667050D01*
X7282012Y-12660395D01*
X7269155Y-12656950D01*
X7255845Y-12656950D01*
X7242988Y-12660395D01*
X7242988Y-12660395D01*
X7231462Y-12667050D01*
X7231461Y-12667050D01*
X7222050Y-12676461D01*
X7222050Y-12676462D01*
X7215395Y-12687988D01*
X7215395Y-12687988D01*
X7211950Y-12700845D01*
X6126620Y-12700845D01*
X6126620Y-12696675D01*
X6123447Y-12672573D01*
X6117155Y-12649091D01*
X6107852Y-12626631D01*
X6105955Y-12623345D01*
X6095697Y-12605578D01*
X6080898Y-12586292D01*
X6080897Y-12586291D01*
X6063709Y-12569103D01*
X6063708Y-12569102D01*
X6044422Y-12554303D01*
X6023369Y-12542148D01*
X6023367Y-12542147D01*
X6000909Y-12532845D01*
X5977427Y-12526553D01*
X5953326Y-12523380D01*
X5953326Y-12523380D01*
X5953325Y-12523380D01*
X5929015Y-12523380D01*
X5929014Y-12523380D01*
X5929014Y-12523380D01*
X5904913Y-12526553D01*
X5881431Y-12532845D01*
X5858973Y-12542147D01*
X5858971Y-12542148D01*
X5837918Y-12554303D01*
X5818632Y-12569102D01*
X5801442Y-12586292D01*
X5786643Y-12605578D01*
X5774488Y-12626631D01*
X5774488Y-12626633D01*
X5765185Y-12649091D01*
X5758893Y-12672573D01*
X5755720Y-12696674D01*
X5755720Y-12696675D01*
X5641220Y-12696675D01*
X5641220Y-12290113D01*
X7698800Y-12290113D01*
X7698800Y-12327500D01*
X7743800Y-12327500D01*
X7743800Y-12377500D01*
X7698800Y-12377500D01*
X7698800Y-12414887D01*
X7701682Y-12429376D01*
X7701682Y-12429377D01*
X7707336Y-12443025D01*
X7707336Y-12443026D01*
X7715544Y-12455310D01*
X7715544Y-12455310D01*
X7725990Y-12465756D01*
X7725991Y-12465757D01*
X7738274Y-12473964D01*
X7738274Y-12473964D01*
X7748800Y-12478324D01*
X7748800Y-12478324D01*
X7748800Y-12424199D01*
X7749794Y-12425920D01*
X7755379Y-12431506D01*
X7762220Y-12435456D01*
X7769850Y-12437500D01*
X7777750Y-12437500D01*
X7785380Y-12435456D01*
X7792220Y-12431506D01*
X7797806Y-12425920D01*
X7798800Y-12424199D01*
X7798800Y-12478324D01*
X7809326Y-12473964D01*
X7809326Y-12473964D01*
X7821609Y-12465757D01*
X7821610Y-12465756D01*
X7832056Y-12455310D01*
X7832056Y-12455310D01*
X7840264Y-12443026D01*
X7840264Y-12443025D01*
X7844435Y-12432957D01*
X7848819Y-12427517D01*
X7855448Y-12425310D01*
X7862218Y-12427038D01*
X7866629Y-12431502D01*
X7867469Y-12432957D01*
X7870428Y-12438082D01*
X7881218Y-12448871D01*
X7881218Y-12448872D01*
X7881218Y-12448872D01*
X7894432Y-12456501D01*
X7894432Y-12456501D01*
X7894432Y-12456501D01*
X7909171Y-12460450D01*
X7909171Y-12460450D01*
X7924429Y-12460450D01*
X7924429Y-12460450D01*
X7924429Y-12460450D01*
X7925235Y-12460344D01*
X7925278Y-12460669D01*
X7930731Y-12460797D01*
X7936519Y-12464712D01*
X7939271Y-12471134D01*
X7938114Y-12478024D01*
X7937698Y-12478809D01*
X7932895Y-12487128D01*
X7932895Y-12487128D01*
X7929450Y-12499985D01*
X7929450Y-12513295D01*
X7932895Y-12526152D01*
X7939550Y-12537678D01*
X7948962Y-12547090D01*
X7960488Y-12553745D01*
X7973345Y-12557190D01*
X7973345Y-12557190D01*
X7986655Y-12557190D01*
X7986655Y-12557190D01*
X7999512Y-12553745D01*
X8011038Y-12547090D01*
X8020450Y-12537678D01*
X8027105Y-12526152D01*
X8030550Y-12513295D01*
X8030550Y-12499985D01*
X8027105Y-12487128D01*
X8020450Y-12475602D01*
X8011038Y-12466190D01*
X8001698Y-12460797D01*
X7999512Y-12459535D01*
X7999512Y-12459535D01*
X7999512Y-12459535D01*
X7986655Y-12456090D01*
X7974252Y-12456090D01*
X7967548Y-12454121D01*
X7962973Y-12448841D01*
X7961978Y-12441925D01*
X7963513Y-12437490D01*
X7970801Y-12424868D01*
X7970800Y-12424868D01*
X7970801Y-12424868D01*
X7974750Y-12410129D01*
X7974750Y-12394871D01*
X8436850Y-12394871D01*
X8436850Y-12410129D01*
X8440799Y-12424868D01*
X8440799Y-12424868D01*
X8448428Y-12438082D01*
X8448428Y-12438082D01*
X8448429Y-12438082D01*
X8459218Y-12448871D01*
X8459218Y-12448872D01*
X8459218Y-12448872D01*
X8472432Y-12456501D01*
X8472432Y-12456501D01*
X8472432Y-12456501D01*
X8487171Y-12460450D01*
X8487171Y-12460450D01*
X8502429Y-12460450D01*
X8502429Y-12460450D01*
X8517168Y-12456501D01*
X8530382Y-12448871D01*
X8541172Y-12438082D01*
X8544970Y-12431502D01*
X8550027Y-12426681D01*
X8556888Y-12425358D01*
X8563374Y-12427955D01*
X8567165Y-12432957D01*
X8571336Y-12443025D01*
X8571336Y-12443026D01*
X8579544Y-12455310D01*
X8579544Y-12455310D01*
X8589990Y-12465756D01*
X8589991Y-12465757D01*
X8602274Y-12473964D01*
X8602274Y-12473964D01*
X8612800Y-12478324D01*
X8612800Y-12478324D01*
X8612800Y-12424199D01*
X8613794Y-12425920D01*
X8619380Y-12431506D01*
X8626220Y-12435456D01*
X8633850Y-12437500D01*
X8641750Y-12437500D01*
X8649380Y-12435456D01*
X8656221Y-12431506D01*
X8661806Y-12425920D01*
X8662800Y-12424199D01*
X8662800Y-12478324D01*
X8673326Y-12473964D01*
X8673326Y-12473964D01*
X8685609Y-12465757D01*
X8685610Y-12465756D01*
X8696056Y-12455310D01*
X8696056Y-12455310D01*
X8704264Y-12443026D01*
X8704264Y-12443025D01*
X8709918Y-12429377D01*
X8709918Y-12429376D01*
X8712800Y-12414887D01*
X8712800Y-12414887D01*
X8712800Y-12377500D01*
X8667800Y-12377500D01*
X8667800Y-12327500D01*
X8712800Y-12327500D01*
X8712800Y-12290113D01*
X8712800Y-12290113D01*
X8709918Y-12275624D01*
X8709918Y-12275623D01*
X8705730Y-12265513D01*
X8705730Y-12265513D01*
X8704264Y-12261975D01*
X8704264Y-12261973D01*
X8703865Y-12261377D01*
X9342450Y-12261377D01*
X9342450Y-12278623D01*
X9345814Y-12295537D01*
X9345815Y-12295538D01*
X9352414Y-12311470D01*
X9352415Y-12311471D01*
X9361995Y-12325810D01*
X9361996Y-12325810D01*
X9374190Y-12338004D01*
X9374190Y-12338004D01*
X9388529Y-12347585D01*
X9388530Y-12347586D01*
X9404462Y-12354185D01*
X9404463Y-12354185D01*
X9421377Y-12357550D01*
X9421377Y-12357550D01*
X9421377Y-12357550D01*
X9438623Y-12357550D01*
X9438623Y-12357550D01*
X9455537Y-12354185D01*
X9471471Y-12347586D01*
X9485810Y-12338004D01*
X9498005Y-12325810D01*
X9507586Y-12311470D01*
X9514186Y-12295537D01*
X9517550Y-12278623D01*
X9517550Y-12261377D01*
X9517550Y-12261377D01*
X9517550Y-12261377D01*
X9514186Y-12244463D01*
X9513825Y-12243592D01*
X9507586Y-12228530D01*
X9507586Y-12228530D01*
X9507586Y-12228529D01*
X9498005Y-12214190D01*
X9498004Y-12214190D01*
X9485810Y-12201996D01*
X9485810Y-12201995D01*
X9471471Y-12192414D01*
X9471470Y-12192414D01*
X9455538Y-12185815D01*
X9455537Y-12185814D01*
X9438623Y-12182450D01*
X9438623Y-12182450D01*
X9421377Y-12182450D01*
X9421377Y-12182450D01*
X9404463Y-12185814D01*
X9404462Y-12185815D01*
X9388530Y-12192414D01*
X9388529Y-12192414D01*
X9374190Y-12201995D01*
X9374190Y-12201996D01*
X9361996Y-12214190D01*
X9361995Y-12214190D01*
X9352415Y-12228529D01*
X9352414Y-12228530D01*
X9345815Y-12244462D01*
X9345814Y-12244463D01*
X9342450Y-12261377D01*
X8703865Y-12261377D01*
X8696056Y-12249690D01*
X8696056Y-12249690D01*
X8685610Y-12239244D01*
X8685610Y-12239244D01*
X8673326Y-12231036D01*
X8673325Y-12231036D01*
X8662800Y-12226676D01*
X8662800Y-12280801D01*
X8661806Y-12279079D01*
X8656221Y-12273494D01*
X8649380Y-12269544D01*
X8641750Y-12267500D01*
X8633850Y-12267500D01*
X8626220Y-12269544D01*
X8619380Y-12273494D01*
X8613794Y-12279079D01*
X8612800Y-12280801D01*
X8612800Y-12226676D01*
X8612800Y-12226676D01*
X8602275Y-12231036D01*
X8602274Y-12231036D01*
X8589990Y-12239244D01*
X8589990Y-12239244D01*
X8579544Y-12249690D01*
X8579544Y-12249690D01*
X8571336Y-12261973D01*
X8571336Y-12261974D01*
X8565682Y-12275623D01*
X8565682Y-12275624D01*
X8562800Y-12290113D01*
X8562800Y-12327500D01*
X8607800Y-12327500D01*
X8607800Y-12377500D01*
X8561480Y-12377500D01*
X8558256Y-12379260D01*
X8551287Y-12378762D01*
X8545693Y-12374574D01*
X8544881Y-12373344D01*
X8541172Y-12366918D01*
X8541172Y-12366918D01*
X8530382Y-12356128D01*
X8530382Y-12356128D01*
X8530382Y-12356128D01*
X8517168Y-12348499D01*
X8517168Y-12348499D01*
X8515960Y-12348175D01*
X8502429Y-12344550D01*
X8487171Y-12344550D01*
X8473640Y-12348175D01*
X8472432Y-12348499D01*
X8459218Y-12356128D01*
X8459218Y-12356129D01*
X8448429Y-12366918D01*
X8448428Y-12366918D01*
X8440799Y-12380132D01*
X8440799Y-12380132D01*
X8436850Y-12394871D01*
X7974750Y-12394871D01*
X7970801Y-12380132D01*
X7970428Y-12379487D01*
X7963172Y-12366918D01*
X7963171Y-12366918D01*
X7952382Y-12356129D01*
X7952382Y-12356128D01*
X7939168Y-12348499D01*
X7939168Y-12348499D01*
X7937959Y-12348175D01*
X7924429Y-12344550D01*
X7909171Y-12344550D01*
X7895640Y-12348175D01*
X7894432Y-12348499D01*
X7881218Y-12356128D01*
X7881218Y-12356129D01*
X7870429Y-12366918D01*
X7870428Y-12366918D01*
X7866718Y-12373344D01*
X7861662Y-12378165D01*
X7854801Y-12379487D01*
X7849837Y-12377500D01*
X7803800Y-12377500D01*
X7803800Y-12327500D01*
X7848800Y-12327500D01*
X7848800Y-12290113D01*
X7848800Y-12290113D01*
X7845918Y-12275624D01*
X7845918Y-12275623D01*
X7840264Y-12261974D01*
X7840264Y-12261973D01*
X7832056Y-12249690D01*
X7832056Y-12249690D01*
X7821610Y-12239244D01*
X7821610Y-12239244D01*
X7809326Y-12231036D01*
X7809325Y-12231036D01*
X7798800Y-12226676D01*
X7798800Y-12280801D01*
X7797806Y-12279079D01*
X7792220Y-12273494D01*
X7785380Y-12269544D01*
X7777750Y-12267500D01*
X7769850Y-12267500D01*
X7762220Y-12269544D01*
X7755379Y-12273494D01*
X7749794Y-12279079D01*
X7748800Y-12280801D01*
X7748800Y-12226676D01*
X7748800Y-12226676D01*
X7738274Y-12231036D01*
X7738273Y-12231036D01*
X7725990Y-12239244D01*
X7725990Y-12239244D01*
X7715544Y-12249690D01*
X7715544Y-12249690D01*
X7707336Y-12261973D01*
X7707336Y-12261974D01*
X7701682Y-12275623D01*
X7701682Y-12275624D01*
X7698800Y-12290113D01*
X5641220Y-12290113D01*
X5641220Y-12109537D01*
X10802500Y-12109537D01*
X10802500Y-12172000D01*
X10869199Y-12172000D01*
X10865908Y-12177701D01*
X10862500Y-12190417D01*
X10862500Y-12203583D01*
X10865908Y-12216299D01*
X10869199Y-12222000D01*
X10802500Y-12222000D01*
X10802500Y-12284463D01*
X10803950Y-12291754D01*
X10803951Y-12291754D01*
X10809476Y-12300024D01*
X10817746Y-12305549D01*
X10817746Y-12305550D01*
X10825037Y-12307000D01*
X10825037Y-12307000D01*
X10887500Y-12307000D01*
X10887500Y-12240301D01*
X10893201Y-12243592D01*
X10905917Y-12247000D01*
X10919083Y-12247000D01*
X10931799Y-12243592D01*
X10937500Y-12240301D01*
X10937500Y-12307000D01*
X10999963Y-12307000D01*
X10999963Y-12307000D01*
X11007254Y-12305550D01*
X11007254Y-12305549D01*
X11015524Y-12300024D01*
X11021049Y-12291754D01*
X11021050Y-12291754D01*
X11022500Y-12284463D01*
X11022500Y-12284463D01*
X11022500Y-12222000D01*
X10955801Y-12222000D01*
X10959093Y-12216299D01*
X10962500Y-12203583D01*
X10962500Y-12190417D01*
X10959093Y-12177701D01*
X10955801Y-12172000D01*
X11022500Y-12172000D01*
X11022500Y-12109537D01*
X11022500Y-12109537D01*
X11021050Y-12102246D01*
X11021049Y-12102245D01*
X11015524Y-12093976D01*
X11007254Y-12088450D01*
X11007254Y-12088450D01*
X10999963Y-12087000D01*
X10937500Y-12087000D01*
X10937500Y-12153699D01*
X10931799Y-12150407D01*
X10919083Y-12147000D01*
X10905917Y-12147000D01*
X10893201Y-12150407D01*
X10887500Y-12153699D01*
X10887500Y-12087000D01*
X10825037Y-12087000D01*
X10817746Y-12088450D01*
X10817746Y-12088450D01*
X10809476Y-12093976D01*
X10803951Y-12102245D01*
X10803950Y-12102246D01*
X10802500Y-12109537D01*
X5641220Y-12109537D01*
X5641220Y-11721620D01*
X6458500Y-11721620D01*
X6458500Y-11946380D01*
X6459603Y-11953347D01*
X6462373Y-11970835D01*
X6462373Y-11970835D01*
X6470024Y-11994382D01*
X6480834Y-12015597D01*
X6481265Y-12016443D01*
X6495818Y-12036474D01*
X6513326Y-12053982D01*
X6533357Y-12068535D01*
X6555418Y-12079776D01*
X6555418Y-12079776D01*
X6577382Y-12086912D01*
X6578965Y-12087427D01*
X6603420Y-12091300D01*
X6603420Y-12091300D01*
X6628180Y-12091300D01*
X6628180Y-12091300D01*
X6652634Y-12087427D01*
X6652635Y-12087427D01*
X6652635Y-12087427D01*
X6676182Y-12079776D01*
X6676182Y-12079776D01*
X6676182Y-12079776D01*
X6698243Y-12068535D01*
X6718274Y-12053982D01*
X6735782Y-12036474D01*
X6750335Y-12016443D01*
X6761576Y-11994382D01*
X6761576Y-11994382D01*
X6769227Y-11970835D01*
X6769227Y-11970835D01*
X6769227Y-11970834D01*
X6773100Y-11946380D01*
X6773100Y-11761377D01*
X9342450Y-11761377D01*
X9342450Y-11778623D01*
X9345814Y-11795537D01*
X9345815Y-11795538D01*
X9352414Y-11811470D01*
X9352415Y-11811471D01*
X9361995Y-11825810D01*
X9361996Y-11825810D01*
X9374190Y-11838004D01*
X9374190Y-11838004D01*
X9388529Y-11847585D01*
X9388530Y-11847586D01*
X9400158Y-11852402D01*
X9404463Y-11854185D01*
X9421377Y-11857550D01*
X9421377Y-11857550D01*
X9421377Y-11857550D01*
X9438623Y-11857550D01*
X9438623Y-11857550D01*
X9455537Y-11854185D01*
X9471471Y-11847586D01*
X9472310Y-11847025D01*
X10164950Y-11847025D01*
X10164950Y-12020975D01*
X10166113Y-12026823D01*
X10166113Y-12026823D01*
X10170545Y-12033455D01*
X10177177Y-12037887D01*
X10177177Y-12037887D01*
X10183025Y-12039050D01*
X10183025Y-12039050D01*
X10183025Y-12039050D01*
X10356975Y-12039050D01*
X10356975Y-12039050D01*
X10358457Y-12038755D01*
X10362823Y-12037887D01*
X10362823Y-12037887D01*
X10362823Y-12037887D01*
X10369455Y-12033455D01*
X10373887Y-12026823D01*
X10373887Y-12026823D01*
X10373887Y-12026823D01*
X10375050Y-12020975D01*
X10375050Y-12020975D01*
X10375050Y-11923653D01*
X10418950Y-11923653D01*
X10418950Y-11944347D01*
X10422987Y-11964641D01*
X10422987Y-11964642D01*
X10430906Y-11983760D01*
X10442402Y-12000966D01*
X10457034Y-12015597D01*
X10457035Y-12015598D01*
X10474240Y-12027094D01*
X10493358Y-12035013D01*
X10507805Y-12037887D01*
X10513653Y-12039050D01*
X10513653Y-12039050D01*
X10513654Y-12039050D01*
X10534347Y-12039050D01*
X10534347Y-12039050D01*
X10554642Y-12035013D01*
X10573760Y-12027094D01*
X10590966Y-12015598D01*
X10605598Y-12000965D01*
X10617094Y-11983760D01*
X10625013Y-11964642D01*
X10629050Y-11944346D01*
X10629050Y-11932653D01*
X10807450Y-11932653D01*
X10807450Y-11953347D01*
X10811487Y-11973641D01*
X10811487Y-11973642D01*
X10815678Y-11983760D01*
X10819406Y-11992760D01*
X10824889Y-12000965D01*
X10830902Y-12009966D01*
X10845534Y-12024597D01*
X10845535Y-12024598D01*
X10862740Y-12036094D01*
X10881858Y-12044013D01*
X10902153Y-12048050D01*
X10902153Y-12048050D01*
X10902154Y-12048050D01*
X10922847Y-12048050D01*
X10922847Y-12048050D01*
X10943142Y-12044013D01*
X10962260Y-12036094D01*
X10979466Y-12024598D01*
X10994098Y-12009965D01*
X11005594Y-11992760D01*
X11013513Y-11973642D01*
X11017550Y-11953346D01*
X11017550Y-11932653D01*
X11013513Y-11912358D01*
X11005594Y-11893240D01*
X10994098Y-11876034D01*
X10994098Y-11876034D01*
X10979466Y-11861402D01*
X10965996Y-11852402D01*
X10962260Y-11849906D01*
X10956659Y-11847586D01*
X10943142Y-11841987D01*
X10943141Y-11841987D01*
X10922847Y-11837950D01*
X10922847Y-11837950D01*
X10902154Y-11837950D01*
X10902153Y-11837950D01*
X10881859Y-11841987D01*
X10881858Y-11841987D01*
X10862740Y-11849906D01*
X10845534Y-11861402D01*
X10830902Y-11876034D01*
X10819406Y-11893240D01*
X10811487Y-11912358D01*
X10811487Y-11912359D01*
X10807450Y-11932653D01*
X10629050Y-11932653D01*
X10629050Y-11923653D01*
X10625013Y-11903358D01*
X10617094Y-11884240D01*
X10605598Y-11867034D01*
X10605598Y-11867034D01*
X10590966Y-11852402D01*
X10574166Y-11841177D01*
X10573760Y-11840906D01*
X10566755Y-11838004D01*
X10554642Y-11832987D01*
X10554641Y-11832987D01*
X10534347Y-11828950D01*
X10534347Y-11828950D01*
X10513654Y-11828950D01*
X10513653Y-11828950D01*
X10493359Y-11832987D01*
X10493358Y-11832987D01*
X10474240Y-11840906D01*
X10457034Y-11852402D01*
X10442402Y-11867034D01*
X10430906Y-11884240D01*
X10422987Y-11903358D01*
X10422987Y-11903359D01*
X10418950Y-11923653D01*
X10375050Y-11923653D01*
X10375050Y-11847025D01*
X10375050Y-11847025D01*
X10373887Y-11841177D01*
X10373887Y-11841177D01*
X10369455Y-11834545D01*
X10362823Y-11830113D01*
X10362823Y-11830113D01*
X10356975Y-11828950D01*
X10356975Y-11828950D01*
X10183025Y-11828950D01*
X10183025Y-11828950D01*
X10177177Y-11830113D01*
X10177177Y-11830113D01*
X10170545Y-11834545D01*
X10166113Y-11841177D01*
X10166113Y-11841177D01*
X10164950Y-11847025D01*
X9472310Y-11847025D01*
X9485810Y-11838004D01*
X9485864Y-11837950D01*
X9486167Y-11837648D01*
X9498004Y-11825810D01*
X9498005Y-11825810D01*
X9507586Y-11811470D01*
X9514186Y-11795537D01*
X9517550Y-11778623D01*
X9517550Y-11761377D01*
X9517550Y-11761377D01*
X9517550Y-11761377D01*
X9514683Y-11746966D01*
X9514186Y-11744463D01*
X9514185Y-11744462D01*
X9507586Y-11728530D01*
X9507585Y-11728529D01*
X9498005Y-11714190D01*
X9498004Y-11714190D01*
X9485810Y-11701996D01*
X9485810Y-11701995D01*
X9472112Y-11692842D01*
X9471471Y-11692414D01*
X9471470Y-11692414D01*
X9455538Y-11685815D01*
X9455537Y-11685814D01*
X9443123Y-11683345D01*
X9949450Y-11683345D01*
X9949450Y-11696655D01*
X9952895Y-11709512D01*
X9959550Y-11721038D01*
X9968962Y-11730450D01*
X9980488Y-11737105D01*
X9993345Y-11740550D01*
X9993345Y-11740550D01*
X10006655Y-11740550D01*
X10006655Y-11740550D01*
X10019512Y-11737105D01*
X10031038Y-11730450D01*
X10040450Y-11721038D01*
X10047105Y-11709512D01*
X10050550Y-11696655D01*
X10050550Y-11683345D01*
X10047105Y-11670488D01*
X10040559Y-11659150D01*
X10038912Y-11652360D01*
X10041197Y-11645757D01*
X10046689Y-11641438D01*
X10049470Y-11640685D01*
X10050379Y-11640550D01*
X10056655Y-11640550D01*
X10064524Y-11638441D01*
X10065222Y-11638337D01*
X10068011Y-11638724D01*
X10070826Y-11638791D01*
X10071425Y-11639197D01*
X10072143Y-11639296D01*
X10074280Y-11641129D01*
X10076612Y-11642707D01*
X10076897Y-11643373D01*
X10077447Y-11643844D01*
X10078254Y-11646542D01*
X10079362Y-11649130D01*
X10079445Y-11650523D01*
X10079450Y-11650538D01*
X10079447Y-11650548D01*
X10079450Y-11650602D01*
X10079450Y-11656655D01*
X10080494Y-11660550D01*
X10082895Y-11669511D01*
X10082895Y-11669512D01*
X10085108Y-11673345D01*
X10089550Y-11681038D01*
X10098962Y-11690450D01*
X10110488Y-11697105D01*
X10123345Y-11700550D01*
X10123345Y-11700550D01*
X10136655Y-11700550D01*
X10136655Y-11700550D01*
X10149512Y-11697105D01*
X10149579Y-11697066D01*
X10149644Y-11697050D01*
X10150263Y-11696794D01*
X10150303Y-11696890D01*
X10156369Y-11695418D01*
X10162972Y-11697703D01*
X10167291Y-11703195D01*
X10167941Y-11705385D01*
X10168987Y-11710641D01*
X10168987Y-11710642D01*
X10173293Y-11721038D01*
X10176906Y-11729760D01*
X10177434Y-11730550D01*
X10188402Y-11746966D01*
X10203034Y-11761597D01*
X10203035Y-11761598D01*
X10220240Y-11773094D01*
X10239358Y-11781013D01*
X10259653Y-11785050D01*
X10259653Y-11785050D01*
X10259654Y-11785050D01*
X10280347Y-11785050D01*
X10280347Y-11785050D01*
X10300642Y-11781013D01*
X10319760Y-11773094D01*
X10336966Y-11761598D01*
X10351598Y-11746965D01*
X10363094Y-11729760D01*
X10371013Y-11710642D01*
X10375050Y-11690346D01*
X10375050Y-11669653D01*
X10375050Y-11669653D01*
X10418950Y-11669653D01*
X10418950Y-11690347D01*
X10422987Y-11710641D01*
X10422987Y-11710642D01*
X10427293Y-11721038D01*
X10430906Y-11729760D01*
X10431434Y-11730550D01*
X10442402Y-11746966D01*
X10457034Y-11761597D01*
X10457035Y-11761598D01*
X10474240Y-11773094D01*
X10493358Y-11781013D01*
X10513653Y-11785050D01*
X10513653Y-11785050D01*
X10513654Y-11785050D01*
X10534347Y-11785050D01*
X10534347Y-11785050D01*
X10554642Y-11781013D01*
X10573760Y-11773094D01*
X10590966Y-11761598D01*
X10605598Y-11746965D01*
X10617094Y-11729760D01*
X10625013Y-11710642D01*
X10629050Y-11690346D01*
X10629050Y-11678653D01*
X10807450Y-11678653D01*
X10807450Y-11699347D01*
X10811487Y-11719641D01*
X10811487Y-11719642D01*
X10819406Y-11738760D01*
X10830902Y-11755966D01*
X10845534Y-11770597D01*
X10845535Y-11770598D01*
X10862740Y-11782094D01*
X10881858Y-11790013D01*
X10902153Y-11794050D01*
X10902153Y-11794050D01*
X10902154Y-11794050D01*
X10922847Y-11794050D01*
X10922847Y-11794050D01*
X10943142Y-11790013D01*
X10962260Y-11782094D01*
X10979466Y-11770598D01*
X10994098Y-11755965D01*
X11005594Y-11738760D01*
X11013513Y-11719642D01*
X11017550Y-11699346D01*
X11017550Y-11678653D01*
X11013513Y-11658358D01*
X11005594Y-11639240D01*
X10994098Y-11622034D01*
X10994098Y-11622034D01*
X10979466Y-11607402D01*
X10967586Y-11599465D01*
X10962260Y-11595906D01*
X10950102Y-11590870D01*
X10943142Y-11587987D01*
X10943141Y-11587987D01*
X10922847Y-11583950D01*
X10922847Y-11583950D01*
X10902154Y-11583950D01*
X10902153Y-11583950D01*
X10881859Y-11587987D01*
X10881858Y-11587987D01*
X10862740Y-11595906D01*
X10845534Y-11607402D01*
X10830902Y-11622034D01*
X10819406Y-11639240D01*
X10811487Y-11658358D01*
X10811487Y-11658359D01*
X10807450Y-11678653D01*
X10629050Y-11678653D01*
X10629050Y-11669653D01*
X10625013Y-11649358D01*
X10617094Y-11630240D01*
X10605598Y-11613034D01*
X10605598Y-11613034D01*
X10590966Y-11598402D01*
X10579121Y-11590488D01*
X10573760Y-11586906D01*
X10558472Y-11580573D01*
X10554642Y-11578987D01*
X10554641Y-11578987D01*
X10534347Y-11574950D01*
X10534347Y-11574950D01*
X10513654Y-11574950D01*
X10513653Y-11574950D01*
X10493359Y-11578987D01*
X10493358Y-11578987D01*
X10474240Y-11586906D01*
X10457034Y-11598402D01*
X10442402Y-11613034D01*
X10430906Y-11630240D01*
X10422987Y-11649358D01*
X10422987Y-11649359D01*
X10418950Y-11669653D01*
X10375050Y-11669653D01*
X10371013Y-11649358D01*
X10363094Y-11630240D01*
X10355762Y-11619266D01*
X10353674Y-11612598D01*
X10355522Y-11605860D01*
X10359872Y-11601638D01*
X10361930Y-11600450D01*
X10371342Y-11591038D01*
X10377997Y-11579512D01*
X10381442Y-11566655D01*
X10381442Y-11553345D01*
X10377997Y-11540488D01*
X10371342Y-11528962D01*
X10361930Y-11519550D01*
X10361440Y-11519267D01*
X10356945Y-11516671D01*
X10352123Y-11511615D01*
X10350801Y-11504754D01*
X10353398Y-11498267D01*
X10353717Y-11497878D01*
X10353903Y-11497660D01*
X10364080Y-11483652D01*
X10371941Y-11468225D01*
X10377291Y-11451758D01*
X10377412Y-11451000D01*
X10313301Y-11451000D01*
X10316593Y-11445299D01*
X10320000Y-11432583D01*
X10320000Y-11419417D01*
X10316593Y-11406701D01*
X10313301Y-11401000D01*
X10377412Y-11401000D01*
X10377412Y-11401000D01*
X10416588Y-11401000D01*
X10416589Y-11401000D01*
X10480699Y-11401000D01*
X10477408Y-11406701D01*
X10474000Y-11419417D01*
X10474000Y-11432583D01*
X10477408Y-11445299D01*
X10480699Y-11451000D01*
X10416589Y-11451000D01*
X10416709Y-11451758D01*
X10422059Y-11468225D01*
X10429920Y-11483652D01*
X10440097Y-11497660D01*
X10452340Y-11509903D01*
X10466348Y-11520080D01*
X10481774Y-11527941D01*
X10498242Y-11533291D01*
X10498241Y-11533291D01*
X10499000Y-11533411D01*
X10499000Y-11533411D01*
X10499000Y-11469301D01*
X10504701Y-11472592D01*
X10517417Y-11476000D01*
X10530583Y-11476000D01*
X10543299Y-11472592D01*
X10549000Y-11469301D01*
X10549000Y-11533411D01*
X10549758Y-11533291D01*
X10566226Y-11527941D01*
X10581652Y-11520080D01*
X10595660Y-11509903D01*
X10607903Y-11497660D01*
X10618080Y-11483652D01*
X10625941Y-11468225D01*
X10631291Y-11451758D01*
X10631412Y-11451000D01*
X10567301Y-11451000D01*
X10570593Y-11445299D01*
X10574000Y-11432583D01*
X10574000Y-11424653D01*
X10807450Y-11424653D01*
X10807450Y-11445347D01*
X10811487Y-11465641D01*
X10811487Y-11465642D01*
X10819406Y-11484760D01*
X10830902Y-11501966D01*
X10845534Y-11516597D01*
X10845535Y-11516598D01*
X10862740Y-11528094D01*
X10881858Y-11536013D01*
X10899137Y-11539450D01*
X10902153Y-11540050D01*
X10902153Y-11540050D01*
X10902154Y-11540050D01*
X10922847Y-11540050D01*
X10922847Y-11540050D01*
X10943142Y-11536013D01*
X10962260Y-11528094D01*
X10979466Y-11516598D01*
X10994098Y-11501965D01*
X11005594Y-11484760D01*
X11013513Y-11465642D01*
X11017550Y-11445346D01*
X11017550Y-11424653D01*
X11013513Y-11404358D01*
X11005594Y-11385240D01*
X10994098Y-11368034D01*
X10994098Y-11368034D01*
X10979466Y-11353402D01*
X10970863Y-11347654D01*
X10962260Y-11341906D01*
X10949583Y-11336655D01*
X10943142Y-11333987D01*
X10943141Y-11333987D01*
X10922847Y-11329950D01*
X10922847Y-11329950D01*
X10902154Y-11329950D01*
X10902153Y-11329950D01*
X10881859Y-11333987D01*
X10881858Y-11333987D01*
X10862740Y-11341906D01*
X10845534Y-11353402D01*
X10830902Y-11368034D01*
X10819406Y-11385240D01*
X10811487Y-11404358D01*
X10811487Y-11404359D01*
X10807450Y-11424653D01*
X10574000Y-11424653D01*
X10574000Y-11419417D01*
X10570593Y-11406701D01*
X10567301Y-11401000D01*
X10631412Y-11401000D01*
X10631412Y-11401000D01*
X10631291Y-11400241D01*
X10625941Y-11383774D01*
X10618080Y-11368347D01*
X10607903Y-11354340D01*
X10595660Y-11342097D01*
X10581652Y-11331919D01*
X10566226Y-11324059D01*
X10549759Y-11318709D01*
X10549758Y-11318708D01*
X10549000Y-11318588D01*
X10549000Y-11382699D01*
X10543299Y-11379407D01*
X10530583Y-11376000D01*
X10517417Y-11376000D01*
X10504701Y-11379407D01*
X10499000Y-11382699D01*
X10499000Y-11318588D01*
X10499000Y-11318588D01*
X10498242Y-11318708D01*
X10498241Y-11318709D01*
X10481774Y-11324059D01*
X10466348Y-11331919D01*
X10452340Y-11342097D01*
X10440097Y-11354340D01*
X10429920Y-11368347D01*
X10422059Y-11383774D01*
X10416709Y-11400241D01*
X10416588Y-11401000D01*
X10377412Y-11401000D01*
X10377291Y-11400241D01*
X10371941Y-11383774D01*
X10364080Y-11368347D01*
X10353903Y-11354340D01*
X10341660Y-11342097D01*
X10327652Y-11331919D01*
X10312226Y-11324059D01*
X10295759Y-11318709D01*
X10295758Y-11318708D01*
X10295000Y-11318588D01*
X10295000Y-11382699D01*
X10289299Y-11379407D01*
X10276583Y-11376000D01*
X10263417Y-11376000D01*
X10250701Y-11379407D01*
X10245000Y-11382699D01*
X10245000Y-11318588D01*
X10245000Y-11318588D01*
X10244242Y-11318708D01*
X10244241Y-11318709D01*
X10227774Y-11324059D01*
X10212348Y-11331919D01*
X10198340Y-11342097D01*
X10186097Y-11354340D01*
X10175920Y-11368347D01*
X10168059Y-11383774D01*
X10162709Y-11400241D01*
X10162588Y-11401000D01*
X10162589Y-11401000D01*
X10226699Y-11401000D01*
X10223408Y-11406701D01*
X10220000Y-11419417D01*
X10220000Y-11432583D01*
X10223408Y-11445299D01*
X10226699Y-11451000D01*
X10162589Y-11451000D01*
X10162709Y-11451758D01*
X10168059Y-11468225D01*
X10175920Y-11483652D01*
X10186097Y-11497660D01*
X10198340Y-11509903D01*
X10212348Y-11520080D01*
X10227774Y-11527941D01*
X10244242Y-11533291D01*
X10244241Y-11533291D01*
X10245000Y-11533411D01*
X10245000Y-11533411D01*
X10245000Y-11469301D01*
X10250701Y-11472592D01*
X10263417Y-11476000D01*
X10276583Y-11476000D01*
X10289299Y-11472592D01*
X10295000Y-11469301D01*
X10295000Y-11519267D01*
X10293032Y-11525971D01*
X10291368Y-11528035D01*
X10290442Y-11528961D01*
X10290442Y-11528962D01*
X10283787Y-11540488D01*
X10283787Y-11540488D01*
X10280342Y-11553345D01*
X10280342Y-11562550D01*
X10278373Y-11569254D01*
X10273093Y-11573829D01*
X10267942Y-11574950D01*
X10259653Y-11574950D01*
X10239359Y-11578987D01*
X10239358Y-11578987D01*
X10220240Y-11586906D01*
X10203034Y-11598402D01*
X10188403Y-11613034D01*
X10188402Y-11613034D01*
X10187232Y-11614786D01*
X10181870Y-11619267D01*
X10174938Y-11620137D01*
X10168635Y-11617121D01*
X10168154Y-11616665D01*
X10161039Y-11609550D01*
X10161038Y-11609550D01*
X10153354Y-11605113D01*
X10149512Y-11602895D01*
X10149512Y-11602895D01*
X10149512Y-11602895D01*
X10136655Y-11599450D01*
X10123345Y-11599450D01*
X10116159Y-11601375D01*
X10109174Y-11601209D01*
X10103388Y-11597293D01*
X10100638Y-11590870D01*
X10100550Y-11589398D01*
X10100550Y-11583345D01*
X10100550Y-11583345D01*
X10097105Y-11570488D01*
X10090450Y-11558962D01*
X10081038Y-11549550D01*
X10069512Y-11542895D01*
X10056655Y-11539450D01*
X10043345Y-11539450D01*
X10030488Y-11542895D01*
X10030488Y-11542895D01*
X10018962Y-11549550D01*
X10018961Y-11549550D01*
X10009550Y-11558961D01*
X10009550Y-11558962D01*
X10002895Y-11570488D01*
X10002895Y-11570488D01*
X9999450Y-11583345D01*
X9999450Y-11596655D01*
X10002330Y-11607402D01*
X10002895Y-11609511D01*
X10002895Y-11609512D01*
X10009441Y-11620850D01*
X10011088Y-11627640D01*
X10008803Y-11634243D01*
X10003311Y-11638562D01*
X9998702Y-11639450D01*
X9993345Y-11639450D01*
X9980488Y-11642895D01*
X9980488Y-11642895D01*
X9968962Y-11649550D01*
X9968961Y-11649550D01*
X9959550Y-11658961D01*
X9959550Y-11658962D01*
X9952895Y-11670488D01*
X9952895Y-11670488D01*
X9949450Y-11683345D01*
X9443123Y-11683345D01*
X9438623Y-11682450D01*
X9438623Y-11682450D01*
X9421377Y-11682450D01*
X9421377Y-11682450D01*
X9404463Y-11685814D01*
X9404462Y-11685815D01*
X9388530Y-11692414D01*
X9388529Y-11692414D01*
X9374190Y-11701995D01*
X9374190Y-11701996D01*
X9361996Y-11714190D01*
X9361995Y-11714190D01*
X9352415Y-11728529D01*
X9352414Y-11728530D01*
X9345815Y-11744462D01*
X9345814Y-11744463D01*
X9342450Y-11761377D01*
X6773100Y-11761377D01*
X6773100Y-11721620D01*
X6769227Y-11697165D01*
X6769227Y-11697165D01*
X6769227Y-11697165D01*
X6761576Y-11673618D01*
X6754917Y-11660550D01*
X6750335Y-11651557D01*
X6749602Y-11650548D01*
X6749074Y-11649821D01*
X6749074Y-11649821D01*
X6746121Y-11645757D01*
X6744369Y-11643345D01*
X7976950Y-11643345D01*
X7976950Y-11656655D01*
X7977994Y-11660550D01*
X7980395Y-11669511D01*
X7980395Y-11669512D01*
X7982608Y-11673345D01*
X7987050Y-11681038D01*
X7996462Y-11690450D01*
X8007988Y-11697105D01*
X8020845Y-11700550D01*
X8020845Y-11700550D01*
X8034155Y-11700550D01*
X8034155Y-11700550D01*
X8047012Y-11697105D01*
X8058538Y-11690450D01*
X8067950Y-11681038D01*
X8072392Y-11673345D01*
X9129450Y-11673345D01*
X9129450Y-11686655D01*
X9132895Y-11699512D01*
X9139550Y-11711038D01*
X9148962Y-11720450D01*
X9160488Y-11727105D01*
X9173345Y-11730550D01*
X9173345Y-11730550D01*
X9186655Y-11730550D01*
X9186655Y-11730550D01*
X9199512Y-11727105D01*
X9211038Y-11720450D01*
X9220450Y-11711038D01*
X9227105Y-11699512D01*
X9230550Y-11686655D01*
X9230550Y-11673345D01*
X9227105Y-11660488D01*
X9220450Y-11648962D01*
X9211038Y-11639550D01*
X9199512Y-11632895D01*
X9186655Y-11629450D01*
X9173345Y-11629450D01*
X9160488Y-11632895D01*
X9160488Y-11632895D01*
X9148962Y-11639550D01*
X9148961Y-11639550D01*
X9139550Y-11648961D01*
X9139550Y-11648962D01*
X9132895Y-11660488D01*
X9132895Y-11660488D01*
X9129450Y-11673345D01*
X8072392Y-11673345D01*
X8074605Y-11669512D01*
X8078050Y-11656655D01*
X8078050Y-11643345D01*
X8074605Y-11630488D01*
X8067950Y-11618962D01*
X8058538Y-11609550D01*
X8050854Y-11605113D01*
X8047791Y-11603345D01*
X8639450Y-11603345D01*
X8639450Y-11616655D01*
X8640892Y-11622034D01*
X8642895Y-11629511D01*
X8642895Y-11629512D01*
X8644848Y-11632895D01*
X8649550Y-11641038D01*
X8658962Y-11650450D01*
X8670488Y-11657105D01*
X8683345Y-11660550D01*
X8683345Y-11660550D01*
X8696655Y-11660550D01*
X8696655Y-11660550D01*
X8709512Y-11657105D01*
X8721038Y-11650450D01*
X8730450Y-11641038D01*
X8737105Y-11629512D01*
X8740550Y-11616655D01*
X8740550Y-11603345D01*
X8737105Y-11590488D01*
X8730450Y-11578962D01*
X8721038Y-11569550D01*
X8709512Y-11562895D01*
X8696655Y-11559450D01*
X8683345Y-11559450D01*
X8670488Y-11562895D01*
X8670488Y-11562895D01*
X8658962Y-11569550D01*
X8658961Y-11569550D01*
X8649550Y-11578961D01*
X8649550Y-11578962D01*
X8642895Y-11590488D01*
X8642895Y-11590488D01*
X8639450Y-11603345D01*
X8047791Y-11603345D01*
X8047012Y-11602895D01*
X8047012Y-11602895D01*
X8047012Y-11602895D01*
X8034155Y-11599450D01*
X8020845Y-11599450D01*
X8007988Y-11602895D01*
X8007988Y-11602895D01*
X7996462Y-11609550D01*
X7996461Y-11609550D01*
X7987050Y-11618961D01*
X7987050Y-11618962D01*
X7980395Y-11630488D01*
X7980395Y-11630488D01*
X7976950Y-11643345D01*
X6744369Y-11643345D01*
X6735782Y-11631526D01*
X6718274Y-11614018D01*
X6698243Y-11599465D01*
X6693980Y-11597293D01*
X6676182Y-11588224D01*
X6652635Y-11580573D01*
X6636331Y-11577991D01*
X6628180Y-11576700D01*
X6603420Y-11576700D01*
X6595269Y-11577991D01*
X6578965Y-11580573D01*
X6578965Y-11580573D01*
X6555418Y-11588224D01*
X6533357Y-11599465D01*
X6513326Y-11614018D01*
X6495818Y-11631526D01*
X6481265Y-11651557D01*
X6470024Y-11673618D01*
X6462373Y-11697165D01*
X6462373Y-11697165D01*
X6460418Y-11709512D01*
X6458500Y-11721620D01*
X5641220Y-11721620D01*
X5641220Y-11553345D01*
X8929450Y-11553345D01*
X8929450Y-11566655D01*
X8932895Y-11579512D01*
X8939550Y-11591038D01*
X8948962Y-11600450D01*
X8960488Y-11607105D01*
X8973345Y-11610550D01*
X8973345Y-11610550D01*
X8986655Y-11610550D01*
X8986655Y-11610550D01*
X8999512Y-11607105D01*
X9011038Y-11600450D01*
X9020450Y-11591038D01*
X9027105Y-11579512D01*
X9030550Y-11566655D01*
X9030550Y-11553345D01*
X9027105Y-11540488D01*
X9020450Y-11528962D01*
X9011038Y-11519550D01*
X8999512Y-11512895D01*
X8986655Y-11509450D01*
X8973345Y-11509450D01*
X8960488Y-11512895D01*
X8960488Y-11512895D01*
X8948962Y-11519550D01*
X8948961Y-11519550D01*
X8939550Y-11528961D01*
X8939550Y-11528962D01*
X8932895Y-11540488D01*
X8932895Y-11540488D01*
X8929450Y-11553345D01*
X5641220Y-11553345D01*
X5641220Y-10959620D01*
X6204500Y-10959620D01*
X6204500Y-11184380D01*
X6205603Y-11191347D01*
X6208373Y-11208835D01*
X6208373Y-11208835D01*
X6216024Y-11232382D01*
X6225281Y-11250550D01*
X6227265Y-11254443D01*
X6241818Y-11274474D01*
X6259326Y-11291982D01*
X6279357Y-11306535D01*
X6288561Y-11311225D01*
X6301418Y-11317776D01*
X6323382Y-11324912D01*
X6324965Y-11325427D01*
X6349420Y-11329300D01*
X6349420Y-11329300D01*
X6374180Y-11329300D01*
X6374180Y-11329300D01*
X6398634Y-11325427D01*
X6398635Y-11325427D01*
X6398635Y-11325427D01*
X6422182Y-11317776D01*
X6422182Y-11317776D01*
X6422182Y-11317776D01*
X6444243Y-11306535D01*
X6464274Y-11291982D01*
X6481782Y-11274474D01*
X6496335Y-11254443D01*
X6507576Y-11232382D01*
X6508012Y-11231038D01*
X6515227Y-11208835D01*
X6515227Y-11208835D01*
X6515227Y-11208834D01*
X6519100Y-11184380D01*
X6519100Y-10959620D01*
X6515227Y-10935166D01*
X6515227Y-10935165D01*
X6515227Y-10935165D01*
X6507576Y-10911618D01*
X6503926Y-10904455D01*
X6496335Y-10889557D01*
X6481782Y-10869526D01*
X6464274Y-10852018D01*
X6444243Y-10837465D01*
X6435038Y-10832775D01*
X6712500Y-10832775D01*
X6712500Y-11311225D01*
X6713663Y-11317073D01*
X6713663Y-11317073D01*
X6718095Y-11323705D01*
X6724727Y-11328137D01*
X6724727Y-11328137D01*
X6730575Y-11329300D01*
X6730575Y-11329300D01*
X6730575Y-11329300D01*
X7009025Y-11329300D01*
X7009025Y-11329300D01*
X7010507Y-11329005D01*
X7014873Y-11328137D01*
X7014873Y-11328137D01*
X7014873Y-11328137D01*
X7021505Y-11323705D01*
X7021746Y-11323345D01*
X7999450Y-11323345D01*
X7999450Y-11336655D01*
X8002895Y-11349512D01*
X8009550Y-11361038D01*
X8018962Y-11370450D01*
X8030488Y-11377105D01*
X8043345Y-11380550D01*
X8043345Y-11380550D01*
X8056655Y-11380550D01*
X8056655Y-11380550D01*
X8069512Y-11377105D01*
X8081038Y-11370450D01*
X8090450Y-11361038D01*
X8097105Y-11349512D01*
X8100550Y-11336655D01*
X8100550Y-11335614D01*
X8529450Y-11335614D01*
X8529450Y-11348924D01*
X8532895Y-11361780D01*
X8539550Y-11373307D01*
X8548962Y-11382719D01*
X8560488Y-11389374D01*
X8573345Y-11392819D01*
X8573345Y-11392819D01*
X8586655Y-11392819D01*
X8586655Y-11392819D01*
X8599512Y-11389374D01*
X8611038Y-11382719D01*
X8620450Y-11373307D01*
X8627105Y-11361780D01*
X8630550Y-11348924D01*
X8630550Y-11335614D01*
X8627905Y-11325742D01*
X8627905Y-11325741D01*
X8627263Y-11323345D01*
X9959450Y-11323345D01*
X9959450Y-11336655D01*
X9962895Y-11349512D01*
X9969550Y-11361038D01*
X9978962Y-11370450D01*
X9990488Y-11377105D01*
X10003345Y-11380550D01*
X10003345Y-11380550D01*
X10016655Y-11380550D01*
X10016655Y-11380550D01*
X10029512Y-11377105D01*
X10041038Y-11370450D01*
X10050450Y-11361038D01*
X10057105Y-11349512D01*
X10060550Y-11336655D01*
X10060550Y-11323345D01*
X10057105Y-11310488D01*
X10050450Y-11298962D01*
X10041038Y-11289550D01*
X10032116Y-11284398D01*
X10029512Y-11282895D01*
X10029512Y-11282895D01*
X10029512Y-11282895D01*
X10016655Y-11279450D01*
X10003345Y-11279450D01*
X9990488Y-11282895D01*
X9990488Y-11282895D01*
X9978962Y-11289550D01*
X9978961Y-11289550D01*
X9969550Y-11298961D01*
X9969550Y-11298962D01*
X9962895Y-11310488D01*
X9962895Y-11310488D01*
X9959450Y-11323345D01*
X8627263Y-11323345D01*
X8627105Y-11322757D01*
X8627105Y-11322757D01*
X8620450Y-11311230D01*
X8611038Y-11301819D01*
X8599512Y-11295164D01*
X8586655Y-11291719D01*
X8573345Y-11291719D01*
X8560488Y-11295164D01*
X8560488Y-11295164D01*
X8548962Y-11301818D01*
X8548961Y-11301819D01*
X8539550Y-11311230D01*
X8539550Y-11311231D01*
X8532895Y-11322757D01*
X8532895Y-11322757D01*
X8529450Y-11335614D01*
X8100550Y-11335614D01*
X8100550Y-11323345D01*
X8097105Y-11310488D01*
X8090450Y-11298962D01*
X8081038Y-11289550D01*
X8072116Y-11284398D01*
X8069512Y-11282895D01*
X8069512Y-11282895D01*
X8069512Y-11282895D01*
X8056655Y-11279450D01*
X8043345Y-11279450D01*
X8030488Y-11282895D01*
X8030488Y-11282895D01*
X8018962Y-11289550D01*
X8018961Y-11289550D01*
X8009550Y-11298961D01*
X8009550Y-11298962D01*
X8002895Y-11310488D01*
X8002895Y-11310488D01*
X7999450Y-11323345D01*
X7021746Y-11323345D01*
X7025937Y-11317073D01*
X7025937Y-11317073D01*
X7025937Y-11317073D01*
X7027099Y-11311230D01*
X7027100Y-11311225D01*
X7027100Y-11183345D01*
X7429450Y-11183345D01*
X7429450Y-11196655D01*
X7432895Y-11209512D01*
X7439550Y-11221038D01*
X7448962Y-11230450D01*
X7460488Y-11237105D01*
X7473345Y-11240550D01*
X7473345Y-11240550D01*
X7486655Y-11240550D01*
X7486655Y-11240550D01*
X7499512Y-11237105D01*
X7511038Y-11230450D01*
X7520450Y-11221038D01*
X7527105Y-11209512D01*
X7530550Y-11196655D01*
X7530550Y-11193345D01*
X7989450Y-11193345D01*
X7989450Y-11206655D01*
X7991126Y-11212910D01*
X7992895Y-11219511D01*
X7992895Y-11219512D01*
X7994517Y-11222322D01*
X7999550Y-11231038D01*
X8008962Y-11240450D01*
X8020488Y-11247105D01*
X8033345Y-11250550D01*
X8033345Y-11250550D01*
X8046655Y-11250550D01*
X8046655Y-11250550D01*
X8059512Y-11247105D01*
X8060205Y-11246705D01*
X9109450Y-11246705D01*
X9109450Y-11260015D01*
X9112895Y-11272872D01*
X9119550Y-11284398D01*
X9128962Y-11293810D01*
X9140488Y-11300465D01*
X9153345Y-11303910D01*
X9153345Y-11303910D01*
X9166655Y-11303910D01*
X9166655Y-11303910D01*
X9179512Y-11300465D01*
X9191038Y-11293810D01*
X9200450Y-11284398D01*
X9207105Y-11272872D01*
X9210550Y-11260015D01*
X9210550Y-11246705D01*
X9207105Y-11233848D01*
X9200450Y-11222322D01*
X9191038Y-11212910D01*
X9180204Y-11206655D01*
X9179512Y-11206255D01*
X9179512Y-11206255D01*
X9179512Y-11206255D01*
X9166655Y-11202810D01*
X9153345Y-11202810D01*
X9140488Y-11206255D01*
X9140488Y-11206255D01*
X9128962Y-11212910D01*
X9128961Y-11212910D01*
X9119550Y-11222321D01*
X9119550Y-11222322D01*
X9112895Y-11233848D01*
X9112895Y-11233848D01*
X9109450Y-11246705D01*
X8060205Y-11246705D01*
X8071038Y-11240450D01*
X8080450Y-11231038D01*
X8087105Y-11219512D01*
X8090550Y-11206655D01*
X8090550Y-11193345D01*
X8088205Y-11184595D01*
X8600700Y-11184595D01*
X8600700Y-11197905D01*
X8604145Y-11210762D01*
X8610800Y-11222288D01*
X8620212Y-11231700D01*
X8631738Y-11238355D01*
X8644595Y-11241800D01*
X8644595Y-11241800D01*
X8657905Y-11241800D01*
X8657905Y-11241800D01*
X8670762Y-11238355D01*
X8682288Y-11231700D01*
X8691700Y-11222288D01*
X8698355Y-11210762D01*
X8701800Y-11197905D01*
X8701800Y-11184595D01*
X8698761Y-11173254D01*
X8698761Y-11173253D01*
X8698355Y-11171739D01*
X8698355Y-11171738D01*
X8697728Y-11170653D01*
X10807450Y-11170653D01*
X10807450Y-11191347D01*
X10811487Y-11211641D01*
X10811487Y-11211642D01*
X10819278Y-11230450D01*
X10819406Y-11230760D01*
X10824481Y-11238355D01*
X10830902Y-11247966D01*
X10845534Y-11262597D01*
X10845535Y-11262598D01*
X10862740Y-11274094D01*
X10881858Y-11282013D01*
X10902153Y-11286050D01*
X10902153Y-11286050D01*
X10902154Y-11286050D01*
X10922847Y-11286050D01*
X10922847Y-11286050D01*
X10943142Y-11282013D01*
X10962260Y-11274094D01*
X10979466Y-11262598D01*
X10994098Y-11247965D01*
X11005594Y-11230760D01*
X11013513Y-11211642D01*
X11017550Y-11191346D01*
X11017550Y-11170654D01*
X11013513Y-11150358D01*
X11005594Y-11131240D01*
X10994098Y-11114035D01*
X10994098Y-11114034D01*
X10979466Y-11099402D01*
X10970863Y-11093654D01*
X10962260Y-11087906D01*
X10943142Y-11079987D01*
X10943141Y-11079987D01*
X10922847Y-11075950D01*
X10922847Y-11075950D01*
X10902154Y-11075950D01*
X10902153Y-11075950D01*
X10881859Y-11079987D01*
X10881858Y-11079987D01*
X10862740Y-11087906D01*
X10845534Y-11099402D01*
X10830902Y-11114034D01*
X10819406Y-11131240D01*
X10811487Y-11150358D01*
X10811487Y-11150359D01*
X10807450Y-11170653D01*
X8697728Y-11170653D01*
X8691700Y-11160212D01*
X8682288Y-11150800D01*
X8670762Y-11144145D01*
X8657905Y-11140700D01*
X8644595Y-11140700D01*
X8631738Y-11144145D01*
X8631738Y-11144145D01*
X8620212Y-11150800D01*
X8620211Y-11150800D01*
X8610800Y-11160211D01*
X8610800Y-11160212D01*
X8604145Y-11171738D01*
X8604145Y-11171738D01*
X8600700Y-11184595D01*
X8088205Y-11184595D01*
X8087105Y-11180488D01*
X8080450Y-11168962D01*
X8071038Y-11159550D01*
X8059512Y-11152895D01*
X8046655Y-11149450D01*
X8033345Y-11149450D01*
X8020488Y-11152895D01*
X8020488Y-11152895D01*
X8008962Y-11159550D01*
X8008961Y-11159550D01*
X7999550Y-11168961D01*
X7999550Y-11168962D01*
X7992895Y-11180488D01*
X7992895Y-11180488D01*
X7992895Y-11180488D01*
X7989450Y-11193345D01*
X7530550Y-11193345D01*
X7530550Y-11183345D01*
X7527105Y-11170488D01*
X7520450Y-11158962D01*
X7511038Y-11149550D01*
X7499512Y-11142895D01*
X7486655Y-11139450D01*
X7473345Y-11139450D01*
X7460488Y-11142895D01*
X7460488Y-11142895D01*
X7448962Y-11149550D01*
X7448961Y-11149550D01*
X7439550Y-11158961D01*
X7439550Y-11158962D01*
X7432895Y-11170488D01*
X7432895Y-11170488D01*
X7429450Y-11183345D01*
X7027100Y-11183345D01*
X7027100Y-10922500D01*
X8322500Y-10922500D01*
X8325000Y-10925000D01*
X8880000Y-10925000D01*
X8880000Y-10794653D01*
X10045450Y-10794653D01*
X10045450Y-10815347D01*
X10049487Y-10835641D01*
X10049487Y-10835642D01*
X10057406Y-10854760D01*
X10068902Y-10871966D01*
X10083534Y-10886598D01*
X10083535Y-10886598D01*
X10100740Y-10898094D01*
X10119858Y-10906013D01*
X10134305Y-10908887D01*
X10140153Y-10910050D01*
X10140153Y-10910050D01*
X10140154Y-10910050D01*
X10160847Y-10910050D01*
X10160847Y-10910050D01*
X10181142Y-10906013D01*
X10200260Y-10898094D01*
X10217466Y-10886598D01*
X10232098Y-10871966D01*
X10243594Y-10854760D01*
X10251513Y-10835642D01*
X10255550Y-10815347D01*
X10255550Y-10794654D01*
X10255550Y-10794653D01*
X10299450Y-10794653D01*
X10299450Y-10815347D01*
X10303487Y-10835641D01*
X10303487Y-10835642D01*
X10311406Y-10854760D01*
X10322902Y-10871966D01*
X10337534Y-10886598D01*
X10337535Y-10886598D01*
X10354740Y-10898094D01*
X10373858Y-10906013D01*
X10388305Y-10908887D01*
X10394153Y-10910050D01*
X10394153Y-10910050D01*
X10394154Y-10910050D01*
X10414847Y-10910050D01*
X10414847Y-10910050D01*
X10435142Y-10906013D01*
X10454260Y-10898094D01*
X10471466Y-10886598D01*
X10486098Y-10871966D01*
X10497594Y-10854760D01*
X10505513Y-10835642D01*
X10509550Y-10815347D01*
X10509550Y-10794654D01*
X10509550Y-10794653D01*
X10553450Y-10794653D01*
X10553450Y-10815347D01*
X10557487Y-10835641D01*
X10557487Y-10835642D01*
X10565406Y-10854760D01*
X10576902Y-10871966D01*
X10591534Y-10886598D01*
X10591535Y-10886598D01*
X10608740Y-10898094D01*
X10627858Y-10906013D01*
X10642305Y-10908887D01*
X10648153Y-10910050D01*
X10648153Y-10910050D01*
X10648154Y-10910050D01*
X10668847Y-10910050D01*
X10668847Y-10910050D01*
X10689142Y-10906013D01*
X10708260Y-10898094D01*
X10725466Y-10886598D01*
X10740098Y-10871966D01*
X10751594Y-10854760D01*
X10759513Y-10835642D01*
X10763550Y-10815347D01*
X10763550Y-10794654D01*
X10759513Y-10774358D01*
X10751594Y-10755240D01*
X10740098Y-10738035D01*
X10740098Y-10738034D01*
X10725466Y-10723402D01*
X10717417Y-10718025D01*
X10807450Y-10718025D01*
X10807450Y-10891975D01*
X10808613Y-10897823D01*
X10808613Y-10897823D01*
X10813045Y-10904455D01*
X10819677Y-10908887D01*
X10819677Y-10908887D01*
X10825525Y-10910050D01*
X10825525Y-10910050D01*
X10825525Y-10910050D01*
X10999475Y-10910050D01*
X10999475Y-10910050D01*
X11000957Y-10909755D01*
X11005323Y-10908887D01*
X11005323Y-10908887D01*
X11005323Y-10908887D01*
X11011955Y-10904455D01*
X11016387Y-10897823D01*
X11016387Y-10897823D01*
X11016387Y-10897823D01*
X11017550Y-10891975D01*
X11017550Y-10891975D01*
X11017550Y-10718025D01*
X11017550Y-10718025D01*
X11016387Y-10712177D01*
X11016387Y-10712177D01*
X11011955Y-10705545D01*
X11005323Y-10701113D01*
X11005323Y-10701113D01*
X10999475Y-10699950D01*
X10999475Y-10699950D01*
X10825525Y-10699950D01*
X10825525Y-10699950D01*
X10819677Y-10701113D01*
X10819677Y-10701113D01*
X10813045Y-10705545D01*
X10808613Y-10712177D01*
X10808613Y-10712177D01*
X10807450Y-10718025D01*
X10717417Y-10718025D01*
X10713947Y-10715706D01*
X10708260Y-10711906D01*
X10707506Y-10711594D01*
X10689142Y-10703987D01*
X10689141Y-10703987D01*
X10668847Y-10699950D01*
X10668847Y-10699950D01*
X10648154Y-10699950D01*
X10648153Y-10699950D01*
X10627859Y-10703987D01*
X10627858Y-10703987D01*
X10608740Y-10711906D01*
X10591534Y-10723402D01*
X10576902Y-10738034D01*
X10565406Y-10755240D01*
X10557487Y-10774358D01*
X10557487Y-10774359D01*
X10553450Y-10794653D01*
X10509550Y-10794653D01*
X10505513Y-10774358D01*
X10497594Y-10755240D01*
X10486098Y-10738035D01*
X10486098Y-10738034D01*
X10471466Y-10723402D01*
X10459947Y-10715706D01*
X10454260Y-10711906D01*
X10453506Y-10711594D01*
X10435142Y-10703987D01*
X10435141Y-10703987D01*
X10414847Y-10699950D01*
X10414847Y-10699950D01*
X10394154Y-10699950D01*
X10394153Y-10699950D01*
X10373859Y-10703987D01*
X10373858Y-10703987D01*
X10354740Y-10711906D01*
X10337534Y-10723402D01*
X10322902Y-10738034D01*
X10311406Y-10755240D01*
X10303487Y-10774358D01*
X10303487Y-10774359D01*
X10299450Y-10794653D01*
X10255550Y-10794653D01*
X10251513Y-10774358D01*
X10243594Y-10755240D01*
X10232098Y-10738035D01*
X10232098Y-10738034D01*
X10217466Y-10723402D01*
X10205947Y-10715706D01*
X10200260Y-10711906D01*
X10199506Y-10711594D01*
X10181142Y-10703987D01*
X10181141Y-10703987D01*
X10160847Y-10699950D01*
X10160847Y-10699950D01*
X10140154Y-10699950D01*
X10140153Y-10699950D01*
X10119859Y-10703987D01*
X10119858Y-10703987D01*
X10100740Y-10711906D01*
X10083534Y-10723402D01*
X10068902Y-10738034D01*
X10057406Y-10755240D01*
X10049487Y-10774358D01*
X10049487Y-10774359D01*
X10045450Y-10794653D01*
X8880000Y-10794653D01*
X8880000Y-10630845D01*
X9859450Y-10630845D01*
X9859450Y-10644155D01*
X9862895Y-10657012D01*
X9869550Y-10668538D01*
X9878962Y-10677950D01*
X9890488Y-10684605D01*
X9903345Y-10688050D01*
X9903345Y-10688050D01*
X9916655Y-10688050D01*
X9916655Y-10688050D01*
X9929512Y-10684605D01*
X9941038Y-10677950D01*
X9950450Y-10668538D01*
X9957105Y-10657012D01*
X9960550Y-10644155D01*
X9960550Y-10630845D01*
X9957871Y-10620845D01*
X10176090Y-10620845D01*
X10176090Y-10634155D01*
X10179535Y-10647012D01*
X10186190Y-10658538D01*
X10195602Y-10667950D01*
X10207128Y-10674605D01*
X10219985Y-10678050D01*
X10219985Y-10678050D01*
X10233295Y-10678050D01*
X10233295Y-10678050D01*
X10246152Y-10674605D01*
X10257678Y-10667950D01*
X10267090Y-10658538D01*
X10273745Y-10647012D01*
X10277190Y-10634155D01*
X10277190Y-10620845D01*
X10273745Y-10607988D01*
X10267090Y-10596462D01*
X10257678Y-10587050D01*
X10246152Y-10580395D01*
X10244530Y-10579960D01*
X10244530Y-10579960D01*
X10233874Y-10577105D01*
X10233295Y-10576950D01*
X10219985Y-10576950D01*
X10207128Y-10580395D01*
X10207128Y-10580395D01*
X10195602Y-10587050D01*
X10195601Y-10587050D01*
X10186190Y-10596461D01*
X10186190Y-10596462D01*
X10179535Y-10607988D01*
X10179535Y-10607988D01*
X10176090Y-10620845D01*
X9957871Y-10620845D01*
X9957105Y-10617988D01*
X9950450Y-10606462D01*
X9941038Y-10597050D01*
X9929512Y-10590395D01*
X9916655Y-10586950D01*
X9903345Y-10586950D01*
X9890488Y-10590395D01*
X9890488Y-10590395D01*
X9878962Y-10597050D01*
X9878961Y-10597050D01*
X9869550Y-10606461D01*
X9869550Y-10606462D01*
X9862895Y-10617988D01*
X9862895Y-10617988D01*
X9859450Y-10630845D01*
X8880000Y-10630845D01*
X8880000Y-10543345D01*
X9029450Y-10543345D01*
X9029450Y-10556655D01*
X9032250Y-10567105D01*
X9032895Y-10569512D01*
X9032895Y-10569512D01*
X9033494Y-10570550D01*
X9039550Y-10581038D01*
X9048962Y-10590450D01*
X9060488Y-10597105D01*
X9073345Y-10600550D01*
X9073345Y-10600550D01*
X9086655Y-10600550D01*
X9086655Y-10600550D01*
X9099512Y-10597105D01*
X9111038Y-10590450D01*
X9120450Y-10581038D01*
X9127105Y-10569512D01*
X9130550Y-10556655D01*
X9130550Y-10543345D01*
X9127105Y-10530488D01*
X9122981Y-10523345D01*
X10089450Y-10523345D01*
X10089450Y-10536655D01*
X10091243Y-10543345D01*
X10092895Y-10549512D01*
X10092895Y-10549512D01*
X10093776Y-10551038D01*
X10099550Y-10561038D01*
X10108962Y-10570450D01*
X10120488Y-10577105D01*
X10133345Y-10580550D01*
X10133345Y-10580550D01*
X10146655Y-10580550D01*
X10146655Y-10580550D01*
X10159512Y-10577105D01*
X10171038Y-10570450D01*
X10180450Y-10561038D01*
X10187105Y-10549512D01*
X10190550Y-10536655D01*
X10190550Y-10523345D01*
X10187871Y-10513345D01*
X10239450Y-10513345D01*
X10239450Y-10526655D01*
X10242836Y-10539293D01*
X10242895Y-10539512D01*
X10242895Y-10539512D01*
X10244848Y-10542895D01*
X10249550Y-10551038D01*
X10258962Y-10560450D01*
X10270488Y-10567105D01*
X10283345Y-10570550D01*
X10283345Y-10570550D01*
X10296655Y-10570550D01*
X10296655Y-10570550D01*
X10309512Y-10567105D01*
X10321038Y-10560450D01*
X10321038Y-10560450D01*
X10321742Y-10560044D01*
X10321855Y-10560239D01*
X10327279Y-10558142D01*
X10334123Y-10559544D01*
X10339123Y-10564425D01*
X10340290Y-10567289D01*
X10342895Y-10577012D01*
X10349550Y-10588538D01*
X10358962Y-10597950D01*
X10370488Y-10604605D01*
X10383345Y-10608050D01*
X10383345Y-10608050D01*
X10396655Y-10608050D01*
X10396655Y-10608050D01*
X10409512Y-10604605D01*
X10421038Y-10597950D01*
X10430450Y-10588538D01*
X10437105Y-10577012D01*
X10440550Y-10564155D01*
X10440550Y-10550845D01*
X10437105Y-10537988D01*
X10430450Y-10526462D01*
X10421038Y-10517050D01*
X10411085Y-10511303D01*
X10409512Y-10510395D01*
X10409512Y-10510395D01*
X10409512Y-10510395D01*
X10396655Y-10506950D01*
X10383345Y-10506950D01*
X10370488Y-10510395D01*
X10370488Y-10510395D01*
X10358258Y-10517456D01*
X10358145Y-10517261D01*
X10352718Y-10519359D01*
X10345873Y-10517954D01*
X10340875Y-10513072D01*
X10339710Y-10510211D01*
X10337105Y-10500488D01*
X10330450Y-10488962D01*
X10321038Y-10479550D01*
X10309512Y-10472895D01*
X10296655Y-10469450D01*
X10283345Y-10469450D01*
X10270488Y-10472895D01*
X10270488Y-10472895D01*
X10258962Y-10479550D01*
X10258961Y-10479550D01*
X10249550Y-10488961D01*
X10249550Y-10488962D01*
X10242895Y-10500488D01*
X10242895Y-10500488D01*
X10239450Y-10513345D01*
X10187871Y-10513345D01*
X10187105Y-10510488D01*
X10180450Y-10498962D01*
X10171038Y-10489550D01*
X10159512Y-10482895D01*
X10146655Y-10479450D01*
X10133345Y-10479450D01*
X10120488Y-10482895D01*
X10120488Y-10482895D01*
X10108962Y-10489550D01*
X10108961Y-10489550D01*
X10099550Y-10498961D01*
X10099550Y-10498962D01*
X10092895Y-10510488D01*
X10092895Y-10510488D01*
X10089450Y-10523345D01*
X9122981Y-10523345D01*
X9120450Y-10518962D01*
X9111038Y-10509550D01*
X9099512Y-10502895D01*
X9086655Y-10499450D01*
X9073345Y-10499450D01*
X9060488Y-10502895D01*
X9060488Y-10502895D01*
X9048962Y-10509550D01*
X9048961Y-10509550D01*
X9039550Y-10518961D01*
X9039550Y-10518962D01*
X9032895Y-10530488D01*
X9032895Y-10530488D01*
X9029450Y-10543345D01*
X8880000Y-10543345D01*
X8880000Y-10393345D01*
X9079450Y-10393345D01*
X9079450Y-10406655D01*
X9082895Y-10419512D01*
X9089550Y-10431038D01*
X9098962Y-10440450D01*
X9110488Y-10447105D01*
X9123345Y-10450550D01*
X9123345Y-10450550D01*
X9136655Y-10450550D01*
X9136655Y-10450550D01*
X9149512Y-10447105D01*
X9161038Y-10440450D01*
X9170450Y-10431038D01*
X9177105Y-10419512D01*
X9180550Y-10406655D01*
X9180550Y-10402950D01*
X9182519Y-10396246D01*
X9187799Y-10391671D01*
X9192950Y-10390550D01*
X9194121Y-10390550D01*
X9194121Y-10390550D01*
X9206978Y-10387105D01*
X9218505Y-10380450D01*
X9227916Y-10371038D01*
X9227916Y-10371038D01*
X9228491Y-10370464D01*
X9228602Y-10370574D01*
X9233495Y-10367000D01*
X9240470Y-10366584D01*
X9240900Y-10366692D01*
X9241452Y-10366839D01*
X9241452Y-10366839D01*
X9254309Y-10370284D01*
X9254309Y-10370284D01*
X9267618Y-10370284D01*
X9267619Y-10370284D01*
X9280475Y-10366839D01*
X9292002Y-10360184D01*
X9301414Y-10350773D01*
X9308069Y-10339246D01*
X9310616Y-10329741D01*
X9314252Y-10323775D01*
X9320537Y-10320722D01*
X9322593Y-10320550D01*
X9336655Y-10320550D01*
X9336655Y-10320550D01*
X9349512Y-10317105D01*
X9361038Y-10310450D01*
X9370450Y-10301038D01*
X9377105Y-10289512D01*
X9380550Y-10276655D01*
X9380550Y-10263345D01*
X9377105Y-10250488D01*
X9370450Y-10238962D01*
X9361038Y-10229550D01*
X9349512Y-10222895D01*
X9336655Y-10219450D01*
X9323345Y-10219450D01*
X9310488Y-10222895D01*
X9310488Y-10222895D01*
X9298962Y-10229550D01*
X9298961Y-10229550D01*
X9289550Y-10238961D01*
X9289550Y-10238962D01*
X9282895Y-10250488D01*
X9282895Y-10250488D01*
X9280348Y-10259994D01*
X9276712Y-10265960D01*
X9270427Y-10269013D01*
X9268371Y-10269184D01*
X9254309Y-10269184D01*
X9241452Y-10272629D01*
X9241452Y-10272629D01*
X9229926Y-10279284D01*
X9229925Y-10279284D01*
X9219939Y-10289271D01*
X9219829Y-10289160D01*
X9214932Y-10292735D01*
X9207957Y-10293149D01*
X9207530Y-10293043D01*
X9200812Y-10291243D01*
X9194121Y-10289450D01*
X9180811Y-10289450D01*
X9167955Y-10292895D01*
X9167954Y-10292895D01*
X9156428Y-10299550D01*
X9156428Y-10299550D01*
X9147016Y-10308961D01*
X9147016Y-10308962D01*
X9140361Y-10320488D01*
X9140361Y-10320488D01*
X9136916Y-10333345D01*
X9136916Y-10337050D01*
X9134948Y-10343754D01*
X9129667Y-10348329D01*
X9124516Y-10349450D01*
X9123345Y-10349450D01*
X9110488Y-10352895D01*
X9110488Y-10352895D01*
X9098962Y-10359550D01*
X9098961Y-10359550D01*
X9089550Y-10368961D01*
X9089550Y-10368962D01*
X9082895Y-10380488D01*
X9082895Y-10380488D01*
X9079450Y-10393345D01*
X8880000Y-10393345D01*
X8880000Y-10375000D01*
X8877500Y-10372500D01*
X8322500Y-10372500D01*
X8322500Y-10922500D01*
X7027100Y-10922500D01*
X7027100Y-10832775D01*
X7027025Y-10832400D01*
X7026248Y-10828492D01*
X7026248Y-10828492D01*
X7025937Y-10826927D01*
X7025937Y-10826927D01*
X7021505Y-10820295D01*
X7014873Y-10815863D01*
X7014873Y-10815863D01*
X7009025Y-10814700D01*
X7009025Y-10814700D01*
X6730575Y-10814700D01*
X6730575Y-10814700D01*
X6724727Y-10815863D01*
X6724727Y-10815863D01*
X6718095Y-10820295D01*
X6713663Y-10826927D01*
X6713663Y-10826927D01*
X6712500Y-10832775D01*
X6435038Y-10832775D01*
X6422182Y-10826224D01*
X6398635Y-10818573D01*
X6378262Y-10815347D01*
X6374180Y-10814700D01*
X6349420Y-10814700D01*
X6345338Y-10815347D01*
X6324965Y-10818573D01*
X6324965Y-10818573D01*
X6301418Y-10826224D01*
X6279357Y-10837465D01*
X6259326Y-10852019D01*
X6241818Y-10869526D01*
X6227265Y-10889557D01*
X6216024Y-10911618D01*
X6208373Y-10935165D01*
X6208373Y-10935165D01*
X6208373Y-10935166D01*
X6204500Y-10959620D01*
X5641220Y-10959620D01*
X5641220Y-10684325D01*
X7973693Y-10684325D01*
X7973693Y-10697635D01*
X7977138Y-10710492D01*
X7983793Y-10722018D01*
X7993205Y-10731430D01*
X8004732Y-10738085D01*
X8017588Y-10741530D01*
X8017588Y-10741530D01*
X8030898Y-10741530D01*
X8030898Y-10741530D01*
X8043755Y-10738085D01*
X8055282Y-10731430D01*
X8064693Y-10722018D01*
X8071348Y-10710492D01*
X8074793Y-10697635D01*
X8074793Y-10684325D01*
X8071348Y-10671468D01*
X8064693Y-10659942D01*
X8055282Y-10650530D01*
X8044932Y-10644555D01*
X8043755Y-10643875D01*
X8043755Y-10643875D01*
X8043755Y-10643875D01*
X8030898Y-10640430D01*
X8017588Y-10640430D01*
X8004732Y-10643875D01*
X8004731Y-10643875D01*
X7993205Y-10650530D01*
X7993205Y-10650530D01*
X7983793Y-10659941D01*
X7983793Y-10659942D01*
X7977138Y-10671468D01*
X7977138Y-10671468D01*
X7973693Y-10684325D01*
X5641220Y-10684325D01*
X5641220Y-10540845D01*
X6041950Y-10540845D01*
X6041950Y-10554155D01*
X6044702Y-10564425D01*
X6045395Y-10567012D01*
X6045395Y-10567012D01*
X6045700Y-10567540D01*
X6052050Y-10578538D01*
X6061462Y-10587950D01*
X6072988Y-10594605D01*
X6085845Y-10598050D01*
X6085845Y-10598050D01*
X6099155Y-10598050D01*
X6099155Y-10598050D01*
X6112012Y-10594605D01*
X6123538Y-10587950D01*
X6132950Y-10578538D01*
X6139605Y-10567012D01*
X6143050Y-10554155D01*
X6143050Y-10540845D01*
X6139605Y-10527988D01*
X6132950Y-10516462D01*
X6123538Y-10507050D01*
X6115854Y-10502613D01*
X6112012Y-10500395D01*
X6112012Y-10500395D01*
X6112012Y-10500395D01*
X6099155Y-10496950D01*
X6085845Y-10496950D01*
X6072988Y-10500395D01*
X6072988Y-10500395D01*
X6061462Y-10507050D01*
X6061461Y-10507050D01*
X6052050Y-10516461D01*
X6052050Y-10516462D01*
X6045395Y-10527988D01*
X6045395Y-10527988D01*
X6041950Y-10540845D01*
X5641220Y-10540845D01*
X5641220Y-10193637D01*
X8518779Y-10193637D01*
X8518779Y-10206946D01*
X8522224Y-10219803D01*
X8522224Y-10219803D01*
X8524009Y-10222895D01*
X8528879Y-10231330D01*
X8538291Y-10240742D01*
X8549818Y-10247397D01*
X8562674Y-10250842D01*
X8562675Y-10250842D01*
X8575984Y-10250842D01*
X8575984Y-10250842D01*
X8588841Y-10247397D01*
X8600368Y-10240742D01*
X8609780Y-10231330D01*
X8616435Y-10219803D01*
X8619879Y-10206947D01*
X8619879Y-10193637D01*
X8616435Y-10180780D01*
X8612142Y-10173345D01*
X10529450Y-10173345D01*
X10529450Y-10186655D01*
X10532895Y-10199512D01*
X10539550Y-10211038D01*
X10548962Y-10220450D01*
X10560488Y-10227105D01*
X10573345Y-10230550D01*
X10573345Y-10230550D01*
X10586655Y-10230550D01*
X10586655Y-10230550D01*
X10599512Y-10227105D01*
X10611038Y-10220450D01*
X10620450Y-10211038D01*
X10627105Y-10199512D01*
X10630550Y-10186655D01*
X10630550Y-10173345D01*
X10627105Y-10160488D01*
X10620450Y-10148962D01*
X10611038Y-10139550D01*
X10599512Y-10132895D01*
X10586655Y-10129450D01*
X10573345Y-10129450D01*
X10560488Y-10132895D01*
X10560488Y-10132895D01*
X10548962Y-10139550D01*
X10548961Y-10139550D01*
X10539550Y-10148961D01*
X10539550Y-10148962D01*
X10532895Y-10160488D01*
X10532895Y-10160488D01*
X10529450Y-10173345D01*
X8612142Y-10173345D01*
X8609780Y-10169253D01*
X8600368Y-10159841D01*
X8588841Y-10153186D01*
X8575984Y-10149742D01*
X8562674Y-10149742D01*
X8549818Y-10153186D01*
X8549818Y-10153187D01*
X8538291Y-10159841D01*
X8538291Y-10159842D01*
X8528880Y-10169253D01*
X8528879Y-10169253D01*
X8522224Y-10180780D01*
X8522224Y-10180780D01*
X8518779Y-10193637D01*
X5641220Y-10193637D01*
X5641220Y-10043345D01*
X7721950Y-10043345D01*
X7721950Y-10056655D01*
X7725299Y-10069155D01*
X7725395Y-10069512D01*
X7725395Y-10069512D01*
X7725900Y-10070386D01*
X7732050Y-10081038D01*
X7741462Y-10090450D01*
X7752988Y-10097105D01*
X7765845Y-10100550D01*
X7765845Y-10100550D01*
X7779155Y-10100550D01*
X7779155Y-10100550D01*
X7792012Y-10097105D01*
X7803538Y-10090450D01*
X7812950Y-10081038D01*
X7819605Y-10069512D01*
X7823050Y-10056655D01*
X7823050Y-10055845D01*
X8014450Y-10055845D01*
X8014450Y-10069155D01*
X8017895Y-10082012D01*
X8024550Y-10093538D01*
X8033962Y-10102950D01*
X8045488Y-10109605D01*
X8058345Y-10113050D01*
X8058345Y-10113050D01*
X8062050Y-10113050D01*
X8068754Y-10115019D01*
X8073329Y-10120299D01*
X8074450Y-10125450D01*
X8074450Y-10131655D01*
X8077895Y-10144512D01*
X8084550Y-10156038D01*
X8093962Y-10165450D01*
X8105488Y-10172105D01*
X8118345Y-10175550D01*
X8118345Y-10175550D01*
X8131655Y-10175550D01*
X8131655Y-10175550D01*
X8144512Y-10172105D01*
X8156038Y-10165450D01*
X8165450Y-10156038D01*
X8172105Y-10144512D01*
X8175550Y-10131655D01*
X8175550Y-10118345D01*
X8172105Y-10105488D01*
X8171351Y-10104182D01*
X8880287Y-10104182D01*
X8880287Y-10117492D01*
X8881039Y-10120299D01*
X8883731Y-10130348D01*
X8883732Y-10130348D01*
X8885950Y-10134190D01*
X8890386Y-10141875D01*
X8899798Y-10151287D01*
X8911325Y-10157942D01*
X8924182Y-10161387D01*
X8924182Y-10161387D01*
X8937491Y-10161387D01*
X8937492Y-10161387D01*
X8950348Y-10157942D01*
X8961875Y-10151287D01*
X8971287Y-10141875D01*
X8977942Y-10130348D01*
X8981387Y-10117492D01*
X8981387Y-10104182D01*
X8977942Y-10091325D01*
X8971287Y-10079798D01*
X8961875Y-10070386D01*
X8950348Y-10063731D01*
X8937492Y-10060287D01*
X8924182Y-10060287D01*
X8911325Y-10063731D01*
X8911325Y-10063732D01*
X8899798Y-10070386D01*
X8899798Y-10070387D01*
X8890387Y-10079798D01*
X8890386Y-10079798D01*
X8883732Y-10091325D01*
X8883731Y-10091325D01*
X8880287Y-10104182D01*
X8171351Y-10104182D01*
X8165450Y-10093962D01*
X8156038Y-10084550D01*
X8144512Y-10077895D01*
X8131655Y-10074450D01*
X8127950Y-10074450D01*
X8121246Y-10072482D01*
X8116671Y-10067201D01*
X8115550Y-10062050D01*
X8115550Y-10055845D01*
X8115550Y-10055845D01*
X8112105Y-10042988D01*
X8105450Y-10031462D01*
X8096038Y-10022050D01*
X8090689Y-10018961D01*
X8085564Y-10016002D01*
X8085564Y-10016002D01*
X8084512Y-10015395D01*
X8084139Y-10015295D01*
X8071655Y-10011950D01*
X8058345Y-10011950D01*
X8045488Y-10015395D01*
X8045488Y-10015395D01*
X8033962Y-10022050D01*
X8033961Y-10022050D01*
X8024550Y-10031461D01*
X8024550Y-10031462D01*
X8017895Y-10042988D01*
X8017895Y-10042988D01*
X8014450Y-10055845D01*
X7823050Y-10055845D01*
X7823050Y-10043345D01*
X7819605Y-10030488D01*
X7812950Y-10018962D01*
X7803538Y-10009550D01*
X7797522Y-10006076D01*
X9092181Y-10006076D01*
X9092181Y-10019386D01*
X9095626Y-10032243D01*
X9102281Y-10043770D01*
X9111693Y-10053181D01*
X9123220Y-10059836D01*
X9136076Y-10063281D01*
X9136077Y-10063281D01*
X9149386Y-10063281D01*
X9149386Y-10063281D01*
X9162243Y-10059836D01*
X9173770Y-10053181D01*
X9183181Y-10043770D01*
X9189836Y-10032243D01*
X9193281Y-10019386D01*
X9193281Y-10006076D01*
X9189836Y-9993220D01*
X9183181Y-9981693D01*
X9173770Y-9972281D01*
X9172378Y-9971478D01*
X9286950Y-9971478D01*
X9286950Y-9993522D01*
X9290399Y-10015295D01*
X9297210Y-10036260D01*
X9297210Y-10036261D01*
X9307219Y-10055903D01*
X9320175Y-10073736D01*
X9320176Y-10073736D01*
X9335764Y-10089324D01*
X9335764Y-10089325D01*
X9351214Y-10100550D01*
X9353598Y-10102282D01*
X9362030Y-10106578D01*
X9373239Y-10112290D01*
X9373240Y-10112290D01*
X9381639Y-10115019D01*
X9394205Y-10119102D01*
X9415978Y-10122550D01*
X9415978Y-10122550D01*
X9438022Y-10122550D01*
X9438022Y-10122550D01*
X9459795Y-10119102D01*
X9480761Y-10112290D01*
X9500402Y-10102282D01*
X9518237Y-10089324D01*
X9533824Y-10073737D01*
X9546782Y-10055902D01*
X9556790Y-10036261D01*
X9563602Y-10015295D01*
X9567050Y-9993522D01*
X9567050Y-9971478D01*
X10286950Y-9971478D01*
X10286950Y-9993522D01*
X10290399Y-10015295D01*
X10297210Y-10036260D01*
X10297210Y-10036261D01*
X10307219Y-10055903D01*
X10320175Y-10073736D01*
X10320176Y-10073736D01*
X10335764Y-10089324D01*
X10335764Y-10089325D01*
X10351214Y-10100550D01*
X10353598Y-10102282D01*
X10362030Y-10106578D01*
X10373239Y-10112290D01*
X10373240Y-10112290D01*
X10381639Y-10115019D01*
X10394205Y-10119102D01*
X10415978Y-10122550D01*
X10415978Y-10122550D01*
X10438022Y-10122550D01*
X10438022Y-10122550D01*
X10459795Y-10119102D01*
X10480761Y-10112290D01*
X10500402Y-10102282D01*
X10518237Y-10089324D01*
X10533824Y-10073737D01*
X10546782Y-10055902D01*
X10556790Y-10036261D01*
X10563602Y-10015295D01*
X10567050Y-9993522D01*
X10567050Y-9971478D01*
X10563602Y-9949705D01*
X10556790Y-9928739D01*
X10556790Y-9928739D01*
X10551410Y-9918182D01*
X10546782Y-9909098D01*
X10538168Y-9897243D01*
X10533825Y-9891264D01*
X10533824Y-9891264D01*
X10518236Y-9875676D01*
X10518236Y-9875675D01*
X10500403Y-9862719D01*
X10500402Y-9862719D01*
X10500402Y-9862719D01*
X10491572Y-9858219D01*
X10480761Y-9852710D01*
X10480760Y-9852710D01*
X10459795Y-9845899D01*
X10448909Y-9844174D01*
X10438022Y-9842450D01*
X10415978Y-9842450D01*
X10408720Y-9843600D01*
X10394205Y-9845899D01*
X10373240Y-9852710D01*
X10373239Y-9852710D01*
X10353597Y-9862719D01*
X10335764Y-9875675D01*
X10335764Y-9875676D01*
X10320176Y-9891264D01*
X10320175Y-9891264D01*
X10307219Y-9909097D01*
X10297210Y-9928739D01*
X10297210Y-9928740D01*
X10290399Y-9949705D01*
X10286950Y-9971478D01*
X9567050Y-9971478D01*
X9563602Y-9949705D01*
X9556790Y-9928739D01*
X9556790Y-9928739D01*
X9551410Y-9918182D01*
X9546782Y-9909098D01*
X9538168Y-9897243D01*
X9533825Y-9891264D01*
X9533824Y-9891264D01*
X9518236Y-9875676D01*
X9518236Y-9875675D01*
X9500403Y-9862719D01*
X9500402Y-9862719D01*
X9500402Y-9862719D01*
X9491572Y-9858219D01*
X9480761Y-9852710D01*
X9480760Y-9852710D01*
X9459795Y-9845899D01*
X9448909Y-9844174D01*
X9438022Y-9842450D01*
X9415978Y-9842450D01*
X9408720Y-9843600D01*
X9394205Y-9845899D01*
X9373240Y-9852710D01*
X9373239Y-9852710D01*
X9353597Y-9862719D01*
X9335764Y-9875675D01*
X9335764Y-9875676D01*
X9320176Y-9891264D01*
X9320175Y-9891264D01*
X9307219Y-9909097D01*
X9297210Y-9928739D01*
X9297210Y-9928740D01*
X9290399Y-9949705D01*
X9286950Y-9971478D01*
X9172378Y-9971478D01*
X9162243Y-9965626D01*
X9149386Y-9962181D01*
X9136076Y-9962181D01*
X9123220Y-9965626D01*
X9123219Y-9965626D01*
X9111693Y-9972281D01*
X9111693Y-9972281D01*
X9102281Y-9981693D01*
X9102281Y-9981693D01*
X9095626Y-9993219D01*
X9095626Y-9993220D01*
X9092181Y-10006076D01*
X7797522Y-10006076D01*
X7792012Y-10002895D01*
X7779155Y-9999450D01*
X7765845Y-9999450D01*
X7752988Y-10002895D01*
X7752988Y-10002895D01*
X7741462Y-10009550D01*
X7741461Y-10009550D01*
X7732050Y-10018961D01*
X7732050Y-10018962D01*
X7725395Y-10030488D01*
X7725395Y-10030488D01*
X7721950Y-10043345D01*
X5641220Y-10043345D01*
X5641220Y-9828345D01*
X8024450Y-9828345D01*
X8024450Y-9841655D01*
X8027895Y-9854512D01*
X8034550Y-9866038D01*
X8043962Y-9875450D01*
X8055488Y-9882105D01*
X8068345Y-9885550D01*
X8068345Y-9885550D01*
X8081655Y-9885550D01*
X8081655Y-9885550D01*
X8094512Y-9882105D01*
X8106038Y-9875450D01*
X8110412Y-9871076D01*
X8301719Y-9871076D01*
X8301719Y-9884386D01*
X8305164Y-9897243D01*
X8311819Y-9908770D01*
X8321230Y-9918181D01*
X8332757Y-9924836D01*
X8345614Y-9928281D01*
X8345614Y-9928281D01*
X8358923Y-9928281D01*
X8358924Y-9928281D01*
X8371780Y-9924836D01*
X8383307Y-9918181D01*
X8392719Y-9908770D01*
X8399374Y-9897243D01*
X8402819Y-9884386D01*
X8402819Y-9871076D01*
X8399374Y-9858220D01*
X8392719Y-9846693D01*
X8383307Y-9837281D01*
X8371780Y-9830626D01*
X8358924Y-9827181D01*
X8345614Y-9827181D01*
X8332757Y-9830626D01*
X8332757Y-9830626D01*
X8321231Y-9837281D01*
X8321230Y-9837281D01*
X8311819Y-9846693D01*
X8311818Y-9846693D01*
X8305164Y-9858219D01*
X8305164Y-9858220D01*
X8301719Y-9871076D01*
X8110412Y-9871076D01*
X8115450Y-9866038D01*
X8122105Y-9854512D01*
X8125550Y-9841655D01*
X8125550Y-9828345D01*
X8122105Y-9815488D01*
X8115450Y-9803962D01*
X8106038Y-9794550D01*
X8098354Y-9790113D01*
X8094512Y-9787895D01*
X8094512Y-9787895D01*
X8094512Y-9787895D01*
X8081655Y-9784450D01*
X8068345Y-9784450D01*
X8055488Y-9787895D01*
X8055488Y-9787895D01*
X8043962Y-9794550D01*
X8043961Y-9794550D01*
X8034550Y-9803961D01*
X8034550Y-9803962D01*
X8027895Y-9815488D01*
X8027895Y-9815488D01*
X8024450Y-9828345D01*
X5641220Y-9828345D01*
X5641220Y-9675845D01*
X7051950Y-9675845D01*
X7051950Y-9689155D01*
X7055395Y-9702012D01*
X7062050Y-9713538D01*
X7071462Y-9722950D01*
X7082988Y-9729605D01*
X7095845Y-9733050D01*
X7095845Y-9733050D01*
X7109155Y-9733050D01*
X7109155Y-9733050D01*
X7122012Y-9729605D01*
X7133538Y-9722950D01*
X7142950Y-9713538D01*
X7149605Y-9702012D01*
X7153050Y-9689155D01*
X7153050Y-9675845D01*
X7149605Y-9662988D01*
X7142950Y-9651462D01*
X7133538Y-9642050D01*
X7122012Y-9635395D01*
X7114361Y-9633345D01*
X8144450Y-9633345D01*
X8144450Y-9646655D01*
X8147895Y-9659512D01*
X8154550Y-9671038D01*
X8163962Y-9680450D01*
X8175488Y-9687105D01*
X8188345Y-9690550D01*
X8188345Y-9690550D01*
X8201655Y-9690550D01*
X8201655Y-9690550D01*
X8214512Y-9687105D01*
X8226038Y-9680450D01*
X8235450Y-9671038D01*
X8238729Y-9665359D01*
X8779500Y-9665359D01*
X8779500Y-9684641D01*
X8782516Y-9703686D01*
X8788475Y-9722023D01*
X8788475Y-9722024D01*
X8797229Y-9739204D01*
X8799422Y-9742223D01*
X8841896Y-9699749D01*
X8844398Y-9705789D01*
X8851511Y-9716435D01*
X8860565Y-9725489D01*
X8871211Y-9732602D01*
X8877251Y-9735104D01*
X8834777Y-9777578D01*
X8834777Y-9777578D01*
X8837796Y-9779771D01*
X8854976Y-9788525D01*
X8854977Y-9788525D01*
X8873314Y-9794484D01*
X8892359Y-9797500D01*
X8911641Y-9797500D01*
X8930686Y-9794484D01*
X8949023Y-9788525D01*
X8949024Y-9788525D01*
X8966204Y-9779771D01*
X8969223Y-9777578D01*
X8969223Y-9777578D01*
X8926749Y-9735104D01*
X8932789Y-9732602D01*
X8943435Y-9725489D01*
X8952489Y-9716435D01*
X8959602Y-9705789D01*
X8962104Y-9699749D01*
X9004578Y-9742223D01*
X9004578Y-9742223D01*
X9006771Y-9739204D01*
X9015525Y-9722024D01*
X9015525Y-9722023D01*
X9021484Y-9703686D01*
X9024500Y-9684641D01*
X9024500Y-9665749D01*
X9234450Y-9665749D01*
X9234450Y-9684251D01*
X9235227Y-9689155D01*
X9237345Y-9702527D01*
X9243062Y-9720123D01*
X9243062Y-9720124D01*
X9247893Y-9729605D01*
X9251462Y-9736610D01*
X9262338Y-9751579D01*
X9275421Y-9764662D01*
X9290390Y-9775538D01*
X9298476Y-9779658D01*
X9306876Y-9783938D01*
X9306877Y-9783938D01*
X9315675Y-9786797D01*
X9324474Y-9789656D01*
X9342749Y-9792550D01*
X9342749Y-9792550D01*
X9361251Y-9792550D01*
X9361251Y-9792550D01*
X9379526Y-9789656D01*
X9397124Y-9783938D01*
X9413610Y-9775538D01*
X9428579Y-9764662D01*
X9441662Y-9751579D01*
X9452538Y-9736610D01*
X9460938Y-9720124D01*
X9466656Y-9702526D01*
X9469550Y-9684251D01*
X9469550Y-9665749D01*
X9466656Y-9647474D01*
X9465314Y-9643345D01*
X10559450Y-9643345D01*
X10559450Y-9656655D01*
X10562895Y-9669512D01*
X10569550Y-9681038D01*
X10578962Y-9690450D01*
X10590488Y-9697105D01*
X10603345Y-9700550D01*
X10603345Y-9700550D01*
X10616655Y-9700550D01*
X10616655Y-9700550D01*
X10629512Y-9697105D01*
X10641038Y-9690450D01*
X10650450Y-9681038D01*
X10657105Y-9669512D01*
X10660550Y-9656655D01*
X10660550Y-9643345D01*
X10657105Y-9630488D01*
X10650450Y-9618962D01*
X10641038Y-9609550D01*
X10629512Y-9602895D01*
X10616655Y-9599450D01*
X10603345Y-9599450D01*
X10590488Y-9602895D01*
X10590488Y-9602895D01*
X10578962Y-9609550D01*
X10578961Y-9609550D01*
X10569550Y-9618961D01*
X10569550Y-9618962D01*
X10562895Y-9630488D01*
X10562895Y-9630488D01*
X10559450Y-9643345D01*
X9465314Y-9643345D01*
X9464893Y-9642050D01*
X9460938Y-9629877D01*
X9460938Y-9629876D01*
X9452538Y-9613390D01*
X9441662Y-9598421D01*
X9434780Y-9591539D01*
X10692500Y-9591539D01*
X10692500Y-9608461D01*
X10695147Y-9625173D01*
X10700376Y-9641266D01*
X10708058Y-9656343D01*
X10708161Y-9656484D01*
X10708161Y-9656484D01*
X10747621Y-9617023D01*
X10748748Y-9621229D01*
X10755989Y-9633771D01*
X10766229Y-9644011D01*
X10778771Y-9651252D01*
X10782976Y-9652379D01*
X10743516Y-9691839D01*
X10743658Y-9691942D01*
X10758734Y-9699624D01*
X10774827Y-9704853D01*
X10791539Y-9707500D01*
X10808461Y-9707500D01*
X10825173Y-9704853D01*
X10841266Y-9699624D01*
X10856342Y-9691942D01*
X10856484Y-9691839D01*
X10817024Y-9652379D01*
X10821229Y-9651252D01*
X10833771Y-9644011D01*
X10844011Y-9633771D01*
X10851252Y-9621229D01*
X10852379Y-9617024D01*
X10891839Y-9656484D01*
X10891942Y-9656342D01*
X10899624Y-9641266D01*
X10904853Y-9625173D01*
X10907500Y-9608461D01*
X10907500Y-9591539D01*
X10904853Y-9574827D01*
X10899624Y-9558734D01*
X10891942Y-9543658D01*
X10891839Y-9543516D01*
X10852379Y-9582976D01*
X10851252Y-9578771D01*
X10844011Y-9566229D01*
X10833771Y-9555989D01*
X10821229Y-9548748D01*
X10817023Y-9547621D01*
X10856484Y-9508161D01*
X10856484Y-9508161D01*
X10856343Y-9508058D01*
X10841266Y-9500376D01*
X10825173Y-9495147D01*
X10808461Y-9492500D01*
X10791539Y-9492500D01*
X10774827Y-9495147D01*
X10758734Y-9500376D01*
X10743658Y-9508058D01*
X10743657Y-9508058D01*
X10743516Y-9508161D01*
X10743516Y-9508161D01*
X10782977Y-9547621D01*
X10778771Y-9548748D01*
X10766229Y-9555989D01*
X10755989Y-9566229D01*
X10748748Y-9578771D01*
X10747621Y-9582977D01*
X10708161Y-9543516D01*
X10708058Y-9543657D01*
X10708058Y-9543658D01*
X10700376Y-9558734D01*
X10695147Y-9574827D01*
X10692500Y-9591539D01*
X9434780Y-9591539D01*
X9428579Y-9585338D01*
X9413610Y-9574462D01*
X9409605Y-9572422D01*
X9397124Y-9566062D01*
X9397123Y-9566062D01*
X9379527Y-9560345D01*
X9369358Y-9558734D01*
X9361251Y-9557450D01*
X9342749Y-9557450D01*
X9336657Y-9558415D01*
X9324473Y-9560345D01*
X9306877Y-9566062D01*
X9306876Y-9566062D01*
X9290390Y-9574462D01*
X9284460Y-9578771D01*
X9275421Y-9585338D01*
X9275421Y-9585338D01*
X9275421Y-9585338D01*
X9262338Y-9598421D01*
X9262338Y-9598421D01*
X9262338Y-9598421D01*
X9259088Y-9602895D01*
X9251462Y-9613390D01*
X9243062Y-9629876D01*
X9243062Y-9629877D01*
X9237345Y-9647473D01*
X9235438Y-9659512D01*
X9234450Y-9665749D01*
X9024500Y-9665749D01*
X9024500Y-9665359D01*
X9021484Y-9646314D01*
X9015525Y-9627977D01*
X9015525Y-9627976D01*
X9006771Y-9610796D01*
X9004578Y-9607777D01*
X9004578Y-9607777D01*
X8962104Y-9650251D01*
X8959602Y-9644211D01*
X8952489Y-9633565D01*
X8943435Y-9624511D01*
X8932789Y-9617398D01*
X8926749Y-9614896D01*
X8969223Y-9572422D01*
X8969223Y-9572422D01*
X8966204Y-9570229D01*
X8949024Y-9561475D01*
X8949023Y-9561475D01*
X8930686Y-9555516D01*
X8911641Y-9552500D01*
X8892359Y-9552500D01*
X8873314Y-9555516D01*
X8854977Y-9561475D01*
X8854976Y-9561475D01*
X8837796Y-9570229D01*
X8837795Y-9570229D01*
X8834777Y-9572422D01*
X8834777Y-9572422D01*
X8877251Y-9614896D01*
X8871211Y-9617398D01*
X8860565Y-9624511D01*
X8851511Y-9633565D01*
X8844398Y-9644211D01*
X8841896Y-9650251D01*
X8799422Y-9607777D01*
X8799422Y-9607777D01*
X8797229Y-9610795D01*
X8797229Y-9610796D01*
X8788475Y-9627976D01*
X8788475Y-9627977D01*
X8782516Y-9646314D01*
X8779500Y-9665359D01*
X8238729Y-9665359D01*
X8242105Y-9659512D01*
X8245550Y-9646655D01*
X8245550Y-9633345D01*
X8242105Y-9620488D01*
X8235450Y-9608962D01*
X8226038Y-9599550D01*
X8214512Y-9592895D01*
X8201655Y-9589450D01*
X8188345Y-9589450D01*
X8175488Y-9592895D01*
X8175488Y-9592895D01*
X8163962Y-9599550D01*
X8163961Y-9599550D01*
X8154550Y-9608961D01*
X8154550Y-9608962D01*
X8147895Y-9620488D01*
X8147895Y-9620488D01*
X8144450Y-9633345D01*
X7114361Y-9633345D01*
X7109155Y-9631950D01*
X7095845Y-9631950D01*
X7082988Y-9635395D01*
X7082988Y-9635395D01*
X7071462Y-9642050D01*
X7071461Y-9642050D01*
X7062050Y-9651461D01*
X7062050Y-9651462D01*
X7055395Y-9662988D01*
X7055395Y-9662988D01*
X7051950Y-9675845D01*
X5641220Y-9675845D01*
X5641220Y-9485845D01*
X7941950Y-9485845D01*
X7941950Y-9499155D01*
X7945395Y-9512012D01*
X7952050Y-9523538D01*
X7961462Y-9532950D01*
X7972988Y-9539605D01*
X7985845Y-9543050D01*
X7985845Y-9543050D01*
X7999155Y-9543050D01*
X7999155Y-9543050D01*
X8012012Y-9539605D01*
X8023538Y-9532950D01*
X8032950Y-9523538D01*
X8037888Y-9514985D01*
X8077810Y-9514985D01*
X8077810Y-9528295D01*
X8081067Y-9540450D01*
X8081255Y-9541152D01*
X8081255Y-9541152D01*
X8083473Y-9544994D01*
X8087910Y-9552678D01*
X8097322Y-9562090D01*
X8108848Y-9568745D01*
X8121705Y-9572190D01*
X8121705Y-9572190D01*
X8135015Y-9572190D01*
X8135015Y-9572190D01*
X8147872Y-9568745D01*
X8159398Y-9562090D01*
X8168810Y-9552678D01*
X8175465Y-9541152D01*
X8178910Y-9528295D01*
X8178910Y-9514985D01*
X8175465Y-9502128D01*
X8170394Y-9493345D01*
X8241950Y-9493345D01*
X8241950Y-9506655D01*
X8245395Y-9519512D01*
X8252050Y-9531038D01*
X8261462Y-9540450D01*
X8272988Y-9547105D01*
X8285845Y-9550550D01*
X8285845Y-9550550D01*
X8299155Y-9550550D01*
X8299155Y-9550550D01*
X8312012Y-9547105D01*
X8323538Y-9540450D01*
X8332950Y-9531038D01*
X8339605Y-9519512D01*
X8343050Y-9506655D01*
X8343050Y-9493345D01*
X9559450Y-9493345D01*
X9559450Y-9506655D01*
X9562895Y-9519512D01*
X9569550Y-9531038D01*
X9578962Y-9540450D01*
X9590488Y-9547105D01*
X9603345Y-9550550D01*
X9603345Y-9550550D01*
X9616655Y-9550550D01*
X9616655Y-9550550D01*
X9629512Y-9547105D01*
X9641038Y-9540450D01*
X9650450Y-9531038D01*
X9657105Y-9519512D01*
X9660550Y-9506655D01*
X9660550Y-9493345D01*
X9657105Y-9480488D01*
X9650450Y-9468962D01*
X9641038Y-9459550D01*
X9629512Y-9452895D01*
X9616655Y-9449450D01*
X9603345Y-9449450D01*
X9590488Y-9452895D01*
X9590488Y-9452895D01*
X9578962Y-9459550D01*
X9578961Y-9459550D01*
X9569550Y-9468961D01*
X9569550Y-9468962D01*
X9562895Y-9480488D01*
X9562895Y-9480488D01*
X9559450Y-9493345D01*
X8343050Y-9493345D01*
X8339605Y-9480488D01*
X8332950Y-9468962D01*
X8323538Y-9459550D01*
X8312012Y-9452895D01*
X8299155Y-9449450D01*
X8285845Y-9449450D01*
X8272988Y-9452895D01*
X8272988Y-9452895D01*
X8261462Y-9459550D01*
X8261461Y-9459550D01*
X8252050Y-9468961D01*
X8252050Y-9468962D01*
X8245395Y-9480488D01*
X8245395Y-9480488D01*
X8241950Y-9493345D01*
X8170394Y-9493345D01*
X8168810Y-9490602D01*
X8167633Y-9489424D01*
X8166891Y-9488247D01*
X8166302Y-9486170D01*
X8165268Y-9484276D01*
X8165368Y-9482876D01*
X8164985Y-9481525D01*
X8165612Y-9479460D01*
X8165766Y-9477307D01*
X8166714Y-9475832D01*
X8167016Y-9474840D01*
X8167757Y-9474209D01*
X8168617Y-9472872D01*
X8170450Y-9471038D01*
X8177105Y-9459512D01*
X8180550Y-9446655D01*
X8180550Y-9433345D01*
X8177105Y-9420488D01*
X8170450Y-9408962D01*
X8161038Y-9399550D01*
X8149512Y-9392895D01*
X8136655Y-9389450D01*
X8123345Y-9389450D01*
X8110488Y-9392895D01*
X8110488Y-9392895D01*
X8098962Y-9399550D01*
X8098961Y-9399550D01*
X8089550Y-9408961D01*
X8089550Y-9408962D01*
X8082895Y-9420488D01*
X8082895Y-9420488D01*
X8079450Y-9433345D01*
X8079450Y-9446655D01*
X8081030Y-9452550D01*
X8082895Y-9459512D01*
X8082895Y-9459512D01*
X8084021Y-9461461D01*
X8089550Y-9471038D01*
X8089550Y-9471039D01*
X8089743Y-9471232D01*
X8089854Y-9471435D01*
X8090045Y-9471683D01*
X8090006Y-9471713D01*
X8093092Y-9477364D01*
X8092593Y-9484333D01*
X8089744Y-9488768D01*
X8087910Y-9490602D01*
X8087910Y-9490602D01*
X8081255Y-9502128D01*
X8081255Y-9502128D01*
X8077810Y-9514985D01*
X8037888Y-9514985D01*
X8039605Y-9512012D01*
X8043050Y-9499155D01*
X8043050Y-9485845D01*
X8039605Y-9472988D01*
X8032950Y-9461462D01*
X8023538Y-9452050D01*
X8012012Y-9445395D01*
X7999155Y-9441950D01*
X7985845Y-9441950D01*
X7972988Y-9445395D01*
X7972988Y-9445395D01*
X7961462Y-9452050D01*
X7961461Y-9452050D01*
X7952050Y-9461461D01*
X7952050Y-9461462D01*
X7945395Y-9472988D01*
X7945395Y-9472988D01*
X7941950Y-9485845D01*
X5641220Y-9485845D01*
X5641220Y-9283345D01*
X8099450Y-9283345D01*
X8099450Y-9296655D01*
X8102895Y-9309512D01*
X8109550Y-9321038D01*
X8118962Y-9330450D01*
X8130488Y-9337105D01*
X8143345Y-9340550D01*
X8143345Y-9340550D01*
X8156655Y-9340550D01*
X8156655Y-9340550D01*
X8169512Y-9337105D01*
X8181038Y-9330450D01*
X8190450Y-9321038D01*
X8197105Y-9309512D01*
X8200550Y-9296655D01*
X8200550Y-9283345D01*
X8249450Y-9283345D01*
X8249450Y-9296655D01*
X8252895Y-9309512D01*
X8259550Y-9321038D01*
X8268962Y-9330450D01*
X8280488Y-9337105D01*
X8293345Y-9340550D01*
X8293345Y-9340550D01*
X8306655Y-9340550D01*
X8306655Y-9340550D01*
X8319512Y-9337105D01*
X8331038Y-9330450D01*
X8337149Y-9324340D01*
X9864550Y-9324340D01*
X9864550Y-9345660D01*
X9867885Y-9366718D01*
X9867885Y-9366718D01*
X9874473Y-9386994D01*
X9874474Y-9386995D01*
X9884153Y-9405991D01*
X9896685Y-9423240D01*
X9911760Y-9438315D01*
X9929009Y-9450847D01*
X9948005Y-9460526D01*
X9948006Y-9460527D01*
X9966918Y-9466672D01*
X9968282Y-9467115D01*
X9989340Y-9470450D01*
X9989340Y-9470450D01*
X10010660Y-9470450D01*
X10010660Y-9470450D01*
X10031718Y-9467115D01*
X10031718Y-9467115D01*
X10031718Y-9467115D01*
X10051994Y-9460527D01*
X10051994Y-9460526D01*
X10051995Y-9460526D01*
X10070991Y-9450847D01*
X10088240Y-9438315D01*
X10103315Y-9423240D01*
X10115847Y-9405991D01*
X10125526Y-9386995D01*
X10132115Y-9366718D01*
X10135450Y-9345660D01*
X10135450Y-9339899D01*
X10697450Y-9339899D01*
X10697450Y-9360101D01*
X10701391Y-9379912D01*
X10701391Y-9379913D01*
X10709121Y-9398575D01*
X10709122Y-9398576D01*
X10720344Y-9415372D01*
X10734628Y-9429656D01*
X10751424Y-9440878D01*
X10751424Y-9440878D01*
X10751424Y-9440879D01*
X10770087Y-9448609D01*
X10787385Y-9452050D01*
X10789899Y-9452550D01*
X10789900Y-9452550D01*
X10789900Y-9452550D01*
X10810100Y-9452550D01*
X10810101Y-9452550D01*
X10829913Y-9448609D01*
X10848576Y-9440879D01*
X10865372Y-9429656D01*
X10879656Y-9415372D01*
X10890879Y-9398576D01*
X10898609Y-9379913D01*
X10902550Y-9360100D01*
X10902550Y-9339900D01*
X10898609Y-9320087D01*
X10890879Y-9301424D01*
X10890878Y-9301424D01*
X10890878Y-9301424D01*
X10879656Y-9284628D01*
X10865372Y-9270344D01*
X10848576Y-9259122D01*
X10848575Y-9259121D01*
X10829913Y-9251391D01*
X10829912Y-9251391D01*
X10810101Y-9247450D01*
X10810100Y-9247450D01*
X10789900Y-9247450D01*
X10789899Y-9247450D01*
X10770088Y-9251391D01*
X10770087Y-9251391D01*
X10751425Y-9259121D01*
X10751424Y-9259122D01*
X10734628Y-9270344D01*
X10720344Y-9284628D01*
X10709122Y-9301424D01*
X10709121Y-9301425D01*
X10701391Y-9320087D01*
X10701391Y-9320088D01*
X10697450Y-9339899D01*
X10135450Y-9339899D01*
X10135450Y-9324340D01*
X10132115Y-9303282D01*
X10132115Y-9303282D01*
X10132115Y-9303282D01*
X10125527Y-9283006D01*
X10125526Y-9283005D01*
X10119149Y-9270488D01*
X10115847Y-9264009D01*
X10103315Y-9246760D01*
X10088240Y-9231685D01*
X10070991Y-9219153D01*
X10051995Y-9209474D01*
X10051994Y-9209473D01*
X10031718Y-9202885D01*
X10017679Y-9200662D01*
X10010660Y-9199550D01*
X9989340Y-9199550D01*
X9982321Y-9200662D01*
X9968282Y-9202885D01*
X9968282Y-9202885D01*
X9948006Y-9209473D01*
X9948005Y-9209474D01*
X9929009Y-9219153D01*
X9911760Y-9231685D01*
X9896685Y-9246760D01*
X9884153Y-9264009D01*
X9874474Y-9283005D01*
X9874473Y-9283006D01*
X9867885Y-9303282D01*
X9867885Y-9303282D01*
X9864550Y-9324340D01*
X8337149Y-9324340D01*
X8340450Y-9321038D01*
X8347105Y-9309512D01*
X8350550Y-9296655D01*
X8350550Y-9283345D01*
X8347105Y-9270488D01*
X8340450Y-9258962D01*
X8331038Y-9249550D01*
X8319512Y-9242895D01*
X8306655Y-9239450D01*
X8293345Y-9239450D01*
X8280488Y-9242895D01*
X8280488Y-9242895D01*
X8268962Y-9249550D01*
X8268961Y-9249550D01*
X8259550Y-9258961D01*
X8259550Y-9258962D01*
X8252895Y-9270488D01*
X8252895Y-9270488D01*
X8249450Y-9283345D01*
X8200550Y-9283345D01*
X8197105Y-9270488D01*
X8190450Y-9258962D01*
X8181038Y-9249550D01*
X8169512Y-9242895D01*
X8156655Y-9239450D01*
X8143345Y-9239450D01*
X8130488Y-9242895D01*
X8130488Y-9242895D01*
X8118962Y-9249550D01*
X8118961Y-9249550D01*
X8109550Y-9258961D01*
X8109550Y-9258962D01*
X8102895Y-9270488D01*
X8102895Y-9270488D01*
X8099450Y-9283345D01*
X5641220Y-9283345D01*
X5641220Y-9195845D01*
X6899450Y-9195845D01*
X6899450Y-9209155D01*
X6902895Y-9222012D01*
X6909550Y-9233538D01*
X6918962Y-9242950D01*
X6930488Y-9249605D01*
X6943345Y-9253050D01*
X6943345Y-9253050D01*
X6956655Y-9253050D01*
X6956655Y-9253050D01*
X6969512Y-9249605D01*
X6981038Y-9242950D01*
X6990450Y-9233538D01*
X6997105Y-9222012D01*
X7000550Y-9209155D01*
X7000550Y-9195845D01*
X6997105Y-9182988D01*
X6990450Y-9171462D01*
X6981038Y-9162050D01*
X6969512Y-9155395D01*
X6956655Y-9151950D01*
X6943345Y-9151950D01*
X6930488Y-9155395D01*
X6930488Y-9155395D01*
X6918962Y-9162050D01*
X6918961Y-9162050D01*
X6909550Y-9171461D01*
X6909550Y-9171462D01*
X6902895Y-9182988D01*
X6902895Y-9182988D01*
X6899450Y-9195845D01*
X5641220Y-9195845D01*
X5641220Y-8909340D01*
X7484550Y-8909340D01*
X7484550Y-9130660D01*
X7487885Y-9151718D01*
X7487885Y-9151718D01*
X7494473Y-9171994D01*
X7494474Y-9171995D01*
X7504153Y-9190991D01*
X7516685Y-9208240D01*
X7531760Y-9223315D01*
X7549009Y-9235847D01*
X7568005Y-9245526D01*
X7568005Y-9245527D01*
X7580388Y-9249550D01*
X7588282Y-9252115D01*
X7609340Y-9255450D01*
X7609340Y-9255450D01*
X7630660Y-9255450D01*
X7630660Y-9255450D01*
X7651718Y-9252115D01*
X7651718Y-9252115D01*
X7651718Y-9252115D01*
X7671994Y-9245527D01*
X7671994Y-9245526D01*
X7671995Y-9245526D01*
X7690991Y-9235847D01*
X7708240Y-9223315D01*
X7723315Y-9208240D01*
X7735847Y-9190991D01*
X7745526Y-9171995D01*
X7748758Y-9162050D01*
X7752115Y-9151718D01*
X7752115Y-9151718D01*
X7755450Y-9130660D01*
X7755450Y-9015359D01*
X8779500Y-9015359D01*
X8779500Y-9034641D01*
X8782516Y-9053686D01*
X8788475Y-9072023D01*
X8788475Y-9072024D01*
X8797229Y-9089204D01*
X8799422Y-9092223D01*
X8841896Y-9049749D01*
X8844398Y-9055789D01*
X8851511Y-9066435D01*
X8860565Y-9075489D01*
X8871211Y-9082602D01*
X8877251Y-9085104D01*
X8834777Y-9127578D01*
X8834777Y-9127578D01*
X8837796Y-9129771D01*
X8854976Y-9138525D01*
X8854977Y-9138525D01*
X8873314Y-9144484D01*
X8892359Y-9147500D01*
X8911641Y-9147500D01*
X8930686Y-9144484D01*
X8949023Y-9138525D01*
X8949024Y-9138525D01*
X8966204Y-9129771D01*
X8969223Y-9127578D01*
X8969223Y-9127578D01*
X8926749Y-9085104D01*
X8932789Y-9082602D01*
X8943435Y-9075489D01*
X8952489Y-9066435D01*
X8959602Y-9055789D01*
X8962104Y-9049749D01*
X9004578Y-9092223D01*
X9004578Y-9092223D01*
X9006771Y-9089204D01*
X9015525Y-9072024D01*
X9015525Y-9072023D01*
X9021484Y-9053686D01*
X9024500Y-9034641D01*
X9024500Y-9015749D01*
X9234450Y-9015749D01*
X9234450Y-9034251D01*
X9237345Y-9052527D01*
X9243062Y-9070123D01*
X9243062Y-9070124D01*
X9246516Y-9076903D01*
X9251462Y-9086610D01*
X9262338Y-9101579D01*
X9275421Y-9114662D01*
X9290390Y-9125538D01*
X9298476Y-9129658D01*
X9306876Y-9133938D01*
X9306877Y-9133938D01*
X9315675Y-9136797D01*
X9324474Y-9139656D01*
X9342749Y-9142550D01*
X9342749Y-9142550D01*
X9361251Y-9142550D01*
X9361251Y-9142550D01*
X9379526Y-9139656D01*
X9397124Y-9133938D01*
X9413610Y-9125538D01*
X9428579Y-9114662D01*
X9441662Y-9101579D01*
X9452538Y-9086610D01*
X9454201Y-9083345D01*
X9739450Y-9083345D01*
X9739450Y-9096655D01*
X9742895Y-9109512D01*
X9749550Y-9121038D01*
X9758962Y-9130450D01*
X9770488Y-9137105D01*
X9783345Y-9140550D01*
X9783345Y-9140550D01*
X9796655Y-9140550D01*
X9796655Y-9140550D01*
X9809512Y-9137105D01*
X9821038Y-9130450D01*
X9830450Y-9121038D01*
X9837105Y-9109512D01*
X9840550Y-9096655D01*
X9840550Y-9089899D01*
X10697450Y-9089899D01*
X10697450Y-9110101D01*
X10701391Y-9129912D01*
X10701391Y-9129913D01*
X10709121Y-9148575D01*
X10709122Y-9148576D01*
X10720344Y-9165372D01*
X10734628Y-9179656D01*
X10751424Y-9190878D01*
X10751424Y-9190878D01*
X10751424Y-9190879D01*
X10770087Y-9198609D01*
X10789899Y-9202550D01*
X10789900Y-9202550D01*
X10789900Y-9202550D01*
X10810100Y-9202550D01*
X10810101Y-9202550D01*
X10829913Y-9198609D01*
X10848576Y-9190879D01*
X10865372Y-9179656D01*
X10879656Y-9165372D01*
X10890879Y-9148576D01*
X10898609Y-9129913D01*
X10902550Y-9110100D01*
X10902550Y-9089900D01*
X10898609Y-9070087D01*
X10890879Y-9051424D01*
X10890878Y-9051424D01*
X10890878Y-9051424D01*
X10879656Y-9034628D01*
X10865372Y-9020344D01*
X10848576Y-9009122D01*
X10848575Y-9009121D01*
X10829913Y-9001391D01*
X10829912Y-9001391D01*
X10810101Y-8997450D01*
X10810100Y-8997450D01*
X10789900Y-8997450D01*
X10789899Y-8997450D01*
X10770088Y-9001391D01*
X10770087Y-9001391D01*
X10751425Y-9009121D01*
X10751424Y-9009122D01*
X10734628Y-9020344D01*
X10720344Y-9034628D01*
X10709122Y-9051424D01*
X10709121Y-9051425D01*
X10701391Y-9070087D01*
X10701391Y-9070088D01*
X10697450Y-9089899D01*
X9840550Y-9089899D01*
X9840550Y-9083345D01*
X9837105Y-9070488D01*
X9830450Y-9058962D01*
X9821038Y-9049550D01*
X9809512Y-9042895D01*
X9796655Y-9039450D01*
X9783345Y-9039450D01*
X9770488Y-9042895D01*
X9770488Y-9042895D01*
X9758962Y-9049550D01*
X9758961Y-9049550D01*
X9749550Y-9058961D01*
X9749550Y-9058962D01*
X9742895Y-9070488D01*
X9742895Y-9070488D01*
X9739450Y-9083345D01*
X9454201Y-9083345D01*
X9460938Y-9070124D01*
X9466656Y-9052526D01*
X9469550Y-9034251D01*
X9469550Y-9015749D01*
X9466656Y-8997474D01*
X9460938Y-8979877D01*
X9460938Y-8979876D01*
X9452538Y-8963390D01*
X9441662Y-8948421D01*
X9428579Y-8935338D01*
X9413610Y-8924462D01*
X9409605Y-8922422D01*
X9397124Y-8916062D01*
X9397123Y-8916062D01*
X9379527Y-8910345D01*
X9370389Y-8908897D01*
X9361251Y-8907450D01*
X9342749Y-8907450D01*
X9336657Y-8908415D01*
X9324473Y-8910345D01*
X9306877Y-8916062D01*
X9306876Y-8916062D01*
X9290390Y-8924462D01*
X9289031Y-8925450D01*
X9275421Y-8935338D01*
X9275421Y-8935338D01*
X9275421Y-8935338D01*
X9262338Y-8948421D01*
X9262338Y-8948421D01*
X9262338Y-8948421D01*
X9257667Y-8954850D01*
X9251462Y-8963390D01*
X9243062Y-8979876D01*
X9243062Y-8979877D01*
X9237345Y-8997473D01*
X9234450Y-9015749D01*
X9024500Y-9015749D01*
X9024500Y-9015359D01*
X9021484Y-8996314D01*
X9015525Y-8977977D01*
X9015525Y-8977976D01*
X9006771Y-8960796D01*
X9004578Y-8957777D01*
X8962104Y-9000251D01*
X8959602Y-8994211D01*
X8952489Y-8983565D01*
X8943435Y-8974511D01*
X8932789Y-8967398D01*
X8926749Y-8964896D01*
X8969223Y-8922422D01*
X8969223Y-8922422D01*
X8966204Y-8920229D01*
X8949024Y-8911475D01*
X8949023Y-8911475D01*
X8930686Y-8905516D01*
X8911641Y-8902500D01*
X8892359Y-8902500D01*
X8873314Y-8905516D01*
X8854977Y-8911475D01*
X8854976Y-8911475D01*
X8837796Y-8920229D01*
X8837795Y-8920229D01*
X8834777Y-8922422D01*
X8834777Y-8922422D01*
X8877251Y-8964896D01*
X8871211Y-8967398D01*
X8860565Y-8974511D01*
X8851511Y-8983565D01*
X8844398Y-8994211D01*
X8841896Y-9000251D01*
X8799422Y-8957777D01*
X8799422Y-8957777D01*
X8797229Y-8960795D01*
X8797229Y-8960796D01*
X8788475Y-8977976D01*
X8788475Y-8977977D01*
X8782516Y-8996314D01*
X8779500Y-9015359D01*
X7755450Y-9015359D01*
X7755450Y-8909340D01*
X7754685Y-8904512D01*
X7752115Y-8888282D01*
X7752115Y-8888282D01*
X7752115Y-8888282D01*
X7749867Y-8881364D01*
X7748886Y-8878345D01*
X8616950Y-8878345D01*
X8616950Y-8891655D01*
X8620395Y-8904512D01*
X8627050Y-8916038D01*
X8636462Y-8925450D01*
X8647988Y-8932105D01*
X8660845Y-8935550D01*
X8660845Y-8935550D01*
X8674155Y-8935550D01*
X8674155Y-8935550D01*
X8687012Y-8932105D01*
X8698538Y-8925450D01*
X8707950Y-8916038D01*
X8714605Y-8904512D01*
X8718050Y-8891655D01*
X8718050Y-8878345D01*
X8714605Y-8865488D01*
X8707950Y-8853962D01*
X8698538Y-8844550D01*
X8687012Y-8837895D01*
X8674155Y-8834450D01*
X8660845Y-8834450D01*
X8647988Y-8837895D01*
X8647988Y-8837895D01*
X8636462Y-8844550D01*
X8636461Y-8844550D01*
X8627050Y-8853961D01*
X8627050Y-8853962D01*
X8620395Y-8865488D01*
X8620395Y-8865488D01*
X8616950Y-8878345D01*
X7748886Y-8878345D01*
X7745526Y-8868006D01*
X7745526Y-8868005D01*
X7744244Y-8865488D01*
X7735847Y-8849009D01*
X7723315Y-8831760D01*
X7708240Y-8816685D01*
X7690991Y-8804153D01*
X7671995Y-8794474D01*
X7671994Y-8794473D01*
X7651718Y-8787885D01*
X7637679Y-8785662D01*
X7630660Y-8784550D01*
X7609340Y-8784550D01*
X7602321Y-8785662D01*
X7588282Y-8787885D01*
X7588282Y-8787885D01*
X7568005Y-8794473D01*
X7568005Y-8794474D01*
X7549009Y-8804153D01*
X7531760Y-8816685D01*
X7516685Y-8831760D01*
X7504153Y-8849009D01*
X7494474Y-8868005D01*
X7494473Y-8868006D01*
X7487885Y-8888282D01*
X7487885Y-8888282D01*
X7484550Y-8909340D01*
X5641220Y-8909340D01*
X5641220Y-8523345D01*
X7209450Y-8523345D01*
X7209450Y-8536655D01*
X7212895Y-8549512D01*
X7219550Y-8561038D01*
X7228962Y-8570450D01*
X7240488Y-8577105D01*
X7253345Y-8580550D01*
X7253345Y-8580550D01*
X7266655Y-8580550D01*
X7266655Y-8580550D01*
X7279512Y-8577105D01*
X7291038Y-8570450D01*
X7300450Y-8561038D01*
X7307105Y-8549512D01*
X7309471Y-8540680D01*
X7995243Y-8540680D01*
X7995243Y-8553990D01*
X7997132Y-8561038D01*
X7998688Y-8566847D01*
X7998688Y-8566847D01*
X7999284Y-8567879D01*
X8005343Y-8578374D01*
X8014755Y-8587785D01*
X8026282Y-8594440D01*
X8039138Y-8597885D01*
X8039139Y-8597885D01*
X8052448Y-8597885D01*
X8052448Y-8597885D01*
X8065305Y-8594440D01*
X8076832Y-8587785D01*
X8086244Y-8578374D01*
X8092899Y-8566847D01*
X8096343Y-8553990D01*
X8096343Y-8553345D01*
X9259450Y-8553345D01*
X9259450Y-8566655D01*
X9262895Y-8579512D01*
X9269550Y-8591038D01*
X9278962Y-8600450D01*
X9290488Y-8607105D01*
X9303345Y-8610550D01*
X9303345Y-8610550D01*
X9307256Y-8610550D01*
X9313960Y-8612519D01*
X9318535Y-8617799D01*
X9319530Y-8624715D01*
X9317288Y-8630239D01*
X9307219Y-8644097D01*
X9297210Y-8663739D01*
X9297210Y-8663740D01*
X9290399Y-8684705D01*
X9286950Y-8706478D01*
X9286950Y-8728522D01*
X9290399Y-8750295D01*
X9297210Y-8771260D01*
X9297210Y-8771261D01*
X9307219Y-8790903D01*
X9320175Y-8808736D01*
X9320176Y-8808736D01*
X9335764Y-8824324D01*
X9335764Y-8824325D01*
X9351319Y-8835626D01*
X9353598Y-8837282D01*
X9366438Y-8843824D01*
X9373239Y-8847290D01*
X9373240Y-8847290D01*
X9378530Y-8849009D01*
X9394205Y-8854102D01*
X9415978Y-8857550D01*
X9415978Y-8857550D01*
X9438022Y-8857550D01*
X9438022Y-8857550D01*
X9459795Y-8854102D01*
X9480761Y-8847290D01*
X9500402Y-8837282D01*
X9518237Y-8824324D01*
X9533824Y-8808737D01*
X9546782Y-8790902D01*
X9556790Y-8771261D01*
X9563602Y-8750295D01*
X9567050Y-8728522D01*
X9567050Y-8706478D01*
X9566286Y-8701655D01*
X9564357Y-8689472D01*
X9564178Y-8688345D01*
X9874450Y-8688345D01*
X9874450Y-8701655D01*
X9877895Y-8714512D01*
X9884550Y-8726038D01*
X9893962Y-8735450D01*
X9905488Y-8742105D01*
X9918345Y-8745550D01*
X9918345Y-8745550D01*
X9931655Y-8745550D01*
X9931655Y-8745550D01*
X9944512Y-8742105D01*
X9956038Y-8735450D01*
X9965450Y-8726038D01*
X9972105Y-8714512D01*
X9974258Y-8706478D01*
X10286950Y-8706478D01*
X10286950Y-8728522D01*
X10290399Y-8750295D01*
X10297210Y-8771260D01*
X10297210Y-8771261D01*
X10307219Y-8790903D01*
X10320175Y-8808736D01*
X10320176Y-8808736D01*
X10335764Y-8824324D01*
X10335764Y-8824325D01*
X10351319Y-8835626D01*
X10353598Y-8837282D01*
X10366438Y-8843824D01*
X10373239Y-8847290D01*
X10373240Y-8847290D01*
X10378530Y-8849009D01*
X10394205Y-8854102D01*
X10415978Y-8857550D01*
X10415978Y-8857550D01*
X10438022Y-8857550D01*
X10438022Y-8857550D01*
X10459795Y-8854102D01*
X10480761Y-8847290D01*
X10500402Y-8837282D01*
X10518237Y-8824324D01*
X10533824Y-8808737D01*
X10546782Y-8790902D01*
X10556790Y-8771261D01*
X10563602Y-8750295D01*
X10567050Y-8728522D01*
X10567050Y-8706478D01*
X10563602Y-8684705D01*
X10556790Y-8663739D01*
X10556790Y-8663739D01*
X10552107Y-8654550D01*
X10546782Y-8644098D01*
X10536712Y-8630239D01*
X10533825Y-8626264D01*
X10533824Y-8626264D01*
X10518236Y-8610676D01*
X10518236Y-8610675D01*
X10500403Y-8597719D01*
X10500402Y-8597719D01*
X10500402Y-8597719D01*
X10493968Y-8594440D01*
X10480761Y-8587710D01*
X10480760Y-8587710D01*
X10459795Y-8580899D01*
X10448909Y-8579174D01*
X10438022Y-8577450D01*
X10415978Y-8577450D01*
X10408720Y-8578600D01*
X10394205Y-8580899D01*
X10373240Y-8587710D01*
X10373239Y-8587710D01*
X10353597Y-8597719D01*
X10335764Y-8610675D01*
X10335764Y-8610676D01*
X10320176Y-8626264D01*
X10320175Y-8626264D01*
X10307219Y-8644097D01*
X10297210Y-8663739D01*
X10297210Y-8663740D01*
X10290399Y-8684705D01*
X10286950Y-8706478D01*
X9974258Y-8706478D01*
X9975550Y-8701655D01*
X9975550Y-8688345D01*
X9972105Y-8675488D01*
X9965450Y-8663962D01*
X9956038Y-8654550D01*
X9944512Y-8647895D01*
X9931655Y-8644450D01*
X9918345Y-8644450D01*
X9905488Y-8647895D01*
X9905488Y-8647895D01*
X9893962Y-8654550D01*
X9893961Y-8654550D01*
X9884550Y-8663961D01*
X9884550Y-8663962D01*
X9877895Y-8675488D01*
X9877895Y-8675488D01*
X9874450Y-8688345D01*
X9564178Y-8688345D01*
X9564048Y-8687524D01*
X9563602Y-8684705D01*
X9556790Y-8663739D01*
X9556790Y-8663739D01*
X9552107Y-8654550D01*
X9546782Y-8644098D01*
X9536712Y-8630239D01*
X9533825Y-8626264D01*
X9533824Y-8626264D01*
X9518236Y-8610676D01*
X9518236Y-8610675D01*
X9500403Y-8597719D01*
X9500402Y-8597719D01*
X9500402Y-8597719D01*
X9493968Y-8594440D01*
X9480761Y-8587710D01*
X9480760Y-8587710D01*
X9459795Y-8580899D01*
X9448909Y-8579174D01*
X9438022Y-8577450D01*
X9415978Y-8577450D01*
X9415671Y-8577499D01*
X9394205Y-8580899D01*
X9374880Y-8587177D01*
X9367896Y-8587377D01*
X9361913Y-8583769D01*
X9358830Y-8577499D01*
X9359071Y-8572175D01*
X9360550Y-8566655D01*
X9360550Y-8553345D01*
X9357105Y-8540488D01*
X9350450Y-8528962D01*
X9341038Y-8519550D01*
X9329512Y-8512895D01*
X9316655Y-8509450D01*
X9303345Y-8509450D01*
X9290488Y-8512895D01*
X9290488Y-8512895D01*
X9278962Y-8519550D01*
X9278961Y-8519550D01*
X9269550Y-8528961D01*
X9269550Y-8528962D01*
X9262895Y-8540488D01*
X9262895Y-8540488D01*
X9259450Y-8553345D01*
X8096343Y-8553345D01*
X8096343Y-8540680D01*
X8092899Y-8527824D01*
X8086244Y-8516297D01*
X8076832Y-8506885D01*
X8065305Y-8500230D01*
X8052448Y-8496785D01*
X8039138Y-8496785D01*
X8026282Y-8500230D01*
X8026282Y-8500230D01*
X8014755Y-8506885D01*
X8014755Y-8506885D01*
X8005344Y-8516297D01*
X8005343Y-8516297D01*
X7998688Y-8527823D01*
X7998688Y-8527824D01*
X7995243Y-8540680D01*
X7309471Y-8540680D01*
X7310550Y-8536655D01*
X7310550Y-8523345D01*
X7307105Y-8510488D01*
X7300450Y-8498962D01*
X7291038Y-8489550D01*
X7283354Y-8485113D01*
X7279512Y-8482895D01*
X7279512Y-8482895D01*
X7279512Y-8482895D01*
X7266655Y-8479450D01*
X7253345Y-8479450D01*
X7240488Y-8482895D01*
X7240488Y-8482895D01*
X7228962Y-8489550D01*
X7228961Y-8489550D01*
X7219550Y-8498961D01*
X7219550Y-8498962D01*
X7212895Y-8510488D01*
X7212895Y-8510488D01*
X7209450Y-8523345D01*
X5641220Y-8523345D01*
X5641220Y-8466899D01*
X9574450Y-8466899D01*
X9574450Y-8487101D01*
X9578391Y-8506912D01*
X9578391Y-8506913D01*
X9586121Y-8525575D01*
X9586122Y-8525576D01*
X9597344Y-8542372D01*
X9611628Y-8556656D01*
X9628424Y-8567878D01*
X9628424Y-8567878D01*
X9628424Y-8567879D01*
X9647087Y-8575609D01*
X9666708Y-8579512D01*
X9666899Y-8579550D01*
X9666900Y-8579550D01*
X9666900Y-8579550D01*
X9687100Y-8579550D01*
X9687101Y-8579550D01*
X9706913Y-8575609D01*
X9725576Y-8567879D01*
X9742372Y-8556656D01*
X9756656Y-8542372D01*
X9767879Y-8525576D01*
X9775609Y-8506913D01*
X9779550Y-8487100D01*
X9779550Y-8466900D01*
X9779550Y-8466899D01*
X9824450Y-8466899D01*
X9824450Y-8487101D01*
X9828391Y-8506912D01*
X9828391Y-8506913D01*
X9836121Y-8525575D01*
X9836122Y-8525576D01*
X9847344Y-8542372D01*
X9861628Y-8556656D01*
X9878424Y-8567878D01*
X9878424Y-8567878D01*
X9878424Y-8567879D01*
X9897087Y-8575609D01*
X9916708Y-8579512D01*
X9916899Y-8579550D01*
X9916900Y-8579550D01*
X9916900Y-8579550D01*
X9937100Y-8579550D01*
X9937101Y-8579550D01*
X9956913Y-8575609D01*
X9975576Y-8567879D01*
X9992372Y-8556656D01*
X9992372Y-8556656D01*
X9993683Y-8555345D01*
X10006656Y-8542372D01*
X10006656Y-8542372D01*
X10017878Y-8525576D01*
X10017878Y-8525576D01*
X10017879Y-8525576D01*
X10025609Y-8506913D01*
X10029550Y-8487100D01*
X10029550Y-8468539D01*
X10069500Y-8468539D01*
X10069500Y-8485461D01*
X10072147Y-8502173D01*
X10077376Y-8518266D01*
X10085058Y-8533343D01*
X10085161Y-8533484D01*
X10085161Y-8533484D01*
X10124621Y-8494023D01*
X10125748Y-8498229D01*
X10132989Y-8510771D01*
X10143229Y-8521011D01*
X10155771Y-8528252D01*
X10159976Y-8529379D01*
X10120516Y-8568839D01*
X10120658Y-8568942D01*
X10135734Y-8576624D01*
X10151827Y-8581853D01*
X10168539Y-8584500D01*
X10185461Y-8584500D01*
X10202173Y-8581853D01*
X10218266Y-8576624D01*
X10233342Y-8568942D01*
X10233484Y-8568839D01*
X10194024Y-8529379D01*
X10198229Y-8528252D01*
X10210771Y-8521011D01*
X10221011Y-8510771D01*
X10228252Y-8498229D01*
X10229379Y-8494024D01*
X10268839Y-8533484D01*
X10268942Y-8533342D01*
X10276624Y-8518266D01*
X10281853Y-8502173D01*
X10284500Y-8485461D01*
X10284500Y-8468539D01*
X10281853Y-8451827D01*
X10276624Y-8435734D01*
X10268942Y-8420658D01*
X10268839Y-8420516D01*
X10229379Y-8459976D01*
X10228252Y-8455771D01*
X10221011Y-8443229D01*
X10210771Y-8432989D01*
X10198229Y-8425748D01*
X10194023Y-8424621D01*
X10233484Y-8385161D01*
X10233484Y-8385161D01*
X10233343Y-8385058D01*
X10218266Y-8377376D01*
X10202173Y-8372147D01*
X10185461Y-8369500D01*
X10168539Y-8369500D01*
X10151827Y-8372147D01*
X10135734Y-8377376D01*
X10120658Y-8385058D01*
X10120657Y-8385058D01*
X10120516Y-8385161D01*
X10120516Y-8385161D01*
X10159977Y-8424621D01*
X10155771Y-8425748D01*
X10143229Y-8432989D01*
X10132989Y-8443229D01*
X10125748Y-8455771D01*
X10124621Y-8459977D01*
X10085161Y-8420516D01*
X10085058Y-8420657D01*
X10085058Y-8420658D01*
X10077376Y-8435734D01*
X10072147Y-8451827D01*
X10069500Y-8468539D01*
X10029550Y-8468539D01*
X10029550Y-8466900D01*
X10025609Y-8447087D01*
X10017879Y-8428424D01*
X10017878Y-8428424D01*
X10017878Y-8428424D01*
X10006656Y-8411628D01*
X9992372Y-8397344D01*
X9975576Y-8386122D01*
X9975575Y-8386121D01*
X9956913Y-8378391D01*
X9956912Y-8378391D01*
X9937101Y-8374450D01*
X9937100Y-8374450D01*
X9916900Y-8374450D01*
X9916899Y-8374450D01*
X9897088Y-8378391D01*
X9897087Y-8378391D01*
X9878425Y-8386121D01*
X9878424Y-8386122D01*
X9861628Y-8397344D01*
X9847344Y-8411628D01*
X9836122Y-8428424D01*
X9836121Y-8428425D01*
X9828391Y-8447087D01*
X9828391Y-8447088D01*
X9824450Y-8466899D01*
X9779550Y-8466899D01*
X9775609Y-8447087D01*
X9767879Y-8428424D01*
X9767878Y-8428424D01*
X9767878Y-8428424D01*
X9756656Y-8411628D01*
X9742372Y-8397344D01*
X9725576Y-8386122D01*
X9725575Y-8386121D01*
X9706913Y-8378391D01*
X9706912Y-8378391D01*
X9687101Y-8374450D01*
X9687100Y-8374450D01*
X9666900Y-8374450D01*
X9666899Y-8374450D01*
X9647088Y-8378391D01*
X9647087Y-8378391D01*
X9628425Y-8386121D01*
X9628424Y-8386122D01*
X9611628Y-8397344D01*
X9597344Y-8411628D01*
X9586122Y-8428424D01*
X9586121Y-8428425D01*
X9578391Y-8447087D01*
X9578391Y-8447088D01*
X9574450Y-8466899D01*
X5641220Y-8466899D01*
X5641220Y-7973345D01*
X9229450Y-7973345D01*
X9229450Y-7986655D01*
X9232895Y-7999512D01*
X9239550Y-8011038D01*
X9248962Y-8020450D01*
X9260488Y-8027105D01*
X9273345Y-8030550D01*
X9273345Y-8030550D01*
X9286655Y-8030550D01*
X9286655Y-8030550D01*
X9299512Y-8027105D01*
X9311038Y-8020450D01*
X9320450Y-8011038D01*
X9327105Y-7999512D01*
X9330550Y-7986655D01*
X9330550Y-7973345D01*
X9327105Y-7960488D01*
X9320450Y-7948962D01*
X9311038Y-7939550D01*
X9299512Y-7932895D01*
X9286655Y-7929450D01*
X9273345Y-7929450D01*
X9260488Y-7932895D01*
X9260488Y-7932895D01*
X9248962Y-7939550D01*
X9248961Y-7939550D01*
X9239550Y-7948961D01*
X9239550Y-7948962D01*
X9232895Y-7960488D01*
X9232895Y-7960488D01*
X9229450Y-7973345D01*
X5641220Y-7973345D01*
X5641220Y-7915845D01*
X6441950Y-7915845D01*
X6441950Y-7929155D01*
X6445395Y-7942012D01*
X6452050Y-7953538D01*
X6461462Y-7962950D01*
X6472988Y-7969605D01*
X6485845Y-7973050D01*
X6485845Y-7973050D01*
X6499155Y-7973050D01*
X6499155Y-7973050D01*
X6512012Y-7969605D01*
X6523538Y-7962950D01*
X6532950Y-7953538D01*
X6539605Y-7942012D01*
X6543050Y-7929155D01*
X6543050Y-7915845D01*
X6539605Y-7902988D01*
X6532950Y-7891462D01*
X6523538Y-7882050D01*
X6512012Y-7875395D01*
X6499155Y-7871950D01*
X6485845Y-7871950D01*
X6472988Y-7875395D01*
X6472988Y-7875395D01*
X6461462Y-7882050D01*
X6461461Y-7882050D01*
X6452050Y-7891461D01*
X6452050Y-7891462D01*
X6445395Y-7902988D01*
X6445395Y-7902988D01*
X6441950Y-7915845D01*
X5641220Y-7915845D01*
X5641220Y-7860845D01*
X8999450Y-7860845D01*
X8999450Y-7874155D01*
X9002895Y-7887012D01*
X9009550Y-7898538D01*
X9018962Y-7907950D01*
X9030488Y-7914605D01*
X9043345Y-7918050D01*
X9043345Y-7918050D01*
X9056655Y-7918050D01*
X9056655Y-7918050D01*
X9069512Y-7914605D01*
X9081038Y-7907950D01*
X9086557Y-7902431D01*
X9092689Y-7899083D01*
X9099658Y-7899582D01*
X9105252Y-7903769D01*
X9106064Y-7905000D01*
X9109550Y-7911038D01*
X9118962Y-7920450D01*
X9130488Y-7927105D01*
X9143345Y-7930550D01*
X9143345Y-7930550D01*
X9156655Y-7930550D01*
X9156655Y-7930550D01*
X9169512Y-7927105D01*
X9181038Y-7920450D01*
X9190450Y-7911038D01*
X9197105Y-7899512D01*
X9200550Y-7886655D01*
X9200550Y-7873345D01*
X9197105Y-7860488D01*
X9190450Y-7848962D01*
X9181038Y-7839550D01*
X9169512Y-7832895D01*
X9156655Y-7829450D01*
X9143345Y-7829450D01*
X9130488Y-7832895D01*
X9130488Y-7832895D01*
X9118962Y-7839550D01*
X9118962Y-7839550D01*
X9113443Y-7845068D01*
X9107311Y-7848417D01*
X9100342Y-7847918D01*
X9094748Y-7843731D01*
X9093936Y-7842500D01*
X9090450Y-7836462D01*
X9081038Y-7827050D01*
X9069512Y-7820395D01*
X9056655Y-7816950D01*
X9043345Y-7816950D01*
X9030488Y-7820395D01*
X9030488Y-7820395D01*
X9018962Y-7827050D01*
X9018961Y-7827050D01*
X9009550Y-7836461D01*
X9009550Y-7836462D01*
X9002895Y-7847988D01*
X9002895Y-7847988D01*
X8999450Y-7860845D01*
X5641220Y-7860845D01*
X5641220Y-7750319D01*
X6807450Y-7750319D01*
X6807450Y-7762181D01*
X6810520Y-7773639D01*
X6816451Y-7783911D01*
X6824839Y-7792299D01*
X6835111Y-7798230D01*
X6846569Y-7801300D01*
X6846569Y-7801300D01*
X6858431Y-7801300D01*
X6858431Y-7801300D01*
X6869889Y-7798230D01*
X6880161Y-7792299D01*
X6884115Y-7788345D01*
X9234450Y-7788345D01*
X9234450Y-7801655D01*
X9237895Y-7814512D01*
X9244550Y-7826038D01*
X9253962Y-7835450D01*
X9265488Y-7842105D01*
X9278345Y-7845550D01*
X9278345Y-7845550D01*
X9291655Y-7845550D01*
X9291655Y-7845550D01*
X9304512Y-7842105D01*
X9316038Y-7835450D01*
X9325450Y-7826038D01*
X9332105Y-7814512D01*
X9335550Y-7801655D01*
X9335550Y-7788345D01*
X9332105Y-7775488D01*
X9325450Y-7763962D01*
X9316038Y-7754550D01*
X9304512Y-7747895D01*
X9291655Y-7744450D01*
X9278345Y-7744450D01*
X9265488Y-7747895D01*
X9265488Y-7747895D01*
X9253962Y-7754550D01*
X9253961Y-7754550D01*
X9244550Y-7763961D01*
X9244550Y-7763962D01*
X9237895Y-7775488D01*
X9237895Y-7775488D01*
X9234450Y-7788345D01*
X6884115Y-7788345D01*
X6888549Y-7783911D01*
X6894480Y-7773639D01*
X6897550Y-7762181D01*
X6897550Y-7750319D01*
X6894480Y-7738861D01*
X6888549Y-7728589D01*
X6880161Y-7720201D01*
X6869889Y-7714270D01*
X6858431Y-7711200D01*
X6846569Y-7711200D01*
X6835111Y-7714270D01*
X6835111Y-7714270D01*
X6835111Y-7714270D01*
X6824839Y-7720201D01*
X6824838Y-7720201D01*
X6816451Y-7728588D01*
X6816451Y-7728589D01*
X6810520Y-7738861D01*
X6807450Y-7750319D01*
X5641220Y-7750319D01*
X5641220Y-7628345D01*
X8604450Y-7628345D01*
X8604450Y-7641655D01*
X8607895Y-7654512D01*
X8614550Y-7666038D01*
X8623962Y-7675450D01*
X8635488Y-7682105D01*
X8648345Y-7685550D01*
X8648345Y-7685550D01*
X8661655Y-7685550D01*
X8661655Y-7685550D01*
X8674512Y-7682105D01*
X8674512Y-7682105D01*
X8674899Y-7682001D01*
X8681884Y-7682167D01*
X8687670Y-7686084D01*
X8690421Y-7692507D01*
X8689262Y-7699397D01*
X8688847Y-7700179D01*
X8682895Y-7710488D01*
X8682895Y-7710488D01*
X8679450Y-7723345D01*
X8679450Y-7736655D01*
X8682895Y-7749512D01*
X8689550Y-7761038D01*
X8698962Y-7770450D01*
X8710488Y-7777105D01*
X8723345Y-7780550D01*
X8723345Y-7780550D01*
X8736655Y-7780550D01*
X8736655Y-7780550D01*
X8749512Y-7777105D01*
X8761038Y-7770450D01*
X8770450Y-7761038D01*
X8777105Y-7749512D01*
X8780550Y-7736655D01*
X8780550Y-7723345D01*
X8777105Y-7710488D01*
X8770450Y-7698962D01*
X8761038Y-7689550D01*
X8749512Y-7682895D01*
X8736655Y-7679450D01*
X8723345Y-7679450D01*
X8723345Y-7679450D01*
X8710101Y-7682999D01*
X8703116Y-7682832D01*
X8697329Y-7678916D01*
X8695170Y-7673874D01*
X9294776Y-7673874D01*
X9294776Y-7687184D01*
X9298221Y-7700041D01*
X9304876Y-7711567D01*
X9314288Y-7720979D01*
X9325815Y-7727634D01*
X9338671Y-7731079D01*
X9338671Y-7731079D01*
X9351981Y-7731079D01*
X9351981Y-7731079D01*
X9364838Y-7727634D01*
X9376365Y-7720979D01*
X9385776Y-7711567D01*
X9392431Y-7700041D01*
X9395876Y-7687184D01*
X9395876Y-7673874D01*
X9392431Y-7661017D01*
X9385776Y-7649491D01*
X9376365Y-7640079D01*
X9364838Y-7633424D01*
X9351981Y-7629979D01*
X9338671Y-7629979D01*
X9325815Y-7633424D01*
X9325814Y-7633424D01*
X9314288Y-7640079D01*
X9314288Y-7640079D01*
X9304876Y-7649490D01*
X9304876Y-7649491D01*
X9298221Y-7661017D01*
X9298221Y-7661017D01*
X9294776Y-7673874D01*
X8695170Y-7673874D01*
X8694579Y-7672493D01*
X8695738Y-7665603D01*
X8696150Y-7664825D01*
X8702105Y-7654512D01*
X8705550Y-7641655D01*
X8705550Y-7630495D01*
X8707519Y-7623791D01*
X8711750Y-7619756D01*
X8712011Y-7619605D01*
X8712012Y-7619605D01*
X8723538Y-7612950D01*
X8732950Y-7603538D01*
X8739605Y-7592012D01*
X8743050Y-7579155D01*
X8743050Y-7565845D01*
X8742380Y-7563345D01*
X9469450Y-7563345D01*
X9469450Y-7576655D01*
X9472895Y-7589512D01*
X9479550Y-7601038D01*
X9488962Y-7610450D01*
X9495750Y-7614369D01*
X9500572Y-7619426D01*
X9501950Y-7625108D01*
X9501950Y-7634155D01*
X9505244Y-7646448D01*
X9505395Y-7647011D01*
X9505395Y-7647012D01*
X9506826Y-7649491D01*
X9512050Y-7658538D01*
X9521462Y-7667950D01*
X9532988Y-7674605D01*
X9545845Y-7678050D01*
X9545845Y-7678050D01*
X9559155Y-7678050D01*
X9559155Y-7678050D01*
X9566614Y-7676051D01*
X10231450Y-7676051D01*
X10231450Y-7694949D01*
X10234406Y-7713612D01*
X10240245Y-7731584D01*
X10248824Y-7748420D01*
X10259931Y-7763707D01*
X10273293Y-7777069D01*
X10288580Y-7788176D01*
X10296535Y-7792229D01*
X10305416Y-7796754D01*
X10305417Y-7796754D01*
X10305417Y-7796755D01*
X10309956Y-7798230D01*
X10323388Y-7802594D01*
X10342051Y-7805550D01*
X10342052Y-7805550D01*
X10360949Y-7805550D01*
X10379612Y-7802594D01*
X10382502Y-7801655D01*
X10397583Y-7796755D01*
X10414420Y-7788176D01*
X10429707Y-7777069D01*
X10443069Y-7763707D01*
X10454176Y-7748420D01*
X10462755Y-7731583D01*
X10468594Y-7713612D01*
X10469089Y-7710488D01*
X10471550Y-7694949D01*
X10471550Y-7676051D01*
X10468594Y-7657388D01*
X10465222Y-7647011D01*
X10462755Y-7639417D01*
X10462755Y-7639416D01*
X10462755Y-7639416D01*
X10457946Y-7629979D01*
X10454176Y-7622580D01*
X10443069Y-7607293D01*
X10429707Y-7593931D01*
X10414420Y-7582824D01*
X10412338Y-7581763D01*
X10397584Y-7574245D01*
X10379612Y-7568406D01*
X10360949Y-7565450D01*
X10360948Y-7565450D01*
X10342052Y-7565450D01*
X10342051Y-7565450D01*
X10323388Y-7568406D01*
X10305416Y-7574245D01*
X10288580Y-7582824D01*
X10282763Y-7587050D01*
X10273293Y-7593931D01*
X10273293Y-7593931D01*
X10273292Y-7593931D01*
X10259931Y-7607292D01*
X10259931Y-7607292D01*
X10259931Y-7607293D01*
X10257637Y-7610450D01*
X10248824Y-7622580D01*
X10240245Y-7639416D01*
X10234406Y-7657388D01*
X10231450Y-7676051D01*
X9566614Y-7676051D01*
X9572012Y-7674605D01*
X9583538Y-7667950D01*
X9592950Y-7658538D01*
X9599605Y-7647012D01*
X9603050Y-7634155D01*
X9603050Y-7620845D01*
X9599605Y-7607988D01*
X9592950Y-7596462D01*
X9583538Y-7587050D01*
X9576750Y-7583131D01*
X9575922Y-7582262D01*
X9574830Y-7581763D01*
X9573555Y-7579780D01*
X9571928Y-7578074D01*
X9571607Y-7576748D01*
X9571052Y-7575885D01*
X9570550Y-7572392D01*
X9570550Y-7566165D01*
X9572519Y-7559461D01*
X9576750Y-7555426D01*
X9581038Y-7552950D01*
X9583597Y-7550392D01*
X10502950Y-7550392D01*
X10502950Y-7569608D01*
X10506699Y-7588453D01*
X10506699Y-7588455D01*
X10514052Y-7606207D01*
X10514052Y-7606207D01*
X10524728Y-7622184D01*
X10524728Y-7622185D01*
X10538315Y-7635772D01*
X10538316Y-7635772D01*
X10554293Y-7646448D01*
X10554293Y-7646448D01*
X10554293Y-7646448D01*
X10554293Y-7646448D01*
X10572045Y-7653801D01*
X10572046Y-7653801D01*
X10590078Y-7657388D01*
X10590892Y-7657550D01*
X10590892Y-7657550D01*
X10590892Y-7657550D01*
X10610108Y-7657550D01*
X10610108Y-7657550D01*
X10628954Y-7653801D01*
X10646707Y-7646448D01*
X10662685Y-7635772D01*
X10676272Y-7622184D01*
X10686948Y-7606207D01*
X10694301Y-7588454D01*
X10698050Y-7569608D01*
X10698050Y-7550392D01*
X10698050Y-7550392D01*
X10698050Y-7550392D01*
X10696687Y-7543538D01*
X10694301Y-7531546D01*
X10690778Y-7523039D01*
X10686948Y-7513793D01*
X10686948Y-7513793D01*
X10676272Y-7497815D01*
X10676272Y-7497815D01*
X10662685Y-7484228D01*
X10662684Y-7484228D01*
X10646707Y-7473552D01*
X10646707Y-7473552D01*
X10628955Y-7466199D01*
X10628954Y-7466199D01*
X10610108Y-7462450D01*
X10610108Y-7462450D01*
X10590892Y-7462450D01*
X10590892Y-7462450D01*
X10572046Y-7466199D01*
X10572045Y-7466199D01*
X10554293Y-7473552D01*
X10554293Y-7473552D01*
X10538316Y-7484228D01*
X10538315Y-7484228D01*
X10524728Y-7497815D01*
X10524728Y-7497815D01*
X10514052Y-7513793D01*
X10514052Y-7513793D01*
X10506699Y-7531545D01*
X10506699Y-7531546D01*
X10502950Y-7550392D01*
X9583597Y-7550392D01*
X9590450Y-7543538D01*
X9597105Y-7532012D01*
X9600550Y-7519155D01*
X9600550Y-7505845D01*
X9597105Y-7492988D01*
X9590450Y-7481462D01*
X9581038Y-7472050D01*
X9572379Y-7467050D01*
X9569512Y-7465395D01*
X9569512Y-7465395D01*
X9569512Y-7465395D01*
X9556655Y-7461950D01*
X9543345Y-7461950D01*
X9530488Y-7465395D01*
X9530488Y-7465395D01*
X9518962Y-7472050D01*
X9518961Y-7472050D01*
X9509550Y-7481461D01*
X9509550Y-7481462D01*
X9502895Y-7492988D01*
X9502895Y-7492988D01*
X9499450Y-7505845D01*
X9499450Y-7516335D01*
X9497482Y-7523039D01*
X9493250Y-7527074D01*
X9488962Y-7529550D01*
X9488961Y-7529550D01*
X9479550Y-7538961D01*
X9479550Y-7538962D01*
X9472895Y-7550488D01*
X9472895Y-7550488D01*
X9469450Y-7563345D01*
X8742380Y-7563345D01*
X8739605Y-7552988D01*
X8732950Y-7541462D01*
X8723538Y-7532050D01*
X8723538Y-7532050D01*
X8723538Y-7532050D01*
X8718543Y-7529166D01*
X8713721Y-7524109D01*
X8712399Y-7517248D01*
X8712765Y-7515218D01*
X8713050Y-7514155D01*
X8713050Y-7500845D01*
X8709605Y-7487988D01*
X8702950Y-7476462D01*
X8693538Y-7467050D01*
X8682012Y-7460395D01*
X8669155Y-7456950D01*
X8655845Y-7456950D01*
X8642988Y-7460395D01*
X8642988Y-7460395D01*
X8631462Y-7467050D01*
X8631461Y-7467050D01*
X8622050Y-7476461D01*
X8622050Y-7476462D01*
X8615395Y-7487988D01*
X8615395Y-7487988D01*
X8611950Y-7500845D01*
X8611950Y-7514155D01*
X8615395Y-7527012D01*
X8622050Y-7538538D01*
X8631462Y-7547950D01*
X8635858Y-7550488D01*
X8636457Y-7550834D01*
X8641279Y-7555891D01*
X8642644Y-7562141D01*
X8642583Y-7563484D01*
X8641950Y-7565845D01*
X8641950Y-7577289D01*
X8641937Y-7577573D01*
X8640889Y-7580619D01*
X8639982Y-7583709D01*
X8639750Y-7583930D01*
X8639664Y-7584180D01*
X8638643Y-7584985D01*
X8635750Y-7587744D01*
X8623962Y-7594550D01*
X8623961Y-7594550D01*
X8614550Y-7603961D01*
X8614550Y-7603962D01*
X8607895Y-7615488D01*
X8607895Y-7615488D01*
X8604450Y-7628345D01*
X5641220Y-7628345D01*
X5641220Y-7369675D01*
X8907050Y-7369675D01*
X8907050Y-7380325D01*
X8909807Y-7390613D01*
X8915132Y-7399837D01*
X8922663Y-7407368D01*
X8922960Y-7407539D01*
X8923004Y-7407565D01*
X8923233Y-7407805D01*
X8923308Y-7407863D01*
X8923299Y-7407874D01*
X8927825Y-7412621D01*
X8929147Y-7419482D01*
X8928781Y-7421512D01*
X8926950Y-7428345D01*
X8926950Y-7428345D01*
X8926950Y-7441655D01*
X8930395Y-7454512D01*
X8937050Y-7466038D01*
X8946462Y-7475450D01*
X8957988Y-7482105D01*
X8970845Y-7485550D01*
X8970845Y-7485550D01*
X8984155Y-7485550D01*
X8984155Y-7485550D01*
X8997012Y-7482105D01*
X9008538Y-7475450D01*
X9017950Y-7466038D01*
X9024605Y-7454512D01*
X9028050Y-7441655D01*
X9028050Y-7428345D01*
X9189450Y-7428345D01*
X9189450Y-7441655D01*
X9192895Y-7454512D01*
X9199550Y-7466038D01*
X9208962Y-7475450D01*
X9220488Y-7482105D01*
X9233345Y-7485550D01*
X9233345Y-7485550D01*
X9246655Y-7485550D01*
X9246655Y-7485550D01*
X9259512Y-7482105D01*
X9271038Y-7475450D01*
X9280450Y-7466038D01*
X9287105Y-7454512D01*
X9290550Y-7441655D01*
X9290550Y-7429721D01*
X9292519Y-7423017D01*
X9296750Y-7418982D01*
X9298538Y-7417950D01*
X9307950Y-7408538D01*
X9314605Y-7397012D01*
X9318050Y-7384155D01*
X9318050Y-7370845D01*
X9314605Y-7357988D01*
X9307950Y-7346462D01*
X9298538Y-7337050D01*
X9287012Y-7330395D01*
X9274155Y-7326950D01*
X9260845Y-7326950D01*
X9247988Y-7330395D01*
X9247988Y-7330395D01*
X9236462Y-7337050D01*
X9236461Y-7337050D01*
X9227050Y-7346461D01*
X9227050Y-7346462D01*
X9220395Y-7357988D01*
X9220395Y-7357988D01*
X9216950Y-7370845D01*
X9216950Y-7382779D01*
X9214982Y-7389482D01*
X9210750Y-7393517D01*
X9208962Y-7394550D01*
X9208961Y-7394550D01*
X9199550Y-7403961D01*
X9199550Y-7403962D01*
X9192895Y-7415488D01*
X9192895Y-7415488D01*
X9189450Y-7428345D01*
X9028050Y-7428345D01*
X9024605Y-7415488D01*
X9017950Y-7403962D01*
X9008538Y-7394550D01*
X9001720Y-7390613D01*
X8997012Y-7387895D01*
X8996261Y-7387584D01*
X8996324Y-7387432D01*
X8991174Y-7384293D01*
X8988122Y-7378008D01*
X8987950Y-7375952D01*
X8987950Y-7369675D01*
X8987950Y-7369675D01*
X8985193Y-7359387D01*
X8979868Y-7350163D01*
X8972337Y-7342632D01*
X8963113Y-7337307D01*
X8952825Y-7334550D01*
X8942175Y-7334550D01*
X8931887Y-7337307D01*
X8922663Y-7342632D01*
X8922663Y-7342632D01*
X8915132Y-7350163D01*
X8915132Y-7350163D01*
X8909807Y-7359387D01*
X8909807Y-7359387D01*
X8907050Y-7369675D01*
X5641220Y-7369675D01*
X5641220Y-7278715D01*
X8137118Y-7278715D01*
X8137118Y-7292025D01*
X8140563Y-7304881D01*
X8147218Y-7316408D01*
X8156630Y-7325820D01*
X8168157Y-7332475D01*
X8181013Y-7335920D01*
X8181014Y-7335920D01*
X8194323Y-7335920D01*
X8194323Y-7335920D01*
X8207180Y-7332475D01*
X8218707Y-7325820D01*
X8228119Y-7316408D01*
X8234774Y-7304881D01*
X8238218Y-7292025D01*
X8238218Y-7278715D01*
X8234774Y-7265858D01*
X8228119Y-7254331D01*
X8218707Y-7244920D01*
X8207180Y-7238265D01*
X8194323Y-7234820D01*
X8181013Y-7234820D01*
X8168157Y-7238265D01*
X8168157Y-7238265D01*
X8156630Y-7244919D01*
X8156630Y-7244920D01*
X8147219Y-7254331D01*
X8147218Y-7254332D01*
X8140563Y-7265858D01*
X8140563Y-7265858D01*
X8137118Y-7278715D01*
X5641220Y-7278715D01*
X5641220Y-7223345D01*
X8999450Y-7223345D01*
X8999450Y-7236655D01*
X9002895Y-7249512D01*
X9009550Y-7261038D01*
X9018962Y-7270450D01*
X9030488Y-7277105D01*
X9043345Y-7280550D01*
X9043345Y-7280550D01*
X9057050Y-7280550D01*
X9063754Y-7282518D01*
X9068329Y-7287799D01*
X9069450Y-7292950D01*
X9069450Y-7296655D01*
X9072895Y-7309512D01*
X9079550Y-7321038D01*
X9088962Y-7330450D01*
X9100488Y-7337105D01*
X9113345Y-7340550D01*
X9113345Y-7340550D01*
X9126655Y-7340550D01*
X9126655Y-7340550D01*
X9139512Y-7337105D01*
X9151038Y-7330450D01*
X9160450Y-7321038D01*
X9167105Y-7309512D01*
X9170550Y-7296655D01*
X9170550Y-7283345D01*
X9959450Y-7283345D01*
X9959450Y-7296655D01*
X9962895Y-7309512D01*
X9969550Y-7321038D01*
X9978962Y-7330450D01*
X9990488Y-7337105D01*
X10003345Y-7340550D01*
X10003345Y-7340550D01*
X10016655Y-7340550D01*
X10016655Y-7340550D01*
X10029512Y-7337105D01*
X10041038Y-7330450D01*
X10050450Y-7321038D01*
X10057105Y-7309512D01*
X10060550Y-7296655D01*
X10060550Y-7283345D01*
X10109450Y-7283345D01*
X10109450Y-7296655D01*
X10112895Y-7309512D01*
X10119550Y-7321038D01*
X10128962Y-7330450D01*
X10140488Y-7337105D01*
X10153345Y-7340550D01*
X10153345Y-7340550D01*
X10166655Y-7340550D01*
X10166655Y-7340550D01*
X10179512Y-7337105D01*
X10191038Y-7330450D01*
X10200450Y-7321038D01*
X10207105Y-7309512D01*
X10210550Y-7296655D01*
X10210550Y-7283345D01*
X10207105Y-7270488D01*
X10200450Y-7258962D01*
X10191038Y-7249550D01*
X10179512Y-7242895D01*
X10166655Y-7239450D01*
X10153345Y-7239450D01*
X10140488Y-7242895D01*
X10140488Y-7242895D01*
X10128962Y-7249550D01*
X10128961Y-7249550D01*
X10119550Y-7258961D01*
X10119550Y-7258962D01*
X10112895Y-7270488D01*
X10112895Y-7270488D01*
X10109450Y-7283345D01*
X10060550Y-7283345D01*
X10057105Y-7270488D01*
X10050450Y-7258962D01*
X10041038Y-7249550D01*
X10029512Y-7242895D01*
X10016655Y-7239450D01*
X10003345Y-7239450D01*
X9990488Y-7242895D01*
X9990488Y-7242895D01*
X9978962Y-7249550D01*
X9978961Y-7249550D01*
X9969550Y-7258961D01*
X9969550Y-7258962D01*
X9962895Y-7270488D01*
X9962895Y-7270488D01*
X9959450Y-7283345D01*
X9170550Y-7283345D01*
X9167105Y-7270488D01*
X9160450Y-7258962D01*
X9151038Y-7249550D01*
X9139512Y-7242895D01*
X9126655Y-7239450D01*
X9113345Y-7239450D01*
X9112950Y-7239450D01*
X9106246Y-7237481D01*
X9101671Y-7232201D01*
X9100550Y-7227050D01*
X9100550Y-7223345D01*
X9100550Y-7223345D01*
X9097105Y-7210488D01*
X9090450Y-7198962D01*
X9081038Y-7189550D01*
X9069512Y-7182895D01*
X9056655Y-7179450D01*
X9043345Y-7179450D01*
X9030488Y-7182895D01*
X9030488Y-7182895D01*
X9018962Y-7189550D01*
X9018961Y-7189550D01*
X9009550Y-7198961D01*
X9009550Y-7198962D01*
X9002895Y-7210488D01*
X9002895Y-7210488D01*
X8999450Y-7223345D01*
X5641220Y-7223345D01*
X5641220Y-7120845D01*
X7709450Y-7120845D01*
X7709450Y-7134155D01*
X7712895Y-7147012D01*
X7719550Y-7158538D01*
X7728962Y-7167950D01*
X7740488Y-7174605D01*
X7753345Y-7178050D01*
X7753345Y-7178050D01*
X7766655Y-7178050D01*
X7766655Y-7178050D01*
X7779512Y-7174605D01*
X7791038Y-7167950D01*
X7800450Y-7158538D01*
X7807105Y-7147012D01*
X7810550Y-7134155D01*
X7810550Y-7120845D01*
X7807105Y-7107988D01*
X7800450Y-7096462D01*
X7791038Y-7087050D01*
X7779512Y-7080395D01*
X7766655Y-7076950D01*
X7753345Y-7076950D01*
X7740488Y-7080395D01*
X7740488Y-7080395D01*
X7728962Y-7087050D01*
X7728961Y-7087050D01*
X7719550Y-7096461D01*
X7719550Y-7096462D01*
X7712895Y-7107988D01*
X7712895Y-7107988D01*
X7709450Y-7120845D01*
X5641220Y-7120845D01*
X5641220Y-6975051D01*
X10231450Y-6975051D01*
X10231450Y-6993949D01*
X10234406Y-7012612D01*
X10240245Y-7030584D01*
X10248824Y-7047420D01*
X10259931Y-7062707D01*
X10273293Y-7076069D01*
X10288580Y-7087176D01*
X10290682Y-7088247D01*
X10305416Y-7095754D01*
X10305417Y-7095754D01*
X10305417Y-7095755D01*
X10315050Y-7098885D01*
X10323388Y-7101594D01*
X10342051Y-7104550D01*
X10342052Y-7104550D01*
X10360949Y-7104550D01*
X10379612Y-7101594D01*
X10384813Y-7099904D01*
X10498000Y-7099904D01*
X10498000Y-7120096D01*
X10501939Y-7139897D01*
X10501939Y-7139898D01*
X10509665Y-7158551D01*
X10512440Y-7162704D01*
X10552204Y-7122941D01*
X10553908Y-7129299D01*
X10560490Y-7140701D01*
X10569799Y-7150010D01*
X10581201Y-7156592D01*
X10587559Y-7158296D01*
X10547795Y-7198060D01*
X10547796Y-7198060D01*
X10551948Y-7200834D01*
X10551948Y-7200835D01*
X10570602Y-7208561D01*
X10570603Y-7208561D01*
X10590404Y-7212500D01*
X10590405Y-7212500D01*
X10610596Y-7212500D01*
X10610596Y-7212500D01*
X10630397Y-7208561D01*
X10630398Y-7208561D01*
X10649051Y-7200835D01*
X10649053Y-7200834D01*
X10653204Y-7198060D01*
X10653204Y-7198060D01*
X10613441Y-7158296D01*
X10619799Y-7156592D01*
X10631201Y-7150010D01*
X10640510Y-7140701D01*
X10647093Y-7129299D01*
X10648796Y-7122941D01*
X10688560Y-7162704D01*
X10688560Y-7162704D01*
X10691334Y-7158553D01*
X10691335Y-7158551D01*
X10699061Y-7139898D01*
X10699061Y-7139897D01*
X10703000Y-7120096D01*
X10703000Y-7120095D01*
X10703000Y-7099904D01*
X10703000Y-7099904D01*
X10699061Y-7080102D01*
X10699061Y-7080102D01*
X10691335Y-7061448D01*
X10691334Y-7061447D01*
X10688560Y-7057295D01*
X10688560Y-7057295D01*
X10648796Y-7097059D01*
X10647093Y-7090701D01*
X10640510Y-7079299D01*
X10631201Y-7069990D01*
X10619799Y-7063407D01*
X10613441Y-7061704D01*
X10653204Y-7021940D01*
X10649051Y-7019165D01*
X10630398Y-7011439D01*
X10630397Y-7011439D01*
X10610596Y-7007500D01*
X10590404Y-7007500D01*
X10570603Y-7011439D01*
X10570602Y-7011439D01*
X10551949Y-7019165D01*
X10551947Y-7019166D01*
X10547796Y-7021940D01*
X10547796Y-7021940D01*
X10587559Y-7061704D01*
X10581201Y-7063407D01*
X10569799Y-7069990D01*
X10560490Y-7079299D01*
X10553908Y-7090701D01*
X10552204Y-7097059D01*
X10512440Y-7057295D01*
X10512440Y-7057295D01*
X10509666Y-7061447D01*
X10509665Y-7061449D01*
X10501939Y-7080102D01*
X10501939Y-7080102D01*
X10498000Y-7099904D01*
X10384813Y-7099904D01*
X10397583Y-7095755D01*
X10414420Y-7087176D01*
X10429707Y-7076069D01*
X10443069Y-7062707D01*
X10454176Y-7047420D01*
X10462755Y-7030583D01*
X10468594Y-7012612D01*
X10469404Y-7007500D01*
X10471550Y-6993949D01*
X10471550Y-6975051D01*
X10468594Y-6956388D01*
X10462755Y-6938416D01*
X10454176Y-6921580D01*
X10443069Y-6906293D01*
X10429707Y-6892931D01*
X10414420Y-6881824D01*
X10409181Y-6879155D01*
X10397584Y-6873245D01*
X10379612Y-6867406D01*
X10360949Y-6864450D01*
X10360948Y-6864450D01*
X10342052Y-6864450D01*
X10342051Y-6864450D01*
X10323388Y-6867406D01*
X10305416Y-6873245D01*
X10288580Y-6881824D01*
X10279858Y-6888161D01*
X10273293Y-6892931D01*
X10273293Y-6892931D01*
X10273292Y-6892931D01*
X10259931Y-6906292D01*
X10259931Y-6906292D01*
X10259931Y-6906293D01*
X10255161Y-6912858D01*
X10248824Y-6921580D01*
X10240245Y-6938416D01*
X10234406Y-6956388D01*
X10231450Y-6975051D01*
X5641220Y-6975051D01*
X5641220Y-6865845D01*
X7874450Y-6865845D01*
X7874450Y-6879155D01*
X7877895Y-6892012D01*
X7884550Y-6903538D01*
X7893962Y-6912950D01*
X7905488Y-6919605D01*
X7918345Y-6923050D01*
X7918345Y-6923050D01*
X7931655Y-6923050D01*
X7931655Y-6923050D01*
X7944512Y-6919605D01*
X7956038Y-6912950D01*
X7965450Y-6903538D01*
X7972105Y-6892012D01*
X7975550Y-6879155D01*
X7975550Y-6865845D01*
X7972105Y-6852988D01*
X7965450Y-6841462D01*
X7961507Y-6837518D01*
X7958158Y-6831386D01*
X7958656Y-6824417D01*
X7961507Y-6819982D01*
X7970450Y-6811038D01*
X7977105Y-6799512D01*
X7980550Y-6786655D01*
X7980550Y-6773345D01*
X7977105Y-6760488D01*
X7970450Y-6748962D01*
X7961038Y-6739550D01*
X7949512Y-6732895D01*
X7936655Y-6729450D01*
X7923345Y-6729450D01*
X7910488Y-6732895D01*
X7910488Y-6732895D01*
X7898962Y-6739550D01*
X7898961Y-6739550D01*
X7889550Y-6748961D01*
X7889550Y-6748962D01*
X7882895Y-6760488D01*
X7882895Y-6760488D01*
X7879450Y-6773345D01*
X7879450Y-6786655D01*
X7882895Y-6799512D01*
X7889550Y-6811038D01*
X7889550Y-6811039D01*
X7893493Y-6814982D01*
X7896842Y-6821114D01*
X7896343Y-6828083D01*
X7893493Y-6832518D01*
X7884550Y-6841461D01*
X7884550Y-6841462D01*
X7877895Y-6852988D01*
X7877895Y-6852988D01*
X7874450Y-6865845D01*
X5641220Y-6865845D01*
X5641220Y-6232775D01*
X6204500Y-6232775D01*
X6204500Y-6511225D01*
X6205663Y-6517073D01*
X6205663Y-6517073D01*
X6210095Y-6523705D01*
X6216727Y-6528137D01*
X6216727Y-6528137D01*
X6222575Y-6529300D01*
X6222575Y-6529300D01*
X6222575Y-6529300D01*
X6501025Y-6529300D01*
X6501025Y-6529300D01*
X6502507Y-6529005D01*
X6506873Y-6528137D01*
X6506873Y-6528137D01*
X6506873Y-6528137D01*
X6513505Y-6523705D01*
X6517937Y-6517073D01*
X6517937Y-6517073D01*
X6517937Y-6517073D01*
X6519100Y-6511225D01*
X6519100Y-6511225D01*
X6519100Y-6359620D01*
X6712500Y-6359620D01*
X6712500Y-6384380D01*
X6716373Y-6408835D01*
X6716373Y-6408835D01*
X6724024Y-6432382D01*
X6724024Y-6432382D01*
X6735265Y-6454443D01*
X6749818Y-6474474D01*
X6767326Y-6491982D01*
X6787357Y-6506535D01*
X6796561Y-6511225D01*
X6809418Y-6517776D01*
X6830196Y-6524527D01*
X6832965Y-6525427D01*
X6857420Y-6529300D01*
X6857420Y-6529300D01*
X6882180Y-6529300D01*
X6882180Y-6529300D01*
X6906634Y-6525427D01*
X6906635Y-6525427D01*
X6906635Y-6525427D01*
X6930182Y-6517776D01*
X6930182Y-6517776D01*
X6930182Y-6517776D01*
X6952243Y-6506535D01*
X6956634Y-6503345D01*
X7995190Y-6503345D01*
X7995190Y-6516655D01*
X7998635Y-6529512D01*
X8005290Y-6541038D01*
X8014702Y-6550450D01*
X8026228Y-6557105D01*
X8039085Y-6560550D01*
X8039085Y-6560550D01*
X8052395Y-6560550D01*
X8052395Y-6560550D01*
X8065252Y-6557105D01*
X8076778Y-6550450D01*
X8086190Y-6541038D01*
X8092845Y-6529512D01*
X8096290Y-6516655D01*
X8096290Y-6503345D01*
X8093610Y-6493345D01*
X9039450Y-6493345D01*
X9039450Y-6506655D01*
X9042895Y-6519512D01*
X9049550Y-6531038D01*
X9058962Y-6540450D01*
X9070488Y-6547105D01*
X9083345Y-6550550D01*
X9083345Y-6550550D01*
X9096655Y-6550550D01*
X9096655Y-6550550D01*
X9109512Y-6547105D01*
X9121038Y-6540450D01*
X9130450Y-6531038D01*
X9137105Y-6519512D01*
X9140550Y-6506655D01*
X9140550Y-6493345D01*
X9137105Y-6480488D01*
X9130450Y-6468962D01*
X9121038Y-6459550D01*
X9109512Y-6452895D01*
X9096655Y-6449450D01*
X9083345Y-6449450D01*
X9070488Y-6452895D01*
X9070488Y-6452895D01*
X9058962Y-6459550D01*
X9058961Y-6459550D01*
X9049550Y-6468961D01*
X9049550Y-6468962D01*
X9042895Y-6480488D01*
X9042895Y-6480488D01*
X9039450Y-6493345D01*
X8093610Y-6493345D01*
X8092845Y-6490488D01*
X8086190Y-6478962D01*
X8076778Y-6469550D01*
X8065252Y-6462895D01*
X8052395Y-6459450D01*
X8039085Y-6459450D01*
X8026228Y-6462895D01*
X8026228Y-6462895D01*
X8014702Y-6469550D01*
X8014701Y-6469550D01*
X8005290Y-6478961D01*
X8005290Y-6478962D01*
X7998635Y-6490488D01*
X7998635Y-6490488D01*
X7995190Y-6503345D01*
X6956634Y-6503345D01*
X6972274Y-6491982D01*
X6989782Y-6474474D01*
X7004335Y-6454443D01*
X7015576Y-6432382D01*
X7023227Y-6408834D01*
X7027100Y-6384380D01*
X7027100Y-6359620D01*
X7026819Y-6357846D01*
X10654550Y-6357846D01*
X10654550Y-6382154D01*
X10654550Y-6382156D01*
X10657723Y-6406257D01*
X10664015Y-6429739D01*
X10673318Y-6452197D01*
X10673318Y-6452199D01*
X10685473Y-6473252D01*
X10700272Y-6492538D01*
X10700273Y-6492539D01*
X10717461Y-6509727D01*
X10717462Y-6509728D01*
X10717462Y-6509728D01*
X10721949Y-6513171D01*
X10736748Y-6524527D01*
X10757801Y-6536682D01*
X10757803Y-6536682D01*
X10768318Y-6541038D01*
X10780261Y-6545985D01*
X10803743Y-6552277D01*
X10827845Y-6555450D01*
X10827846Y-6555450D01*
X10852154Y-6555450D01*
X10852155Y-6555450D01*
X10876257Y-6552277D01*
X10899739Y-6545985D01*
X10922198Y-6536682D01*
X10943252Y-6524527D01*
X10962538Y-6509728D01*
X10962538Y-6509727D01*
X10962539Y-6509727D01*
X10979727Y-6492539D01*
X10979727Y-6492538D01*
X10979728Y-6492538D01*
X10994527Y-6473252D01*
X11006682Y-6452198D01*
X11015985Y-6429739D01*
X11022277Y-6406257D01*
X11025450Y-6382155D01*
X11025450Y-6357845D01*
X11022277Y-6333743D01*
X11015985Y-6310261D01*
X11011493Y-6299417D01*
X11006682Y-6287803D01*
X11006682Y-6287801D01*
X10994527Y-6266748D01*
X10979728Y-6247462D01*
X10979727Y-6247461D01*
X10962539Y-6230273D01*
X10962538Y-6230272D01*
X10943252Y-6215473D01*
X10922199Y-6203318D01*
X10922197Y-6203317D01*
X10899739Y-6194015D01*
X10876257Y-6187723D01*
X10852156Y-6184550D01*
X10852156Y-6184550D01*
X10852155Y-6184550D01*
X10827845Y-6184550D01*
X10827844Y-6184550D01*
X10827844Y-6184550D01*
X10803743Y-6187723D01*
X10780261Y-6194015D01*
X10757803Y-6203317D01*
X10757801Y-6203318D01*
X10736748Y-6215473D01*
X10717462Y-6230272D01*
X10700272Y-6247462D01*
X10685473Y-6266748D01*
X10673318Y-6287801D01*
X10673318Y-6287803D01*
X10664015Y-6310261D01*
X10657723Y-6333743D01*
X10654550Y-6357844D01*
X10654550Y-6357846D01*
X7026819Y-6357846D01*
X7025903Y-6352061D01*
X7023227Y-6335165D01*
X7023227Y-6335165D01*
X7023227Y-6335165D01*
X7015576Y-6311618D01*
X7004335Y-6289557D01*
X6989782Y-6269526D01*
X6972274Y-6252018D01*
X6952243Y-6237465D01*
X6930182Y-6226224D01*
X6906635Y-6218573D01*
X6887061Y-6215473D01*
X6882180Y-6214700D01*
X6857420Y-6214700D01*
X6852539Y-6215473D01*
X6832965Y-6218573D01*
X6832965Y-6218573D01*
X6809418Y-6226224D01*
X6787357Y-6237465D01*
X6767326Y-6252018D01*
X6749818Y-6269526D01*
X6735265Y-6289557D01*
X6724024Y-6311618D01*
X6716373Y-6335165D01*
X6716373Y-6335165D01*
X6712500Y-6359620D01*
X6519100Y-6359620D01*
X6519100Y-6232775D01*
X6519100Y-6232775D01*
X6517937Y-6226927D01*
X6517937Y-6226927D01*
X6513505Y-6220295D01*
X6506873Y-6215863D01*
X6506873Y-6215863D01*
X6501025Y-6214700D01*
X6501025Y-6214700D01*
X6222575Y-6214700D01*
X6222575Y-6214700D01*
X6216727Y-6215863D01*
X6216727Y-6215863D01*
X6210095Y-6220295D01*
X6205663Y-6226927D01*
X6205663Y-6226927D01*
X6204500Y-6232775D01*
X5641220Y-6232775D01*
X5641220Y-6023345D01*
X5779450Y-6023345D01*
X5779450Y-6036655D01*
X5782895Y-6049512D01*
X5789550Y-6061038D01*
X5798962Y-6070450D01*
X5810488Y-6077105D01*
X5823345Y-6080550D01*
X5823345Y-6080550D01*
X5836655Y-6080550D01*
X5836655Y-6080550D01*
X5849512Y-6077105D01*
X5861038Y-6070450D01*
X5870450Y-6061038D01*
X5877105Y-6049512D01*
X5880550Y-6036655D01*
X5880550Y-6023345D01*
X5877105Y-6010488D01*
X5870450Y-5998962D01*
X5861038Y-5989550D01*
X5849512Y-5982895D01*
X5836655Y-5979450D01*
X5823345Y-5979450D01*
X5810488Y-5982895D01*
X5810488Y-5982895D01*
X5798962Y-5989550D01*
X5798961Y-5989550D01*
X5789550Y-5998961D01*
X5789550Y-5998962D01*
X5782895Y-6010488D01*
X5782895Y-6010488D01*
X5779450Y-6023345D01*
X5641220Y-6023345D01*
X5641220Y-5597620D01*
X6458500Y-5597620D01*
X6458500Y-5622380D01*
X6462373Y-5646835D01*
X6462373Y-5646835D01*
X6470024Y-5670382D01*
X6472657Y-5675550D01*
X6481265Y-5692443D01*
X6495818Y-5712474D01*
X6513326Y-5729982D01*
X6533357Y-5744535D01*
X6555418Y-5755776D01*
X6555418Y-5755776D01*
X6577382Y-5762912D01*
X6578965Y-5763427D01*
X6603420Y-5767300D01*
X6603420Y-5767300D01*
X6628180Y-5767300D01*
X6628180Y-5767300D01*
X6652634Y-5763427D01*
X6652635Y-5763427D01*
X6652635Y-5763427D01*
X6676182Y-5755776D01*
X6676182Y-5755776D01*
X6676182Y-5755776D01*
X6698243Y-5744535D01*
X6718274Y-5729982D01*
X6735782Y-5712474D01*
X6750335Y-5692443D01*
X6761576Y-5670382D01*
X6768889Y-5647874D01*
X6769227Y-5646835D01*
X6769227Y-5646835D01*
X6769227Y-5646834D01*
X6773100Y-5622380D01*
X6773100Y-5618345D01*
X6936950Y-5618345D01*
X6936950Y-5631655D01*
X6938224Y-5636409D01*
X6940395Y-5644511D01*
X6940395Y-5644512D01*
X6941736Y-5646834D01*
X6947050Y-5656038D01*
X6956462Y-5665450D01*
X6967988Y-5672105D01*
X6980845Y-5675550D01*
X6980845Y-5675550D01*
X6994155Y-5675550D01*
X6994155Y-5675550D01*
X7007012Y-5672105D01*
X7018538Y-5665450D01*
X7027950Y-5656038D01*
X7034605Y-5644512D01*
X7038050Y-5631655D01*
X7038050Y-5618345D01*
X7034605Y-5605488D01*
X7027950Y-5593962D01*
X7018538Y-5584550D01*
X7017547Y-5583978D01*
X8189950Y-5583978D01*
X8189950Y-5606022D01*
X8190997Y-5612633D01*
X8193398Y-5627795D01*
X8200210Y-5648760D01*
X8200210Y-5648761D01*
X8210219Y-5668402D01*
X8223175Y-5686236D01*
X8223176Y-5686236D01*
X8238764Y-5701824D01*
X8238764Y-5701825D01*
X8249968Y-5709965D01*
X8256598Y-5714781D01*
X8269437Y-5721324D01*
X8276239Y-5724789D01*
X8276240Y-5724790D01*
X8286722Y-5728195D01*
X8297205Y-5731601D01*
X8318978Y-5735050D01*
X8318978Y-5735050D01*
X8341022Y-5735050D01*
X8341022Y-5735050D01*
X8362795Y-5731601D01*
X8383761Y-5724789D01*
X8403402Y-5714781D01*
X8421237Y-5701824D01*
X8436824Y-5686236D01*
X8449782Y-5668402D01*
X8459790Y-5648761D01*
X8466602Y-5627795D01*
X8470050Y-5606022D01*
X8470050Y-5583978D01*
X8689950Y-5583978D01*
X8689950Y-5606022D01*
X8690997Y-5612633D01*
X8693399Y-5627795D01*
X8700210Y-5648760D01*
X8700210Y-5648761D01*
X8710219Y-5668402D01*
X8723175Y-5686236D01*
X8723176Y-5686236D01*
X8738764Y-5701824D01*
X8738764Y-5701825D01*
X8749968Y-5709965D01*
X8756598Y-5714781D01*
X8769438Y-5721324D01*
X8776239Y-5724789D01*
X8776240Y-5724790D01*
X8786722Y-5728195D01*
X8797205Y-5731601D01*
X8818978Y-5735050D01*
X8818978Y-5735050D01*
X8841022Y-5735050D01*
X8841022Y-5735050D01*
X8862795Y-5731601D01*
X8883761Y-5724789D01*
X8903402Y-5714781D01*
X8921237Y-5701824D01*
X8936824Y-5686236D01*
X8949782Y-5668402D01*
X8959790Y-5648761D01*
X8966602Y-5627795D01*
X8970050Y-5606022D01*
X8970050Y-5583978D01*
X9189950Y-5583978D01*
X9189950Y-5606022D01*
X9190997Y-5612633D01*
X9193399Y-5627795D01*
X9200210Y-5648760D01*
X9200210Y-5648761D01*
X9210219Y-5668402D01*
X9223175Y-5686236D01*
X9223176Y-5686236D01*
X9238764Y-5701824D01*
X9238764Y-5701825D01*
X9249968Y-5709965D01*
X9256598Y-5714781D01*
X9269438Y-5721324D01*
X9276239Y-5724789D01*
X9276240Y-5724790D01*
X9286722Y-5728195D01*
X9297205Y-5731601D01*
X9318978Y-5735050D01*
X9318978Y-5735050D01*
X9341022Y-5735050D01*
X9341022Y-5735050D01*
X9362795Y-5731601D01*
X9383761Y-5724789D01*
X9403402Y-5714781D01*
X9421237Y-5701824D01*
X9436824Y-5686236D01*
X9449782Y-5668402D01*
X9459790Y-5648761D01*
X9466602Y-5627795D01*
X9470050Y-5606022D01*
X9470050Y-5583978D01*
X9689950Y-5583978D01*
X9689950Y-5606022D01*
X9690997Y-5612633D01*
X9693399Y-5627795D01*
X9700210Y-5648760D01*
X9700210Y-5648761D01*
X9710219Y-5668402D01*
X9723175Y-5686236D01*
X9723176Y-5686236D01*
X9738764Y-5701824D01*
X9738764Y-5701825D01*
X9749968Y-5709965D01*
X9756598Y-5714781D01*
X9769438Y-5721324D01*
X9776239Y-5724789D01*
X9776240Y-5724790D01*
X9786722Y-5728195D01*
X9797205Y-5731601D01*
X9818978Y-5735050D01*
X9818978Y-5735050D01*
X9841022Y-5735050D01*
X9841022Y-5735050D01*
X9862795Y-5731601D01*
X9883761Y-5724789D01*
X9903402Y-5714781D01*
X9921237Y-5701824D01*
X9936824Y-5686236D01*
X9949782Y-5668402D01*
X9959790Y-5648761D01*
X9966602Y-5627795D01*
X9969509Y-5609436D01*
X10616700Y-5609436D01*
X10620381Y-5627943D01*
X10620382Y-5627944D01*
X10627603Y-5645378D01*
X10627603Y-5645379D01*
X10629271Y-5647874D01*
X10629271Y-5647874D01*
X10667878Y-5609267D01*
X10670101Y-5617562D01*
X10676091Y-5627938D01*
X10684562Y-5636409D01*
X10694938Y-5642399D01*
X10703233Y-5644622D01*
X10664626Y-5683229D01*
X10664626Y-5683229D01*
X10667121Y-5684896D01*
X10667122Y-5684897D01*
X10684556Y-5692118D01*
X10684557Y-5692118D01*
X10703064Y-5695800D01*
X10717774Y-5695800D01*
X10724478Y-5697768D01*
X10729054Y-5703049D01*
X10730048Y-5709965D01*
X10728085Y-5715089D01*
X10726689Y-5717177D01*
X10725133Y-5725000D01*
X10726689Y-5732823D01*
X10730002Y-5737781D01*
X10824719Y-5832498D01*
X10829677Y-5835810D01*
X10829677Y-5835811D01*
X10837500Y-5837367D01*
X10845323Y-5835811D01*
X10850281Y-5832498D01*
X10944998Y-5737781D01*
X10948311Y-5732823D01*
X10949867Y-5725000D01*
X10948311Y-5717177D01*
X10944998Y-5712219D01*
X10944998Y-5712219D01*
X10850281Y-5617502D01*
X10845323Y-5614189D01*
X10837500Y-5612633D01*
X10829677Y-5614189D01*
X10827589Y-5615584D01*
X10820921Y-5617672D01*
X10814183Y-5615824D01*
X10809514Y-5610626D01*
X10808300Y-5605274D01*
X10808300Y-5590564D01*
X10805968Y-5578839D01*
X10806590Y-5571880D01*
X10810877Y-5566362D01*
X10817466Y-5564038D01*
X10820548Y-5564258D01*
X10824637Y-5565071D01*
X10828552Y-5565850D01*
X10828552Y-5565850D01*
X10828552Y-5565850D01*
X10846448Y-5565850D01*
X10846448Y-5565850D01*
X10864000Y-5562359D01*
X10880534Y-5555510D01*
X10895414Y-5545568D01*
X10908068Y-5532914D01*
X10918010Y-5518034D01*
X10924859Y-5501500D01*
X10928350Y-5483948D01*
X10928350Y-5466052D01*
X10924859Y-5448500D01*
X10918010Y-5431966D01*
X10918010Y-5431966D01*
X10918010Y-5431966D01*
X10908068Y-5417087D01*
X10908068Y-5417086D01*
X10895414Y-5404432D01*
X10895413Y-5404432D01*
X10880534Y-5394490D01*
X10880533Y-5394490D01*
X10864000Y-5387641D01*
X10863999Y-5387641D01*
X10846448Y-5384150D01*
X10846448Y-5384150D01*
X10828552Y-5384150D01*
X10828552Y-5384150D01*
X10815294Y-5386787D01*
X10808334Y-5386165D01*
X10802817Y-5381878D01*
X10800492Y-5375289D01*
X10800713Y-5372207D01*
X10803350Y-5358948D01*
X10803350Y-5341052D01*
X10799859Y-5323500D01*
X10793010Y-5306966D01*
X10793010Y-5306966D01*
X10793010Y-5306966D01*
X10783068Y-5292087D01*
X10783068Y-5292086D01*
X10770414Y-5279432D01*
X10770413Y-5279432D01*
X10755534Y-5269490D01*
X10755533Y-5269490D01*
X10739000Y-5262641D01*
X10738999Y-5262641D01*
X10721448Y-5259150D01*
X10721448Y-5259150D01*
X10703552Y-5259150D01*
X10703552Y-5259150D01*
X10686001Y-5262641D01*
X10686000Y-5262641D01*
X10669467Y-5269490D01*
X10669466Y-5269490D01*
X10654587Y-5279432D01*
X10654586Y-5279432D01*
X10641932Y-5292086D01*
X10641932Y-5292087D01*
X10631990Y-5306966D01*
X10631990Y-5306967D01*
X10625141Y-5323500D01*
X10625141Y-5323501D01*
X10621650Y-5341052D01*
X10621650Y-5358948D01*
X10625141Y-5376499D01*
X10625141Y-5376500D01*
X10631990Y-5393033D01*
X10631990Y-5393034D01*
X10641932Y-5407913D01*
X10641932Y-5407914D01*
X10654586Y-5420568D01*
X10654587Y-5420568D01*
X10669466Y-5430510D01*
X10669466Y-5430510D01*
X10669466Y-5430510D01*
X10686000Y-5437359D01*
X10703552Y-5440850D01*
X10703552Y-5440850D01*
X10703552Y-5440850D01*
X10721448Y-5440850D01*
X10721448Y-5440850D01*
X10734707Y-5438213D01*
X10741666Y-5438835D01*
X10747183Y-5443122D01*
X10749508Y-5449711D01*
X10749287Y-5452794D01*
X10746650Y-5466052D01*
X10746650Y-5466052D01*
X10746650Y-5466052D01*
X10746650Y-5483948D01*
X10746650Y-5483948D01*
X10748242Y-5491952D01*
X10747619Y-5498911D01*
X10743333Y-5504428D01*
X10736744Y-5506753D01*
X10733661Y-5506532D01*
X10721936Y-5504200D01*
X10703064Y-5504200D01*
X10684557Y-5507881D01*
X10684556Y-5507882D01*
X10667122Y-5515103D01*
X10664626Y-5516771D01*
X10664626Y-5516771D01*
X10703233Y-5555378D01*
X10694938Y-5557601D01*
X10684562Y-5563591D01*
X10676091Y-5572062D01*
X10670101Y-5582438D01*
X10667878Y-5590733D01*
X10629271Y-5552126D01*
X10629271Y-5552126D01*
X10627603Y-5554622D01*
X10620382Y-5572056D01*
X10620381Y-5572057D01*
X10616700Y-5590564D01*
X10616700Y-5609436D01*
X10616700Y-5609436D01*
X9969509Y-5609436D01*
X9970050Y-5606022D01*
X9970050Y-5583978D01*
X9966602Y-5562205D01*
X9959790Y-5541239D01*
X9959790Y-5541239D01*
X9956324Y-5534438D01*
X9949782Y-5521598D01*
X9939816Y-5507882D01*
X9936825Y-5503764D01*
X9936824Y-5503764D01*
X9921236Y-5488176D01*
X9921236Y-5488175D01*
X9903403Y-5475219D01*
X9903402Y-5475219D01*
X9903402Y-5475219D01*
X9897110Y-5472012D01*
X9883761Y-5465210D01*
X9883760Y-5465210D01*
X9862795Y-5458399D01*
X9851271Y-5456573D01*
X9841022Y-5454950D01*
X9818978Y-5454950D01*
X9811720Y-5456100D01*
X9797205Y-5458399D01*
X9776240Y-5465210D01*
X9776239Y-5465210D01*
X9756597Y-5475219D01*
X9738764Y-5488175D01*
X9738764Y-5488176D01*
X9723176Y-5503764D01*
X9723175Y-5503764D01*
X9710219Y-5521597D01*
X9700210Y-5541239D01*
X9700210Y-5541240D01*
X9693399Y-5562205D01*
X9690913Y-5577895D01*
X9689950Y-5583978D01*
X9470050Y-5583978D01*
X9466602Y-5562205D01*
X9459790Y-5541239D01*
X9459790Y-5541239D01*
X9456324Y-5534438D01*
X9449782Y-5521598D01*
X9439816Y-5507882D01*
X9436825Y-5503764D01*
X9436824Y-5503764D01*
X9421236Y-5488176D01*
X9421236Y-5488175D01*
X9403403Y-5475219D01*
X9403402Y-5475219D01*
X9403402Y-5475219D01*
X9397110Y-5472012D01*
X9383761Y-5465210D01*
X9383760Y-5465210D01*
X9362795Y-5458399D01*
X9351271Y-5456573D01*
X9341022Y-5454950D01*
X9318978Y-5454950D01*
X9311720Y-5456100D01*
X9297205Y-5458399D01*
X9276240Y-5465210D01*
X9276239Y-5465210D01*
X9256597Y-5475219D01*
X9238764Y-5488175D01*
X9238764Y-5488176D01*
X9223176Y-5503764D01*
X9223175Y-5503764D01*
X9210219Y-5521597D01*
X9200210Y-5541239D01*
X9200210Y-5541240D01*
X9193399Y-5562205D01*
X9190913Y-5577895D01*
X9189950Y-5583978D01*
X8970050Y-5583978D01*
X8966602Y-5562205D01*
X8959790Y-5541239D01*
X8959790Y-5541239D01*
X8956324Y-5534438D01*
X8949782Y-5521598D01*
X8939816Y-5507882D01*
X8936825Y-5503764D01*
X8936824Y-5503764D01*
X8921236Y-5488176D01*
X8921236Y-5488175D01*
X8903403Y-5475219D01*
X8903402Y-5475219D01*
X8903402Y-5475219D01*
X8897110Y-5472012D01*
X8883761Y-5465210D01*
X8883760Y-5465210D01*
X8862795Y-5458399D01*
X8851271Y-5456573D01*
X8841022Y-5454950D01*
X8818978Y-5454950D01*
X8811720Y-5456100D01*
X8797205Y-5458399D01*
X8776240Y-5465210D01*
X8776239Y-5465210D01*
X8756597Y-5475219D01*
X8738764Y-5488175D01*
X8738764Y-5488176D01*
X8723176Y-5503764D01*
X8723175Y-5503764D01*
X8710219Y-5521597D01*
X8700210Y-5541239D01*
X8700210Y-5541240D01*
X8693399Y-5562205D01*
X8690913Y-5577895D01*
X8689950Y-5583978D01*
X8470050Y-5583978D01*
X8466602Y-5562205D01*
X8459790Y-5541239D01*
X8459790Y-5541239D01*
X8456324Y-5534438D01*
X8449782Y-5521598D01*
X8439816Y-5507882D01*
X8436825Y-5503764D01*
X8436824Y-5503764D01*
X8421236Y-5488176D01*
X8421236Y-5488175D01*
X8403403Y-5475219D01*
X8403402Y-5475219D01*
X8403402Y-5475219D01*
X8397110Y-5472012D01*
X8383761Y-5465210D01*
X8383760Y-5465210D01*
X8362795Y-5458399D01*
X8351271Y-5456573D01*
X8341022Y-5454950D01*
X8318978Y-5454950D01*
X8311720Y-5456100D01*
X8297205Y-5458399D01*
X8276240Y-5465210D01*
X8276239Y-5465210D01*
X8256597Y-5475219D01*
X8238764Y-5488175D01*
X8238764Y-5488176D01*
X8223176Y-5503764D01*
X8223175Y-5503764D01*
X8210219Y-5521597D01*
X8200210Y-5541239D01*
X8200210Y-5541240D01*
X8193398Y-5562205D01*
X8190913Y-5577895D01*
X8189950Y-5583978D01*
X7017547Y-5583978D01*
X7007012Y-5577895D01*
X6994155Y-5574450D01*
X6980845Y-5574450D01*
X6967988Y-5577895D01*
X6967988Y-5577895D01*
X6956462Y-5584550D01*
X6956461Y-5584550D01*
X6947050Y-5593961D01*
X6947050Y-5593962D01*
X6940395Y-5605488D01*
X6940395Y-5605488D01*
X6936950Y-5618345D01*
X6773100Y-5618345D01*
X6773100Y-5597620D01*
X6769227Y-5573166D01*
X6769227Y-5573165D01*
X6769227Y-5573165D01*
X6761576Y-5549618D01*
X6757307Y-5541239D01*
X6750335Y-5527557D01*
X6735782Y-5507526D01*
X6718274Y-5490018D01*
X6698243Y-5475465D01*
X6697759Y-5475219D01*
X6676182Y-5464224D01*
X6652635Y-5456573D01*
X6636331Y-5453991D01*
X6628180Y-5452700D01*
X6603420Y-5452700D01*
X6595269Y-5453991D01*
X6578965Y-5456573D01*
X6578965Y-5456573D01*
X6555418Y-5464224D01*
X6533357Y-5475465D01*
X6513326Y-5490019D01*
X6495818Y-5507526D01*
X6481265Y-5527557D01*
X6470024Y-5549618D01*
X6462373Y-5573165D01*
X6462373Y-5573165D01*
X6458500Y-5597620D01*
X5641220Y-5597620D01*
X5641220Y-5297846D01*
X7459550Y-5297846D01*
X7459550Y-5322154D01*
X7459550Y-5322156D01*
X7462723Y-5346257D01*
X7469015Y-5369739D01*
X7478317Y-5392197D01*
X7478318Y-5392199D01*
X7490473Y-5413252D01*
X7505272Y-5432538D01*
X7505273Y-5432539D01*
X7522461Y-5449727D01*
X7522462Y-5449728D01*
X7541748Y-5464527D01*
X7562801Y-5476682D01*
X7562803Y-5476682D01*
X7574417Y-5481493D01*
X7585261Y-5485985D01*
X7608743Y-5492277D01*
X7632845Y-5495450D01*
X7632846Y-5495450D01*
X7657154Y-5495450D01*
X7657155Y-5495450D01*
X7681257Y-5492277D01*
X7704739Y-5485985D01*
X7727198Y-5476682D01*
X7748252Y-5464527D01*
X7767538Y-5449728D01*
X7767538Y-5449727D01*
X7767539Y-5449727D01*
X7784727Y-5432539D01*
X7784727Y-5432538D01*
X7784728Y-5432538D01*
X7799527Y-5413252D01*
X7811682Y-5392198D01*
X7820985Y-5369739D01*
X7827277Y-5346257D01*
X7830450Y-5322155D01*
X7830450Y-5297845D01*
X7827277Y-5273743D01*
X7820985Y-5250261D01*
X7811682Y-5227802D01*
X7807740Y-5220975D01*
X7799527Y-5206748D01*
X7784728Y-5187462D01*
X7784727Y-5187461D01*
X7767539Y-5170273D01*
X7767538Y-5170272D01*
X7748252Y-5155473D01*
X7727199Y-5143318D01*
X7727197Y-5143318D01*
X7704739Y-5134015D01*
X7681257Y-5127723D01*
X7657156Y-5124550D01*
X7657156Y-5124550D01*
X7657155Y-5124550D01*
X7632845Y-5124550D01*
X7632844Y-5124550D01*
X7632844Y-5124550D01*
X7608743Y-5127723D01*
X7585261Y-5134015D01*
X7562803Y-5143318D01*
X7562801Y-5143318D01*
X7541748Y-5155473D01*
X7522462Y-5170272D01*
X7505272Y-5187462D01*
X7490473Y-5206748D01*
X7478318Y-5227801D01*
X7478317Y-5227803D01*
X7469015Y-5250261D01*
X7462723Y-5273743D01*
X7459550Y-5297844D01*
X7459550Y-5297846D01*
X5641220Y-5297846D01*
X5641220Y-5246545D01*
X5641243Y-5245796D01*
X5641274Y-5245283D01*
X5642744Y-5220972D01*
X5642827Y-5220108D01*
X5643572Y-5214447D01*
X5643668Y-5213839D01*
X5647613Y-5192312D01*
X5647831Y-5191346D01*
X5649123Y-5186523D01*
X5649256Y-5186063D01*
X5656011Y-5164386D01*
X5656392Y-5163335D01*
X5657702Y-5160171D01*
X5657846Y-5159839D01*
X5667825Y-5137666D01*
X5668519Y-5136343D01*
X5682423Y-5113344D01*
X5683272Y-5112114D01*
X5699846Y-5090959D01*
X5700837Y-5089840D01*
X5719839Y-5070837D01*
X5720959Y-5069846D01*
X5742114Y-5053272D01*
X5743344Y-5052423D01*
X5766343Y-5038519D01*
X5767666Y-5037825D01*
X5789839Y-5027846D01*
X5790171Y-5027702D01*
X5793335Y-5026392D01*
X5794385Y-5026011D01*
X5816063Y-5019256D01*
X5816523Y-5019123D01*
X5821346Y-5017831D01*
X5822312Y-5017613D01*
X5843839Y-5013668D01*
X5844447Y-5013572D01*
X5850108Y-5012827D01*
X5850972Y-5012744D01*
X5873871Y-5011359D01*
X5875796Y-5011243D01*
X5876545Y-5011220D01*
X10903455Y-5011220D01*
X10904204Y-5011243D01*
G37*
%TD.AperFunction*%
%TD*%
%TA.AperFunction,Conductor*%
%TO.N,GND*%
G36*
X8880000Y-10375000D02*
G01*
X8880000Y-10925000D01*
X8325000Y-10925000D01*
X8322500Y-10922500D01*
X8322500Y-10563345D01*
X8339450Y-10563345D01*
X8339450Y-10576655D01*
X8342895Y-10589512D01*
X8349550Y-10601038D01*
X8358962Y-10610450D01*
X8370488Y-10617105D01*
X8383345Y-10620550D01*
X8383345Y-10620550D01*
X8396655Y-10620550D01*
X8396655Y-10620550D01*
X8409512Y-10617105D01*
X8421038Y-10610450D01*
X8430450Y-10601038D01*
X8437105Y-10589512D01*
X8438757Y-10583345D01*
X8759450Y-10583345D01*
X8759450Y-10596655D01*
X8762895Y-10609512D01*
X8769550Y-10621038D01*
X8778962Y-10630450D01*
X8790488Y-10637105D01*
X8803345Y-10640550D01*
X8803345Y-10640550D01*
X8816655Y-10640550D01*
X8816655Y-10640550D01*
X8829512Y-10637105D01*
X8841038Y-10630450D01*
X8850450Y-10621038D01*
X8857105Y-10609512D01*
X8860550Y-10596655D01*
X8860550Y-10583345D01*
X8857105Y-10570488D01*
X8850450Y-10558962D01*
X8841038Y-10549550D01*
X8829512Y-10542895D01*
X8816655Y-10539450D01*
X8803345Y-10539450D01*
X8790488Y-10542895D01*
X8790488Y-10542895D01*
X8778962Y-10549550D01*
X8778961Y-10549550D01*
X8769550Y-10558961D01*
X8769550Y-10558962D01*
X8762895Y-10570488D01*
X8762895Y-10570488D01*
X8759450Y-10583345D01*
X8438757Y-10583345D01*
X8440550Y-10576655D01*
X8440550Y-10563345D01*
X8437105Y-10550488D01*
X8430450Y-10538962D01*
X8421038Y-10529550D01*
X8409512Y-10522895D01*
X8396655Y-10519450D01*
X8383345Y-10519450D01*
X8370488Y-10522895D01*
X8370488Y-10522895D01*
X8358962Y-10529550D01*
X8358961Y-10529550D01*
X8349550Y-10538961D01*
X8349550Y-10538962D01*
X8342895Y-10550488D01*
X8342895Y-10550488D01*
X8339450Y-10563345D01*
X8322500Y-10563345D01*
X8322500Y-10372500D01*
X8877500Y-10372500D01*
X8880000Y-10375000D01*
G37*
%TD.AperFunction*%
%TD*%
M02*
