%TF.GenerationSoftware,KiCad,Pcbnew,9.0.7*%
%TF.CreationDate,2026-03-27T14:11:07+00:00*%
%TF.ProjectId,StepUp,53746570-5570-42e6-9b69-6361645f7063,v0.4*%
%TF.SameCoordinates,Original*%
%TF.FileFunction,Other,User*%
%FSLAX45Y45*%
G04 Gerber Fmt 4.5, Leading zero omitted, Abs format (unit mm)*
G04 Created by KiCad (PCBNEW 9.0.7) date 2026-03-27 14:11:07*
%MOMM*%
%LPD*%
G01*
G04 APERTURE LIST*
%ADD10C,0.050000*%
%ADD11C,0.100000*%
G04 APERTURE END LIST*
D10*
%TO.C,J3*%
X9972500Y-10625000D02*
X11092500Y-10625000D01*
X9972500Y-10985000D02*
X9972500Y-10625000D01*
X11092500Y-10625000D02*
X11092500Y-10985000D01*
X11092500Y-10985000D02*
X9972500Y-10985000D01*
D11*
%TO.C,LED2*%
X10385000Y-5147500D02*
X10385000Y-5927500D01*
X10385000Y-5927500D02*
X11165000Y-5927500D01*
X11165000Y-5147500D02*
X10385000Y-5147500D01*
X11165000Y-5927500D02*
X11165000Y-5147500D01*
D10*
%TO.C,J6*%
X9276500Y-12640000D02*
X9276500Y-13000000D01*
X9276500Y-13000000D02*
X10651500Y-13000000D01*
X10651500Y-12640000D02*
X9276500Y-12640000D01*
X10651500Y-13000000D02*
X10651500Y-12640000D01*
%TO.C,J4*%
X10090000Y-11249000D02*
X10090000Y-12114000D01*
X10090000Y-12114000D02*
X10705000Y-12114000D01*
X10705000Y-11249000D02*
X10090000Y-11249000D01*
X10705000Y-12114000D02*
X10705000Y-11249000D01*
%TO.C,J2*%
X10732500Y-11002000D02*
X11092500Y-11002000D01*
X10732500Y-12377000D02*
X10732500Y-11002000D01*
X11092500Y-11002000D02*
X11092500Y-12377000D01*
X11092500Y-12377000D02*
X10732500Y-12377000D01*
D11*
%TO.C,BT1*%
X5741300Y-5150000D02*
X5741300Y-6650000D01*
X5741300Y-6650000D02*
X7490300Y-6650000D01*
X7490300Y-5150000D02*
X5741300Y-5150000D01*
X7490300Y-6650000D02*
X7490300Y-5150000D01*
%TO.C,BT2*%
X5741300Y-10694000D02*
X7490300Y-10694000D01*
X5741300Y-12394000D02*
X5741300Y-10694000D01*
X7490300Y-10694000D02*
X7490300Y-12394000D01*
X7490300Y-12394000D02*
X5741300Y-12394000D01*
%TD*%
M02*
