%TF.GenerationSoftware,KiCad,Pcbnew,9.0.7*%
%TF.CreationDate,2026-03-27T14:11:07+00:00*%
%TF.ProjectId,StepUp,53746570-5570-42e6-9b69-6361645f7063,v0.4*%
%TF.SameCoordinates,Original*%
%TF.FileFunction,Legend,Bot*%
%TF.FilePolarity,Positive*%
%FSLAX45Y45*%
G04 Gerber Fmt 4.5, Leading zero omitted, Abs format (unit mm)*
G04 Created by KiCad (PCBNEW 9.0.7) date 2026-03-27 14:11:07*
%MOMM*%
%LPD*%
G01*
G04 APERTURE LIST*
%ADD10C,0.300000*%
%ADD11C,0.150000*%
%ADD12C,0.120000*%
%ADD13C,0.200000*%
%ADD14C,0.230000*%
%ADD15C,0.250000*%
%ADD16C,0.400000*%
%ADD17C,0.254000*%
%ADD18C,0.000000*%
%ADD19C,0.100000*%
G04 APERTURE END LIST*
D10*
X6615800Y-7042000D02*
X6615800Y-6642000D01*
D11*
X7721250Y-12193750D02*
X7721250Y-10692500D01*
X11095000Y-9735000D02*
X11095000Y-10440000D01*
X10862500Y-10440000D01*
X10822500Y-10400000D01*
X10822500Y-10292500D01*
X10915000Y-10200000D01*
X10915000Y-9735000D01*
X10932500Y-9717500D01*
X11077500Y-9717500D01*
X11095000Y-9735000D01*
X6865800Y-6842000D02*
G75*
G02*
X6365800Y-6842000I-250000J0D01*
G01*
X6365800Y-6842000D02*
G75*
G02*
X6865800Y-6842000I250000J0D01*
G01*
X7783750Y-12131250D02*
X7721250Y-12193750D01*
X7721250Y-10693750D02*
X7658750Y-10756250D01*
X7172300Y-12194000D02*
X7902500Y-12194000D01*
X6865800Y-10322000D02*
G75*
G02*
X6365800Y-10322000I-250000J0D01*
G01*
X6365800Y-10322000D02*
G75*
G02*
X6865800Y-10322000I250000J0D01*
G01*
X11095000Y-10392500D02*
X11095000Y-10997500D01*
X6253300Y-7152000D02*
X6978300Y-7152000D01*
X6978300Y-9997000D01*
X6253300Y-9997000D01*
X6253300Y-7152000D01*
D10*
X6415800Y-10322000D02*
X6815800Y-10322000D01*
X6415800Y-6842000D02*
X6815800Y-6842000D01*
D11*
X7721250Y-11443125D02*
X7905000Y-11442500D01*
X10013750Y-10470000D02*
X11051250Y-10470000D01*
X11051250Y-10642500D01*
X10013750Y-10642500D01*
X10013750Y-10470000D01*
X7902500Y-10694000D02*
X7902500Y-12194000D01*
X7390300Y-10694000D02*
X7902500Y-10694000D01*
X10120000Y-12152500D02*
X10120000Y-12072500D01*
X10635000Y-12152500D02*
X10635000Y-12070000D01*
X7658750Y-12131250D02*
X7721250Y-12193750D01*
D12*
X10922500Y-9835000D02*
X11092500Y-9835000D01*
D11*
X10120000Y-12152500D02*
X10635000Y-12152500D01*
X10635000Y-12547500D01*
X10120000Y-12547500D01*
X10120000Y-12152500D01*
X11045500Y-11048000D02*
X11095000Y-10998500D01*
X7720000Y-10692500D02*
X7782500Y-10755000D01*
D13*
X9022500Y-12635000D02*
X9260000Y-12817500D01*
D11*
X10452500Y-10285000D02*
X10647500Y-10285000D01*
X10647500Y-10470000D01*
X10452500Y-10470000D01*
X10452500Y-10285000D01*
X7814363Y-11715225D02*
X7861982Y-11715225D01*
X7761982Y-11681892D02*
X7814363Y-11715225D01*
X7814363Y-11715225D02*
X7761982Y-11748559D01*
X7809601Y-11781892D02*
X7809601Y-11815225D01*
X7861982Y-11829511D02*
X7861982Y-11781892D01*
X7861982Y-11781892D02*
X7761982Y-11781892D01*
X7761982Y-11781892D02*
X7761982Y-11829511D01*
X7857220Y-11867606D02*
X7861982Y-11881892D01*
X7861982Y-11881892D02*
X7861982Y-11905702D01*
X7861982Y-11905702D02*
X7857220Y-11915225D01*
X7857220Y-11915225D02*
X7852458Y-11919987D01*
X7852458Y-11919987D02*
X7842934Y-11924749D01*
X7842934Y-11924749D02*
X7833410Y-11924749D01*
X7833410Y-11924749D02*
X7823887Y-11919987D01*
X7823887Y-11919987D02*
X7819125Y-11915225D01*
X7819125Y-11915225D02*
X7814363Y-11905702D01*
X7814363Y-11905702D02*
X7809601Y-11886654D01*
X7809601Y-11886654D02*
X7804839Y-11877130D01*
X7804839Y-11877130D02*
X7800077Y-11872368D01*
X7800077Y-11872368D02*
X7790553Y-11867606D01*
X7790553Y-11867606D02*
X7781029Y-11867606D01*
X7781029Y-11867606D02*
X7771506Y-11872368D01*
X7771506Y-11872368D02*
X7766744Y-11877130D01*
X7766744Y-11877130D02*
X7761982Y-11886654D01*
X7761982Y-11886654D02*
X7761982Y-11910464D01*
X7761982Y-11910464D02*
X7766744Y-11924749D01*
X7856982Y-10983678D02*
X7756982Y-10983678D01*
X7756982Y-10983678D02*
X7856982Y-11040821D01*
X7856982Y-11040821D02*
X7756982Y-11040821D01*
X7756982Y-11107487D02*
X7756982Y-11126535D01*
X7756982Y-11126535D02*
X7761744Y-11136059D01*
X7761744Y-11136059D02*
X7771268Y-11145583D01*
X7771268Y-11145583D02*
X7790315Y-11150345D01*
X7790315Y-11150345D02*
X7823648Y-11150345D01*
X7823648Y-11150345D02*
X7842696Y-11145583D01*
X7842696Y-11145583D02*
X7852220Y-11136059D01*
X7852220Y-11136059D02*
X7856982Y-11126535D01*
X7856982Y-11126535D02*
X7856982Y-11107487D01*
X7856982Y-11107487D02*
X7852220Y-11097964D01*
X7852220Y-11097964D02*
X7842696Y-11088440D01*
X7842696Y-11088440D02*
X7823648Y-11083678D01*
X7823648Y-11083678D02*
X7790315Y-11083678D01*
X7790315Y-11083678D02*
X7771268Y-11088440D01*
X7771268Y-11088440D02*
X7761744Y-11097964D01*
X7761744Y-11097964D02*
X7756982Y-11107487D01*
D14*
X6710541Y-7432369D02*
X6710541Y-7300941D01*
X6710541Y-7366655D02*
X6480541Y-7366655D01*
X6480541Y-7366655D02*
X6513398Y-7344750D01*
X6513398Y-7344750D02*
X6535303Y-7322846D01*
X6535303Y-7322846D02*
X6546256Y-7300941D01*
X6710541Y-7684274D02*
X6557208Y-7804750D01*
X6557208Y-7684274D02*
X6710541Y-7804750D01*
X6710541Y-8188084D02*
X6710541Y-8056655D01*
X6710541Y-8122370D02*
X6480541Y-8122370D01*
X6480541Y-8122370D02*
X6513398Y-8100465D01*
X6513398Y-8100465D02*
X6535303Y-8078560D01*
X6535303Y-8078560D02*
X6546256Y-8056655D01*
X6579113Y-8319512D02*
X6568160Y-8297608D01*
X6568160Y-8297608D02*
X6557208Y-8286655D01*
X6557208Y-8286655D02*
X6535303Y-8275703D01*
X6535303Y-8275703D02*
X6524351Y-8275703D01*
X6524351Y-8275703D02*
X6502446Y-8286655D01*
X6502446Y-8286655D02*
X6491494Y-8297608D01*
X6491494Y-8297608D02*
X6480541Y-8319512D01*
X6480541Y-8319512D02*
X6480541Y-8363322D01*
X6480541Y-8363322D02*
X6491494Y-8385227D01*
X6491494Y-8385227D02*
X6502446Y-8396179D01*
X6502446Y-8396179D02*
X6524351Y-8407131D01*
X6524351Y-8407131D02*
X6535303Y-8407131D01*
X6535303Y-8407131D02*
X6557208Y-8396179D01*
X6557208Y-8396179D02*
X6568160Y-8385227D01*
X6568160Y-8385227D02*
X6579113Y-8363322D01*
X6579113Y-8363322D02*
X6579113Y-8319512D01*
X6579113Y-8319512D02*
X6590065Y-8297608D01*
X6590065Y-8297608D02*
X6601017Y-8286655D01*
X6601017Y-8286655D02*
X6622922Y-8275703D01*
X6622922Y-8275703D02*
X6666732Y-8275703D01*
X6666732Y-8275703D02*
X6688637Y-8286655D01*
X6688637Y-8286655D02*
X6699589Y-8297608D01*
X6699589Y-8297608D02*
X6710541Y-8319512D01*
X6710541Y-8319512D02*
X6710541Y-8363322D01*
X6710541Y-8363322D02*
X6699589Y-8385227D01*
X6699589Y-8385227D02*
X6688637Y-8396179D01*
X6688637Y-8396179D02*
X6666732Y-8407131D01*
X6666732Y-8407131D02*
X6622922Y-8407131D01*
X6622922Y-8407131D02*
X6601017Y-8396179D01*
X6601017Y-8396179D02*
X6590065Y-8385227D01*
X6590065Y-8385227D02*
X6579113Y-8363322D01*
X6480541Y-8604274D02*
X6480541Y-8560465D01*
X6480541Y-8560465D02*
X6491494Y-8538560D01*
X6491494Y-8538560D02*
X6502446Y-8527608D01*
X6502446Y-8527608D02*
X6535303Y-8505703D01*
X6535303Y-8505703D02*
X6579113Y-8494751D01*
X6579113Y-8494751D02*
X6666732Y-8494751D01*
X6666732Y-8494751D02*
X6688637Y-8505703D01*
X6688637Y-8505703D02*
X6699589Y-8516655D01*
X6699589Y-8516655D02*
X6710541Y-8538560D01*
X6710541Y-8538560D02*
X6710541Y-8582370D01*
X6710541Y-8582370D02*
X6699589Y-8604274D01*
X6699589Y-8604274D02*
X6688637Y-8615227D01*
X6688637Y-8615227D02*
X6666732Y-8626179D01*
X6666732Y-8626179D02*
X6611970Y-8626179D01*
X6611970Y-8626179D02*
X6590065Y-8615227D01*
X6590065Y-8615227D02*
X6579113Y-8604274D01*
X6579113Y-8604274D02*
X6568160Y-8582370D01*
X6568160Y-8582370D02*
X6568160Y-8538560D01*
X6568160Y-8538560D02*
X6579113Y-8516655D01*
X6579113Y-8516655D02*
X6590065Y-8505703D01*
X6590065Y-8505703D02*
X6611970Y-8494751D01*
X6480541Y-8834274D02*
X6480541Y-8724751D01*
X6480541Y-8724751D02*
X6590065Y-8713798D01*
X6590065Y-8713798D02*
X6579113Y-8724751D01*
X6579113Y-8724751D02*
X6568160Y-8746655D01*
X6568160Y-8746655D02*
X6568160Y-8801417D01*
X6568160Y-8801417D02*
X6579113Y-8823322D01*
X6579113Y-8823322D02*
X6590065Y-8834274D01*
X6590065Y-8834274D02*
X6611970Y-8845227D01*
X6611970Y-8845227D02*
X6666732Y-8845227D01*
X6666732Y-8845227D02*
X6688637Y-8834274D01*
X6688637Y-8834274D02*
X6699589Y-8823322D01*
X6699589Y-8823322D02*
X6710541Y-8801417D01*
X6710541Y-8801417D02*
X6710541Y-8746655D01*
X6710541Y-8746655D02*
X6699589Y-8724751D01*
X6699589Y-8724751D02*
X6688637Y-8713798D01*
X6480541Y-8987608D02*
X6480541Y-9009512D01*
X6480541Y-9009512D02*
X6491494Y-9031417D01*
X6491494Y-9031417D02*
X6502446Y-9042370D01*
X6502446Y-9042370D02*
X6524351Y-9053322D01*
X6524351Y-9053322D02*
X6568160Y-9064274D01*
X6568160Y-9064274D02*
X6622922Y-9064274D01*
X6622922Y-9064274D02*
X6666732Y-9053322D01*
X6666732Y-9053322D02*
X6688637Y-9042370D01*
X6688637Y-9042370D02*
X6699589Y-9031417D01*
X6699589Y-9031417D02*
X6710541Y-9009512D01*
X6710541Y-9009512D02*
X6710541Y-8987608D01*
X6710541Y-8987608D02*
X6699589Y-8965703D01*
X6699589Y-8965703D02*
X6688637Y-8954750D01*
X6688637Y-8954750D02*
X6666732Y-8943798D01*
X6666732Y-8943798D02*
X6622922Y-8932846D01*
X6622922Y-8932846D02*
X6568160Y-8932846D01*
X6568160Y-8932846D02*
X6524351Y-8943798D01*
X6524351Y-8943798D02*
X6502446Y-8954750D01*
X6502446Y-8954750D02*
X6491494Y-8965703D01*
X6491494Y-8965703D02*
X6480541Y-8987608D01*
X6699589Y-9436655D02*
X6710541Y-9414750D01*
X6710541Y-9414750D02*
X6710541Y-9370941D01*
X6710541Y-9370941D02*
X6699589Y-9349036D01*
X6699589Y-9349036D02*
X6688637Y-9338084D01*
X6688637Y-9338084D02*
X6666732Y-9327131D01*
X6666732Y-9327131D02*
X6601017Y-9327131D01*
X6601017Y-9327131D02*
X6579113Y-9338084D01*
X6579113Y-9338084D02*
X6568160Y-9349036D01*
X6568160Y-9349036D02*
X6557208Y-9370941D01*
X6557208Y-9370941D02*
X6557208Y-9414750D01*
X6557208Y-9414750D02*
X6568160Y-9436655D01*
X6699589Y-9622846D02*
X6710541Y-9600941D01*
X6710541Y-9600941D02*
X6710541Y-9557131D01*
X6710541Y-9557131D02*
X6699589Y-9535227D01*
X6699589Y-9535227D02*
X6677684Y-9524274D01*
X6677684Y-9524274D02*
X6590065Y-9524274D01*
X6590065Y-9524274D02*
X6568160Y-9535227D01*
X6568160Y-9535227D02*
X6557208Y-9557131D01*
X6557208Y-9557131D02*
X6557208Y-9600941D01*
X6557208Y-9600941D02*
X6568160Y-9622846D01*
X6568160Y-9622846D02*
X6590065Y-9633798D01*
X6590065Y-9633798D02*
X6611970Y-9633798D01*
X6611970Y-9633798D02*
X6633875Y-9524274D01*
X6710541Y-9765227D02*
X6699589Y-9743322D01*
X6699589Y-9743322D02*
X6677684Y-9732370D01*
X6677684Y-9732370D02*
X6480541Y-9732370D01*
X6710541Y-9885703D02*
X6699589Y-9863798D01*
X6699589Y-9863798D02*
X6677684Y-9852846D01*
X6677684Y-9852846D02*
X6480541Y-9852846D01*
D11*
G36*
X10961986Y-7292908D02*
G01*
X10969180Y-7300102D01*
X10973214Y-7316239D01*
X10973214Y-7347725D01*
X10969180Y-7363862D01*
X10961986Y-7371056D01*
X10955134Y-7374482D01*
X10939628Y-7374482D01*
X10932776Y-7371056D01*
X10925582Y-7363862D01*
X10921548Y-7347725D01*
X10921548Y-7316239D01*
X10925582Y-7300102D01*
X10932776Y-7292908D01*
X10939628Y-7289482D01*
X10955134Y-7289482D01*
X10961986Y-7292908D01*
G37*
G36*
X10658929Y-7326863D02*
G01*
X10630104Y-7326863D01*
X10623252Y-7323437D01*
X10620212Y-7320396D01*
X10616786Y-7313545D01*
X10616786Y-7302800D01*
X10620212Y-7295948D01*
X10623252Y-7292908D01*
X10630104Y-7289482D01*
X10658929Y-7289482D01*
X10658929Y-7326863D01*
G37*
G36*
X11068452Y-7326863D02*
G01*
X11039628Y-7326863D01*
X11032776Y-7323437D01*
X11029735Y-7320396D01*
X11026310Y-7313545D01*
X11026310Y-7302800D01*
X11029735Y-7295948D01*
X11032776Y-7292908D01*
X11039628Y-7289482D01*
X11068452Y-7289482D01*
X11068452Y-7326863D01*
G37*
G36*
X11094563Y-7400593D02*
G01*
X10590675Y-7400593D01*
X10590675Y-7301029D01*
X10601786Y-7301029D01*
X10601786Y-7315315D01*
X10601930Y-7316778D01*
X10602033Y-7317027D01*
X10602052Y-7317296D01*
X10602578Y-7318669D01*
X10607339Y-7328193D01*
X10607736Y-7328823D01*
X10607812Y-7329006D01*
X10607980Y-7329211D01*
X10608123Y-7329437D01*
X10608272Y-7329567D01*
X10608744Y-7330142D01*
X10613506Y-7334904D01*
X10614081Y-7335376D01*
X10614211Y-7335526D01*
X10614437Y-7335668D01*
X10614643Y-7335837D01*
X10614825Y-7335913D01*
X10615455Y-7336309D01*
X10624979Y-7341071D01*
X10626352Y-7341596D01*
X10626621Y-7341616D01*
X10626870Y-7341719D01*
X10628222Y-7341852D01*
X10603142Y-7377681D01*
X10602420Y-7378962D01*
X10601788Y-7381819D01*
X10602296Y-7384701D01*
X10603869Y-7387169D01*
X10606266Y-7388847D01*
X10609123Y-7389480D01*
X10612005Y-7388972D01*
X10614473Y-7387399D01*
X10615430Y-7386283D01*
X10646524Y-7341863D01*
X10658929Y-7341863D01*
X10658929Y-7381982D01*
X10659073Y-7383445D01*
X10660193Y-7386149D01*
X10662262Y-7388218D01*
X10664965Y-7389338D01*
X10667892Y-7389338D01*
X10670595Y-7388218D01*
X10672665Y-7386149D01*
X10673784Y-7383445D01*
X10673929Y-7381982D01*
X10673929Y-7281982D01*
X10673784Y-7280519D01*
X10701930Y-7280519D01*
X10701930Y-7283445D01*
X10703050Y-7286149D01*
X10705119Y-7288218D01*
X10707823Y-7289338D01*
X10709286Y-7289482D01*
X10749405Y-7289482D01*
X10749405Y-7322101D01*
X10723571Y-7322101D01*
X10722108Y-7322245D01*
X10719405Y-7323365D01*
X10717335Y-7325434D01*
X10716216Y-7328138D01*
X10716216Y-7331064D01*
X10717335Y-7333768D01*
X10719405Y-7335837D01*
X10722108Y-7336957D01*
X10723571Y-7337101D01*
X10749405Y-7337101D01*
X10749405Y-7374482D01*
X10709286Y-7374482D01*
X10707823Y-7374626D01*
X10705119Y-7375746D01*
X10703050Y-7377815D01*
X10701930Y-7380519D01*
X10701930Y-7383445D01*
X10703050Y-7386149D01*
X10705119Y-7388218D01*
X10707823Y-7389338D01*
X10709286Y-7389482D01*
X10756905Y-7389482D01*
X10758368Y-7389338D01*
X10761072Y-7388218D01*
X10763141Y-7386149D01*
X10764261Y-7383445D01*
X10764405Y-7381982D01*
X10764405Y-7282262D01*
X10787505Y-7282262D01*
X10787704Y-7283719D01*
X10811514Y-7383719D01*
X10811686Y-7384221D01*
X10811710Y-7384401D01*
X10811805Y-7384564D01*
X10811993Y-7385109D01*
X10812631Y-7385991D01*
X10813177Y-7386934D01*
X10813482Y-7387168D01*
X10813708Y-7387480D01*
X10814636Y-7388050D01*
X10815500Y-7388712D01*
X10815872Y-7388812D01*
X10816200Y-7389013D01*
X10817276Y-7389186D01*
X10818328Y-7389466D01*
X10818710Y-7389416D01*
X10819090Y-7389477D01*
X10820150Y-7389224D01*
X10821229Y-7389081D01*
X10821562Y-7388888D01*
X10821937Y-7388799D01*
X10822819Y-7388160D01*
X10823761Y-7387615D01*
X10823995Y-7387309D01*
X10824307Y-7387083D01*
X10824878Y-7386156D01*
X10825540Y-7385291D01*
X10825743Y-7384751D01*
X10825841Y-7384591D01*
X10825870Y-7384412D01*
X10826056Y-7383914D01*
X10837857Y-7339661D01*
X10849658Y-7383914D01*
X10849844Y-7384412D01*
X10849873Y-7384591D01*
X10849972Y-7384751D01*
X10850174Y-7385291D01*
X10850836Y-7386156D01*
X10851407Y-7387083D01*
X10851719Y-7387309D01*
X10851953Y-7387615D01*
X10852895Y-7388160D01*
X10853778Y-7388799D01*
X10854152Y-7388888D01*
X10854485Y-7389081D01*
X10855565Y-7389224D01*
X10856624Y-7389477D01*
X10857004Y-7389416D01*
X10857386Y-7389466D01*
X10858439Y-7389186D01*
X10859514Y-7389013D01*
X10859841Y-7388812D01*
X10860214Y-7388712D01*
X10861079Y-7388050D01*
X10862006Y-7387480D01*
X10862232Y-7387168D01*
X10862538Y-7386934D01*
X10863083Y-7385991D01*
X10863722Y-7385109D01*
X10863909Y-7384564D01*
X10864004Y-7384401D01*
X10864028Y-7384221D01*
X10864201Y-7383719D01*
X10880487Y-7315315D01*
X10906548Y-7315315D01*
X10906548Y-7348648D01*
X10906573Y-7348904D01*
X10906557Y-7349013D01*
X10906637Y-7349560D01*
X10906692Y-7350112D01*
X10906734Y-7350214D01*
X10906772Y-7350467D01*
X10911533Y-7369515D01*
X10912028Y-7370900D01*
X10912360Y-7371348D01*
X10912573Y-7371863D01*
X10913506Y-7372999D01*
X10923030Y-7382523D01*
X10923605Y-7382995D01*
X10923735Y-7383145D01*
X10923960Y-7383287D01*
X10924167Y-7383456D01*
X10924350Y-7383532D01*
X10924979Y-7383928D01*
X10934503Y-7388690D01*
X10935876Y-7389216D01*
X10936145Y-7389235D01*
X10936394Y-7389338D01*
X10937857Y-7389482D01*
X10956905Y-7389482D01*
X10958368Y-7389338D01*
X10958617Y-7389235D01*
X10958886Y-7389216D01*
X10960259Y-7388690D01*
X10969783Y-7383928D01*
X10970413Y-7383532D01*
X10970595Y-7383456D01*
X10970801Y-7383287D01*
X10971027Y-7383145D01*
X10971157Y-7382995D01*
X10971732Y-7382523D01*
X10981256Y-7372999D01*
X10982188Y-7371863D01*
X10982402Y-7371348D01*
X10982734Y-7370900D01*
X10983228Y-7369515D01*
X10987990Y-7350467D01*
X10988028Y-7350214D01*
X10988070Y-7350112D01*
X10988124Y-7349560D01*
X10988205Y-7349013D01*
X10988189Y-7348904D01*
X10988214Y-7348648D01*
X10988214Y-7315315D01*
X10988189Y-7315060D01*
X10988205Y-7314951D01*
X10988124Y-7314403D01*
X10988070Y-7313852D01*
X10988028Y-7313750D01*
X10987990Y-7313496D01*
X10984874Y-7301029D01*
X11011310Y-7301029D01*
X11011310Y-7315315D01*
X11011454Y-7316778D01*
X11011557Y-7317027D01*
X11011576Y-7317296D01*
X11012101Y-7318669D01*
X11016863Y-7328193D01*
X11017260Y-7328823D01*
X11017335Y-7329006D01*
X11017504Y-7329211D01*
X11017646Y-7329437D01*
X11017796Y-7329567D01*
X11018268Y-7330142D01*
X11023030Y-7334904D01*
X11023605Y-7335376D01*
X11023735Y-7335526D01*
X11023961Y-7335668D01*
X11024167Y-7335837D01*
X11024349Y-7335913D01*
X11024979Y-7336309D01*
X11034503Y-7341071D01*
X11035876Y-7341596D01*
X11036145Y-7341616D01*
X11036394Y-7341719D01*
X11037857Y-7341863D01*
X11068452Y-7341863D01*
X11068452Y-7381982D01*
X11068596Y-7383445D01*
X11069716Y-7386149D01*
X11071786Y-7388218D01*
X11074489Y-7389338D01*
X11077416Y-7389338D01*
X11080119Y-7388218D01*
X11082188Y-7386149D01*
X11083308Y-7383445D01*
X11083452Y-7381982D01*
X11083452Y-7281982D01*
X11083308Y-7280519D01*
X11082188Y-7277815D01*
X11080119Y-7275746D01*
X11077416Y-7274626D01*
X11075952Y-7274482D01*
X11037857Y-7274482D01*
X11036394Y-7274626D01*
X11036145Y-7274729D01*
X11035876Y-7274748D01*
X11034503Y-7275274D01*
X11024979Y-7280036D01*
X11024349Y-7280432D01*
X11024167Y-7280508D01*
X11023961Y-7280677D01*
X11023735Y-7280819D01*
X11023605Y-7280969D01*
X11023030Y-7281440D01*
X11018268Y-7286202D01*
X11017796Y-7286777D01*
X11017646Y-7286907D01*
X11017504Y-7287133D01*
X11017335Y-7287339D01*
X11017260Y-7287522D01*
X11016863Y-7288152D01*
X11012101Y-7297675D01*
X11011576Y-7299049D01*
X11011557Y-7299317D01*
X11011454Y-7299566D01*
X11011310Y-7301029D01*
X10984874Y-7301029D01*
X10983228Y-7294449D01*
X10982734Y-7293064D01*
X10982402Y-7292616D01*
X10982188Y-7292101D01*
X10981256Y-7290964D01*
X10971732Y-7281440D01*
X10971157Y-7280969D01*
X10971027Y-7280819D01*
X10970801Y-7280677D01*
X10970595Y-7280508D01*
X10970413Y-7280432D01*
X10969783Y-7280036D01*
X10960259Y-7275274D01*
X10958886Y-7274748D01*
X10958617Y-7274729D01*
X10958368Y-7274626D01*
X10956905Y-7274482D01*
X10937857Y-7274482D01*
X10936394Y-7274626D01*
X10936145Y-7274729D01*
X10935876Y-7274748D01*
X10934503Y-7275274D01*
X10924979Y-7280036D01*
X10924350Y-7280432D01*
X10924167Y-7280508D01*
X10923960Y-7280677D01*
X10923735Y-7280819D01*
X10923605Y-7280968D01*
X10923030Y-7281440D01*
X10913506Y-7290964D01*
X10912574Y-7292101D01*
X10912360Y-7292616D01*
X10912028Y-7293064D01*
X10911533Y-7294449D01*
X10906772Y-7313496D01*
X10906734Y-7313750D01*
X10906692Y-7313852D01*
X10906637Y-7314403D01*
X10906557Y-7314951D01*
X10906573Y-7315060D01*
X10906548Y-7315315D01*
X10880487Y-7315315D01*
X10888010Y-7283719D01*
X10888209Y-7282262D01*
X10887746Y-7279373D01*
X10886212Y-7276881D01*
X10883841Y-7275165D01*
X10880995Y-7274487D01*
X10878105Y-7274950D01*
X10875613Y-7276484D01*
X10873897Y-7278855D01*
X10873418Y-7280245D01*
X10856493Y-7351330D01*
X10845104Y-7308621D01*
X10844975Y-7308278D01*
X10844956Y-7308134D01*
X10844857Y-7307963D01*
X10844588Y-7307244D01*
X10843986Y-7306458D01*
X10843490Y-7305601D01*
X10843104Y-7305306D01*
X10842809Y-7304920D01*
X10841952Y-7304424D01*
X10841166Y-7303823D01*
X10840697Y-7303697D01*
X10840276Y-7303454D01*
X10839296Y-7303324D01*
X10838339Y-7303069D01*
X10837857Y-7303133D01*
X10837376Y-7303069D01*
X10836420Y-7303324D01*
X10835438Y-7303454D01*
X10835017Y-7303698D01*
X10834548Y-7303823D01*
X10833762Y-7304424D01*
X10832905Y-7304920D01*
X10832610Y-7305306D01*
X10832224Y-7305601D01*
X10831728Y-7306458D01*
X10831127Y-7307244D01*
X10830857Y-7307963D01*
X10830758Y-7308134D01*
X10830739Y-7308278D01*
X10830610Y-7308621D01*
X10819221Y-7351330D01*
X10802296Y-7280245D01*
X10801817Y-7278855D01*
X10800101Y-7276484D01*
X10797609Y-7274950D01*
X10794720Y-7274487D01*
X10791873Y-7275165D01*
X10789502Y-7276881D01*
X10787969Y-7279373D01*
X10787505Y-7282262D01*
X10764405Y-7282262D01*
X10764405Y-7281982D01*
X10764261Y-7280519D01*
X10763141Y-7277815D01*
X10761072Y-7275746D01*
X10758368Y-7274626D01*
X10756905Y-7274482D01*
X10709286Y-7274482D01*
X10707823Y-7274626D01*
X10705119Y-7275746D01*
X10703050Y-7277815D01*
X10701930Y-7280519D01*
X10673784Y-7280519D01*
X10672665Y-7277815D01*
X10670595Y-7275746D01*
X10667892Y-7274626D01*
X10666429Y-7274482D01*
X10628333Y-7274482D01*
X10626870Y-7274626D01*
X10626621Y-7274729D01*
X10626352Y-7274748D01*
X10624979Y-7275274D01*
X10615455Y-7280036D01*
X10614825Y-7280432D01*
X10614643Y-7280508D01*
X10614437Y-7280677D01*
X10614211Y-7280819D01*
X10614081Y-7280969D01*
X10613506Y-7281440D01*
X10608744Y-7286202D01*
X10608272Y-7286777D01*
X10608123Y-7286907D01*
X10607980Y-7287133D01*
X10607812Y-7287339D01*
X10607736Y-7287522D01*
X10607339Y-7288152D01*
X10602578Y-7297675D01*
X10602052Y-7299049D01*
X10602033Y-7299317D01*
X10601930Y-7299566D01*
X10601786Y-7301029D01*
X10590675Y-7301029D01*
X10590675Y-7263371D01*
X11094563Y-7263371D01*
X11094563Y-7400593D01*
G37*
X7615025Y-10910583D02*
X7618834Y-10922011D01*
X7618834Y-10922011D02*
X7622644Y-10925821D01*
X7622644Y-10925821D02*
X7630263Y-10929630D01*
X7630263Y-10929630D02*
X7641691Y-10929630D01*
X7641691Y-10929630D02*
X7649310Y-10925821D01*
X7649310Y-10925821D02*
X7653120Y-10922011D01*
X7653120Y-10922011D02*
X7656929Y-10914392D01*
X7656929Y-10914392D02*
X7656929Y-10883916D01*
X7656929Y-10883916D02*
X7576929Y-10883916D01*
X7576929Y-10883916D02*
X7576929Y-10910583D01*
X7576929Y-10910583D02*
X7580739Y-10918202D01*
X7580739Y-10918202D02*
X7584548Y-10922011D01*
X7584548Y-10922011D02*
X7592168Y-10925821D01*
X7592168Y-10925821D02*
X7599787Y-10925821D01*
X7599787Y-10925821D02*
X7607406Y-10922011D01*
X7607406Y-10922011D02*
X7611215Y-10918202D01*
X7611215Y-10918202D02*
X7615025Y-10910583D01*
X7615025Y-10910583D02*
X7615025Y-10883916D01*
X7603596Y-10998202D02*
X7656929Y-10998202D01*
X7603596Y-10963916D02*
X7645501Y-10963916D01*
X7645501Y-10963916D02*
X7653120Y-10967726D01*
X7653120Y-10967726D02*
X7656929Y-10975345D01*
X7656929Y-10975345D02*
X7656929Y-10986773D01*
X7656929Y-10986773D02*
X7653120Y-10994392D01*
X7653120Y-10994392D02*
X7649310Y-10998202D01*
X7656929Y-11036297D02*
X7603596Y-11036297D01*
X7576929Y-11036297D02*
X7580739Y-11032487D01*
X7580739Y-11032487D02*
X7584548Y-11036297D01*
X7584548Y-11036297D02*
X7580739Y-11040107D01*
X7580739Y-11040107D02*
X7576929Y-11036297D01*
X7576929Y-11036297D02*
X7584548Y-11036297D01*
X7656929Y-11085821D02*
X7653120Y-11078202D01*
X7653120Y-11078202D02*
X7645501Y-11074392D01*
X7645501Y-11074392D02*
X7576929Y-11074392D01*
X7603596Y-11104868D02*
X7603596Y-11135345D01*
X7576929Y-11116297D02*
X7645501Y-11116297D01*
X7645501Y-11116297D02*
X7653120Y-11120107D01*
X7653120Y-11120107D02*
X7656929Y-11127726D01*
X7656929Y-11127726D02*
X7656929Y-11135345D01*
X7626453Y-11162011D02*
X7626453Y-11222964D01*
X7656929Y-11261059D02*
X7603596Y-11261059D01*
X7576929Y-11261059D02*
X7580739Y-11257249D01*
X7580739Y-11257249D02*
X7584548Y-11261059D01*
X7584548Y-11261059D02*
X7580739Y-11264868D01*
X7580739Y-11264868D02*
X7576929Y-11261059D01*
X7576929Y-11261059D02*
X7584548Y-11261059D01*
X7603596Y-11299154D02*
X7656929Y-11299154D01*
X7611215Y-11299154D02*
X7607406Y-11302964D01*
X7607406Y-11302964D02*
X7603596Y-11310583D01*
X7603596Y-11310583D02*
X7603596Y-11322011D01*
X7603596Y-11322011D02*
X7607406Y-11329630D01*
X7607406Y-11329630D02*
X7615025Y-11333440D01*
X7615025Y-11333440D02*
X7656929Y-11333440D01*
X7603596Y-11432487D02*
X7683596Y-11432487D01*
X7607406Y-11432487D02*
X7603596Y-11440106D01*
X7603596Y-11440106D02*
X7603596Y-11455345D01*
X7603596Y-11455345D02*
X7607406Y-11462964D01*
X7607406Y-11462964D02*
X7611215Y-11466773D01*
X7611215Y-11466773D02*
X7618834Y-11470583D01*
X7618834Y-11470583D02*
X7641691Y-11470583D01*
X7641691Y-11470583D02*
X7649310Y-11466773D01*
X7649310Y-11466773D02*
X7653120Y-11462964D01*
X7653120Y-11462964D02*
X7656929Y-11455345D01*
X7656929Y-11455345D02*
X7656929Y-11440106D01*
X7656929Y-11440106D02*
X7653120Y-11432487D01*
X7656929Y-11504868D02*
X7603596Y-11504868D01*
X7618834Y-11504868D02*
X7611215Y-11508678D01*
X7611215Y-11508678D02*
X7607406Y-11512487D01*
X7607406Y-11512487D02*
X7603596Y-11520107D01*
X7603596Y-11520107D02*
X7603596Y-11527726D01*
X7656929Y-11565821D02*
X7653120Y-11558202D01*
X7653120Y-11558202D02*
X7649310Y-11554392D01*
X7649310Y-11554392D02*
X7641691Y-11550583D01*
X7641691Y-11550583D02*
X7618834Y-11550583D01*
X7618834Y-11550583D02*
X7611215Y-11554392D01*
X7611215Y-11554392D02*
X7607406Y-11558202D01*
X7607406Y-11558202D02*
X7603596Y-11565821D01*
X7603596Y-11565821D02*
X7603596Y-11577249D01*
X7603596Y-11577249D02*
X7607406Y-11584868D01*
X7607406Y-11584868D02*
X7611215Y-11588678D01*
X7611215Y-11588678D02*
X7618834Y-11592487D01*
X7618834Y-11592487D02*
X7641691Y-11592487D01*
X7641691Y-11592487D02*
X7649310Y-11588678D01*
X7649310Y-11588678D02*
X7653120Y-11584868D01*
X7653120Y-11584868D02*
X7656929Y-11577249D01*
X7656929Y-11577249D02*
X7656929Y-11565821D01*
X7603596Y-11615345D02*
X7603596Y-11645821D01*
X7576929Y-11626773D02*
X7645501Y-11626773D01*
X7645501Y-11626773D02*
X7653120Y-11630583D01*
X7653120Y-11630583D02*
X7656929Y-11638202D01*
X7656929Y-11638202D02*
X7656929Y-11645821D01*
X7653120Y-11702964D02*
X7656929Y-11695345D01*
X7656929Y-11695345D02*
X7656929Y-11680107D01*
X7656929Y-11680107D02*
X7653120Y-11672488D01*
X7653120Y-11672488D02*
X7645501Y-11668678D01*
X7645501Y-11668678D02*
X7615025Y-11668678D01*
X7615025Y-11668678D02*
X7607406Y-11672488D01*
X7607406Y-11672488D02*
X7603596Y-11680107D01*
X7603596Y-11680107D02*
X7603596Y-11695345D01*
X7603596Y-11695345D02*
X7607406Y-11702964D01*
X7607406Y-11702964D02*
X7615025Y-11706773D01*
X7615025Y-11706773D02*
X7622644Y-11706773D01*
X7622644Y-11706773D02*
X7630263Y-11668678D01*
X7653120Y-11775345D02*
X7656929Y-11767726D01*
X7656929Y-11767726D02*
X7656929Y-11752487D01*
X7656929Y-11752487D02*
X7653120Y-11744868D01*
X7653120Y-11744868D02*
X7649310Y-11741059D01*
X7649310Y-11741059D02*
X7641691Y-11737249D01*
X7641691Y-11737249D02*
X7618834Y-11737249D01*
X7618834Y-11737249D02*
X7611215Y-11741059D01*
X7611215Y-11741059D02*
X7607406Y-11744868D01*
X7607406Y-11744868D02*
X7603596Y-11752487D01*
X7603596Y-11752487D02*
X7603596Y-11767726D01*
X7603596Y-11767726D02*
X7607406Y-11775345D01*
X7603596Y-11798202D02*
X7603596Y-11828678D01*
X7576929Y-11809630D02*
X7645501Y-11809630D01*
X7645501Y-11809630D02*
X7653120Y-11813440D01*
X7653120Y-11813440D02*
X7656929Y-11821059D01*
X7656929Y-11821059D02*
X7656929Y-11828678D01*
X7656929Y-11855345D02*
X7603596Y-11855345D01*
X7576929Y-11855345D02*
X7580739Y-11851535D01*
X7580739Y-11851535D02*
X7584548Y-11855345D01*
X7584548Y-11855345D02*
X7580739Y-11859154D01*
X7580739Y-11859154D02*
X7576929Y-11855345D01*
X7576929Y-11855345D02*
X7584548Y-11855345D01*
X7656929Y-11904868D02*
X7653120Y-11897249D01*
X7653120Y-11897249D02*
X7649310Y-11893440D01*
X7649310Y-11893440D02*
X7641691Y-11889630D01*
X7641691Y-11889630D02*
X7618834Y-11889630D01*
X7618834Y-11889630D02*
X7611215Y-11893440D01*
X7611215Y-11893440D02*
X7607406Y-11897249D01*
X7607406Y-11897249D02*
X7603596Y-11904868D01*
X7603596Y-11904868D02*
X7603596Y-11916297D01*
X7603596Y-11916297D02*
X7607406Y-11923916D01*
X7607406Y-11923916D02*
X7611215Y-11927726D01*
X7611215Y-11927726D02*
X7618834Y-11931535D01*
X7618834Y-11931535D02*
X7641691Y-11931535D01*
X7641691Y-11931535D02*
X7649310Y-11927726D01*
X7649310Y-11927726D02*
X7653120Y-11923916D01*
X7653120Y-11923916D02*
X7656929Y-11916297D01*
X7656929Y-11916297D02*
X7656929Y-11904868D01*
X7603596Y-11965821D02*
X7656929Y-11965821D01*
X7611215Y-11965821D02*
X7607406Y-11969630D01*
X7607406Y-11969630D02*
X7603596Y-11977249D01*
X7603596Y-11977249D02*
X7603596Y-11988678D01*
X7603596Y-11988678D02*
X7607406Y-11996297D01*
X7607406Y-11996297D02*
X7615025Y-12000107D01*
X7615025Y-12000107D02*
X7656929Y-12000107D01*
X7649310Y-12049630D02*
X7653120Y-12053440D01*
X7653120Y-12053440D02*
X7656929Y-12049630D01*
X7656929Y-12049630D02*
X7653120Y-12045821D01*
X7653120Y-12045821D02*
X7649310Y-12049630D01*
X7649310Y-12049630D02*
X7656929Y-12049630D01*
X7580739Y-12034392D02*
X7576929Y-12042011D01*
X7576929Y-12042011D02*
X7576929Y-12061059D01*
X7576929Y-12061059D02*
X7580739Y-12068678D01*
X7580739Y-12068678D02*
X7588358Y-12072488D01*
X7588358Y-12072488D02*
X7595977Y-12072488D01*
X7595977Y-12072488D02*
X7603596Y-12068678D01*
X7603596Y-12068678D02*
X7607406Y-12064868D01*
X7607406Y-12064868D02*
X7611215Y-12057249D01*
X7611215Y-12057249D02*
X7615025Y-12053440D01*
X7615025Y-12053440D02*
X7622644Y-12049630D01*
X7622644Y-12049630D02*
X7626453Y-12049630D01*
G36*
X7911533Y-7468116D02*
G01*
X7906724Y-7468254D01*
X7898126Y-7466905D01*
X7893352Y-7463491D01*
X7890805Y-7457289D01*
X7889627Y-7443356D01*
X7889627Y-7420397D01*
X7890968Y-7407730D01*
X7893932Y-7402094D01*
X7899549Y-7399196D01*
X7911533Y-7397912D01*
X7911533Y-7468116D01*
G37*
G36*
X8204451Y-7661140D02*
G01*
X7706236Y-7661140D01*
X7706236Y-7627500D01*
X7739677Y-7627500D01*
X7805211Y-7627500D01*
X7805211Y-7570836D01*
X7739677Y-7570836D01*
X7739677Y-7627500D01*
X7706236Y-7627500D01*
X7706236Y-7350040D01*
X7734014Y-7350040D01*
X7745356Y-7559112D01*
X7799547Y-7559112D01*
X7806657Y-7427877D01*
X7828536Y-7427877D01*
X7828536Y-7451950D01*
X7829308Y-7469823D01*
X7831291Y-7482343D01*
X7834062Y-7490785D01*
X7838619Y-7498132D01*
X7845240Y-7504373D01*
X7854319Y-7509576D01*
X7864363Y-7513021D01*
X7876986Y-7515293D01*
X7892726Y-7516125D01*
X7911533Y-7516125D01*
X7911533Y-7627500D01*
X7984408Y-7627500D01*
X7984408Y-7535344D01*
X8011245Y-7535344D01*
X8011877Y-7564485D01*
X8013305Y-7579628D01*
X8017187Y-7592152D01*
X8025533Y-7605930D01*
X8032952Y-7614150D01*
X8041807Y-7620954D01*
X8052277Y-7626401D01*
X8063537Y-7630155D01*
X8076459Y-7632526D01*
X8091311Y-7633362D01*
X8107727Y-7632387D01*
X8122287Y-7629593D01*
X8135244Y-7625119D01*
X8147353Y-7618774D01*
X8156721Y-7611604D01*
X8163774Y-7603625D01*
X8171371Y-7589837D01*
X8174964Y-7575675D01*
X8176120Y-7557032D01*
X8176673Y-7514156D01*
X8176673Y-7350040D01*
X8103797Y-7350040D01*
X8103797Y-7557799D01*
X8103173Y-7574197D01*
X8101920Y-7580651D01*
X8099133Y-7584251D01*
X8094379Y-7585490D01*
X8088971Y-7584102D01*
X8086014Y-7580147D01*
X8084755Y-7572945D01*
X8084121Y-7554227D01*
X8084121Y-7350040D01*
X8011245Y-7350040D01*
X8011245Y-7535344D01*
X7984408Y-7535344D01*
X7984408Y-7350040D01*
X7911517Y-7350040D01*
X7883760Y-7351381D01*
X7866164Y-7354681D01*
X7855919Y-7358479D01*
X7848091Y-7362988D01*
X7842244Y-7368129D01*
X7835559Y-7377761D01*
X7831375Y-7389409D01*
X7829378Y-7403559D01*
X7828795Y-7420397D01*
X7828536Y-7427877D01*
X7806657Y-7427877D01*
X7810874Y-7350040D01*
X7734014Y-7350040D01*
X7706236Y-7350040D01*
X7706236Y-7322262D01*
X8204451Y-7322262D01*
X8204451Y-7661140D01*
G37*
D12*
X11016272Y-9750662D02*
X11022939Y-9747329D01*
X11022939Y-9747329D02*
X11032939Y-9747329D01*
X11032939Y-9747329D02*
X11042939Y-9750662D01*
X11042939Y-9750662D02*
X11049605Y-9757329D01*
X11049605Y-9757329D02*
X11052939Y-9763996D01*
X11052939Y-9763996D02*
X11056272Y-9777329D01*
X11056272Y-9777329D02*
X11056272Y-9787329D01*
X11056272Y-9787329D02*
X11052939Y-9800662D01*
X11052939Y-9800662D02*
X11049605Y-9807329D01*
X11049605Y-9807329D02*
X11042939Y-9813996D01*
X11042939Y-9813996D02*
X11032939Y-9817329D01*
X11032939Y-9817329D02*
X11026272Y-9817329D01*
X11026272Y-9817329D02*
X11016272Y-9813996D01*
X11016272Y-9813996D02*
X11012939Y-9810662D01*
X11012939Y-9810662D02*
X11012939Y-9787329D01*
X11012939Y-9787329D02*
X11026272Y-9787329D01*
X10982939Y-9817329D02*
X10982939Y-9747329D01*
X10982939Y-9747329D02*
X10956272Y-9747329D01*
X10956272Y-9747329D02*
X10949605Y-9750662D01*
X10949605Y-9750662D02*
X10946272Y-9753996D01*
X10946272Y-9753996D02*
X10942939Y-9760662D01*
X10942939Y-9760662D02*
X10942939Y-9770662D01*
X10942939Y-9770662D02*
X10946272Y-9777329D01*
X10946272Y-9777329D02*
X10949605Y-9780662D01*
X10949605Y-9780662D02*
X10956272Y-9783996D01*
X10956272Y-9783996D02*
X10982939Y-9783996D01*
X11016272Y-9930025D02*
X11056272Y-9930025D01*
X11036272Y-9930025D02*
X11036272Y-9860025D01*
X11036272Y-9860025D02*
X11042939Y-9870025D01*
X11042939Y-9870025D02*
X11049605Y-9876692D01*
X11049605Y-9876692D02*
X11056272Y-9880025D01*
X10949605Y-9930025D02*
X10989605Y-9930025D01*
X10969605Y-9930025D02*
X10969605Y-9860025D01*
X10969605Y-9860025D02*
X10976272Y-9870025D01*
X10976272Y-9870025D02*
X10982939Y-9876692D01*
X10982939Y-9876692D02*
X10989605Y-9880025D01*
X11016272Y-10042721D02*
X11056272Y-10042721D01*
X11036272Y-10042721D02*
X11036272Y-9972721D01*
X11036272Y-9972721D02*
X11042939Y-9982721D01*
X11042939Y-9982721D02*
X11049605Y-9989388D01*
X11049605Y-9989388D02*
X11056272Y-9992721D01*
X10972939Y-9972721D02*
X10966272Y-9972721D01*
X10966272Y-9972721D02*
X10959605Y-9976054D01*
X10959605Y-9976054D02*
X10956272Y-9979388D01*
X10956272Y-9979388D02*
X10952939Y-9986054D01*
X10952939Y-9986054D02*
X10949605Y-9999388D01*
X10949605Y-9999388D02*
X10949605Y-10016054D01*
X10949605Y-10016054D02*
X10952939Y-10029388D01*
X10952939Y-10029388D02*
X10956272Y-10036054D01*
X10956272Y-10036054D02*
X10959605Y-10039388D01*
X10959605Y-10039388D02*
X10966272Y-10042721D01*
X10966272Y-10042721D02*
X10972939Y-10042721D01*
X10972939Y-10042721D02*
X10979605Y-10039388D01*
X10979605Y-10039388D02*
X10982939Y-10036054D01*
X10982939Y-10036054D02*
X10986272Y-10029388D01*
X10986272Y-10029388D02*
X10989605Y-10016054D01*
X10989605Y-10016054D02*
X10989605Y-9999388D01*
X10989605Y-9999388D02*
X10986272Y-9986054D01*
X10986272Y-9986054D02*
X10982939Y-9979388D01*
X10982939Y-9979388D02*
X10979605Y-9976054D01*
X10979605Y-9976054D02*
X10972939Y-9972721D01*
X11049605Y-10155417D02*
X11036272Y-10155417D01*
X11036272Y-10155417D02*
X11029605Y-10152084D01*
X11029605Y-10152084D02*
X11026272Y-10148750D01*
X11026272Y-10148750D02*
X11019605Y-10138750D01*
X11019605Y-10138750D02*
X11016272Y-10125417D01*
X11016272Y-10125417D02*
X11016272Y-10098750D01*
X11016272Y-10098750D02*
X11019605Y-10092084D01*
X11019605Y-10092084D02*
X11022939Y-10088750D01*
X11022939Y-10088750D02*
X11029605Y-10085417D01*
X11029605Y-10085417D02*
X11042939Y-10085417D01*
X11042939Y-10085417D02*
X11049605Y-10088750D01*
X11049605Y-10088750D02*
X11052939Y-10092084D01*
X11052939Y-10092084D02*
X11056272Y-10098750D01*
X11056272Y-10098750D02*
X11056272Y-10115417D01*
X11056272Y-10115417D02*
X11052939Y-10122084D01*
X11052939Y-10122084D02*
X11049605Y-10125417D01*
X11049605Y-10125417D02*
X11042939Y-10128750D01*
X11042939Y-10128750D02*
X11029605Y-10128750D01*
X11029605Y-10128750D02*
X11022939Y-10125417D01*
X11022939Y-10125417D02*
X11019605Y-10122084D01*
X11019605Y-10122084D02*
X11016272Y-10115417D01*
X11056272Y-10204780D02*
X11052939Y-10201447D01*
X11052939Y-10201447D02*
X11046272Y-10198113D01*
X11046272Y-10198113D02*
X11029605Y-10198113D01*
X11029605Y-10198113D02*
X11022939Y-10201447D01*
X11022939Y-10201447D02*
X11019605Y-10204780D01*
X11019605Y-10204780D02*
X11016272Y-10211447D01*
X11016272Y-10211447D02*
X11016272Y-10218113D01*
X11016272Y-10218113D02*
X11019605Y-10228113D01*
X11019605Y-10228113D02*
X11059605Y-10268113D01*
X11059605Y-10268113D02*
X11016272Y-10268113D01*
X11016272Y-10314143D02*
X11022939Y-10310809D01*
X11022939Y-10310809D02*
X11032939Y-10310809D01*
X11032939Y-10310809D02*
X11042939Y-10314143D01*
X11042939Y-10314143D02*
X11049605Y-10320809D01*
X11049605Y-10320809D02*
X11052939Y-10327476D01*
X11052939Y-10327476D02*
X11056272Y-10340809D01*
X11056272Y-10340809D02*
X11056272Y-10350809D01*
X11056272Y-10350809D02*
X11052939Y-10364143D01*
X11052939Y-10364143D02*
X11049605Y-10370809D01*
X11049605Y-10370809D02*
X11042939Y-10377476D01*
X11042939Y-10377476D02*
X11032939Y-10380809D01*
X11032939Y-10380809D02*
X11026272Y-10380809D01*
X11026272Y-10380809D02*
X11016272Y-10377476D01*
X11016272Y-10377476D02*
X11012939Y-10374143D01*
X11012939Y-10374143D02*
X11012939Y-10350809D01*
X11012939Y-10350809D02*
X11026272Y-10350809D01*
X10982939Y-10380809D02*
X10982939Y-10310809D01*
X10982939Y-10310809D02*
X10942939Y-10380809D01*
X10942939Y-10380809D02*
X10942939Y-10310809D01*
X10909605Y-10380809D02*
X10909605Y-10310809D01*
X10909605Y-10310809D02*
X10892939Y-10310809D01*
X10892939Y-10310809D02*
X10882939Y-10314143D01*
X10882939Y-10314143D02*
X10876272Y-10320809D01*
X10876272Y-10320809D02*
X10872939Y-10327476D01*
X10872939Y-10327476D02*
X10869605Y-10340809D01*
X10869605Y-10340809D02*
X10869605Y-10350809D01*
X10869605Y-10350809D02*
X10872939Y-10364143D01*
X10872939Y-10364143D02*
X10876272Y-10370809D01*
X10876272Y-10370809D02*
X10882939Y-10377476D01*
X10882939Y-10377476D02*
X10892939Y-10380809D01*
X10892939Y-10380809D02*
X10909605Y-10380809D01*
D15*
G36*
X7266386Y-12814735D02*
G01*
X7273041Y-12821390D01*
X7280338Y-12835984D01*
X7280338Y-12849130D01*
X7273041Y-12863724D01*
X7266386Y-12870379D01*
X7251792Y-12877676D01*
X7238646Y-12877676D01*
X7224052Y-12870379D01*
X7219624Y-12865951D01*
X7219624Y-12819163D01*
X7224052Y-12814735D01*
X7238646Y-12807438D01*
X7251792Y-12807438D01*
X7266386Y-12814735D01*
G37*
G36*
X6533053Y-12729021D02*
G01*
X6548218Y-12744186D01*
X6556529Y-12777429D01*
X6556529Y-12841018D01*
X6548218Y-12874262D01*
X6533053Y-12889427D01*
X6518459Y-12896724D01*
X6486265Y-12896724D01*
X6471671Y-12889427D01*
X6456506Y-12874262D01*
X6448195Y-12841018D01*
X6448195Y-12777429D01*
X6456506Y-12744186D01*
X6471671Y-12729021D01*
X6486265Y-12721724D01*
X6518459Y-12721724D01*
X6533053Y-12729021D01*
G37*
G36*
X7375165Y-12972503D02*
G01*
X6181926Y-12972503D01*
X6181926Y-12709224D01*
X6204148Y-12709224D01*
X6204148Y-12909224D01*
X6204388Y-12911662D01*
X6206254Y-12916168D01*
X6209703Y-12919617D01*
X6214209Y-12921484D01*
X6219086Y-12921484D01*
X6223592Y-12919617D01*
X6227041Y-12916168D01*
X6228908Y-12911662D01*
X6229148Y-12909224D01*
X6229148Y-12765568D01*
X6271987Y-12857367D01*
X6272516Y-12858260D01*
X6272626Y-12858562D01*
X6272822Y-12858776D01*
X6273236Y-12859475D01*
X6274637Y-12860758D01*
X6275920Y-12862159D01*
X6276423Y-12862394D01*
X6276833Y-12862769D01*
X6278618Y-12863418D01*
X6280340Y-12864222D01*
X6280894Y-12864246D01*
X6281416Y-12864436D01*
X6283314Y-12864352D01*
X6285212Y-12864436D01*
X6285734Y-12864246D01*
X6286289Y-12864222D01*
X6288009Y-12863419D01*
X6289796Y-12862769D01*
X6290206Y-12862394D01*
X6290709Y-12862159D01*
X6291991Y-12860759D01*
X6293393Y-12859475D01*
X6293807Y-12858776D01*
X6294003Y-12858562D01*
X6294113Y-12858260D01*
X6294642Y-12857367D01*
X6337481Y-12765568D01*
X6337481Y-12909224D01*
X6337721Y-12911662D01*
X6339588Y-12916168D01*
X6343036Y-12919617D01*
X6347542Y-12921484D01*
X6352420Y-12921484D01*
X6356926Y-12919617D01*
X6360374Y-12916168D01*
X6362241Y-12911662D01*
X6362481Y-12909224D01*
X6362481Y-12775890D01*
X6423195Y-12775890D01*
X6423195Y-12842557D01*
X6423237Y-12842982D01*
X6423210Y-12843165D01*
X6423345Y-12844077D01*
X6423436Y-12844996D01*
X6423506Y-12845166D01*
X6423569Y-12845589D01*
X6433092Y-12883684D01*
X6433917Y-12885991D01*
X6434470Y-12886738D01*
X6434826Y-12887597D01*
X6436380Y-12889491D01*
X6455428Y-12908539D01*
X6456387Y-12909326D01*
X6456603Y-12909575D01*
X6456979Y-12909811D01*
X6457322Y-12910093D01*
X6457627Y-12910220D01*
X6458677Y-12910880D01*
X6477724Y-12920404D01*
X6480013Y-12921280D01*
X6480461Y-12921312D01*
X6480876Y-12921484D01*
X6483314Y-12921724D01*
X6521410Y-12921724D01*
X6523848Y-12921484D01*
X6524263Y-12921312D01*
X6524711Y-12921280D01*
X6527000Y-12920404D01*
X6546047Y-12910880D01*
X6547097Y-12910220D01*
X6547402Y-12910093D01*
X6547745Y-12909811D01*
X6548121Y-12909575D01*
X6548337Y-12909326D01*
X6549296Y-12908539D01*
X6568344Y-12889491D01*
X6569898Y-12887597D01*
X6570254Y-12886738D01*
X6570807Y-12885991D01*
X6571632Y-12883684D01*
X6581155Y-12845589D01*
X6581218Y-12845166D01*
X6581288Y-12844996D01*
X6581379Y-12844078D01*
X6581514Y-12843165D01*
X6581487Y-12842982D01*
X6581529Y-12842557D01*
X6581529Y-12775890D01*
X6581487Y-12775465D01*
X6581514Y-12775283D01*
X6581379Y-12774370D01*
X6581288Y-12773452D01*
X6581218Y-12773282D01*
X6581155Y-12772859D01*
X6571632Y-12734763D01*
X6570807Y-12732456D01*
X6570254Y-12731709D01*
X6569898Y-12730851D01*
X6568344Y-12728956D01*
X6549296Y-12709909D01*
X6548337Y-12709122D01*
X6548121Y-12708873D01*
X6547745Y-12708636D01*
X6547402Y-12708354D01*
X6547097Y-12708228D01*
X6546047Y-12707567D01*
X6544483Y-12706785D01*
X6623436Y-12706785D01*
X6623436Y-12711662D01*
X6625302Y-12716168D01*
X6628751Y-12719617D01*
X6633257Y-12721484D01*
X6635695Y-12721724D01*
X6718433Y-12721724D01*
X6718433Y-12791962D01*
X6664267Y-12791962D01*
X6661828Y-12792202D01*
X6657322Y-12794068D01*
X6653873Y-12797517D01*
X6652007Y-12802023D01*
X6652007Y-12806900D01*
X6653873Y-12811406D01*
X6657322Y-12814855D01*
X6661828Y-12816722D01*
X6664267Y-12816962D01*
X6718433Y-12816962D01*
X6718433Y-12909224D01*
X6718674Y-12911662D01*
X6720540Y-12916168D01*
X6723989Y-12919617D01*
X6728495Y-12921484D01*
X6733372Y-12921484D01*
X6737878Y-12919617D01*
X6741327Y-12916168D01*
X6743193Y-12911662D01*
X6743433Y-12909224D01*
X6743433Y-12709224D01*
X6813672Y-12709224D01*
X6813672Y-12852081D01*
X6813793Y-12853315D01*
X6813770Y-12853644D01*
X6813868Y-12854077D01*
X6813912Y-12854519D01*
X6814038Y-12854824D01*
X6814313Y-12856034D01*
X6823837Y-12884605D01*
X6824836Y-12886843D01*
X6825130Y-12887182D01*
X6825302Y-12887597D01*
X6826857Y-12889491D01*
X6845904Y-12908539D01*
X6847798Y-12910093D01*
X6848213Y-12910265D01*
X6848553Y-12910559D01*
X6850790Y-12911558D01*
X6879362Y-12921082D01*
X6880571Y-12921357D01*
X6880876Y-12921484D01*
X6881318Y-12921527D01*
X6881751Y-12921626D01*
X6882080Y-12921602D01*
X6883314Y-12921724D01*
X6902362Y-12921724D01*
X6904801Y-12921484D01*
X6909307Y-12919617D01*
X6912755Y-12916168D01*
X6914622Y-12911662D01*
X6914622Y-12906785D01*
X6912755Y-12902279D01*
X6909307Y-12898830D01*
X6904801Y-12896964D01*
X6902362Y-12896724D01*
X6885343Y-12896724D01*
X6861495Y-12888775D01*
X6846621Y-12873900D01*
X6839348Y-12852081D01*
X6956529Y-12852081D01*
X6956529Y-12871128D01*
X6956769Y-12873567D01*
X6956941Y-12873982D01*
X6956973Y-12874430D01*
X6957848Y-12876719D01*
X6967372Y-12895766D01*
X6968033Y-12896815D01*
X6968159Y-12897121D01*
X6968441Y-12897464D01*
X6968678Y-12897840D01*
X6968927Y-12898056D01*
X6969714Y-12899015D01*
X6979237Y-12908539D01*
X6980196Y-12909326D01*
X6980412Y-12909575D01*
X6980788Y-12909811D01*
X6981132Y-12910093D01*
X6981437Y-12910220D01*
X6982486Y-12910880D01*
X7001534Y-12920404D01*
X7003822Y-12921280D01*
X7004270Y-12921312D01*
X7004685Y-12921484D01*
X7007124Y-12921724D01*
X7054743Y-12921724D01*
X7055977Y-12921602D01*
X7056306Y-12921626D01*
X7056739Y-12921527D01*
X7057182Y-12921484D01*
X7057487Y-12921357D01*
X7058696Y-12921082D01*
X7087267Y-12911558D01*
X7089505Y-12910559D01*
X7093189Y-12907364D01*
X7095371Y-12903001D01*
X7095716Y-12898137D01*
X7094174Y-12893510D01*
X7090978Y-12889825D01*
X7086616Y-12887644D01*
X7081751Y-12887298D01*
X7079362Y-12887841D01*
X7052715Y-12896724D01*
X7010075Y-12896724D01*
X6995481Y-12889427D01*
X6988826Y-12882772D01*
X6981529Y-12868178D01*
X6981529Y-12855032D01*
X6988826Y-12840438D01*
X6995481Y-12833783D01*
X7011487Y-12825780D01*
X7048251Y-12816589D01*
X7048431Y-12816524D01*
X7048521Y-12816518D01*
X7049535Y-12816130D01*
X7050558Y-12815764D01*
X7050631Y-12815710D01*
X7050809Y-12815642D01*
X7069857Y-12806118D01*
X7070907Y-12805457D01*
X7071211Y-12805331D01*
X7071555Y-12805050D01*
X7071931Y-12804813D01*
X7072147Y-12804563D01*
X7072271Y-12804462D01*
X7147005Y-12804462D01*
X7147005Y-12852081D01*
X7147245Y-12854519D01*
X7147417Y-12854934D01*
X7147449Y-12855382D01*
X7148325Y-12857671D01*
X7157848Y-12876719D01*
X7158105Y-12877126D01*
X7158169Y-12877319D01*
X7158377Y-12877559D01*
X7159154Y-12878792D01*
X7160338Y-12879819D01*
X7161365Y-12881003D01*
X7162599Y-12881780D01*
X7162838Y-12881988D01*
X7163031Y-12882052D01*
X7163439Y-12882309D01*
X7182486Y-12891833D01*
X7184775Y-12892708D01*
X7185223Y-12892740D01*
X7185638Y-12892912D01*
X7188076Y-12893152D01*
X7197600Y-12893152D01*
X7200039Y-12892912D01*
X7200039Y-12892912D01*
X7201359Y-12892365D01*
X7204545Y-12891046D01*
X7204545Y-12891045D01*
X7206439Y-12889491D01*
X7207124Y-12888806D01*
X7207809Y-12889491D01*
X7208768Y-12890278D01*
X7208984Y-12890527D01*
X7209360Y-12890764D01*
X7209703Y-12891046D01*
X7210008Y-12891172D01*
X7211058Y-12891833D01*
X7230105Y-12901356D01*
X7232394Y-12902232D01*
X7232842Y-12902264D01*
X7233257Y-12902436D01*
X7235695Y-12902676D01*
X7254743Y-12902676D01*
X7257182Y-12902436D01*
X7257596Y-12902264D01*
X7258045Y-12902232D01*
X7260333Y-12901356D01*
X7279381Y-12891833D01*
X7280430Y-12891172D01*
X7280735Y-12891046D01*
X7281079Y-12890764D01*
X7281455Y-12890527D01*
X7281671Y-12890278D01*
X7282629Y-12889491D01*
X7292153Y-12879967D01*
X7292940Y-12879008D01*
X7293189Y-12878792D01*
X7293426Y-12878417D01*
X7293708Y-12878073D01*
X7293834Y-12877768D01*
X7294495Y-12876719D01*
X7304019Y-12857671D01*
X7304894Y-12855382D01*
X7304926Y-12854934D01*
X7305098Y-12854519D01*
X7305338Y-12852081D01*
X7305338Y-12833033D01*
X7305098Y-12830595D01*
X7304926Y-12830180D01*
X7304894Y-12829732D01*
X7304019Y-12827443D01*
X7294495Y-12808395D01*
X7293834Y-12807346D01*
X7293708Y-12807041D01*
X7293426Y-12806697D01*
X7293189Y-12806322D01*
X7292940Y-12806106D01*
X7292153Y-12805147D01*
X7282629Y-12795623D01*
X7281671Y-12794836D01*
X7281455Y-12794587D01*
X7281079Y-12794350D01*
X7280735Y-12794068D01*
X7280430Y-12793942D01*
X7279381Y-12793282D01*
X7260333Y-12783758D01*
X7258045Y-12782882D01*
X7257596Y-12782850D01*
X7257182Y-12782678D01*
X7254743Y-12782438D01*
X7235695Y-12782438D01*
X7233257Y-12782678D01*
X7232842Y-12782850D01*
X7232394Y-12782882D01*
X7230105Y-12783758D01*
X7218224Y-12789698D01*
X7217517Y-12787993D01*
X7214069Y-12784545D01*
X7209563Y-12782678D01*
X7204685Y-12782678D01*
X7200179Y-12784545D01*
X7196731Y-12787993D01*
X7194864Y-12792499D01*
X7194624Y-12794938D01*
X7194624Y-12865951D01*
X7192423Y-12868152D01*
X7191027Y-12868152D01*
X7178346Y-12861811D01*
X7172005Y-12849130D01*
X7172005Y-12808247D01*
X7187566Y-12784904D01*
X7212256Y-12768444D01*
X7245219Y-12760204D01*
X7278182Y-12768444D01*
X7302872Y-12784904D01*
X7319332Y-12809594D01*
X7327573Y-12842557D01*
X7319332Y-12875520D01*
X7302872Y-12900210D01*
X7278182Y-12916670D01*
X7245219Y-12924910D01*
X7212256Y-12916670D01*
X7185486Y-12898823D01*
X7183324Y-12897670D01*
X7178540Y-12896724D01*
X7173757Y-12897680D01*
X7169705Y-12900394D01*
X7166999Y-12904452D01*
X7166053Y-12909237D01*
X7167009Y-12914019D01*
X7169723Y-12918072D01*
X7171619Y-12919624D01*
X7200190Y-12938672D01*
X7201537Y-12939390D01*
X7201785Y-12939574D01*
X7202078Y-12939678D01*
X7202353Y-12939825D01*
X7202655Y-12939885D01*
X7204092Y-12940398D01*
X7242188Y-12949922D01*
X7244612Y-12950280D01*
X7245219Y-12950190D01*
X7245827Y-12950280D01*
X7248251Y-12949922D01*
X7286346Y-12940398D01*
X7287783Y-12939885D01*
X7288086Y-12939825D01*
X7288361Y-12939678D01*
X7288654Y-12939574D01*
X7288902Y-12939390D01*
X7290248Y-12938672D01*
X7318820Y-12919624D01*
X7320715Y-12918072D01*
X7320723Y-12918061D01*
X7320734Y-12918053D01*
X7322287Y-12916157D01*
X7341334Y-12887586D01*
X7342052Y-12886239D01*
X7342236Y-12885991D01*
X7342340Y-12885699D01*
X7342487Y-12885424D01*
X7342547Y-12885121D01*
X7343060Y-12883684D01*
X7352584Y-12845589D01*
X7352943Y-12843165D01*
X7352852Y-12842557D01*
X7352943Y-12841949D01*
X7352584Y-12839525D01*
X7343060Y-12801430D01*
X7342547Y-12799993D01*
X7342487Y-12799690D01*
X7342340Y-12799415D01*
X7342236Y-12799123D01*
X7342052Y-12798875D01*
X7341334Y-12797528D01*
X7322287Y-12768957D01*
X7320734Y-12767061D01*
X7320723Y-12767053D01*
X7320715Y-12767042D01*
X7318820Y-12765490D01*
X7290248Y-12746442D01*
X7288902Y-12745724D01*
X7288654Y-12745540D01*
X7288361Y-12745436D01*
X7288086Y-12745289D01*
X7287783Y-12745229D01*
X7286346Y-12744716D01*
X7248251Y-12735192D01*
X7245827Y-12734834D01*
X7245219Y-12734924D01*
X7244612Y-12734834D01*
X7242188Y-12735192D01*
X7204092Y-12744716D01*
X7202655Y-12745229D01*
X7202353Y-12745289D01*
X7202078Y-12745436D01*
X7201785Y-12745540D01*
X7201537Y-12745724D01*
X7200190Y-12746442D01*
X7171619Y-12765490D01*
X7169723Y-12767042D01*
X7169716Y-12767053D01*
X7169705Y-12767061D01*
X7168152Y-12768957D01*
X7149104Y-12797528D01*
X7147951Y-12799690D01*
X7147714Y-12800892D01*
X7147245Y-12802023D01*
X7147005Y-12804462D01*
X7072271Y-12804462D01*
X7073106Y-12803777D01*
X7082629Y-12794253D01*
X7083416Y-12793294D01*
X7083666Y-12793078D01*
X7083902Y-12792702D01*
X7084184Y-12792359D01*
X7084310Y-12792054D01*
X7084971Y-12791004D01*
X7094495Y-12771957D01*
X7095371Y-12769668D01*
X7095402Y-12769220D01*
X7095574Y-12768805D01*
X7095814Y-12766367D01*
X7095814Y-12747319D01*
X7095574Y-12744880D01*
X7095402Y-12744465D01*
X7095371Y-12744017D01*
X7094495Y-12741729D01*
X7084971Y-12722681D01*
X7084310Y-12721631D01*
X7084184Y-12721327D01*
X7083902Y-12720984D01*
X7083666Y-12720607D01*
X7083416Y-12720391D01*
X7082629Y-12719433D01*
X7073106Y-12709909D01*
X7072147Y-12709122D01*
X7071931Y-12708873D01*
X7071555Y-12708636D01*
X7071211Y-12708354D01*
X7070907Y-12708228D01*
X7069857Y-12707567D01*
X7050809Y-12698043D01*
X7048521Y-12697168D01*
X7048073Y-12697136D01*
X7047658Y-12696964D01*
X7045219Y-12696724D01*
X6997600Y-12696724D01*
X6996366Y-12696845D01*
X6996037Y-12696822D01*
X6995604Y-12696920D01*
X6995162Y-12696964D01*
X6994856Y-12697090D01*
X6993647Y-12697365D01*
X6965076Y-12706889D01*
X6962838Y-12707888D01*
X6959154Y-12711084D01*
X6956973Y-12715446D01*
X6956627Y-12720311D01*
X6958169Y-12724938D01*
X6961365Y-12728622D01*
X6965727Y-12730804D01*
X6970592Y-12731149D01*
X6972982Y-12730606D01*
X6999628Y-12721724D01*
X7042268Y-12721724D01*
X7056862Y-12729021D01*
X7063517Y-12735676D01*
X7070814Y-12750270D01*
X7070814Y-12763416D01*
X7063517Y-12778010D01*
X7056862Y-12784665D01*
X7040856Y-12792668D01*
X7004092Y-12801859D01*
X7003912Y-12801923D01*
X7003822Y-12801930D01*
X7002807Y-12802318D01*
X7001785Y-12802683D01*
X7001712Y-12802737D01*
X7001534Y-12802805D01*
X6982486Y-12812329D01*
X6981436Y-12812990D01*
X6981132Y-12813116D01*
X6980789Y-12813398D01*
X6980412Y-12813635D01*
X6980196Y-12813884D01*
X6979238Y-12814671D01*
X6969714Y-12824194D01*
X6968927Y-12825153D01*
X6968678Y-12825369D01*
X6968441Y-12825745D01*
X6968159Y-12826089D01*
X6968033Y-12826393D01*
X6967372Y-12827443D01*
X6957848Y-12846491D01*
X6956973Y-12848779D01*
X6956941Y-12849227D01*
X6956769Y-12849642D01*
X6956529Y-12852081D01*
X6839348Y-12852081D01*
X6838672Y-12850052D01*
X6838672Y-12709224D01*
X6838431Y-12706785D01*
X6836565Y-12702279D01*
X6833116Y-12698830D01*
X6828610Y-12696964D01*
X6823733Y-12696964D01*
X6819227Y-12698830D01*
X6815778Y-12702279D01*
X6813912Y-12706785D01*
X6813672Y-12709224D01*
X6743433Y-12709224D01*
X6743193Y-12706785D01*
X6741327Y-12702279D01*
X6737878Y-12698830D01*
X6733372Y-12696964D01*
X6730933Y-12696724D01*
X6635695Y-12696724D01*
X6633257Y-12696964D01*
X6628751Y-12698830D01*
X6625302Y-12702279D01*
X6623436Y-12706785D01*
X6544483Y-12706785D01*
X6527000Y-12698043D01*
X6524711Y-12697168D01*
X6524263Y-12697136D01*
X6523848Y-12696964D01*
X6521410Y-12696724D01*
X6483314Y-12696724D01*
X6480876Y-12696964D01*
X6480461Y-12697136D01*
X6480013Y-12697168D01*
X6477724Y-12698043D01*
X6458677Y-12707567D01*
X6457627Y-12708228D01*
X6457322Y-12708354D01*
X6456978Y-12708636D01*
X6456603Y-12708873D01*
X6456387Y-12709122D01*
X6455428Y-12709909D01*
X6436380Y-12728956D01*
X6434826Y-12730851D01*
X6434470Y-12731709D01*
X6433917Y-12732456D01*
X6433092Y-12734763D01*
X6423569Y-12772859D01*
X6423506Y-12773282D01*
X6423436Y-12773452D01*
X6423345Y-12774370D01*
X6423210Y-12775283D01*
X6423237Y-12775465D01*
X6423195Y-12775890D01*
X6362481Y-12775890D01*
X6362481Y-12709224D01*
X6362323Y-12707621D01*
X6362336Y-12707326D01*
X6362278Y-12707167D01*
X6362241Y-12706785D01*
X6361411Y-12704781D01*
X6360669Y-12702742D01*
X6360481Y-12702537D01*
X6360374Y-12702279D01*
X6358841Y-12700745D01*
X6357375Y-12699145D01*
X6357123Y-12699027D01*
X6356926Y-12698830D01*
X6354922Y-12698000D01*
X6352956Y-12697083D01*
X6352677Y-12697071D01*
X6352420Y-12696964D01*
X6350251Y-12696964D01*
X6348083Y-12696869D01*
X6347821Y-12696964D01*
X6347542Y-12696964D01*
X6345538Y-12697794D01*
X6343500Y-12698535D01*
X6343294Y-12698724D01*
X6343036Y-12698830D01*
X6341502Y-12700365D01*
X6339903Y-12701829D01*
X6339707Y-12702160D01*
X6339588Y-12702279D01*
X6339475Y-12702552D01*
X6338654Y-12703938D01*
X6283314Y-12822522D01*
X6227975Y-12703938D01*
X6227154Y-12702552D01*
X6227041Y-12702279D01*
X6226922Y-12702160D01*
X6226726Y-12701829D01*
X6225126Y-12700364D01*
X6223592Y-12698830D01*
X6223335Y-12698724D01*
X6223129Y-12698535D01*
X6221090Y-12697794D01*
X6219086Y-12696964D01*
X6218808Y-12696964D01*
X6218546Y-12696869D01*
X6216378Y-12696964D01*
X6214209Y-12696964D01*
X6213952Y-12697071D01*
X6213673Y-12697083D01*
X6211707Y-12698000D01*
X6209703Y-12698830D01*
X6209506Y-12699027D01*
X6209253Y-12699145D01*
X6207788Y-12700745D01*
X6206254Y-12702279D01*
X6206148Y-12702537D01*
X6205959Y-12702742D01*
X6205218Y-12704781D01*
X6204388Y-12706785D01*
X6204350Y-12707167D01*
X6204293Y-12707326D01*
X6204306Y-12707621D01*
X6204148Y-12709224D01*
X6181926Y-12709224D01*
X6181926Y-12674502D01*
X7375165Y-12674502D01*
X7375165Y-12972503D01*
G37*
D11*
G36*
X8002156Y-8533985D02*
G01*
X8004967Y-8537314D01*
X8006238Y-8543338D01*
X8006872Y-8558685D01*
X8006872Y-8665676D01*
X8006250Y-8682858D01*
X8005101Y-8688463D01*
X8002485Y-8691198D01*
X7997432Y-8692237D01*
X7992435Y-8691060D01*
X7989689Y-8687792D01*
X7988455Y-8681919D01*
X7987845Y-8667300D01*
X7987845Y-8558685D01*
X7988404Y-8542885D01*
X7989494Y-8537045D01*
X7992081Y-8533944D01*
X7997151Y-8532795D01*
X8002156Y-8533985D01*
G37*
G36*
X7827243Y-8646124D02*
G01*
X7803821Y-8646124D01*
X7803430Y-8552383D01*
X7827243Y-8646124D01*
G37*
G36*
X8218920Y-8749630D02*
G01*
X7709901Y-8749630D01*
X7709901Y-8646124D01*
X7732123Y-8646124D01*
X7732123Y-8684421D01*
X7747840Y-8684421D01*
X7747840Y-8723500D01*
X7803821Y-8723500D01*
X7875249Y-8723500D01*
X7917699Y-8723500D01*
X7917699Y-8677387D01*
X7875249Y-8677387D01*
X7875249Y-8723500D01*
X7803821Y-8723500D01*
X7803821Y-8684421D01*
X7869400Y-8684421D01*
X7869400Y-8646454D01*
X7846457Y-8576893D01*
X7931865Y-8576893D01*
X7931865Y-8650459D01*
X7932688Y-8673870D01*
X7934613Y-8687083D01*
X7938761Y-8698066D01*
X7946031Y-8708613D01*
X7952243Y-8714695D01*
X7959182Y-8719471D01*
X7966938Y-8723024D01*
X7979636Y-8726270D01*
X7994281Y-8727408D01*
X8013247Y-8726151D01*
X8027352Y-8722816D01*
X8035719Y-8719093D01*
X8042675Y-8714320D01*
X8048405Y-8708479D01*
X8055182Y-8698347D01*
X8059543Y-8687975D01*
X8061854Y-8675640D01*
X8062840Y-8653866D01*
X8062840Y-8576893D01*
X8062113Y-8556413D01*
X8060224Y-8541599D01*
X8060171Y-8541393D01*
X8070241Y-8541393D01*
X8096167Y-8723500D01*
X8168841Y-8723500D01*
X8196697Y-8541393D01*
X8146591Y-8541393D01*
X8131485Y-8674835D01*
X8125867Y-8603003D01*
X8120371Y-8541393D01*
X8070241Y-8541393D01*
X8060171Y-8541393D01*
X8057552Y-8531232D01*
X8052953Y-8521894D01*
X8046052Y-8513804D01*
X8036511Y-8506820D01*
X8025652Y-8501842D01*
X8013057Y-8498723D01*
X7998372Y-8497624D01*
X7986343Y-8498369D01*
X7975509Y-8500522D01*
X7965705Y-8503999D01*
X7956458Y-8508823D01*
X7949379Y-8514020D01*
X7944114Y-8519569D01*
X7938109Y-8529331D01*
X7934405Y-8540281D01*
X7932626Y-8553485D01*
X7932457Y-8558685D01*
X7931865Y-8576893D01*
X7846457Y-8576893D01*
X7821601Y-8501532D01*
X7747840Y-8501532D01*
X7747840Y-8552383D01*
X7747840Y-8646124D01*
X7732123Y-8646124D01*
X7709901Y-8646124D01*
X7709901Y-8475402D01*
X8218920Y-8475402D01*
X8218920Y-8749630D01*
G37*
X10954179Y-10584430D02*
X10999894Y-10584430D01*
X10977036Y-10584430D02*
X10977036Y-10504430D01*
X10977036Y-10504430D02*
X10984655Y-10515858D01*
X10984655Y-10515858D02*
X10992274Y-10523477D01*
X10992274Y-10523477D02*
X10999894Y-10527287D01*
X10923703Y-10512049D02*
X10919893Y-10508239D01*
X10919893Y-10508239D02*
X10912274Y-10504430D01*
X10912274Y-10504430D02*
X10893227Y-10504430D01*
X10893227Y-10504430D02*
X10885608Y-10508239D01*
X10885608Y-10508239D02*
X10881798Y-10512049D01*
X10881798Y-10512049D02*
X10877989Y-10519668D01*
X10877989Y-10519668D02*
X10877989Y-10527287D01*
X10877989Y-10527287D02*
X10881798Y-10538715D01*
X10881798Y-10538715D02*
X10927513Y-10584430D01*
X10927513Y-10584430D02*
X10877989Y-10584430D01*
X10679893Y-10584430D02*
X10725608Y-10584430D01*
X10702751Y-10584430D02*
X10702751Y-10504430D01*
X10702751Y-10504430D02*
X10710370Y-10515858D01*
X10710370Y-10515858D02*
X10717989Y-10523477D01*
X10717989Y-10523477D02*
X10725608Y-10527287D01*
X10653227Y-10504430D02*
X10603703Y-10504430D01*
X10603703Y-10504430D02*
X10630370Y-10534906D01*
X10630370Y-10534906D02*
X10618941Y-10534906D01*
X10618941Y-10534906D02*
X10611322Y-10538715D01*
X10611322Y-10538715D02*
X10607512Y-10542525D01*
X10607512Y-10542525D02*
X10603703Y-10550144D01*
X10603703Y-10550144D02*
X10603703Y-10569191D01*
X10603703Y-10569191D02*
X10607512Y-10576810D01*
X10607512Y-10576810D02*
X10611322Y-10580620D01*
X10611322Y-10580620D02*
X10618941Y-10584430D01*
X10618941Y-10584430D02*
X10641798Y-10584430D01*
X10641798Y-10584430D02*
X10649417Y-10580620D01*
X10649417Y-10580620D02*
X10653227Y-10576810D01*
X10405608Y-10584430D02*
X10451322Y-10584430D01*
X10428465Y-10584430D02*
X10428465Y-10504430D01*
X10428465Y-10504430D02*
X10436084Y-10515858D01*
X10436084Y-10515858D02*
X10443703Y-10523477D01*
X10443703Y-10523477D02*
X10451322Y-10527287D01*
X10337036Y-10531096D02*
X10337036Y-10584430D01*
X10356084Y-10500620D02*
X10375131Y-10557763D01*
X10375131Y-10557763D02*
X10325608Y-10557763D01*
X10131322Y-10584430D02*
X10177036Y-10584430D01*
X10154179Y-10584430D02*
X10154179Y-10504430D01*
X10154179Y-10504430D02*
X10161798Y-10515858D01*
X10161798Y-10515858D02*
X10169417Y-10523477D01*
X10169417Y-10523477D02*
X10177036Y-10527287D01*
X10058941Y-10504430D02*
X10097036Y-10504430D01*
X10097036Y-10504430D02*
X10100846Y-10542525D01*
X10100846Y-10542525D02*
X10097036Y-10538715D01*
X10097036Y-10538715D02*
X10089417Y-10534906D01*
X10089417Y-10534906D02*
X10070369Y-10534906D01*
X10070369Y-10534906D02*
X10062750Y-10538715D01*
X10062750Y-10538715D02*
X10058941Y-10542525D01*
X10058941Y-10542525D02*
X10055131Y-10550144D01*
X10055131Y-10550144D02*
X10055131Y-10569191D01*
X10055131Y-10569191D02*
X10058941Y-10576810D01*
X10058941Y-10576810D02*
X10062750Y-10580620D01*
X10062750Y-10580620D02*
X10070369Y-10584430D01*
X10070369Y-10584430D02*
X10089417Y-10584430D01*
X10089417Y-10584430D02*
X10097036Y-10580620D01*
X10097036Y-10580620D02*
X10100846Y-10576810D01*
G36*
X8757687Y-8749667D02*
G01*
X8523836Y-8749667D01*
X8523836Y-8547006D01*
X8590502Y-8547006D01*
X8590502Y-8683000D01*
X8691021Y-8683000D01*
X8691021Y-8017096D01*
X8594337Y-8017096D01*
X8594337Y-8153091D01*
X8632720Y-8153091D01*
X8632720Y-8275017D01*
X8596792Y-8275017D01*
X8596792Y-8403977D01*
X8632720Y-8403977D01*
X8632720Y-8547006D01*
X8590502Y-8547006D01*
X8523836Y-8547006D01*
X8523836Y-7950430D01*
X8757687Y-7950430D01*
X8757687Y-8749667D01*
G37*
D13*
X8938152Y-12521484D02*
X8947676Y-12516722D01*
X8947676Y-12516722D02*
X8961961Y-12516722D01*
X8961961Y-12516722D02*
X8976247Y-12521484D01*
X8976247Y-12521484D02*
X8985771Y-12531008D01*
X8985771Y-12531008D02*
X8990533Y-12540531D01*
X8990533Y-12540531D02*
X8995295Y-12559579D01*
X8995295Y-12559579D02*
X8995295Y-12573865D01*
X8995295Y-12573865D02*
X8990533Y-12592912D01*
X8990533Y-12592912D02*
X8985771Y-12602436D01*
X8985771Y-12602436D02*
X8976247Y-12611960D01*
X8976247Y-12611960D02*
X8961961Y-12616722D01*
X8961961Y-12616722D02*
X8952437Y-12616722D01*
X8952437Y-12616722D02*
X8938152Y-12611960D01*
X8938152Y-12611960D02*
X8933390Y-12607198D01*
X8933390Y-12607198D02*
X8933390Y-12573865D01*
X8933390Y-12573865D02*
X8952437Y-12573865D01*
X8890533Y-12616722D02*
X8890533Y-12516722D01*
X8890533Y-12516722D02*
X8833390Y-12616722D01*
X8833390Y-12616722D02*
X8833390Y-12516722D01*
X8785771Y-12616722D02*
X8785771Y-12516722D01*
X8785771Y-12516722D02*
X8761961Y-12516722D01*
X8761961Y-12516722D02*
X8747676Y-12521484D01*
X8747676Y-12521484D02*
X8738152Y-12531008D01*
X8738152Y-12531008D02*
X8733390Y-12540531D01*
X8733390Y-12540531D02*
X8728628Y-12559579D01*
X8728628Y-12559579D02*
X8728628Y-12573865D01*
X8728628Y-12573865D02*
X8733390Y-12592912D01*
X8733390Y-12592912D02*
X8738152Y-12602436D01*
X8738152Y-12602436D02*
X8747676Y-12611960D01*
X8747676Y-12611960D02*
X8761961Y-12616722D01*
X8761961Y-12616722D02*
X8785771Y-12616722D01*
X8619104Y-12516722D02*
X8557199Y-12516722D01*
X8557199Y-12516722D02*
X8590533Y-12554817D01*
X8590533Y-12554817D02*
X8576247Y-12554817D01*
X8576247Y-12554817D02*
X8566723Y-12559579D01*
X8566723Y-12559579D02*
X8561961Y-12564341D01*
X8561961Y-12564341D02*
X8557199Y-12573865D01*
X8557199Y-12573865D02*
X8557199Y-12597674D01*
X8557199Y-12597674D02*
X8561961Y-12607198D01*
X8561961Y-12607198D02*
X8566723Y-12611960D01*
X8566723Y-12611960D02*
X8576247Y-12616722D01*
X8576247Y-12616722D02*
X8604818Y-12616722D01*
X8604818Y-12616722D02*
X8614342Y-12611960D01*
X8614342Y-12611960D02*
X8619104Y-12607198D01*
X8523866Y-12550055D02*
X8500056Y-12616722D01*
X8500056Y-12616722D02*
X8476247Y-12550055D01*
X8447675Y-12516722D02*
X8385771Y-12516722D01*
X8385771Y-12516722D02*
X8419104Y-12554817D01*
X8419104Y-12554817D02*
X8404818Y-12554817D01*
X8404818Y-12554817D02*
X8395295Y-12559579D01*
X8395295Y-12559579D02*
X8390533Y-12564341D01*
X8390533Y-12564341D02*
X8385771Y-12573865D01*
X8385771Y-12573865D02*
X8385771Y-12597674D01*
X8385771Y-12597674D02*
X8390533Y-12607198D01*
X8390533Y-12607198D02*
X8395295Y-12611960D01*
X8395295Y-12611960D02*
X8404818Y-12616722D01*
X8404818Y-12616722D02*
X8433390Y-12616722D01*
X8433390Y-12616722D02*
X8442914Y-12611960D01*
X8442914Y-12611960D02*
X8447675Y-12607198D01*
X8281009Y-12516722D02*
X8247675Y-12616722D01*
X8247675Y-12616722D02*
X8214342Y-12516722D01*
X8181009Y-12616722D02*
X8181009Y-12550055D01*
X8181009Y-12559579D02*
X8176247Y-12554817D01*
X8176247Y-12554817D02*
X8166723Y-12550055D01*
X8166723Y-12550055D02*
X8152437Y-12550055D01*
X8152437Y-12550055D02*
X8142913Y-12554817D01*
X8142913Y-12554817D02*
X8138152Y-12564341D01*
X8138152Y-12564341D02*
X8138152Y-12616722D01*
X8138152Y-12564341D02*
X8133390Y-12554817D01*
X8133390Y-12554817D02*
X8123866Y-12550055D01*
X8123866Y-12550055D02*
X8109580Y-12550055D01*
X8109580Y-12550055D02*
X8100056Y-12554817D01*
X8100056Y-12554817D02*
X8095294Y-12564341D01*
X8095294Y-12564341D02*
X8095294Y-12616722D01*
X8033390Y-12616722D02*
X8042913Y-12611960D01*
X8042913Y-12611960D02*
X8047675Y-12607198D01*
X8047675Y-12607198D02*
X8052437Y-12597674D01*
X8052437Y-12597674D02*
X8052437Y-12569103D01*
X8052437Y-12569103D02*
X8047675Y-12559579D01*
X8047675Y-12559579D02*
X8042913Y-12554817D01*
X8042913Y-12554817D02*
X8033390Y-12550055D01*
X8033390Y-12550055D02*
X8019104Y-12550055D01*
X8019104Y-12550055D02*
X8009580Y-12554817D01*
X8009580Y-12554817D02*
X8004818Y-12559579D01*
X8004818Y-12559579D02*
X8000056Y-12569103D01*
X8000056Y-12569103D02*
X8000056Y-12597674D01*
X8000056Y-12597674D02*
X8004818Y-12607198D01*
X8004818Y-12607198D02*
X8009580Y-12611960D01*
X8009580Y-12611960D02*
X8019104Y-12616722D01*
X8019104Y-12616722D02*
X8033390Y-12616722D01*
X7971485Y-12550055D02*
X7933390Y-12550055D01*
X7957199Y-12516722D02*
X7957199Y-12602436D01*
X7957199Y-12602436D02*
X7952437Y-12611960D01*
X7952437Y-12611960D02*
X7942913Y-12616722D01*
X7942913Y-12616722D02*
X7933390Y-12616722D01*
X7838151Y-12516722D02*
X7804818Y-12616722D01*
X7804818Y-12616722D02*
X7771485Y-12516722D01*
X7738151Y-12616722D02*
X7738151Y-12516722D01*
X7738151Y-12554817D02*
X7728628Y-12550055D01*
X7728628Y-12550055D02*
X7709580Y-12550055D01*
X7709580Y-12550055D02*
X7700056Y-12554817D01*
X7700056Y-12554817D02*
X7695294Y-12559579D01*
X7695294Y-12559579D02*
X7690532Y-12569103D01*
X7690532Y-12569103D02*
X7690532Y-12597674D01*
X7690532Y-12597674D02*
X7695294Y-12607198D01*
X7695294Y-12607198D02*
X7700056Y-12611960D01*
X7700056Y-12611960D02*
X7709580Y-12616722D01*
X7709580Y-12616722D02*
X7728628Y-12616722D01*
X7728628Y-12616722D02*
X7738151Y-12611960D01*
X7604818Y-12616722D02*
X7604818Y-12564341D01*
X7604818Y-12564341D02*
X7609580Y-12554817D01*
X7609580Y-12554817D02*
X7619104Y-12550055D01*
X7619104Y-12550055D02*
X7638151Y-12550055D01*
X7638151Y-12550055D02*
X7647675Y-12554817D01*
X7604818Y-12611960D02*
X7614342Y-12616722D01*
X7614342Y-12616722D02*
X7638151Y-12616722D01*
X7638151Y-12616722D02*
X7647675Y-12611960D01*
X7647675Y-12611960D02*
X7652437Y-12602436D01*
X7652437Y-12602436D02*
X7652437Y-12592912D01*
X7652437Y-12592912D02*
X7647675Y-12583388D01*
X7647675Y-12583388D02*
X7638151Y-12578627D01*
X7638151Y-12578627D02*
X7614342Y-12578627D01*
X7614342Y-12578627D02*
X7604818Y-12573865D01*
X7571485Y-12550055D02*
X7533390Y-12550055D01*
X7557199Y-12516722D02*
X7557199Y-12602436D01*
X7557199Y-12602436D02*
X7552437Y-12611960D01*
X7552437Y-12611960D02*
X7542913Y-12616722D01*
X7542913Y-12616722D02*
X7533390Y-12616722D01*
X7438151Y-12516722D02*
X7404818Y-12616722D01*
X7404818Y-12616722D02*
X7371485Y-12516722D01*
X7295294Y-12550055D02*
X7295294Y-12616722D01*
X7338151Y-12550055D02*
X7338151Y-12602436D01*
X7338151Y-12602436D02*
X7333389Y-12611960D01*
X7333389Y-12611960D02*
X7323866Y-12616722D01*
X7323866Y-12616722D02*
X7309580Y-12616722D01*
X7309580Y-12616722D02*
X7300056Y-12611960D01*
X7300056Y-12611960D02*
X7295294Y-12607198D01*
X7252437Y-12611960D02*
X7242913Y-12616722D01*
X7242913Y-12616722D02*
X7223866Y-12616722D01*
X7223866Y-12616722D02*
X7214342Y-12611960D01*
X7214342Y-12611960D02*
X7209580Y-12602436D01*
X7209580Y-12602436D02*
X7209580Y-12597674D01*
X7209580Y-12597674D02*
X7214342Y-12588150D01*
X7214342Y-12588150D02*
X7223866Y-12583388D01*
X7223866Y-12583388D02*
X7238151Y-12583388D01*
X7238151Y-12583388D02*
X7247675Y-12578627D01*
X7247675Y-12578627D02*
X7252437Y-12569103D01*
X7252437Y-12569103D02*
X7252437Y-12564341D01*
X7252437Y-12564341D02*
X7247675Y-12554817D01*
X7247675Y-12554817D02*
X7238151Y-12550055D01*
X7238151Y-12550055D02*
X7223866Y-12550055D01*
X7223866Y-12550055D02*
X7214342Y-12554817D01*
X7166723Y-12616722D02*
X7166723Y-12516722D01*
X7166723Y-12554817D02*
X7157199Y-12550055D01*
X7157199Y-12550055D02*
X7138151Y-12550055D01*
X7138151Y-12550055D02*
X7128628Y-12554817D01*
X7128628Y-12554817D02*
X7123866Y-12559579D01*
X7123866Y-12559579D02*
X7119104Y-12569103D01*
X7119104Y-12569103D02*
X7119104Y-12597674D01*
X7119104Y-12597674D02*
X7123866Y-12607198D01*
X7123866Y-12607198D02*
X7128628Y-12611960D01*
X7128628Y-12611960D02*
X7138151Y-12616722D01*
X7138151Y-12616722D02*
X7157199Y-12616722D01*
X7157199Y-12616722D02*
X7166723Y-12611960D01*
D16*
G36*
X8403555Y-6396301D02*
G01*
X8363814Y-6396301D01*
X8383684Y-6336689D01*
X8403555Y-6396301D01*
G37*
G36*
X8917840Y-6396301D02*
G01*
X8878100Y-6396301D01*
X8897970Y-6336689D01*
X8917840Y-6396301D01*
G37*
G36*
X9006702Y-6515666D02*
G01*
X8103367Y-6515666D01*
X8103367Y-6311539D01*
X8125589Y-6311539D01*
X8125589Y-6330587D01*
X8125783Y-6332561D01*
X8125746Y-6333088D01*
X8125903Y-6333781D01*
X8125973Y-6334488D01*
X8126175Y-6334976D01*
X8126615Y-6336911D01*
X8136139Y-6365483D01*
X8137737Y-6369063D01*
X8138208Y-6369605D01*
X8138483Y-6370269D01*
X8140971Y-6373300D01*
X8221114Y-6453444D01*
X8145589Y-6453444D01*
X8141687Y-6453828D01*
X8134477Y-6456814D01*
X8128959Y-6462332D01*
X8125973Y-6469542D01*
X8125973Y-6477346D01*
X8128959Y-6484555D01*
X8134477Y-6490073D01*
X8141687Y-6493059D01*
X8145589Y-6493444D01*
X8269398Y-6493444D01*
X8273300Y-6493059D01*
X8280510Y-6490073D01*
X8286028Y-6484555D01*
X8286528Y-6483348D01*
X8289014Y-6477346D01*
X8289014Y-6470942D01*
X8297175Y-6470942D01*
X8297728Y-6478726D01*
X8301218Y-6485706D01*
X8307113Y-6490819D01*
X8314516Y-6493287D01*
X8322300Y-6492734D01*
X8329280Y-6489244D01*
X8334393Y-6483348D01*
X8335991Y-6479768D01*
X8350480Y-6436301D01*
X8416888Y-6436301D01*
X8431377Y-6479768D01*
X8432976Y-6483348D01*
X8438089Y-6489244D01*
X8445068Y-6492734D01*
X8452852Y-6493287D01*
X8460255Y-6490819D01*
X8466151Y-6485706D01*
X8469641Y-6478726D01*
X8470194Y-6470942D01*
X8469875Y-6469542D01*
X8640259Y-6469542D01*
X8640259Y-6477346D01*
X8643245Y-6484555D01*
X8648763Y-6490073D01*
X8655973Y-6493059D01*
X8659875Y-6493444D01*
X8774160Y-6493444D01*
X8778062Y-6493059D01*
X8785272Y-6490073D01*
X8790790Y-6484555D01*
X8793776Y-6477346D01*
X8793776Y-6470942D01*
X8811460Y-6470942D01*
X8812014Y-6478726D01*
X8815503Y-6485706D01*
X8821399Y-6490819D01*
X8828802Y-6493287D01*
X8836586Y-6492734D01*
X8843566Y-6489244D01*
X8848679Y-6483348D01*
X8850277Y-6479768D01*
X8864766Y-6436301D01*
X8931174Y-6436301D01*
X8945663Y-6479768D01*
X8947261Y-6483348D01*
X8952374Y-6489244D01*
X8959354Y-6492734D01*
X8967138Y-6493287D01*
X8974541Y-6490819D01*
X8980437Y-6485706D01*
X8983926Y-6478726D01*
X8984480Y-6470942D01*
X8983610Y-6467119D01*
X8916944Y-6267119D01*
X8915345Y-6263539D01*
X8914409Y-6262460D01*
X8913770Y-6261181D01*
X8911875Y-6259538D01*
X8910232Y-6257644D01*
X8908954Y-6257005D01*
X8907875Y-6256069D01*
X8905496Y-6255276D01*
X8903253Y-6254154D01*
X8901827Y-6254053D01*
X8900472Y-6253601D01*
X8897970Y-6253779D01*
X8895469Y-6253601D01*
X8894113Y-6254053D01*
X8892688Y-6254154D01*
X8890445Y-6255275D01*
X8888065Y-6256069D01*
X8886986Y-6257005D01*
X8885708Y-6257644D01*
X8884065Y-6259538D01*
X8882170Y-6261181D01*
X8881531Y-6262460D01*
X8880595Y-6263539D01*
X8878996Y-6267119D01*
X8812330Y-6467119D01*
X8811460Y-6470942D01*
X8793776Y-6470942D01*
X8793776Y-6469542D01*
X8790790Y-6462332D01*
X8785272Y-6456814D01*
X8778062Y-6453828D01*
X8774160Y-6453444D01*
X8737018Y-6453444D01*
X8737018Y-6331252D01*
X8740971Y-6335205D01*
X8742504Y-6336464D01*
X8742851Y-6336863D01*
X8743452Y-6337241D01*
X8744001Y-6337692D01*
X8744489Y-6337894D01*
X8746169Y-6338951D01*
X8765216Y-6348475D01*
X8768878Y-6349876D01*
X8776662Y-6350430D01*
X8784065Y-6347962D01*
X8789960Y-6342849D01*
X8793450Y-6335869D01*
X8794003Y-6328085D01*
X8791536Y-6320682D01*
X8786423Y-6314787D01*
X8783105Y-6312698D01*
X8766960Y-6304626D01*
X8751608Y-6289273D01*
X8733659Y-6262350D01*
X8733650Y-6262339D01*
X8733647Y-6262332D01*
X8733632Y-6262318D01*
X8731175Y-6259316D01*
X8729529Y-6258215D01*
X8728129Y-6256814D01*
X8726319Y-6256064D01*
X8724691Y-6254974D01*
X8722749Y-6254586D01*
X8720919Y-6253828D01*
X8718960Y-6253828D01*
X8717039Y-6253444D01*
X8715096Y-6253828D01*
X8713116Y-6253828D01*
X8711306Y-6254578D01*
X8709383Y-6254958D01*
X8707736Y-6256056D01*
X8705906Y-6256814D01*
X8704521Y-6258200D01*
X8702890Y-6259287D01*
X8701789Y-6260932D01*
X8700388Y-6262332D01*
X8699638Y-6264143D01*
X8698548Y-6265771D01*
X8698160Y-6267713D01*
X8697402Y-6269542D01*
X8697022Y-6273403D01*
X8697018Y-6273423D01*
X8697019Y-6273430D01*
X8697018Y-6273444D01*
X8697018Y-6453444D01*
X8659875Y-6453444D01*
X8655973Y-6453828D01*
X8648763Y-6456814D01*
X8643245Y-6462332D01*
X8640259Y-6469542D01*
X8469875Y-6469542D01*
X8469325Y-6467119D01*
X8402658Y-6267119D01*
X8401059Y-6263539D01*
X8400123Y-6262460D01*
X8399484Y-6261181D01*
X8397590Y-6259538D01*
X8395947Y-6257644D01*
X8394668Y-6257005D01*
X8393589Y-6256069D01*
X8391210Y-6255276D01*
X8388967Y-6254154D01*
X8387541Y-6254053D01*
X8386186Y-6253601D01*
X8383684Y-6253779D01*
X8381183Y-6253601D01*
X8379827Y-6254053D01*
X8378402Y-6254154D01*
X8376159Y-6255275D01*
X8373780Y-6256069D01*
X8372700Y-6257005D01*
X8371422Y-6257644D01*
X8369779Y-6259538D01*
X8367884Y-6261181D01*
X8367245Y-6262460D01*
X8366309Y-6263539D01*
X8364710Y-6267119D01*
X8298044Y-6467119D01*
X8297175Y-6470942D01*
X8289014Y-6470942D01*
X8289014Y-6469542D01*
X8286028Y-6462332D01*
X8283541Y-6459302D01*
X8172593Y-6348354D01*
X8165589Y-6327341D01*
X8165589Y-6316260D01*
X8171550Y-6304338D01*
X8176484Y-6299405D01*
X8188405Y-6293444D01*
X8226582Y-6293444D01*
X8238504Y-6299405D01*
X8245732Y-6306633D01*
X8248763Y-6309121D01*
X8255973Y-6312107D01*
X8263776Y-6312107D01*
X8270986Y-6309121D01*
X8276504Y-6303603D01*
X8279490Y-6296393D01*
X8279490Y-6288590D01*
X8276504Y-6281380D01*
X8274017Y-6278349D01*
X8264493Y-6268825D01*
X8262959Y-6267567D01*
X8262613Y-6267168D01*
X8262011Y-6266789D01*
X8261462Y-6266338D01*
X8260974Y-6266136D01*
X8259295Y-6265079D01*
X8240247Y-6255555D01*
X8236586Y-6254154D01*
X8235869Y-6254103D01*
X8235205Y-6253828D01*
X8231303Y-6253444D01*
X8183684Y-6253444D01*
X8179782Y-6253828D01*
X8179118Y-6254103D01*
X8178402Y-6254154D01*
X8174740Y-6255555D01*
X8155692Y-6265079D01*
X8154013Y-6266136D01*
X8153525Y-6266338D01*
X8152976Y-6266789D01*
X8152374Y-6267168D01*
X8152028Y-6267567D01*
X8150494Y-6268825D01*
X8140971Y-6278349D01*
X8139712Y-6279883D01*
X8139313Y-6280229D01*
X8138934Y-6280831D01*
X8138483Y-6281380D01*
X8138281Y-6281868D01*
X8137224Y-6283547D01*
X8127700Y-6302595D01*
X8126299Y-6306256D01*
X8126248Y-6306973D01*
X8125973Y-6307637D01*
X8125589Y-6311539D01*
X8103367Y-6311539D01*
X8103367Y-6231222D01*
X9006702Y-6231222D01*
X9006702Y-6515666D01*
G37*
D11*
G36*
X9155530Y-8752912D02*
G01*
X8978865Y-8752912D01*
X8978865Y-8669091D01*
X9001087Y-8669091D01*
X9001856Y-8684993D01*
X9003847Y-8696312D01*
X9006668Y-8704116D01*
X9011217Y-8710879D01*
X9018201Y-8717185D01*
X9028210Y-8723057D01*
X9039090Y-8727202D01*
X9051369Y-8729787D01*
X9065286Y-8730689D01*
X9080535Y-8729637D01*
X9093624Y-8726657D01*
X9104902Y-8721921D01*
X9115004Y-8715199D01*
X9122002Y-8707774D01*
X9126432Y-8699561D01*
X9129044Y-8690320D01*
X9130845Y-8677772D01*
X9131525Y-8661105D01*
X9131525Y-8646279D01*
X9077327Y-8646279D01*
X9077327Y-8673390D01*
X9076620Y-8684488D01*
X9075166Y-8689009D01*
X9072321Y-8691471D01*
X9067472Y-8692392D01*
X9062614Y-8691281D01*
X9059241Y-8688032D01*
X9057299Y-8683032D01*
X9056518Y-8674904D01*
X9057308Y-8661883D01*
X9059218Y-8654027D01*
X9061745Y-8649650D01*
X9069369Y-8643027D01*
X9088599Y-8629610D01*
X9108110Y-8616081D01*
X9117078Y-8608886D01*
X9123298Y-8601478D01*
X9128704Y-8591007D01*
X9132044Y-8578711D01*
X9133308Y-8561893D01*
X9132403Y-8544817D01*
X9130070Y-8532767D01*
X9126762Y-8524536D01*
X9121657Y-8517375D01*
X9114718Y-8511214D01*
X9105635Y-8506010D01*
X9095697Y-8502428D01*
X9084076Y-8500151D01*
X9070476Y-8499343D01*
X9055611Y-8500231D01*
X9042931Y-8502734D01*
X9032106Y-8506670D01*
X9022164Y-8512356D01*
X9015360Y-8518503D01*
X9011052Y-8525135D01*
X9008492Y-8532865D01*
X9006617Y-8544935D01*
X9005874Y-8562858D01*
X9005874Y-8572029D01*
X9060072Y-8572029D01*
X9060072Y-8555128D01*
X9060721Y-8544756D01*
X9062038Y-8540669D01*
X9064540Y-8538447D01*
X9068559Y-8537640D01*
X9072960Y-8538661D01*
X9076118Y-8541682D01*
X9077951Y-8546354D01*
X9078695Y-8554126D01*
X9077843Y-8564212D01*
X9075740Y-8570417D01*
X9071248Y-8575679D01*
X9059620Y-8583851D01*
X9034111Y-8600528D01*
X9019005Y-8612816D01*
X9011137Y-8621733D01*
X9007182Y-8629123D01*
X9004023Y-8639041D01*
X9001885Y-8652120D01*
X9001087Y-8669091D01*
X8978865Y-8669091D01*
X8978865Y-8477120D01*
X9155530Y-8477120D01*
X9155530Y-8752912D01*
G37*
G36*
X8375220Y-8151472D02*
G01*
X8371373Y-8151912D01*
X8364495Y-8147597D01*
X8360675Y-8136671D01*
X8358638Y-8116826D01*
X8357695Y-8072240D01*
X8357695Y-7998771D01*
X8358768Y-7958235D01*
X8361139Y-7940202D01*
X8365633Y-7930929D01*
X8375220Y-7926817D01*
X8375220Y-8151472D01*
G37*
G36*
X8522409Y-8750389D02*
G01*
X8219933Y-8750389D01*
X8219933Y-8022707D01*
X8308822Y-8022707D01*
X8308822Y-8099741D01*
X8309440Y-8156933D01*
X8311026Y-8196997D01*
X8313243Y-8224012D01*
X8316889Y-8247524D01*
X8322186Y-8267494D01*
X8329449Y-8284145D01*
X8337484Y-8295166D01*
X8347582Y-8302439D01*
X8360174Y-8305101D01*
X8375220Y-8305101D01*
X8375220Y-8661500D01*
X8433521Y-8661500D01*
X8433521Y-7773628D01*
X8375208Y-7773628D01*
X8353002Y-7777921D01*
X8338925Y-7788478D01*
X8330729Y-7800633D01*
X8324466Y-7815061D01*
X8319789Y-7831514D01*
X8314441Y-7862334D01*
X8311094Y-7899609D01*
X8309496Y-7944888D01*
X8309030Y-7998771D01*
X8308822Y-8022707D01*
X8219933Y-8022707D01*
X8219933Y-7684739D01*
X8522409Y-7684739D01*
X8522409Y-8750389D01*
G37*
X10564179Y-10338239D02*
X10571798Y-10334430D01*
X10571798Y-10334430D02*
X10583227Y-10334430D01*
X10583227Y-10334430D02*
X10594655Y-10338239D01*
X10594655Y-10338239D02*
X10602274Y-10345858D01*
X10602274Y-10345858D02*
X10606084Y-10353477D01*
X10606084Y-10353477D02*
X10609894Y-10368715D01*
X10609894Y-10368715D02*
X10609894Y-10380144D01*
X10609894Y-10380144D02*
X10606084Y-10395382D01*
X10606084Y-10395382D02*
X10602274Y-10403001D01*
X10602274Y-10403001D02*
X10594655Y-10410620D01*
X10594655Y-10410620D02*
X10583227Y-10414430D01*
X10583227Y-10414430D02*
X10575608Y-10414430D01*
X10575608Y-10414430D02*
X10564179Y-10410620D01*
X10564179Y-10410620D02*
X10560370Y-10406810D01*
X10560370Y-10406810D02*
X10560370Y-10380144D01*
X10560370Y-10380144D02*
X10575608Y-10380144D01*
X10526084Y-10414430D02*
X10526084Y-10334430D01*
X10526084Y-10334430D02*
X10495608Y-10334430D01*
X10495608Y-10334430D02*
X10487989Y-10338239D01*
X10487989Y-10338239D02*
X10484179Y-10342049D01*
X10484179Y-10342049D02*
X10480370Y-10349668D01*
X10480370Y-10349668D02*
X10480370Y-10361096D01*
X10480370Y-10361096D02*
X10484179Y-10368715D01*
X10484179Y-10368715D02*
X10487989Y-10372525D01*
X10487989Y-10372525D02*
X10495608Y-10376334D01*
X10495608Y-10376334D02*
X10526084Y-10376334D01*
X10549298Y-12201094D02*
X10555965Y-12197761D01*
X10555965Y-12197761D02*
X10565965Y-12197761D01*
X10565965Y-12197761D02*
X10575965Y-12201094D01*
X10575965Y-12201094D02*
X10582632Y-12207761D01*
X10582632Y-12207761D02*
X10585965Y-12214428D01*
X10585965Y-12214428D02*
X10589298Y-12227761D01*
X10589298Y-12227761D02*
X10589298Y-12237761D01*
X10589298Y-12237761D02*
X10585965Y-12251094D01*
X10585965Y-12251094D02*
X10582632Y-12257761D01*
X10582632Y-12257761D02*
X10575965Y-12264428D01*
X10575965Y-12264428D02*
X10565965Y-12267761D01*
X10565965Y-12267761D02*
X10559298Y-12267761D01*
X10559298Y-12267761D02*
X10549298Y-12264428D01*
X10549298Y-12264428D02*
X10545965Y-12261094D01*
X10545965Y-12261094D02*
X10545965Y-12237761D01*
X10545965Y-12237761D02*
X10559298Y-12237761D01*
X10319298Y-12201094D02*
X10325965Y-12197761D01*
X10325965Y-12197761D02*
X10335965Y-12197761D01*
X10335965Y-12197761D02*
X10345965Y-12201094D01*
X10345965Y-12201094D02*
X10352632Y-12207761D01*
X10352632Y-12207761D02*
X10355965Y-12214428D01*
X10355965Y-12214428D02*
X10359298Y-12227761D01*
X10359298Y-12227761D02*
X10359298Y-12237761D01*
X10359298Y-12237761D02*
X10355965Y-12251094D01*
X10355965Y-12251094D02*
X10352632Y-12257761D01*
X10352632Y-12257761D02*
X10345965Y-12264428D01*
X10345965Y-12264428D02*
X10335965Y-12267761D01*
X10335965Y-12267761D02*
X10329298Y-12267761D01*
X10329298Y-12267761D02*
X10319298Y-12264428D01*
X10319298Y-12264428D02*
X10315965Y-12261094D01*
X10315965Y-12261094D02*
X10315965Y-12237761D01*
X10315965Y-12237761D02*
X10329298Y-12237761D01*
X10545965Y-12380457D02*
X10569298Y-12347124D01*
X10585965Y-12380457D02*
X10585965Y-12310457D01*
X10585965Y-12310457D02*
X10559298Y-12310457D01*
X10559298Y-12310457D02*
X10552632Y-12313790D01*
X10552632Y-12313790D02*
X10549298Y-12317124D01*
X10549298Y-12317124D02*
X10545965Y-12323790D01*
X10545965Y-12323790D02*
X10545965Y-12333790D01*
X10545965Y-12333790D02*
X10549298Y-12340457D01*
X10549298Y-12340457D02*
X10552632Y-12343790D01*
X10552632Y-12343790D02*
X10559298Y-12347124D01*
X10559298Y-12347124D02*
X10585965Y-12347124D01*
X10522632Y-12310457D02*
X10475965Y-12380457D01*
X10475965Y-12310457D02*
X10522632Y-12380457D01*
X10345965Y-12377124D02*
X10335965Y-12380457D01*
X10335965Y-12380457D02*
X10319298Y-12380457D01*
X10319298Y-12380457D02*
X10312632Y-12377124D01*
X10312632Y-12377124D02*
X10309298Y-12373790D01*
X10309298Y-12373790D02*
X10305965Y-12367124D01*
X10305965Y-12367124D02*
X10305965Y-12360457D01*
X10305965Y-12360457D02*
X10309298Y-12353790D01*
X10309298Y-12353790D02*
X10312632Y-12350457D01*
X10312632Y-12350457D02*
X10319298Y-12347124D01*
X10319298Y-12347124D02*
X10332632Y-12343790D01*
X10332632Y-12343790D02*
X10339298Y-12340457D01*
X10339298Y-12340457D02*
X10342632Y-12337124D01*
X10342632Y-12337124D02*
X10345965Y-12330457D01*
X10345965Y-12330457D02*
X10345965Y-12323790D01*
X10345965Y-12323790D02*
X10342632Y-12317124D01*
X10342632Y-12317124D02*
X10339298Y-12313790D01*
X10339298Y-12313790D02*
X10332632Y-12310457D01*
X10332632Y-12310457D02*
X10315965Y-12310457D01*
X10315965Y-12310457D02*
X10305965Y-12313790D01*
X10282632Y-12310457D02*
X10265965Y-12380457D01*
X10265965Y-12380457D02*
X10252632Y-12330457D01*
X10252632Y-12330457D02*
X10239298Y-12380457D01*
X10239298Y-12380457D02*
X10222632Y-12310457D01*
X10195965Y-12380457D02*
X10195965Y-12310457D01*
X10195965Y-12310457D02*
X10179298Y-12310457D01*
X10179298Y-12310457D02*
X10169298Y-12313790D01*
X10169298Y-12313790D02*
X10162632Y-12320457D01*
X10162632Y-12320457D02*
X10159298Y-12327124D01*
X10159298Y-12327124D02*
X10155965Y-12340457D01*
X10155965Y-12340457D02*
X10155965Y-12350457D01*
X10155965Y-12350457D02*
X10159298Y-12363790D01*
X10159298Y-12363790D02*
X10162632Y-12370457D01*
X10162632Y-12370457D02*
X10169298Y-12377124D01*
X10169298Y-12377124D02*
X10179298Y-12380457D01*
X10179298Y-12380457D02*
X10195965Y-12380457D01*
X10595965Y-12423153D02*
X10555965Y-12423153D01*
X10575965Y-12493153D02*
X10575965Y-12423153D01*
X10539298Y-12423153D02*
X10492632Y-12493153D01*
X10492632Y-12423153D02*
X10539298Y-12493153D01*
X10362632Y-12489820D02*
X10352632Y-12493153D01*
X10352632Y-12493153D02*
X10335965Y-12493153D01*
X10335965Y-12493153D02*
X10329298Y-12489820D01*
X10329298Y-12489820D02*
X10325965Y-12486487D01*
X10325965Y-12486487D02*
X10322632Y-12479820D01*
X10322632Y-12479820D02*
X10322632Y-12473153D01*
X10322632Y-12473153D02*
X10325965Y-12466487D01*
X10325965Y-12466487D02*
X10329298Y-12463153D01*
X10329298Y-12463153D02*
X10335965Y-12459820D01*
X10335965Y-12459820D02*
X10349298Y-12456487D01*
X10349298Y-12456487D02*
X10355965Y-12453153D01*
X10355965Y-12453153D02*
X10359298Y-12449820D01*
X10359298Y-12449820D02*
X10362632Y-12443153D01*
X10362632Y-12443153D02*
X10362632Y-12436487D01*
X10362632Y-12436487D02*
X10359298Y-12429820D01*
X10359298Y-12429820D02*
X10355965Y-12426487D01*
X10355965Y-12426487D02*
X10349298Y-12423153D01*
X10349298Y-12423153D02*
X10332632Y-12423153D01*
X10332632Y-12423153D02*
X10322632Y-12426487D01*
X10252632Y-12486487D02*
X10255965Y-12489820D01*
X10255965Y-12489820D02*
X10265965Y-12493153D01*
X10265965Y-12493153D02*
X10272632Y-12493153D01*
X10272632Y-12493153D02*
X10282632Y-12489820D01*
X10282632Y-12489820D02*
X10289298Y-12483153D01*
X10289298Y-12483153D02*
X10292632Y-12476487D01*
X10292632Y-12476487D02*
X10295965Y-12463153D01*
X10295965Y-12463153D02*
X10295965Y-12453153D01*
X10295965Y-12453153D02*
X10292632Y-12439820D01*
X10292632Y-12439820D02*
X10289298Y-12433153D01*
X10289298Y-12433153D02*
X10282632Y-12426487D01*
X10282632Y-12426487D02*
X10272632Y-12423153D01*
X10272632Y-12423153D02*
X10265965Y-12423153D01*
X10265965Y-12423153D02*
X10255965Y-12426487D01*
X10255965Y-12426487D02*
X10252632Y-12429820D01*
X10222632Y-12493153D02*
X10222632Y-12423153D01*
X10182632Y-12493153D02*
X10212632Y-12453153D01*
X10182632Y-12423153D02*
X10222632Y-12463153D01*
G36*
X8975308Y-8751444D02*
G01*
X8759938Y-8751444D01*
X8759938Y-8353727D01*
X8804382Y-8353727D01*
X8838540Y-8353727D01*
X8838540Y-8707000D01*
X8896841Y-8707000D01*
X8896841Y-8353727D01*
X8930864Y-8353727D01*
X8930864Y-8263064D01*
X8804382Y-8263064D01*
X8804382Y-8353727D01*
X8759938Y-8353727D01*
X8759938Y-8218620D01*
X8975308Y-8218620D01*
X8975308Y-8751444D01*
G37*
D16*
G36*
X9453208Y-6453444D02*
G01*
X9401739Y-6453444D01*
X9389817Y-6447483D01*
X9384883Y-6442549D01*
X9378922Y-6430627D01*
X9378922Y-6411498D01*
X9384883Y-6399576D01*
X9388773Y-6395686D01*
X9409787Y-6388682D01*
X9453208Y-6388682D01*
X9453208Y-6453444D01*
G37*
G36*
X9453208Y-6348682D02*
G01*
X9411263Y-6348682D01*
X9399341Y-6342721D01*
X9394407Y-6337787D01*
X9388446Y-6325865D01*
X9388446Y-6316260D01*
X9394407Y-6304338D01*
X9399341Y-6299405D01*
X9411263Y-6293444D01*
X9453208Y-6293444D01*
X9453208Y-6348682D01*
G37*
G36*
X9996065Y-6453444D02*
G01*
X9944596Y-6453444D01*
X9932674Y-6447483D01*
X9927740Y-6442549D01*
X9921780Y-6430627D01*
X9921780Y-6411498D01*
X9927740Y-6399576D01*
X9931631Y-6395686D01*
X9952644Y-6388682D01*
X9996065Y-6388682D01*
X9996065Y-6453444D01*
G37*
G36*
X9996065Y-6348682D02*
G01*
X9954120Y-6348682D01*
X9942198Y-6342721D01*
X9937264Y-6337787D01*
X9931303Y-6325865D01*
X9931303Y-6316260D01*
X9937264Y-6304338D01*
X9942198Y-6299405D01*
X9954120Y-6293444D01*
X9996065Y-6293444D01*
X9996065Y-6348682D01*
G37*
G36*
X10058287Y-6515666D02*
G01*
X9126608Y-6515666D01*
X9126608Y-6469542D01*
X9148830Y-6469542D01*
X9148830Y-6477346D01*
X9151817Y-6484555D01*
X9157335Y-6490073D01*
X9164544Y-6493059D01*
X9168446Y-6493444D01*
X9282732Y-6493444D01*
X9286634Y-6493059D01*
X9293843Y-6490073D01*
X9299361Y-6484555D01*
X9302348Y-6477346D01*
X9302348Y-6469542D01*
X9299361Y-6462332D01*
X9293843Y-6456814D01*
X9286634Y-6453828D01*
X9282732Y-6453444D01*
X9245589Y-6453444D01*
X9245589Y-6406777D01*
X9338922Y-6406777D01*
X9338922Y-6435348D01*
X9339307Y-6439250D01*
X9339582Y-6439914D01*
X9339633Y-6440631D01*
X9341034Y-6444293D01*
X9350558Y-6463340D01*
X9351615Y-6465020D01*
X9351817Y-6465507D01*
X9352267Y-6466056D01*
X9352646Y-6466658D01*
X9353045Y-6467004D01*
X9354304Y-6468538D01*
X9363828Y-6478062D01*
X9365362Y-6479321D01*
X9365708Y-6479720D01*
X9366309Y-6480098D01*
X9366858Y-6480549D01*
X9367347Y-6480752D01*
X9369026Y-6481808D01*
X9388073Y-6491332D01*
X9391735Y-6492734D01*
X9392452Y-6492784D01*
X9393116Y-6493059D01*
X9397018Y-6493444D01*
X9473208Y-6493444D01*
X9477110Y-6493059D01*
X9484319Y-6490073D01*
X9489837Y-6484555D01*
X9492824Y-6477346D01*
X9493208Y-6473444D01*
X9493208Y-6311539D01*
X9691303Y-6311539D01*
X9691303Y-6330587D01*
X9691498Y-6332561D01*
X9691460Y-6333088D01*
X9691618Y-6333781D01*
X9691688Y-6334488D01*
X9691890Y-6334976D01*
X9692330Y-6336911D01*
X9701853Y-6365483D01*
X9703452Y-6369063D01*
X9703923Y-6369605D01*
X9704198Y-6370269D01*
X9706685Y-6373300D01*
X9786829Y-6453444D01*
X9711303Y-6453444D01*
X9707402Y-6453828D01*
X9700192Y-6456814D01*
X9694674Y-6462332D01*
X9691688Y-6469542D01*
X9691688Y-6477346D01*
X9694674Y-6484555D01*
X9700192Y-6490073D01*
X9707402Y-6493059D01*
X9711303Y-6493444D01*
X9835113Y-6493444D01*
X9839015Y-6493059D01*
X9846224Y-6490073D01*
X9851742Y-6484555D01*
X9854729Y-6477346D01*
X9854729Y-6469542D01*
X9851742Y-6462332D01*
X9849255Y-6459302D01*
X9796730Y-6406777D01*
X9881780Y-6406777D01*
X9881780Y-6435348D01*
X9882164Y-6439250D01*
X9882439Y-6439914D01*
X9882490Y-6440631D01*
X9883891Y-6444293D01*
X9893415Y-6463340D01*
X9894472Y-6465020D01*
X9894674Y-6465507D01*
X9895125Y-6466056D01*
X9895503Y-6466658D01*
X9895903Y-6467004D01*
X9897161Y-6468538D01*
X9906685Y-6478062D01*
X9908219Y-6479321D01*
X9908565Y-6479720D01*
X9909166Y-6480098D01*
X9909716Y-6480549D01*
X9910204Y-6480752D01*
X9911883Y-6481808D01*
X9930931Y-6491332D01*
X9934592Y-6492734D01*
X9935309Y-6492784D01*
X9935973Y-6493059D01*
X9939875Y-6493444D01*
X10016065Y-6493444D01*
X10019967Y-6493059D01*
X10027177Y-6490073D01*
X10032695Y-6484555D01*
X10035681Y-6477346D01*
X10036065Y-6473444D01*
X10036065Y-6273444D01*
X10035681Y-6269542D01*
X10032695Y-6262332D01*
X10027177Y-6256814D01*
X10019967Y-6253828D01*
X10016065Y-6253444D01*
X9949399Y-6253444D01*
X9945497Y-6253828D01*
X9944833Y-6254103D01*
X9944116Y-6254154D01*
X9940454Y-6255555D01*
X9921407Y-6265079D01*
X9919727Y-6266136D01*
X9919240Y-6266338D01*
X9918690Y-6266789D01*
X9918089Y-6267168D01*
X9917742Y-6267567D01*
X9916209Y-6268825D01*
X9906685Y-6278349D01*
X9905426Y-6279883D01*
X9905027Y-6280229D01*
X9904648Y-6280831D01*
X9904198Y-6281380D01*
X9903996Y-6281868D01*
X9902939Y-6283547D01*
X9893415Y-6302595D01*
X9892014Y-6306256D01*
X9891963Y-6306973D01*
X9891688Y-6307637D01*
X9891303Y-6311539D01*
X9891303Y-6330587D01*
X9891688Y-6334488D01*
X9891963Y-6335152D01*
X9892014Y-6335869D01*
X9893415Y-6339531D01*
X9902939Y-6358578D01*
X9903996Y-6360258D01*
X9904198Y-6360746D01*
X9904648Y-6361295D01*
X9905027Y-6361896D01*
X9905426Y-6362243D01*
X9906685Y-6363776D01*
X9906843Y-6363934D01*
X9906685Y-6364064D01*
X9897161Y-6373587D01*
X9895903Y-6375121D01*
X9895503Y-6375467D01*
X9895125Y-6376069D01*
X9894674Y-6376618D01*
X9894472Y-6377106D01*
X9893415Y-6378785D01*
X9883891Y-6397833D01*
X9882490Y-6401495D01*
X9882439Y-6402211D01*
X9882164Y-6402875D01*
X9881780Y-6406777D01*
X9796730Y-6406777D01*
X9738308Y-6348354D01*
X9731303Y-6327341D01*
X9731303Y-6316260D01*
X9737264Y-6304338D01*
X9742198Y-6299405D01*
X9754120Y-6293444D01*
X9792296Y-6293444D01*
X9804218Y-6299405D01*
X9811447Y-6306633D01*
X9814478Y-6309121D01*
X9821687Y-6312107D01*
X9829491Y-6312107D01*
X9836700Y-6309121D01*
X9842218Y-6303603D01*
X9845205Y-6296393D01*
X9845205Y-6288590D01*
X9842218Y-6281380D01*
X9839731Y-6278349D01*
X9830207Y-6268825D01*
X9828674Y-6267567D01*
X9828328Y-6267168D01*
X9827726Y-6266789D01*
X9827177Y-6266338D01*
X9826689Y-6266136D01*
X9825010Y-6265079D01*
X9805962Y-6255555D01*
X9802300Y-6254154D01*
X9801583Y-6254103D01*
X9800919Y-6253828D01*
X9797018Y-6253444D01*
X9749399Y-6253444D01*
X9745497Y-6253828D01*
X9744833Y-6254103D01*
X9744116Y-6254154D01*
X9740454Y-6255555D01*
X9721407Y-6265079D01*
X9719727Y-6266136D01*
X9719240Y-6266338D01*
X9718690Y-6266789D01*
X9718089Y-6267168D01*
X9717742Y-6267567D01*
X9716209Y-6268825D01*
X9706685Y-6278349D01*
X9705426Y-6279883D01*
X9705027Y-6280229D01*
X9704648Y-6280831D01*
X9704198Y-6281380D01*
X9703996Y-6281868D01*
X9702939Y-6283547D01*
X9693415Y-6302595D01*
X9692014Y-6306256D01*
X9691963Y-6306973D01*
X9691688Y-6307637D01*
X9691303Y-6311539D01*
X9493208Y-6311539D01*
X9493208Y-6273444D01*
X9492824Y-6269542D01*
X9489837Y-6262332D01*
X9484319Y-6256814D01*
X9477110Y-6253828D01*
X9473208Y-6253444D01*
X9406541Y-6253444D01*
X9402640Y-6253828D01*
X9401976Y-6254103D01*
X9401259Y-6254154D01*
X9397597Y-6255555D01*
X9378549Y-6265079D01*
X9376870Y-6266136D01*
X9376382Y-6266338D01*
X9375833Y-6266789D01*
X9375231Y-6267168D01*
X9374885Y-6267567D01*
X9373352Y-6268825D01*
X9363828Y-6278349D01*
X9362569Y-6279883D01*
X9362170Y-6280229D01*
X9361791Y-6280831D01*
X9361341Y-6281380D01*
X9361138Y-6281868D01*
X9360081Y-6283547D01*
X9350558Y-6302595D01*
X9349156Y-6306256D01*
X9349105Y-6306973D01*
X9348830Y-6307637D01*
X9348446Y-6311539D01*
X9348446Y-6330587D01*
X9348830Y-6334488D01*
X9349105Y-6335152D01*
X9349156Y-6335869D01*
X9350558Y-6339531D01*
X9360081Y-6358578D01*
X9361138Y-6360258D01*
X9361341Y-6360746D01*
X9361791Y-6361295D01*
X9362170Y-6361896D01*
X9362569Y-6362243D01*
X9363828Y-6363776D01*
X9363986Y-6363934D01*
X9363828Y-6364064D01*
X9354304Y-6373587D01*
X9353045Y-6375121D01*
X9352646Y-6375467D01*
X9352267Y-6376069D01*
X9351817Y-6376618D01*
X9351615Y-6377106D01*
X9350558Y-6378785D01*
X9341034Y-6397833D01*
X9339633Y-6401495D01*
X9339582Y-6402211D01*
X9339307Y-6402875D01*
X9338922Y-6406777D01*
X9245589Y-6406777D01*
X9245589Y-6331252D01*
X9249542Y-6335205D01*
X9251076Y-6336464D01*
X9251422Y-6336863D01*
X9252023Y-6337241D01*
X9252573Y-6337692D01*
X9253061Y-6337894D01*
X9254740Y-6338951D01*
X9273788Y-6348475D01*
X9277449Y-6349876D01*
X9285233Y-6350430D01*
X9292637Y-6347962D01*
X9298532Y-6342849D01*
X9302022Y-6335869D01*
X9302575Y-6328085D01*
X9300107Y-6320682D01*
X9294994Y-6314787D01*
X9291676Y-6312698D01*
X9275531Y-6304626D01*
X9260179Y-6289273D01*
X9242230Y-6262350D01*
X9242221Y-6262339D01*
X9242218Y-6262332D01*
X9242204Y-6262318D01*
X9239746Y-6259316D01*
X9238101Y-6258215D01*
X9236700Y-6256814D01*
X9234890Y-6256064D01*
X9233262Y-6254974D01*
X9231320Y-6254586D01*
X9229491Y-6253828D01*
X9227531Y-6253828D01*
X9225610Y-6253444D01*
X9223667Y-6253828D01*
X9221687Y-6253828D01*
X9219877Y-6254578D01*
X9217955Y-6254958D01*
X9216307Y-6256056D01*
X9214478Y-6256814D01*
X9213092Y-6258200D01*
X9211462Y-6259287D01*
X9210360Y-6260932D01*
X9208960Y-6262332D01*
X9208210Y-6264143D01*
X9207119Y-6265771D01*
X9206731Y-6267713D01*
X9205973Y-6269542D01*
X9205593Y-6273403D01*
X9205589Y-6273423D01*
X9205590Y-6273430D01*
X9205589Y-6273444D01*
X9205589Y-6453444D01*
X9168446Y-6453444D01*
X9164544Y-6453828D01*
X9157335Y-6456814D01*
X9151817Y-6462332D01*
X9148830Y-6469542D01*
X9126608Y-6469542D01*
X9126608Y-6231222D01*
X10058287Y-6231222D01*
X10058287Y-6515666D01*
G37*
D11*
X9935833Y-10747982D02*
X9935833Y-10819410D01*
X9935833Y-10819410D02*
X9940595Y-10833696D01*
X9940595Y-10833696D02*
X9950119Y-10843220D01*
X9950119Y-10843220D02*
X9964405Y-10847982D01*
X9964405Y-10847982D02*
X9973929Y-10847982D01*
X9897738Y-10747982D02*
X9835833Y-10747982D01*
X9835833Y-10747982D02*
X9869167Y-10786077D01*
X9869167Y-10786077D02*
X9854881Y-10786077D01*
X9854881Y-10786077D02*
X9845357Y-10790839D01*
X9845357Y-10790839D02*
X9840595Y-10795601D01*
X9840595Y-10795601D02*
X9835833Y-10805125D01*
X9835833Y-10805125D02*
X9835833Y-10828934D01*
X9835833Y-10828934D02*
X9840595Y-10838458D01*
X9840595Y-10838458D02*
X9845357Y-10843220D01*
X9845357Y-10843220D02*
X9854881Y-10847982D01*
X9854881Y-10847982D02*
X9883452Y-10847982D01*
X9883452Y-10847982D02*
X9892976Y-10843220D01*
X9892976Y-10843220D02*
X9897738Y-10838458D01*
D17*
X10972119Y-6079932D02*
X11032595Y-6079932D01*
X11032595Y-6079932D02*
X11032595Y-5952932D01*
X10929786Y-6013408D02*
X10887452Y-6013408D01*
X10869310Y-6079932D02*
X10929786Y-6079932D01*
X10929786Y-6079932D02*
X10929786Y-5952932D01*
X10929786Y-5952932D02*
X10869310Y-5952932D01*
X10814881Y-6079932D02*
X10814881Y-5952932D01*
X10814881Y-5952932D02*
X10784643Y-5952932D01*
X10784643Y-5952932D02*
X10766500Y-5958979D01*
X10766500Y-5958979D02*
X10754405Y-5971075D01*
X10754405Y-5971075D02*
X10748357Y-5983170D01*
X10748357Y-5983170D02*
X10742309Y-6007360D01*
X10742309Y-6007360D02*
X10742309Y-6025503D01*
X10742309Y-6025503D02*
X10748357Y-6049694D01*
X10748357Y-6049694D02*
X10754405Y-6061789D01*
X10754405Y-6061789D02*
X10766500Y-6073884D01*
X10766500Y-6073884D02*
X10784643Y-6079932D01*
X10784643Y-6079932D02*
X10814881Y-6079932D01*
X10693929Y-5965027D02*
X10687881Y-5958979D01*
X10687881Y-5958979D02*
X10675786Y-5952932D01*
X10675786Y-5952932D02*
X10645548Y-5952932D01*
X10645548Y-5952932D02*
X10633452Y-5958979D01*
X10633452Y-5958979D02*
X10627405Y-5965027D01*
X10627405Y-5965027D02*
X10621357Y-5977122D01*
X10621357Y-5977122D02*
X10621357Y-5989217D01*
X10621357Y-5989217D02*
X10627405Y-6007360D01*
X10627405Y-6007360D02*
X10699976Y-6079932D01*
X10699976Y-6079932D02*
X10621357Y-6079932D01*
D13*
X11072500Y-7881260D02*
X11055357Y-7886974D01*
X11055357Y-7886974D02*
X11026786Y-7886974D01*
X11026786Y-7886974D02*
X11015357Y-7881260D01*
X11015357Y-7881260D02*
X11009643Y-7875546D01*
X11009643Y-7875546D02*
X11003929Y-7864117D01*
X11003929Y-7864117D02*
X11003929Y-7852688D01*
X11003929Y-7852688D02*
X11009643Y-7841260D01*
X11009643Y-7841260D02*
X11015357Y-7835546D01*
X11015357Y-7835546D02*
X11026786Y-7829831D01*
X11026786Y-7829831D02*
X11049643Y-7824117D01*
X11049643Y-7824117D02*
X11061071Y-7818403D01*
X11061071Y-7818403D02*
X11066786Y-7812688D01*
X11066786Y-7812688D02*
X11072500Y-7801260D01*
X11072500Y-7801260D02*
X11072500Y-7789831D01*
X11072500Y-7789831D02*
X11066786Y-7778403D01*
X11066786Y-7778403D02*
X11061071Y-7772688D01*
X11061071Y-7772688D02*
X11049643Y-7766974D01*
X11049643Y-7766974D02*
X11021071Y-7766974D01*
X11021071Y-7766974D02*
X11003929Y-7772688D01*
X10963929Y-7766974D02*
X10935357Y-7886974D01*
X10935357Y-7886974D02*
X10912500Y-7801260D01*
X10912500Y-7801260D02*
X10889643Y-7886974D01*
X10889643Y-7886974D02*
X10861071Y-7766974D01*
X10826786Y-7766974D02*
X10752500Y-7766974D01*
X10752500Y-7766974D02*
X10792500Y-7812688D01*
X10792500Y-7812688D02*
X10775357Y-7812688D01*
X10775357Y-7812688D02*
X10763929Y-7818403D01*
X10763929Y-7818403D02*
X10758214Y-7824117D01*
X10758214Y-7824117D02*
X10752500Y-7835546D01*
X10752500Y-7835546D02*
X10752500Y-7864117D01*
X10752500Y-7864117D02*
X10758214Y-7875546D01*
X10758214Y-7875546D02*
X10763929Y-7881260D01*
X10763929Y-7881260D02*
X10775357Y-7886974D01*
X10775357Y-7886974D02*
X10809643Y-7886974D01*
X10809643Y-7886974D02*
X10821071Y-7881260D01*
X10821071Y-7881260D02*
X10826786Y-7875546D01*
X9558214Y-11264117D02*
X9541071Y-11269831D01*
X9541071Y-11269831D02*
X9535357Y-11275546D01*
X9535357Y-11275546D02*
X9529643Y-11286974D01*
X9529643Y-11286974D02*
X9529643Y-11304117D01*
X9529643Y-11304117D02*
X9535357Y-11315546D01*
X9535357Y-11315546D02*
X9541071Y-11321260D01*
X9541071Y-11321260D02*
X9552500Y-11326974D01*
X9552500Y-11326974D02*
X9598214Y-11326974D01*
X9598214Y-11326974D02*
X9598214Y-11206974D01*
X9598214Y-11206974D02*
X9558214Y-11206974D01*
X9558214Y-11206974D02*
X9546786Y-11212688D01*
X9546786Y-11212688D02*
X9541071Y-11218403D01*
X9541071Y-11218403D02*
X9535357Y-11229831D01*
X9535357Y-11229831D02*
X9535357Y-11241260D01*
X9535357Y-11241260D02*
X9541071Y-11252688D01*
X9541071Y-11252688D02*
X9546786Y-11258403D01*
X9546786Y-11258403D02*
X9558214Y-11264117D01*
X9558214Y-11264117D02*
X9598214Y-11264117D01*
X9489643Y-11206974D02*
X9409643Y-11206974D01*
X9409643Y-11206974D02*
X9489643Y-11326974D01*
X9489643Y-11326974D02*
X9409643Y-11326974D01*
X9301071Y-11326974D02*
X9369643Y-11326974D01*
X9335357Y-11326974D02*
X9335357Y-11206974D01*
X9335357Y-11206974D02*
X9346786Y-11224117D01*
X9346786Y-11224117D02*
X9358214Y-11235546D01*
X9358214Y-11235546D02*
X9369643Y-11241260D01*
D17*
X11010786Y-8432932D02*
X11010786Y-8523646D01*
X11010786Y-8523646D02*
X11016833Y-8541789D01*
X11016833Y-8541789D02*
X11028929Y-8553884D01*
X11028929Y-8553884D02*
X11047071Y-8559932D01*
X11047071Y-8559932D02*
X11059167Y-8559932D01*
X10926119Y-8432932D02*
X10901929Y-8432932D01*
X10901929Y-8432932D02*
X10889833Y-8438979D01*
X10889833Y-8438979D02*
X10877738Y-8451075D01*
X10877738Y-8451075D02*
X10871690Y-8475265D01*
X10871690Y-8475265D02*
X10871690Y-8517598D01*
X10871690Y-8517598D02*
X10877738Y-8541789D01*
X10877738Y-8541789D02*
X10889833Y-8553884D01*
X10889833Y-8553884D02*
X10901929Y-8559932D01*
X10901929Y-8559932D02*
X10926119Y-8559932D01*
X10926119Y-8559932D02*
X10938214Y-8553884D01*
X10938214Y-8553884D02*
X10950310Y-8541789D01*
X10950310Y-8541789D02*
X10956357Y-8517598D01*
X10956357Y-8517598D02*
X10956357Y-8475265D01*
X10956357Y-8475265D02*
X10950310Y-8451075D01*
X10950310Y-8451075D02*
X10938214Y-8438979D01*
X10938214Y-8438979D02*
X10926119Y-8432932D01*
X10793071Y-8499456D02*
X10793071Y-8559932D01*
X10835405Y-8432932D02*
X10793071Y-8499456D01*
X10793071Y-8499456D02*
X10750738Y-8432932D01*
X10641881Y-8559932D02*
X10714452Y-8559932D01*
X10678167Y-8559932D02*
X10678167Y-8432932D01*
X10678167Y-8432932D02*
X10690262Y-8451075D01*
X10690262Y-8451075D02*
X10702357Y-8463170D01*
X10702357Y-8463170D02*
X10714452Y-8469218D01*
D13*
X10320000Y-5993353D02*
X10320000Y-6100496D01*
X10320000Y-6100496D02*
X10327143Y-6121924D01*
X10327143Y-6121924D02*
X10341429Y-6136210D01*
X10341429Y-6136210D02*
X10362857Y-6143353D01*
X10362857Y-6143353D02*
X10377143Y-6143353D01*
X10177143Y-5993353D02*
X10248571Y-5993353D01*
X10248571Y-5993353D02*
X10255714Y-6064781D01*
X10255714Y-6064781D02*
X10248571Y-6057638D01*
X10248571Y-6057638D02*
X10234286Y-6050496D01*
X10234286Y-6050496D02*
X10198571Y-6050496D01*
X10198571Y-6050496D02*
X10184286Y-6057638D01*
X10184286Y-6057638D02*
X10177143Y-6064781D01*
X10177143Y-6064781D02*
X10170000Y-6079067D01*
X10170000Y-6079067D02*
X10170000Y-6114781D01*
X10170000Y-6114781D02*
X10177143Y-6129067D01*
X10177143Y-6129067D02*
X10184286Y-6136210D01*
X10184286Y-6136210D02*
X10198571Y-6143353D01*
X10198571Y-6143353D02*
X10234286Y-6143353D01*
X10234286Y-6143353D02*
X10248571Y-6136210D01*
X10248571Y-6136210D02*
X10255714Y-6129067D01*
D11*
X10033333Y-12505482D02*
X10033333Y-12576910D01*
X10033333Y-12576910D02*
X10038095Y-12591196D01*
X10038095Y-12591196D02*
X10047619Y-12600720D01*
X10047619Y-12600720D02*
X10061905Y-12605482D01*
X10061905Y-12605482D02*
X10071429Y-12605482D01*
X9942857Y-12505482D02*
X9961905Y-12505482D01*
X9961905Y-12505482D02*
X9971429Y-12510244D01*
X9971429Y-12510244D02*
X9976190Y-12515006D01*
X9976190Y-12515006D02*
X9985714Y-12529291D01*
X9985714Y-12529291D02*
X9990476Y-12548339D01*
X9990476Y-12548339D02*
X9990476Y-12586434D01*
X9990476Y-12586434D02*
X9985714Y-12595958D01*
X9985714Y-12595958D02*
X9980952Y-12600720D01*
X9980952Y-12600720D02*
X9971429Y-12605482D01*
X9971429Y-12605482D02*
X9952381Y-12605482D01*
X9952381Y-12605482D02*
X9942857Y-12600720D01*
X9942857Y-12600720D02*
X9938095Y-12595958D01*
X9938095Y-12595958D02*
X9933333Y-12586434D01*
X9933333Y-12586434D02*
X9933333Y-12562625D01*
X9933333Y-12562625D02*
X9938095Y-12553101D01*
X9938095Y-12553101D02*
X9942857Y-12548339D01*
X9942857Y-12548339D02*
X9952381Y-12543577D01*
X9952381Y-12543577D02*
X9971429Y-12543577D01*
X9971429Y-12543577D02*
X9980952Y-12548339D01*
X9980952Y-12548339D02*
X9985714Y-12553101D01*
X9985714Y-12553101D02*
X9990476Y-12562625D01*
X10230833Y-11127982D02*
X10230833Y-11199410D01*
X10230833Y-11199410D02*
X10235595Y-11213696D01*
X10235595Y-11213696D02*
X10245119Y-11223220D01*
X10245119Y-11223220D02*
X10259405Y-11227982D01*
X10259405Y-11227982D02*
X10268929Y-11227982D01*
X10140357Y-11161315D02*
X10140357Y-11227982D01*
X10164167Y-11123220D02*
X10187976Y-11194648D01*
X10187976Y-11194648D02*
X10126071Y-11194648D01*
X10945833Y-12375482D02*
X10945833Y-12446910D01*
X10945833Y-12446910D02*
X10950595Y-12461196D01*
X10950595Y-12461196D02*
X10960119Y-12470720D01*
X10960119Y-12470720D02*
X10974405Y-12475482D01*
X10974405Y-12475482D02*
X10983929Y-12475482D01*
X10902976Y-12385006D02*
X10898214Y-12380244D01*
X10898214Y-12380244D02*
X10888690Y-12375482D01*
X10888690Y-12375482D02*
X10864881Y-12375482D01*
X10864881Y-12375482D02*
X10855357Y-12380244D01*
X10855357Y-12380244D02*
X10850595Y-12385006D01*
X10850595Y-12385006D02*
X10845833Y-12394529D01*
X10845833Y-12394529D02*
X10845833Y-12404053D01*
X10845833Y-12404053D02*
X10850595Y-12418339D01*
X10850595Y-12418339D02*
X10907738Y-12475482D01*
X10907738Y-12475482D02*
X10845833Y-12475482D01*
D17*
X7347286Y-6660908D02*
X7329143Y-6666956D01*
X7329143Y-6666956D02*
X7323095Y-6673003D01*
X7323095Y-6673003D02*
X7317047Y-6685098D01*
X7317047Y-6685098D02*
X7317047Y-6703241D01*
X7317047Y-6703241D02*
X7323095Y-6715336D01*
X7323095Y-6715336D02*
X7329143Y-6721384D01*
X7329143Y-6721384D02*
X7341238Y-6727432D01*
X7341238Y-6727432D02*
X7389619Y-6727432D01*
X7389619Y-6727432D02*
X7389619Y-6600432D01*
X7389619Y-6600432D02*
X7347286Y-6600432D01*
X7347286Y-6600432D02*
X7335190Y-6606479D01*
X7335190Y-6606479D02*
X7329143Y-6612527D01*
X7329143Y-6612527D02*
X7323095Y-6624622D01*
X7323095Y-6624622D02*
X7323095Y-6636717D01*
X7323095Y-6636717D02*
X7329143Y-6648813D01*
X7329143Y-6648813D02*
X7335190Y-6654860D01*
X7335190Y-6654860D02*
X7347286Y-6660908D01*
X7347286Y-6660908D02*
X7389619Y-6660908D01*
X7280762Y-6600432D02*
X7208190Y-6600432D01*
X7244476Y-6727432D02*
X7244476Y-6600432D01*
X7099333Y-6727432D02*
X7171905Y-6727432D01*
X7135619Y-6727432D02*
X7135619Y-6600432D01*
X7135619Y-6600432D02*
X7147714Y-6618575D01*
X7147714Y-6618575D02*
X7159809Y-6630670D01*
X7159809Y-6630670D02*
X7171905Y-6636717D01*
X7272286Y-10648408D02*
X7254143Y-10654456D01*
X7254143Y-10654456D02*
X7248095Y-10660503D01*
X7248095Y-10660503D02*
X7242047Y-10672598D01*
X7242047Y-10672598D02*
X7242047Y-10690741D01*
X7242047Y-10690741D02*
X7248095Y-10702837D01*
X7248095Y-10702837D02*
X7254143Y-10708884D01*
X7254143Y-10708884D02*
X7266238Y-10714932D01*
X7266238Y-10714932D02*
X7314619Y-10714932D01*
X7314619Y-10714932D02*
X7314619Y-10587932D01*
X7314619Y-10587932D02*
X7272286Y-10587932D01*
X7272286Y-10587932D02*
X7260190Y-10593979D01*
X7260190Y-10593979D02*
X7254143Y-10600027D01*
X7254143Y-10600027D02*
X7248095Y-10612122D01*
X7248095Y-10612122D02*
X7248095Y-10624218D01*
X7248095Y-10624218D02*
X7254143Y-10636313D01*
X7254143Y-10636313D02*
X7260190Y-10642360D01*
X7260190Y-10642360D02*
X7272286Y-10648408D01*
X7272286Y-10648408D02*
X7314619Y-10648408D01*
X7205762Y-10587932D02*
X7133190Y-10587932D01*
X7169476Y-10714932D02*
X7169476Y-10587932D01*
X7096905Y-10600027D02*
X7090857Y-10593979D01*
X7090857Y-10593979D02*
X7078762Y-10587932D01*
X7078762Y-10587932D02*
X7048524Y-10587932D01*
X7048524Y-10587932D02*
X7036428Y-10593979D01*
X7036428Y-10593979D02*
X7030381Y-10600027D01*
X7030381Y-10600027D02*
X7024333Y-10612122D01*
X7024333Y-10612122D02*
X7024333Y-10624218D01*
X7024333Y-10624218D02*
X7030381Y-10642360D01*
X7030381Y-10642360D02*
X7102952Y-10714932D01*
X7102952Y-10714932D02*
X7024333Y-10714932D01*
D18*
%TO.C,G\u002A\u002A\u002A*%
G36*
X7614687Y-9295498D02*
G01*
X7628441Y-9295632D01*
X7638634Y-9295965D01*
X7646130Y-9296579D01*
X7651793Y-9297554D01*
X7656485Y-9298970D01*
X7661070Y-9300910D01*
X7670650Y-9306522D01*
X7682981Y-9316772D01*
X7693794Y-9328906D01*
X7701444Y-9341283D01*
X7702051Y-9342615D01*
X7703323Y-9345723D01*
X7704349Y-9349115D01*
X7705157Y-9353313D01*
X7705770Y-9358844D01*
X7706218Y-9366231D01*
X7706524Y-9375999D01*
X7706717Y-9388674D01*
X7706822Y-9404779D01*
X7706866Y-9424840D01*
X7706874Y-9449381D01*
X7706873Y-9460144D01*
X7706853Y-9482761D01*
X7706787Y-9501117D01*
X7706649Y-9515734D01*
X7706412Y-9527139D01*
X7706051Y-9535855D01*
X7705537Y-9542408D01*
X7704847Y-9547322D01*
X7703952Y-9551122D01*
X7702826Y-9554332D01*
X7701444Y-9557478D01*
X7695831Y-9567058D01*
X7685582Y-9579389D01*
X7673447Y-9590201D01*
X7661070Y-9597852D01*
X7658217Y-9599110D01*
X7653634Y-9600728D01*
X7648410Y-9601868D01*
X7641673Y-9602610D01*
X7632549Y-9603039D01*
X7620166Y-9603235D01*
X7603652Y-9603282D01*
X7600158Y-9603282D01*
X7557985Y-9603282D01*
X7557982Y-9645995D01*
X7557933Y-9656856D01*
X7557586Y-9672955D01*
X7556853Y-9685318D01*
X7555679Y-9694759D01*
X7554005Y-9702087D01*
X7551705Y-9708613D01*
X7545547Y-9719536D01*
X7538013Y-9726594D01*
X7529658Y-9729521D01*
X7529177Y-9729439D01*
X7521039Y-9728050D01*
X7512713Y-9721913D01*
X7510972Y-9719975D01*
X7507154Y-9714875D01*
X7504147Y-9709048D01*
X7501857Y-9701882D01*
X7500192Y-9692766D01*
X7499058Y-9681091D01*
X7498363Y-9666246D01*
X7498014Y-9647620D01*
X7497929Y-9627055D01*
X7507929Y-9627055D01*
X7508185Y-9656459D01*
X7508232Y-9660839D01*
X7508611Y-9675404D01*
X7509424Y-9686362D01*
X7510843Y-9694824D01*
X7513037Y-9701902D01*
X7516176Y-9708708D01*
X7517749Y-9711468D01*
X7523324Y-9717574D01*
X7529177Y-9718720D01*
X7535143Y-9714923D01*
X7541060Y-9706200D01*
X7541449Y-9705441D01*
X7543618Y-9700355D01*
X7545155Y-9694465D01*
X7546213Y-9686720D01*
X7546942Y-9676069D01*
X7547494Y-9661464D01*
X7548536Y-9627055D01*
X7528232Y-9627055D01*
X7527948Y-9627055D01*
X7507929Y-9627055D01*
X7497929Y-9627055D01*
X7497919Y-9624602D01*
X7497919Y-9617046D01*
X7507929Y-9617046D01*
X7508002Y-9618365D01*
X7509007Y-9620355D01*
X7511996Y-9621465D01*
X7517974Y-9621946D01*
X7527948Y-9622051D01*
X7533227Y-9622032D01*
X7541186Y-9621781D01*
X7545625Y-9621034D01*
X7547550Y-9619539D01*
X7547968Y-9617046D01*
X7547894Y-9615726D01*
X7546889Y-9613736D01*
X7543901Y-9612626D01*
X7537923Y-9612145D01*
X7527948Y-9612041D01*
X7522670Y-9612059D01*
X7514711Y-9612310D01*
X7510272Y-9613057D01*
X7508347Y-9614552D01*
X7507929Y-9617046D01*
X7497919Y-9617046D01*
X7497919Y-9602031D01*
X7507929Y-9602031D01*
X7508002Y-9603350D01*
X7509007Y-9605340D01*
X7511996Y-9606450D01*
X7517974Y-9606931D01*
X7527948Y-9607036D01*
X7533227Y-9607017D01*
X7541186Y-9606766D01*
X7545625Y-9606019D01*
X7547550Y-9604524D01*
X7547968Y-9602031D01*
X7547894Y-9600711D01*
X7546889Y-9598721D01*
X7543901Y-9597612D01*
X7537923Y-9597130D01*
X7527948Y-9597026D01*
X7522670Y-9597044D01*
X7514711Y-9597296D01*
X7510272Y-9598043D01*
X7508347Y-9599537D01*
X7507929Y-9602031D01*
X7497919Y-9602031D01*
X7497919Y-9587016D01*
X7507929Y-9587016D01*
X7508002Y-9588336D01*
X7509007Y-9590326D01*
X7511996Y-9591435D01*
X7517974Y-9591916D01*
X7527948Y-9592021D01*
X7533227Y-9592003D01*
X7541186Y-9591751D01*
X7545625Y-9591004D01*
X7547550Y-9589510D01*
X7547968Y-9587016D01*
X7547894Y-9585696D01*
X7546889Y-9583707D01*
X7543901Y-9582597D01*
X7537923Y-9582116D01*
X7527948Y-9582011D01*
X7522670Y-9582030D01*
X7514711Y-9582281D01*
X7510272Y-9583028D01*
X7508347Y-9584522D01*
X7507929Y-9587016D01*
X7497919Y-9587016D01*
X7497919Y-9572001D01*
X7507929Y-9572001D01*
X7508002Y-9573321D01*
X7509007Y-9575311D01*
X7511996Y-9576420D01*
X7517974Y-9576902D01*
X7527948Y-9577006D01*
X7533227Y-9576988D01*
X7541186Y-9576737D01*
X7545625Y-9575989D01*
X7547550Y-9574495D01*
X7547968Y-9572001D01*
X7547894Y-9570682D01*
X7546889Y-9568692D01*
X7543901Y-9567582D01*
X7537923Y-9567101D01*
X7527948Y-9566996D01*
X7522670Y-9567015D01*
X7514711Y-9567266D01*
X7510272Y-9568013D01*
X7508347Y-9569508D01*
X7507929Y-9572001D01*
X7497919Y-9572001D01*
X7497919Y-9560494D01*
X7497666Y-9560403D01*
X7515308Y-9560403D01*
X7515451Y-9560770D01*
X7519828Y-9561023D01*
X7527948Y-9561117D01*
X7533013Y-9561085D01*
X7539057Y-9560895D01*
X7541078Y-9560572D01*
X7538584Y-9560159D01*
X7537531Y-9560073D01*
X7527948Y-9559785D01*
X7527279Y-9559765D01*
X7517313Y-9560159D01*
X7515308Y-9560403D01*
X7497666Y-9560403D01*
X7489154Y-9557325D01*
X7488500Y-9557074D01*
X7481591Y-9552870D01*
X7476742Y-9547438D01*
X7476173Y-9546277D01*
X7473834Y-9537372D01*
X7473164Y-9526957D01*
X7482904Y-9526957D01*
X7483100Y-9533661D01*
X7484249Y-9539898D01*
X7487030Y-9544246D01*
X7492116Y-9547040D01*
X7500182Y-9548620D01*
X7511902Y-9549320D01*
X7527948Y-9549479D01*
X7541357Y-9549381D01*
X7553831Y-9548807D01*
X7562525Y-9547416D01*
X7568115Y-9544873D01*
X7571274Y-9540840D01*
X7572675Y-9534980D01*
X7572993Y-9526957D01*
X7572890Y-9522949D01*
X7571458Y-9514875D01*
X7567988Y-9509440D01*
X7566539Y-9508050D01*
X7561668Y-9504829D01*
X7558871Y-9506112D01*
X7557978Y-9511942D01*
X7557978Y-9519450D01*
X7527948Y-9519450D01*
X7497919Y-9519450D01*
X7497919Y-9511942D01*
X7497872Y-9510179D01*
X7497227Y-9507851D01*
X7515308Y-9507851D01*
X7515451Y-9508219D01*
X7519828Y-9508471D01*
X7527948Y-9508565D01*
X7533013Y-9508534D01*
X7539057Y-9508344D01*
X7541078Y-9508020D01*
X7538584Y-9507607D01*
X7537531Y-9507521D01*
X7527948Y-9507234D01*
X7527279Y-9507214D01*
X7517313Y-9507607D01*
X7515308Y-9507851D01*
X7497227Y-9507851D01*
X7496551Y-9505409D01*
X7493288Y-9505178D01*
X7487909Y-9509440D01*
X7486347Y-9511259D01*
X7483690Y-9517495D01*
X7482904Y-9526957D01*
X7473164Y-9526957D01*
X7473125Y-9526360D01*
X7474053Y-9515483D01*
X7476624Y-9506984D01*
X7481309Y-9501277D01*
X7488529Y-9496927D01*
X7507929Y-9496927D01*
X7508002Y-9498247D01*
X7509007Y-9500237D01*
X7511996Y-9501347D01*
X7517974Y-9501828D01*
X7527948Y-9501932D01*
X7533227Y-9501914D01*
X7541186Y-9501663D01*
X7545625Y-9500916D01*
X7547550Y-9499421D01*
X7547968Y-9496927D01*
X7547894Y-9495608D01*
X7546889Y-9493618D01*
X7543901Y-9492508D01*
X7537923Y-9492027D01*
X7527948Y-9491922D01*
X7522670Y-9491941D01*
X7514711Y-9492192D01*
X7510272Y-9492939D01*
X7508347Y-9494434D01*
X7507929Y-9496927D01*
X7488529Y-9496927D01*
X7488996Y-9496646D01*
X7497639Y-9493521D01*
X7497765Y-9481913D01*
X7507929Y-9481913D01*
X7508002Y-9483232D01*
X7509007Y-9485222D01*
X7511996Y-9486332D01*
X7517974Y-9486813D01*
X7527948Y-9486918D01*
X7533227Y-9486899D01*
X7541186Y-9486648D01*
X7545625Y-9485901D01*
X7547550Y-9484406D01*
X7547968Y-9481913D01*
X7547894Y-9480593D01*
X7546889Y-9478603D01*
X7543901Y-9477493D01*
X7537923Y-9477012D01*
X7527948Y-9476908D01*
X7522670Y-9476926D01*
X7514711Y-9477177D01*
X7510272Y-9477924D01*
X7508347Y-9479419D01*
X7507929Y-9481913D01*
X7497765Y-9481913D01*
X7497929Y-9466898D01*
X7507929Y-9466898D01*
X7508002Y-9468217D01*
X7509007Y-9470207D01*
X7511996Y-9471317D01*
X7517974Y-9471798D01*
X7527948Y-9471903D01*
X7533227Y-9471884D01*
X7541186Y-9471633D01*
X7545625Y-9470886D01*
X7547550Y-9469391D01*
X7547968Y-9466898D01*
X7547894Y-9465578D01*
X7546889Y-9463588D01*
X7543901Y-9462479D01*
X7537923Y-9461997D01*
X7527948Y-9461893D01*
X7522670Y-9461911D01*
X7514711Y-9462163D01*
X7510272Y-9462910D01*
X7508347Y-9464404D01*
X7507929Y-9466898D01*
X7497929Y-9466898D01*
X7498092Y-9451883D01*
X7507929Y-9451883D01*
X7508002Y-9453203D01*
X7509007Y-9455192D01*
X7511996Y-9456302D01*
X7517974Y-9456783D01*
X7527948Y-9456888D01*
X7533227Y-9456870D01*
X7541186Y-9456618D01*
X7545625Y-9455871D01*
X7547550Y-9454377D01*
X7547968Y-9451883D01*
X7547894Y-9450563D01*
X7546889Y-9448574D01*
X7543901Y-9447464D01*
X7537923Y-9446983D01*
X7527948Y-9446878D01*
X7522670Y-9446897D01*
X7514711Y-9447148D01*
X7510272Y-9447895D01*
X7508347Y-9449389D01*
X7507929Y-9451883D01*
X7498092Y-9451883D01*
X7498256Y-9436868D01*
X7507929Y-9436868D01*
X7508002Y-9438188D01*
X7509007Y-9440178D01*
X7511996Y-9441287D01*
X7517974Y-9441769D01*
X7527948Y-9441873D01*
X7533227Y-9441855D01*
X7541186Y-9441604D01*
X7545625Y-9440856D01*
X7547550Y-9439362D01*
X7547968Y-9436868D01*
X7547894Y-9435549D01*
X7546889Y-9433559D01*
X7543901Y-9432449D01*
X7537923Y-9431968D01*
X7527948Y-9431863D01*
X7522670Y-9431882D01*
X7514711Y-9432133D01*
X7510272Y-9432880D01*
X7508347Y-9434375D01*
X7507929Y-9436868D01*
X7498256Y-9436868D01*
X7498326Y-9430424D01*
X7557978Y-9430424D01*
X7557978Y-9493419D01*
X7566760Y-9496595D01*
X7573659Y-9500506D01*
X7579273Y-9506984D01*
X7581365Y-9512424D01*
X7582922Y-9522505D01*
X7582535Y-9533217D01*
X7580417Y-9543182D01*
X7576779Y-9551020D01*
X7571834Y-9555353D01*
X7570335Y-9556040D01*
X7568270Y-9558709D01*
X7569944Y-9562852D01*
X7575541Y-9569160D01*
X7584036Y-9575400D01*
X7595405Y-9578899D01*
X7607373Y-9578461D01*
X7619095Y-9574400D01*
X7629727Y-9567028D01*
X7638423Y-9556660D01*
X7644337Y-9543611D01*
X7645239Y-9539200D01*
X7646323Y-9529306D01*
X7647185Y-9515828D01*
X7647826Y-9499547D01*
X7648250Y-9481242D01*
X7648456Y-9461695D01*
X7648447Y-9441686D01*
X7648223Y-9421995D01*
X7647788Y-9403402D01*
X7647142Y-9386689D01*
X7646287Y-9372635D01*
X7645225Y-9362021D01*
X7643956Y-9355627D01*
X7640411Y-9347735D01*
X7632156Y-9336283D01*
X7621754Y-9327070D01*
X7610542Y-9321463D01*
X7608817Y-9320960D01*
X7602335Y-9319714D01*
X7596708Y-9320529D01*
X7589370Y-9323672D01*
X7580115Y-9329562D01*
X7569431Y-9341287D01*
X7561781Y-9356650D01*
X7561181Y-9358548D01*
X7560068Y-9363752D01*
X7559230Y-9370833D01*
X7558634Y-9380414D01*
X7558248Y-9393123D01*
X7558040Y-9409585D01*
X7557978Y-9430424D01*
X7498326Y-9430424D01*
X7498404Y-9423278D01*
X7498421Y-9421853D01*
X7507929Y-9421853D01*
X7508002Y-9423173D01*
X7509007Y-9425163D01*
X7511996Y-9426273D01*
X7517974Y-9426754D01*
X7527948Y-9426858D01*
X7533227Y-9426840D01*
X7541186Y-9426589D01*
X7545625Y-9425842D01*
X7547550Y-9424347D01*
X7547968Y-9421853D01*
X7547894Y-9420534D01*
X7546889Y-9418544D01*
X7543901Y-9417434D01*
X7537923Y-9416953D01*
X7527948Y-9416849D01*
X7522670Y-9416867D01*
X7514711Y-9417118D01*
X7510272Y-9417865D01*
X7508347Y-9419360D01*
X7507929Y-9421853D01*
X7498421Y-9421853D01*
X7498575Y-9408834D01*
X7498611Y-9406839D01*
X7507929Y-9406839D01*
X7508002Y-9408158D01*
X7509007Y-9410148D01*
X7511996Y-9411258D01*
X7517974Y-9411739D01*
X7527948Y-9411844D01*
X7533227Y-9411825D01*
X7541186Y-9411574D01*
X7545625Y-9410827D01*
X7547550Y-9409332D01*
X7547968Y-9406839D01*
X7547894Y-9405519D01*
X7546889Y-9403529D01*
X7543901Y-9402420D01*
X7537923Y-9401938D01*
X7527948Y-9401834D01*
X7522670Y-9401852D01*
X7514711Y-9402103D01*
X7510272Y-9402851D01*
X7508347Y-9404345D01*
X7507929Y-9406839D01*
X7498611Y-9406839D01*
X7498880Y-9391824D01*
X7507929Y-9391824D01*
X7508002Y-9393144D01*
X7509007Y-9395133D01*
X7511996Y-9396243D01*
X7517974Y-9396724D01*
X7527948Y-9396829D01*
X7533227Y-9396810D01*
X7541186Y-9396559D01*
X7545625Y-9395812D01*
X7547550Y-9394318D01*
X7547968Y-9391824D01*
X7547894Y-9390504D01*
X7546889Y-9388514D01*
X7543901Y-9387405D01*
X7537923Y-9386923D01*
X7527948Y-9386819D01*
X7522670Y-9386837D01*
X7514711Y-9387089D01*
X7510272Y-9387836D01*
X7508347Y-9389330D01*
X7507929Y-9391824D01*
X7498880Y-9391824D01*
X7498932Y-9388880D01*
X7499368Y-9376809D01*
X7507929Y-9376809D01*
X7508002Y-9378129D01*
X7509007Y-9380119D01*
X7511996Y-9381228D01*
X7517974Y-9381710D01*
X7527948Y-9381814D01*
X7533227Y-9381796D01*
X7541186Y-9381544D01*
X7545625Y-9380797D01*
X7547550Y-9379303D01*
X7547968Y-9376809D01*
X7547894Y-9375490D01*
X7546889Y-9373500D01*
X7543901Y-9372390D01*
X7537923Y-9371909D01*
X7527948Y-9371804D01*
X7522670Y-9371823D01*
X7514711Y-9372074D01*
X7510272Y-9372821D01*
X7508347Y-9374315D01*
X7507929Y-9376809D01*
X7499368Y-9376809D01*
X7499509Y-9372894D01*
X7499961Y-9366799D01*
X7508168Y-9366799D01*
X7527611Y-9366799D01*
X7547054Y-9366799D01*
X7551242Y-9353512D01*
X7553202Y-9348233D01*
X7561065Y-9334395D01*
X7571664Y-9322423D01*
X7583713Y-9313885D01*
X7590529Y-9311194D01*
X7603612Y-9309756D01*
X7616771Y-9312506D01*
X7629277Y-9319011D01*
X7640402Y-9328834D01*
X7649417Y-9341543D01*
X7655591Y-9356703D01*
X7655953Y-9358871D01*
X7656528Y-9366193D01*
X7657035Y-9377551D01*
X7657458Y-9392338D01*
X7657781Y-9409942D01*
X7657988Y-9429754D01*
X7658062Y-9451164D01*
X7658062Y-9460160D01*
X7658033Y-9481650D01*
X7657940Y-9498924D01*
X7657753Y-9512559D01*
X7657442Y-9523133D01*
X7656979Y-9531224D01*
X7656334Y-9537410D01*
X7655478Y-9542268D01*
X7654380Y-9546377D01*
X7653013Y-9550313D01*
X7651125Y-9554897D01*
X7642310Y-9569394D01*
X7630811Y-9580285D01*
X7617191Y-9587138D01*
X7602014Y-9589519D01*
X7600937Y-9589512D01*
X7595405Y-9588878D01*
X7588305Y-9588064D01*
X7577753Y-9583526D01*
X7567362Y-9575098D01*
X7557978Y-9565981D01*
X7557978Y-9578847D01*
X7557978Y-9591714D01*
X7569271Y-9593408D01*
X7569585Y-9593453D01*
X7576718Y-9594008D01*
X7587371Y-9594316D01*
X7600158Y-9594354D01*
X7613690Y-9594100D01*
X7624759Y-9593728D01*
X7635416Y-9593153D01*
X7643126Y-9592279D01*
X7649049Y-9590899D01*
X7654341Y-9588806D01*
X7660160Y-9585794D01*
X7672749Y-9577479D01*
X7682694Y-9567217D01*
X7691354Y-9553524D01*
X7691920Y-9552454D01*
X7693234Y-9549702D01*
X7694293Y-9546672D01*
X7695122Y-9542837D01*
X7695751Y-9537674D01*
X7696207Y-9530657D01*
X7696518Y-9521261D01*
X7696711Y-9508960D01*
X7696815Y-9493230D01*
X7696857Y-9473545D01*
X7696865Y-9449381D01*
X7696864Y-9439741D01*
X7696847Y-9417321D01*
X7696785Y-9399184D01*
X7696651Y-9384805D01*
X7696417Y-9373657D01*
X7696054Y-9365216D01*
X7695537Y-9358957D01*
X7694836Y-9354355D01*
X7693923Y-9350885D01*
X7692772Y-9348020D01*
X7691354Y-9345237D01*
X7682803Y-9331686D01*
X7672877Y-9321384D01*
X7660160Y-9312957D01*
X7660083Y-9312915D01*
X7654449Y-9309985D01*
X7649332Y-9307930D01*
X7643628Y-9306559D01*
X7636233Y-9305681D01*
X7626043Y-9305106D01*
X7611952Y-9304643D01*
X7601253Y-9304449D01*
X7585680Y-9304615D01*
X7572936Y-9305330D01*
X7564099Y-9306552D01*
X7559162Y-9307859D01*
X7544294Y-9314193D01*
X7531268Y-9323205D01*
X7521644Y-9333891D01*
X7520344Y-9335969D01*
X7515370Y-9345631D01*
X7511630Y-9355295D01*
X7508168Y-9366799D01*
X7499961Y-9366799D01*
X7500448Y-9360229D01*
X7501890Y-9350243D01*
X7503978Y-9342290D01*
X7506853Y-9335728D01*
X7510658Y-9329910D01*
X7515535Y-9324194D01*
X7521626Y-9317935D01*
X7525150Y-9314478D01*
X7532467Y-9308012D01*
X7539618Y-9303193D01*
X7547465Y-9299783D01*
X7556868Y-9297543D01*
X7568687Y-9296238D01*
X7583785Y-9295629D01*
X7603022Y-9295479D01*
X7614687Y-9295498D01*
G37*
D12*
%TO.C,J3*%
X10017500Y-10938000D02*
X10017500Y-10672000D01*
X10785500Y-10672000D02*
X10017500Y-10672000D01*
X10785500Y-10938000D02*
X10017500Y-10938000D01*
X10785500Y-10938000D02*
X10785500Y-10672000D01*
X10912500Y-10938000D02*
X11045500Y-10938000D01*
X11045500Y-10938000D02*
X11045500Y-10805000D01*
D19*
%TO.C,LED2*%
X10837500Y-5877500D02*
X10837500Y-5877500D01*
X10837500Y-5887500D02*
X10837500Y-5887500D01*
X10837500Y-5877500D02*
G75*
G02*
X10837500Y-5887500I0J-5000D01*
G01*
X10837500Y-5887500D02*
G75*
G02*
X10837500Y-5877500I0J5000D01*
G01*
D13*
%TO.C,SW3*%
X10199500Y-7690500D02*
X10199500Y-6979500D01*
X10692500Y-7690500D02*
X11185500Y-7690500D01*
X11185500Y-6979500D02*
X10692500Y-6979500D01*
X11185500Y-7690500D02*
X11185500Y-6979500D01*
D17*
%TO.C,BZ1*%
X9412209Y-12706100D02*
G75*
G02*
X9402191Y-12706100I-5009J0D01*
G01*
X9402191Y-12706100D02*
G75*
G02*
X9412209Y-12706100I5009J0D01*
G01*
X10040000Y-12020000D02*
G75*
G02*
X8820000Y-12020000I-610000J0D01*
G01*
X8820000Y-12020000D02*
G75*
G02*
X10040000Y-12020000I610000J0D01*
G01*
D19*
%TO.C,JOY1*%
X9269500Y-9200000D02*
X9269500Y-9200000D01*
X9269500Y-9200000D02*
X9269500Y-9500000D01*
X9269500Y-9500000D02*
X9269500Y-9200000D01*
X9269500Y-9500000D02*
X9269500Y-9500000D01*
X9452000Y-8380000D02*
X9452000Y-8380000D01*
X9452000Y-8380000D02*
X9452000Y-8517500D01*
X9452000Y-8517500D02*
X9452000Y-8380000D01*
X9452000Y-8517500D02*
X9452000Y-8517500D01*
X9627000Y-8692500D02*
X9627000Y-8692500D01*
X9627000Y-8692500D02*
X9627000Y-8692500D01*
X9627000Y-8692500D02*
X10227000Y-8692500D01*
X9627000Y-8692500D02*
X10227000Y-8692500D01*
X9627000Y-10007500D02*
X9627000Y-10007500D01*
X9627000Y-10007500D02*
X10227000Y-10007500D01*
X10227000Y-8692500D02*
X9627000Y-8692500D01*
X10227000Y-8692500D02*
X9627000Y-8692500D01*
X10227000Y-8692500D02*
X10227000Y-8692500D01*
X10227000Y-8692500D02*
X10227000Y-8692500D01*
X10227000Y-10007500D02*
X9627000Y-10007500D01*
X10227000Y-10007500D02*
X10227000Y-10007500D01*
X10402000Y-8380000D02*
X10402000Y-8380000D01*
X10402000Y-8380000D02*
X10402000Y-8517500D01*
X10402000Y-8517500D02*
X10402000Y-8380000D01*
X10402000Y-8517500D02*
X10402000Y-8517500D01*
X10584500Y-8875000D02*
X10584500Y-8875000D01*
X10584500Y-8875000D02*
X10584500Y-8875000D01*
X10584500Y-8875000D02*
X10584500Y-9825000D01*
X10584500Y-8875000D02*
X10897000Y-8875000D01*
X10584500Y-8925000D02*
X10584500Y-8925000D01*
X10584500Y-8925000D02*
X10584500Y-9775000D01*
X10584500Y-9775000D02*
X10584500Y-8925000D01*
X10584500Y-9775000D02*
X10584500Y-9775000D01*
X10584500Y-9825000D02*
X10584500Y-8875000D01*
X10584500Y-9825000D02*
X10584500Y-9825000D01*
X10584500Y-9825000D02*
X10584500Y-9825000D01*
X10584500Y-9825000D02*
X10897000Y-9825000D01*
X10850000Y-8800000D02*
X10950000Y-8800000D01*
X10897000Y-8875000D02*
X10584500Y-8875000D01*
X10897000Y-8875000D02*
X10850000Y-8800000D01*
X10897000Y-8875000D02*
X10897000Y-8875000D01*
X10897000Y-9825000D02*
X10584500Y-9825000D01*
X10897000Y-9825000D02*
X10897000Y-9825000D01*
X10950000Y-8800000D02*
X10897000Y-8875000D01*
%TO.C,J5*%
D13*
X8080000Y-6145000D02*
X10080000Y-6145000D01*
X10080000Y-5045000D01*
X8080000Y-5045000D01*
X8080000Y-6145000D01*
D12*
%TO.C,J6*%
X9323500Y-12687000D02*
X9456500Y-12687000D01*
X9323500Y-12820000D02*
X9323500Y-12687000D01*
X9583500Y-12953000D02*
X9583500Y-12687000D01*
X10605500Y-12687000D02*
X9583500Y-12687000D01*
X10605500Y-12953000D02*
X9583500Y-12953000D01*
X10605500Y-12953000D02*
X10605500Y-12687000D01*
%TO.C,J4*%
X10137000Y-11293000D02*
X10137000Y-11807000D01*
X10137000Y-12067000D02*
X10137000Y-11934000D01*
X10270000Y-12067000D02*
X10137000Y-12067000D01*
X10397000Y-11807000D02*
X10137000Y-11807000D01*
X10397000Y-12067000D02*
X10397000Y-11807000D01*
X10657000Y-11293000D02*
X10137000Y-11293000D01*
X10657000Y-11293000D02*
X10657000Y-12067000D01*
X10657000Y-12067000D02*
X10397000Y-12067000D01*
%TO.C,J2*%
X10779500Y-11048000D02*
X11045500Y-11048000D01*
X10779500Y-12070000D02*
X10779500Y-11048000D01*
X10779500Y-12070000D02*
X11045500Y-12070000D01*
X10779500Y-12197000D02*
X10779500Y-12330000D01*
X10779500Y-12330000D02*
X10912500Y-12330000D01*
X11045500Y-12070000D02*
X11045500Y-11048000D01*
D13*
%TO.C,BT1*%
X5841300Y-5598000D02*
X5841300Y-6550000D01*
X5841300Y-6550000D02*
X7390300Y-6550000D01*
X6059300Y-5250000D02*
X7172300Y-5250000D01*
X6059300Y-5598000D02*
X6059300Y-5250000D01*
D19*
X6361800Y-6602000D02*
X6361800Y-6602000D01*
X6361800Y-6612000D02*
X6361800Y-6612000D01*
D13*
X6415800Y-5598000D02*
X5841300Y-5598000D01*
X7172300Y-5250000D02*
X7172300Y-5598000D01*
X7390300Y-5598000D02*
X6815800Y-5598000D01*
X7390300Y-6550000D02*
X7390300Y-5598000D01*
D19*
X6361800Y-6602000D02*
G75*
G02*
X6361800Y-6612000I0J-5000D01*
G01*
X6361800Y-6612000D02*
G75*
G02*
X6361800Y-6602000I0J5000D01*
G01*
D13*
%TO.C,BT2*%
X5841300Y-10794000D02*
X7390300Y-10794000D01*
X5841300Y-11746000D02*
X5841300Y-10794000D01*
X6059300Y-12294000D02*
X7172300Y-12294000D01*
X6059800Y-11748000D02*
X6059800Y-12296000D01*
X6415800Y-11746000D02*
X5841300Y-11746000D01*
D19*
X6869800Y-10732000D02*
X6869800Y-10732000D01*
X6869800Y-10742000D02*
X6869800Y-10742000D01*
D13*
X7169800Y-12294000D02*
X7169800Y-11746000D01*
X7390300Y-10794000D02*
X7390300Y-11746000D01*
X7390300Y-11746000D02*
X6815800Y-11746000D01*
D19*
X6869800Y-10732000D02*
G75*
G02*
X6869800Y-10742000I0J-5000D01*
G01*
X6869800Y-10742000D02*
G75*
G02*
X6869800Y-10732000I0J5000D01*
G01*
%TD*%
M02*
