%TF.GenerationSoftware,KiCad,Pcbnew,9.0.7*%
%TF.CreationDate,2026-03-27T14:11:07+00:00*%
%TF.ProjectId,StepUp,53746570-5570-42e6-9b69-6361645f7063,v0.4*%
%TF.SameCoordinates,Original*%
%TF.FileFunction,Soldermask,Bot*%
%TF.FilePolarity,Negative*%
%FSLAX45Y45*%
G04 Gerber Fmt 4.5, Leading zero omitted, Abs format (unit mm)*
G04 Created by KiCad (PCBNEW 9.0.7) date 2026-03-27 14:11:07*
%MOMM*%
%LPD*%
G01*
G04 APERTURE LIST*
G04 Aperture macros list*
%AMRotRect*
0 Rectangle, with rotation*
0 The origin of the aperture is its center*
0 $1 length*
0 $2 width*
0 $3 Rotation angle, in degrees counterclockwise*
0 Add horizontal line*
21,1,$1,$2,0,0,$3*%
G04 Aperture macros list end*
%ADD10C,0.650000*%
%ADD11O,1.000000X2.100000*%
%ADD12O,1.000000X1.800000*%
%ADD13O,2.200000X4.200000*%
%ADD14C,3.200000*%
%ADD15C,2.200000*%
%ADD16R,1.700000X1.700000*%
%ADD17O,1.700000X1.700000*%
%ADD18RotRect,1.300000X1.300000X225.000000*%
%ADD19C,1.416000*%
%ADD20C,1.550000*%
%ADD21C,2.000000*%
%ADD22C,1.350000*%
%ADD23C,1.650000*%
%ADD24C,1.950000*%
%ADD25C,2.400000*%
%ADD26R,2.745000X2.745000*%
%ADD27C,2.745000*%
%ADD28R,2.745000X4.745000*%
%ADD29O,2.745000X4.745000*%
G04 APERTURE END LIST*
D10*
%TO.C,J1*%
X7916800Y-12402500D03*
X8494800Y-12402500D03*
D11*
X7773800Y-12352500D03*
D12*
X7773800Y-12770500D03*
D11*
X8637800Y-12352500D03*
D12*
X8637800Y-12770500D03*
%TD*%
D13*
%TO.C,H6*%
X7620000Y-9020000D03*
%TD*%
D14*
%TO.C,H3*%
X5941170Y-12708830D03*
%TD*%
D15*
%TO.C,H5*%
X10000000Y-9335000D03*
%TD*%
D14*
%TO.C,H2*%
X7645000Y-5310000D03*
%TD*%
%TO.C,H4*%
X10838830Y-12708830D03*
%TD*%
%TO.C,H1*%
X10840000Y-6370000D03*
%TD*%
D16*
%TO.C,J3*%
X10912500Y-10805000D03*
D17*
X10658500Y-10805000D03*
X10404500Y-10805000D03*
X10150500Y-10805000D03*
%TD*%
D18*
%TO.C,LED2*%
X10837500Y-5725000D03*
D19*
X10712500Y-5600000D03*
X10837500Y-5475000D03*
X10712500Y-5350000D03*
%TD*%
D20*
%TO.C,SW3*%
X10600500Y-7110000D03*
X10600500Y-7560000D03*
D21*
X10351500Y-6984500D03*
X10351500Y-7685500D03*
%TD*%
D22*
%TO.C,BZ1*%
X9430000Y-12270000D03*
X9430000Y-11770000D03*
%TD*%
D23*
%TO.C,JOY1*%
X10800000Y-9100000D03*
X10800000Y-9350000D03*
X10800000Y-9600000D03*
X9677000Y-8477000D03*
X9927000Y-8477000D03*
X10177000Y-8477000D03*
D24*
X9352000Y-9675000D03*
X9352000Y-9025000D03*
X8902000Y-9675000D03*
X8902000Y-9025000D03*
D25*
X10427000Y-8717500D03*
X10427000Y-9982500D03*
X9427000Y-9982500D03*
X9427000Y-8717500D03*
%TD*%
%TO.C,J5*%
X8330000Y-5595000D03*
X8830000Y-5595000D03*
X9330000Y-5595000D03*
X9830000Y-5595000D03*
%TD*%
D16*
%TO.C,J6*%
X9456500Y-12820000D03*
D17*
X9710500Y-12820000D03*
X9964500Y-12820000D03*
X10218500Y-12820000D03*
X10472500Y-12820000D03*
%TD*%
D16*
%TO.C,J4*%
X10270000Y-11934000D03*
D17*
X10524000Y-11934000D03*
X10270000Y-11680000D03*
X10524000Y-11680000D03*
X10270000Y-11426000D03*
X10524000Y-11426000D03*
%TD*%
D16*
%TO.C,J2*%
X10912500Y-12197000D03*
D17*
X10912500Y-11943000D03*
X10912500Y-11689000D03*
X10912500Y-11435000D03*
X10912500Y-11181000D03*
%TD*%
D26*
%TO.C,BT1*%
X6361800Y-6372000D03*
D27*
X6869800Y-6372000D03*
X6615800Y-5610000D03*
%TD*%
D28*
%TO.C,BT2*%
X6869800Y-11072000D03*
D29*
X6361800Y-11072000D03*
X6615800Y-11834000D03*
%TD*%
M02*
