%TF.GenerationSoftware,KiCad,Pcbnew,9.0.7*%
%TF.CreationDate,2026-03-27T14:11:07+00:00*%
%TF.ProjectId,StepUp,53746570-5570-42e6-9b69-6361645f7063,v0.4*%
%TF.SameCoordinates,Original*%
%TF.FileFunction,Paste,Top*%
%TF.FilePolarity,Positive*%
%FSLAX45Y45*%
G04 Gerber Fmt 4.5, Leading zero omitted, Abs format (unit mm)*
G04 Created by KiCad (PCBNEW 9.0.7) date 2026-03-27 14:11:07*
%MOMM*%
%LPD*%
G01*
G04 APERTURE LIST*
G04 Aperture macros list*
%AMRoundRect*
0 Rectangle with rounded corners*
0 $1 Rounding radius*
0 $2 $3 $4 $5 $6 $7 $8 $9 X,Y pos of 4 corners*
0 Add a 4 corners polygon primitive as box body*
4,1,4,$2,$3,$4,$5,$6,$7,$8,$9,$2,$3,0*
0 Add four circle primitives for the rounded corners*
1,1,$1+$1,$2,$3*
1,1,$1+$1,$4,$5*
1,1,$1+$1,$6,$7*
1,1,$1+$1,$8,$9*
0 Add four rect primitives between the rounded corners*
20,1,$1+$1,$2,$3,$4,$5,0*
20,1,$1+$1,$4,$5,$6,$7,0*
20,1,$1+$1,$6,$7,$8,$9,0*
20,1,$1+$1,$8,$9,$2,$3,0*%
G04 Aperture macros list end*
%ADD10R,0.863600X0.787400*%
%ADD11RoundRect,0.250000X0.312500X0.625000X-0.312500X0.625000X-0.312500X-0.625000X0.312500X-0.625000X0*%
%ADD12RoundRect,0.135000X-0.135000X-0.185000X0.135000X-0.185000X0.135000X0.185000X-0.135000X0.185000X0*%
%ADD13RoundRect,0.140000X-0.170000X0.140000X-0.170000X-0.140000X0.170000X-0.140000X0.170000X0.140000X0*%
%ADD14RoundRect,0.200000X0.200000X0.275000X-0.200000X0.275000X-0.200000X-0.275000X0.200000X-0.275000X0*%
%ADD15RoundRect,0.135000X0.135000X0.185000X-0.135000X0.185000X-0.135000X-0.185000X0.135000X-0.185000X0*%
%ADD16RoundRect,0.140000X0.170000X-0.140000X0.170000X0.140000X-0.170000X0.140000X-0.170000X-0.140000X0*%
%ADD17RoundRect,0.140000X-0.140000X-0.170000X0.140000X-0.170000X0.140000X0.170000X-0.140000X0.170000X0*%
%ADD18RoundRect,0.225000X0.225000X0.250000X-0.225000X0.250000X-0.225000X-0.250000X0.225000X-0.250000X0*%
%ADD19RoundRect,0.150000X-0.150000X-0.425000X0.150000X-0.425000X0.150000X0.425000X-0.150000X0.425000X0*%
%ADD20RoundRect,0.075000X-0.075000X-0.500000X0.075000X-0.500000X0.075000X0.500000X-0.075000X0.500000X0*%
%ADD21O,1.000000X2.100000*%
%ADD22O,1.000000X1.800000*%
%ADD23RoundRect,0.140000X0.140000X0.170000X-0.140000X0.170000X-0.140000X-0.170000X0.140000X-0.170000X0*%
%ADD24RoundRect,0.200000X-0.275000X0.200000X-0.275000X-0.200000X0.275000X-0.200000X0.275000X0.200000X0*%
%ADD25RoundRect,0.200000X0.275000X-0.200000X0.275000X0.200000X-0.275000X0.200000X-0.275000X-0.200000X0*%
%ADD26RoundRect,0.200000X-0.200000X-0.275000X0.200000X-0.275000X0.200000X0.275000X-0.200000X0.275000X0*%
%ADD27RoundRect,0.250000X0.325000X1.100000X-0.325000X1.100000X-0.325000X-1.100000X0.325000X-1.100000X0*%
%ADD28R,0.950000X0.900000*%
%ADD29RoundRect,0.250000X0.292217X-0.292217X0.292217X0.292217X-0.292217X0.292217X-0.292217X-0.292217X0*%
%ADD30RoundRect,0.050000X0.050000X-0.387500X0.050000X0.387500X-0.050000X0.387500X-0.050000X-0.387500X0*%
%ADD31RoundRect,0.050000X0.387500X-0.050000X0.387500X0.050000X-0.387500X0.050000X-0.387500X-0.050000X0*%
%ADD32RoundRect,0.225000X0.250000X-0.225000X0.250000X0.225000X-0.250000X0.225000X-0.250000X-0.225000X0*%
%ADD33RoundRect,0.025000X-0.100000X-0.115000X0.100000X-0.115000X0.100000X0.115000X-0.100000X0.115000X0*%
%ADD34RoundRect,0.035000X-0.140000X-0.425000X0.140000X-0.425000X0.140000X0.425000X-0.140000X0.425000X0*%
%ADD35RoundRect,0.052000X-0.448000X-0.208000X0.448000X-0.208000X0.448000X0.208000X-0.448000X0.208000X0*%
%ADD36RoundRect,0.062500X-0.212500X-0.062500X0.212500X-0.062500X0.212500X0.062500X-0.212500X0.062500X0*%
%ADD37RoundRect,0.062500X0.212500X0.062500X-0.212500X0.062500X-0.212500X-0.062500X0.212500X-0.062500X0*%
%ADD38R,1.000000X1.000000*%
%ADD39R,1.753400X0.912000*%
%ADD40R,1.300000X0.600000*%
%ADD41R,0.254000X0.355600*%
%ADD42RoundRect,0.225000X-0.225000X-0.250000X0.225000X-0.250000X0.225000X0.250000X-0.225000X0.250000X0*%
%ADD43R,1.200000X1.400000*%
%ADD44RoundRect,0.250000X-0.312500X-0.625000X0.312500X-0.625000X0.312500X0.625000X-0.312500X0.625000X0*%
%ADD45RoundRect,0.375000X-0.625000X-0.375000X0.625000X-0.375000X0.625000X0.375000X-0.625000X0.375000X0*%
%ADD46RoundRect,0.500000X-0.500000X-1.400000X0.500000X-1.400000X0.500000X1.400000X-0.500000X1.400000X0*%
%ADD47O,0.857199X0.204000*%
%ADD48O,0.204000X0.857199*%
%ADD49R,1.701800X1.701800*%
%ADD50RoundRect,0.225000X-0.250000X0.225000X-0.250000X-0.225000X0.250000X-0.225000X0.250000X0.225000X0*%
%ADD51R,0.457200X0.406400*%
%ADD52R,0.711200X0.254000*%
%ADD53R,0.254000X1.651000*%
%ADD54R,1.050000X0.600000*%
%ADD55R,0.600000X1.300000*%
%ADD56R,1.050000X1.150000*%
%ADD57RoundRect,0.250000X-0.450000X0.400000X-0.450000X-0.400000X0.450000X-0.400000X0.450000X0.400000X0*%
%ADD58RoundRect,0.250000X-0.650000X0.325000X-0.650000X-0.325000X0.650000X-0.325000X0.650000X0.325000X0*%
%ADD59R,2.650000X3.700000*%
%ADD60RoundRect,0.135000X-0.185000X0.135000X-0.185000X-0.135000X0.185000X-0.135000X0.185000X0.135000X0*%
%ADD61RoundRect,0.070000X0.070000X0.355000X-0.070000X0.355000X-0.070000X-0.355000X0.070000X-0.355000X0*%
%ADD62RoundRect,0.070000X0.070000X0.305000X-0.070000X0.305000X-0.070000X-0.305000X0.070000X-0.305000X0*%
%ADD63RoundRect,0.150000X0.150000X-0.512500X0.150000X0.512500X-0.150000X0.512500X-0.150000X-0.512500X0*%
G04 APERTURE END LIST*
D10*
%TO.C,D3*%
X9047780Y-6347860D03*
X8717580Y-6347860D03*
%TD*%
D11*
%TO.C,R20*%
X9957290Y-7555000D03*
X9664790Y-7555000D03*
%TD*%
D12*
%TO.C,R30*%
X6498000Y-7735000D03*
X6600000Y-7735000D03*
%TD*%
D13*
%TO.C,C43*%
X10960000Y-9001500D03*
X10960000Y-9097500D03*
%TD*%
D12*
%TO.C,R27*%
X6500500Y-8010000D03*
X6602500Y-8010000D03*
%TD*%
D14*
%TO.C,R31*%
X7235000Y-9235000D03*
X7070000Y-9235000D03*
%TD*%
D15*
%TO.C,R28*%
X7183500Y-7882500D03*
X7081500Y-7882500D03*
%TD*%
D14*
%TO.C,R34*%
X7650000Y-7070000D03*
X7485000Y-7070000D03*
%TD*%
D16*
%TO.C,C10*%
X8700000Y-10058000D03*
X8700000Y-9962000D03*
%TD*%
D17*
%TO.C,C5*%
X9172000Y-10510000D03*
X9268000Y-10510000D03*
%TD*%
D12*
%TO.C,R6*%
X7886000Y-10561250D03*
X7988000Y-10561250D03*
%TD*%
D18*
%TO.C,C8*%
X8012500Y-10177500D03*
X7857500Y-10177500D03*
%TD*%
D19*
%TO.C,J1*%
X7885800Y-12295000D03*
X7965800Y-12295000D03*
D20*
X8080800Y-12295000D03*
X8180800Y-12295000D03*
X8230800Y-12295000D03*
X8330800Y-12295000D03*
D19*
X8445800Y-12295000D03*
X8525800Y-12295000D03*
X8525800Y-12295000D03*
X8445800Y-12295000D03*
D20*
X8380800Y-12295000D03*
X8280800Y-12295000D03*
X8130800Y-12295000D03*
X8030800Y-12295000D03*
D19*
X7965800Y-12295000D03*
X7885800Y-12295000D03*
D21*
X7773800Y-12352500D03*
D22*
X7773800Y-12770500D03*
D21*
X8637800Y-12352500D03*
D22*
X8637800Y-12770500D03*
%TD*%
D17*
%TO.C,C19*%
X9423700Y-7724900D03*
X9519700Y-7724900D03*
%TD*%
D14*
%TO.C,R42*%
X7677500Y-9576000D03*
X7512500Y-9576000D03*
%TD*%
D17*
%TO.C,C18*%
X9422000Y-7830000D03*
X9518000Y-7830000D03*
%TD*%
D23*
%TO.C,C42*%
X8811000Y-11750000D03*
X8715000Y-11750000D03*
%TD*%
D24*
%TO.C,R10*%
X8660000Y-8577500D03*
X8660000Y-8742500D03*
%TD*%
D15*
%TO.C,R2*%
X7951000Y-11210000D03*
X7849000Y-11210000D03*
%TD*%
D12*
%TO.C,R5*%
X9171200Y-10713500D03*
X9273200Y-10713500D03*
%TD*%
%TO.C,R7*%
X7886000Y-10460000D03*
X7988000Y-10460000D03*
%TD*%
D10*
%TO.C,D8*%
X9493540Y-6119260D03*
X9163340Y-6119260D03*
%TD*%
%TO.C,D10*%
X9798340Y-6119260D03*
X10128540Y-6119260D03*
%TD*%
D23*
%TO.C,C39*%
X5927500Y-5892500D03*
X5831500Y-5892500D03*
%TD*%
D16*
%TO.C,C15*%
X8802500Y-7677900D03*
X8802500Y-7581900D03*
%TD*%
D10*
%TO.C,D7*%
X9163340Y-6347860D03*
X9493540Y-6347860D03*
%TD*%
D14*
%TO.C,R8*%
X8495000Y-8730000D03*
X8330000Y-8730000D03*
%TD*%
D24*
%TO.C,R4*%
X8435000Y-11892500D03*
X8435000Y-12057500D03*
%TD*%
D25*
%TO.C,R50*%
X10250000Y-5552500D03*
X10250000Y-5387500D03*
%TD*%
D26*
%TO.C,R35*%
X7490000Y-7437500D03*
X7655000Y-7437500D03*
%TD*%
D27*
%TO.C,C36*%
X6997500Y-8992500D03*
X6702500Y-8992500D03*
%TD*%
D28*
%TO.C,D13*%
X7655000Y-7687500D03*
X7655000Y-8002500D03*
%TD*%
D29*
%TO.C,U3*%
X8536750Y-10713650D03*
X8664250Y-10713650D03*
X8536750Y-10586150D03*
X8664250Y-10586150D03*
D30*
X8340500Y-10993650D03*
X8380500Y-10993650D03*
X8420500Y-10993650D03*
X8460500Y-10993650D03*
X8500500Y-10993650D03*
X8540500Y-10993650D03*
X8580500Y-10993650D03*
X8620500Y-10993650D03*
X8660500Y-10993650D03*
X8700500Y-10993650D03*
X8740500Y-10993650D03*
X8780500Y-10993650D03*
X8820500Y-10993650D03*
X8860500Y-10993650D03*
D31*
X8944250Y-10909900D03*
X8944250Y-10869900D03*
X8944250Y-10829900D03*
X8944250Y-10789900D03*
X8944250Y-10749900D03*
X8944250Y-10709900D03*
X8944250Y-10669900D03*
X8944250Y-10629900D03*
X8944250Y-10589900D03*
X8944250Y-10549900D03*
X8944250Y-10509900D03*
X8944250Y-10469900D03*
X8944250Y-10429900D03*
X8944250Y-10389900D03*
D30*
X8860500Y-10306150D03*
X8820500Y-10306150D03*
X8780500Y-10306150D03*
X8740500Y-10306150D03*
X8700500Y-10306150D03*
X8660500Y-10306150D03*
X8620500Y-10306150D03*
X8580500Y-10306150D03*
X8540500Y-10306150D03*
X8500500Y-10306150D03*
X8460500Y-10306150D03*
X8420500Y-10306150D03*
X8380500Y-10306150D03*
X8340500Y-10306150D03*
D31*
X8256750Y-10389900D03*
X8256750Y-10429900D03*
X8256750Y-10469900D03*
X8256750Y-10509900D03*
X8256750Y-10549900D03*
X8256750Y-10589900D03*
X8256750Y-10629900D03*
X8256750Y-10669900D03*
X8256750Y-10709900D03*
X8256750Y-10749900D03*
X8256750Y-10789900D03*
X8256750Y-10829900D03*
X8256750Y-10869900D03*
X8256750Y-10909900D03*
%TD*%
D26*
%TO.C,R26*%
X8847500Y-12700000D03*
X9012500Y-12700000D03*
%TD*%
D24*
%TO.C,R3*%
X7850000Y-11867500D03*
X7850000Y-12032500D03*
%TD*%
D23*
%TO.C,C7*%
X7874050Y-10670000D03*
X7778050Y-10670000D03*
%TD*%
D32*
%TO.C,C37*%
X7485000Y-5920000D03*
X7485000Y-5765000D03*
%TD*%
D26*
%TO.C,R24*%
X7150000Y-11595000D03*
X7315000Y-11595000D03*
%TD*%
D18*
%TO.C,C6*%
X8012500Y-10332500D03*
X7857500Y-10332500D03*
%TD*%
D33*
%TO.C,U7*%
X6815000Y-7750250D03*
D34*
X6817500Y-7930250D03*
D35*
X6852500Y-7810250D03*
D34*
X6887500Y-7930250D03*
D33*
X6890000Y-7750250D03*
D36*
X6735000Y-7781250D03*
X6735000Y-7831250D03*
X6735000Y-7881250D03*
X6735000Y-7931250D03*
D37*
X6970000Y-7931250D03*
X6970000Y-7881250D03*
X6970000Y-7831250D03*
X6970000Y-7781250D03*
%TD*%
D38*
%TO.C,LED1*%
X9120000Y-12865000D03*
X8930000Y-12865000D03*
%TD*%
D14*
%TO.C,R47*%
X6707500Y-5160000D03*
X6542500Y-5160000D03*
%TD*%
D24*
%TO.C,R37*%
X5825000Y-5595000D03*
X5825000Y-5760000D03*
%TD*%
D39*
%TO.C,L1*%
X8668040Y-6666120D03*
X8668040Y-6945280D03*
%TD*%
D16*
%TO.C,C13*%
X8335000Y-10138000D03*
X8335000Y-10042000D03*
%TD*%
D10*
%TO.C,D4*%
X8717580Y-6119260D03*
X9047780Y-6119260D03*
%TD*%
D40*
%TO.C,Q4*%
X7585000Y-6225000D03*
X7585000Y-6415000D03*
X7795000Y-6320000D03*
%TD*%
D41*
%TO.C,U8*%
X6025000Y-5482080D03*
X6090000Y-5482080D03*
X6155000Y-5482080D03*
X6220000Y-5482080D03*
X6220000Y-5217920D03*
X6155000Y-5217920D03*
X6090000Y-5217920D03*
X6025000Y-5217920D03*
%TD*%
D17*
%TO.C,C3*%
X7559800Y-11204800D03*
X7655800Y-11204800D03*
%TD*%
D16*
%TO.C,C14*%
X8233400Y-10138000D03*
X8233400Y-10042000D03*
%TD*%
D14*
%TO.C,R14*%
X9192500Y-8364800D03*
X9027500Y-8364800D03*
%TD*%
%TO.C,R39*%
X6207500Y-8537500D03*
X6042500Y-8537500D03*
%TD*%
D39*
%TO.C,L4*%
X9785640Y-6666120D03*
X9785640Y-6945280D03*
%TD*%
D26*
%TO.C,R45*%
X8650000Y-11880100D03*
X8815000Y-11880100D03*
%TD*%
D13*
%TO.C,C44*%
X9820000Y-8655000D03*
X9820000Y-8751000D03*
%TD*%
D14*
%TO.C,R13*%
X8662500Y-7830000D03*
X8497500Y-7830000D03*
%TD*%
D23*
%TO.C,C20*%
X8865500Y-6528900D03*
X8769500Y-6528900D03*
%TD*%
D15*
%TO.C,R29*%
X6600000Y-7840000D03*
X6498000Y-7840000D03*
%TD*%
D23*
%TO.C,C4*%
X7874050Y-10771600D03*
X7778050Y-10771600D03*
%TD*%
%TO.C,C40*%
X6207500Y-8820000D03*
X6111500Y-8820000D03*
%TD*%
D14*
%TO.C,R52*%
X10440000Y-5722500D03*
X10275000Y-5722500D03*
%TD*%
D23*
%TO.C,C28*%
X6998500Y-7627500D03*
X6902500Y-7627500D03*
%TD*%
D27*
%TO.C,C34*%
X6997500Y-8337500D03*
X6702500Y-8337500D03*
%TD*%
D14*
%TO.C,R53*%
X9182500Y-11827500D03*
X9017500Y-11827500D03*
%TD*%
D16*
%TO.C,C2*%
X9400000Y-10568000D03*
X9400000Y-10472000D03*
%TD*%
D42*
%TO.C,C24*%
X6042500Y-10088750D03*
X6197500Y-10088750D03*
%TD*%
D18*
%TO.C,C31*%
X6570000Y-7602500D03*
X6415000Y-7602500D03*
%TD*%
D13*
%TO.C,C1*%
X9410000Y-10772000D03*
X9410000Y-10868000D03*
%TD*%
D39*
%TO.C,L2*%
X8414040Y-6666120D03*
X8414040Y-6945280D03*
%TD*%
D14*
%TO.C,R12*%
X8662500Y-7990000D03*
X8497500Y-7990000D03*
%TD*%
D23*
%TO.C,C9*%
X8278000Y-11120000D03*
X8182000Y-11120000D03*
%TD*%
D40*
%TO.C,D12*%
X7582500Y-6637500D03*
X7582500Y-6827500D03*
X7792500Y-6732500D03*
%TD*%
D18*
%TO.C,C32*%
X6930000Y-8087500D03*
X6775000Y-8087500D03*
%TD*%
D14*
%TO.C,R16*%
X9192500Y-8060000D03*
X9027500Y-8060000D03*
%TD*%
D17*
%TO.C,C23*%
X9934000Y-6525660D03*
X10030000Y-6525660D03*
%TD*%
D43*
%TO.C,Y1*%
X9745000Y-10680000D03*
X9745000Y-10460000D03*
X9575000Y-10460000D03*
X9575000Y-10680000D03*
%TD*%
D26*
%TO.C,R17*%
X9722500Y-8050000D03*
X9887500Y-8050000D03*
%TD*%
D44*
%TO.C,R19*%
X8242390Y-7555000D03*
X8534890Y-7555000D03*
%TD*%
D23*
%TO.C,C21*%
X8265500Y-6525660D03*
X8169500Y-6525660D03*
%TD*%
D45*
%TO.C,U5*%
X6040000Y-9398750D03*
X6040000Y-9628750D03*
D46*
X6670000Y-9628750D03*
D45*
X6040000Y-9858750D03*
%TD*%
D14*
%TO.C,R33*%
X6000000Y-6172500D03*
X5835000Y-6172500D03*
%TD*%
D12*
%TO.C,R1*%
X7849000Y-11320000D03*
X7951000Y-11320000D03*
%TD*%
D17*
%TO.C,C12*%
X9174200Y-10610000D03*
X9270200Y-10610000D03*
%TD*%
D14*
%TO.C,R44*%
X8815000Y-12032500D03*
X8650000Y-12032500D03*
%TD*%
D47*
%TO.C,U4*%
X8963000Y-7515000D03*
X8963000Y-7555000D03*
X8963000Y-7595000D03*
X8963000Y-7635000D03*
X8963000Y-7675000D03*
D48*
X9030000Y-7742000D03*
X9070000Y-7742000D03*
X9110000Y-7742000D03*
X9150000Y-7742000D03*
X9190000Y-7742000D03*
D47*
X9257000Y-7675000D03*
X9257000Y-7635000D03*
X9257000Y-7595000D03*
X9257000Y-7555000D03*
X9257000Y-7515000D03*
D48*
X9190000Y-7448000D03*
X9150000Y-7448000D03*
X9110000Y-7448000D03*
X9070000Y-7448000D03*
X9030000Y-7448000D03*
D49*
X9110000Y-7595000D03*
%TD*%
D24*
%TO.C,R11*%
X9370000Y-8047500D03*
X9370000Y-8212500D03*
%TD*%
D26*
%TO.C,R43*%
X7512500Y-9731000D03*
X7677500Y-9731000D03*
%TD*%
D32*
%TO.C,C30*%
X6967500Y-11937500D03*
X6967500Y-11782500D03*
%TD*%
D14*
%TO.C,R15*%
X9192500Y-8212400D03*
X9027500Y-8212400D03*
%TD*%
D10*
%TO.C,D9*%
X10128540Y-6347860D03*
X9798340Y-6347860D03*
%TD*%
D24*
%TO.C,R38*%
X5985000Y-5595000D03*
X5985000Y-5760000D03*
%TD*%
D50*
%TO.C,C29*%
X6915000Y-9782500D03*
X6915000Y-9937500D03*
%TD*%
D26*
%TO.C,R40*%
X6042500Y-8692500D03*
X6207500Y-8692500D03*
%TD*%
D25*
%TO.C,R51*%
X10407500Y-5552500D03*
X10407500Y-5387500D03*
%TD*%
D42*
%TO.C,C38*%
X7490000Y-7252500D03*
X7645000Y-7252500D03*
%TD*%
D16*
%TO.C,C17*%
X9037600Y-7145800D03*
X9037600Y-7049800D03*
%TD*%
D51*
%TO.C,Q5*%
X7335000Y-5770700D03*
X7145000Y-5770700D03*
X7240000Y-5999300D03*
%TD*%
D40*
%TO.C,Q1*%
X8825000Y-8555000D03*
X8825000Y-8745000D03*
X9035000Y-8650000D03*
%TD*%
D52*
%TO.C,U1*%
X7837500Y-11099800D03*
X7837500Y-11049800D03*
X7837500Y-10999800D03*
X7837500Y-10949800D03*
X7558100Y-10949800D03*
X7558100Y-10999800D03*
X7558100Y-11049800D03*
X7558100Y-11099800D03*
D53*
X7697800Y-11024800D03*
%TD*%
D13*
%TO.C,C11*%
X8740000Y-11172000D03*
X8740000Y-11268000D03*
%TD*%
D26*
%TO.C,R9*%
X8330000Y-8570000D03*
X8495000Y-8570000D03*
%TD*%
D14*
%TO.C,R41*%
X7677500Y-9421100D03*
X7512500Y-9421100D03*
%TD*%
D17*
%TO.C,C26*%
X7085000Y-7782500D03*
X7181000Y-7782500D03*
%TD*%
D54*
%TO.C,U6*%
X7140000Y-11775000D03*
X7140000Y-11870000D03*
X7140000Y-11965000D03*
X7410000Y-11965000D03*
X7410000Y-11775000D03*
%TD*%
D25*
%TO.C,R55*%
X9610000Y-12110000D03*
X9610000Y-11945000D03*
%TD*%
D13*
%TO.C,C33*%
X6505000Y-8111500D03*
X6505000Y-8207500D03*
%TD*%
D10*
%TO.C,D5*%
X8045740Y-6347860D03*
X8375940Y-6347860D03*
%TD*%
D55*
%TO.C,Q6*%
X6995000Y-5477500D03*
X7185000Y-5477500D03*
X7090000Y-5267500D03*
%TD*%
D12*
%TO.C,R25*%
X6708000Y-7627500D03*
X6810000Y-7627500D03*
%TD*%
D56*
%TO.C,SW2*%
X7030000Y-12870000D03*
X7175000Y-12870000D03*
X7030000Y-12535000D03*
X7175000Y-12535000D03*
%TD*%
D27*
%TO.C,C35*%
X6997500Y-8665000D03*
X6702500Y-8665000D03*
%TD*%
D24*
%TO.C,R18*%
X9550000Y-8047500D03*
X9550000Y-8212500D03*
%TD*%
D56*
%TO.C,SW1*%
X6510000Y-12870000D03*
X6655000Y-12870000D03*
X6510000Y-12535000D03*
X6655000Y-12535000D03*
%TD*%
D17*
%TO.C,C22*%
X9332000Y-6528900D03*
X9428000Y-6528900D03*
%TD*%
D39*
%TO.C,L3*%
X9531640Y-6666120D03*
X9531640Y-6945280D03*
%TD*%
D14*
%TO.C,R49*%
X10440000Y-5877500D03*
X10275000Y-5877500D03*
%TD*%
D13*
%TO.C,C41*%
X7797500Y-9575000D03*
X7797500Y-9671000D03*
%TD*%
D57*
%TO.C,D2*%
X8030000Y-7285000D03*
X8030000Y-7575000D03*
%TD*%
D24*
%TO.C,R32*%
X7640000Y-5760000D03*
X7640000Y-5925000D03*
%TD*%
D28*
%TO.C,D1*%
X7495000Y-12377500D03*
X7495000Y-12692500D03*
%TD*%
D58*
%TO.C,C25*%
X6130000Y-7585000D03*
X6130000Y-7880000D03*
%TD*%
D50*
%TO.C,C27*%
X7610000Y-11807500D03*
X7610000Y-11962500D03*
%TD*%
D59*
%TO.C,L5*%
X6127500Y-7020000D03*
X6927500Y-7020000D03*
%TD*%
D10*
%TO.C,D6*%
X8375940Y-6119260D03*
X8045740Y-6119260D03*
%TD*%
D60*
%TO.C,R46*%
X6335000Y-5655500D03*
X6335000Y-5757500D03*
%TD*%
D14*
%TO.C,R54*%
X9180000Y-11990000D03*
X9015000Y-11990000D03*
%TD*%
D26*
%TO.C,R36*%
X6192500Y-5895000D03*
X6357500Y-5895000D03*
%TD*%
D40*
%TO.C,Q7*%
X9015000Y-12185000D03*
X9015000Y-12375000D03*
X9225000Y-12280000D03*
%TD*%
%TO.C,Q2*%
X8445000Y-8180000D03*
X8445000Y-8370000D03*
X8655000Y-8275000D03*
%TD*%
D61*
%TO.C,U9*%
X6225000Y-5627500D03*
D62*
X6175000Y-5622500D03*
X6125000Y-5622500D03*
X6125000Y-5737500D03*
X6175000Y-5737500D03*
X6225000Y-5737500D03*
%TD*%
D63*
%TO.C,U2*%
X8064400Y-12027750D03*
X8159400Y-12027750D03*
X8254400Y-12027750D03*
X8254400Y-11800250D03*
X8159400Y-11800250D03*
X8064400Y-11800250D03*
%TD*%
D24*
%TO.C,R48*%
X6367500Y-5155000D03*
X6367500Y-5320000D03*
%TD*%
D32*
%TO.C,C16*%
X9164600Y-7175300D03*
X9164600Y-7020300D03*
%TD*%
D25*
%TO.C,R22*%
X7247500Y-6492500D03*
X7247500Y-6327500D03*
%TD*%
M02*
