<?xml version="1.0" encoding="utf-8"?>
<svg xmlns="http://www.w3.org/2000/svg" style="margin: auto; background: none; display: block; shape-rendering: auto;" width="280" height="250" preserveAspectRatio="xMidYMid">
<style type="text/css">
  text {
    text-anchor: middle; font-size: 73px; opacity: 0;
  }
</style>
<g style="transform-origin:140px 125px;transform:scale(1)">
<g transform="translate(140,125)">
  <g transform="translate(0,0)"><g class="path" style="transform-origin: -100.78px -3.1173px; animation: 1s linear -0.5775s infinite normal forwards running static-ce02ae40-1660-456c-991e-06f257979884;"><path d="M32.92-48.84L31.90-42.92L31.90-42.92Q30.15-43.36 28.25-43.73L28.25-43.73L28.25-43.73Q26.57-44.09 24.42-44.35L24.42-44.35L24.42-44.35Q22.26-44.60 19.93-44.60L19.93-44.60L19.93-44.60Q14.53-44.60 12.19-42.96L12.19-42.96L12.19-42.96Q9.85-41.32 9.85-37.89L9.85-37.89L9.85-37.89Q9.93-35.19 11.83-33.32L11.83-33.32L11.83-33.32Q13.72-31.46 16.57-29.89L16.57-29.89L16.57-29.89Q19.42-28.32 22.81-26.83L22.81-26.83L22.81-26.83Q26.21-25.33 29.05-23.40L29.05-23.40L29.05-23.40Q31.90-21.46 33.84-18.87L33.84-18.87L33.84-18.87Q35.77-16.28 35.77-12.56L35.77-12.56L35.77-12.56Q35.77-8.25 33.91-5.62L33.91-5.62L33.91-5.62Q32.05-2.99 29.20-1.53L29.20-1.53L29.20-1.53Q26.35-0.07 22.96 0.44L22.96 0.44L22.96 0.44Q19.56 0.95 16.50 0.95L16.50 0.95L16.50 0.95Q13.58 0.95 11.17 0.58L11.17 0.58L11.17 0.58Q8.76 0.22 7.01-0.22L7.01-0.22L7.01-0.22Q4.96-0.73 3.28-1.39L3.28-1.39L4.75-7.30L4.75-7.30Q6.42-6.57 8.32-6.06L8.32-6.06L8.32-6.06Q10.00-5.62 12.08-5.26L12.08-5.26L12.08-5.26Q14.16-4.89 16.50-4.89L16.50-4.89L16.50-4.89Q19.34-4.89 21.72-5.26L21.72-5.26L21.72-5.26Q24.09-5.62 25.84-6.42L25.84-6.42L25.84-6.42Q27.59-7.23 28.58-8.54L28.58-8.54L28.58-8.54Q29.56-9.85 29.56-11.75L29.56-11.75L29.56-11.75Q29.49-14.60 27.70-16.39L27.70-16.39L27.70-16.39Q25.91-18.18 22.96-19.82L22.96-19.82L22.96-19.82Q20.00-21.46 16.61-22.99L16.61-22.99L16.61-22.99Q13.21-24.53 10.37-26.50L10.37-26.50L10.37-26.50Q7.52-28.47 5.58-31.17L5.58-31.17L5.58-31.17Q3.65-33.87 3.65-37.89L3.65-37.89L3.65-37.89Q3.65-40.22 4.45-42.49L4.45-42.49L4.45-42.49Q5.26-44.75 7.19-46.50L7.19-46.50L7.19-46.50Q9.13-48.25 12.23-49.35L12.23-49.35L12.23-49.35Q15.33-50.44 19.93-50.44L19.93-50.44L19.93-50.44Q22.56-50.44 24.93-50.19L24.93-50.19L24.93-50.19Q27.30-49.93 29.05-49.64L29.05-49.64L29.05-49.64Q31.10-49.27 32.92-48.84L32.92-48.84" fill="#8cd0e5" stroke="none" stroke-width="none" transform="translate(-120.30499267578125,21.62770179748535)" style="fill: rgb(140, 208, 229);"></path></g><g class="path" style="transform-origin: -69.755px -1.7323px; animation: 1s linear -0.495s infinite normal forwards running static-ce02ae40-1660-456c-991e-06f257979884;"><path d="M45.26-46.94L51.10-47.67L51.10-36.72L61.68-36.72L61.68-31.97L51.10-31.97L51.10-12.48L51.10-12.48Q51.10-10.07 51.21-8.47L51.21-8.47L51.21-8.47Q51.32-6.86 51.68-5.91L51.68-5.91L51.68-5.91Q52.05-4.96 52.71-4.56L52.71-4.56L52.71-4.56Q53.36-4.16 54.38-4.16L54.38-4.16L54.38-4.16Q57.16-4.23 60.81-6.20L60.81-6.20L62.56-1.75L62.56-1.75Q60.15-0.15 58.07 0.40L58.07 0.40L58.07 0.40Q55.99 0.95 53.95 0.95L53.95 0.95L53.95 0.95Q49.13 0.95 47.19-1.79L47.19-1.79L47.19-1.79Q45.26-4.53 45.26-10.88L45.26-10.88L45.26-31.97L38.54-31.97L38.54-36.72L45.26-36.72L45.26-46.94" fill="#8cd0e5" stroke="none" stroke-width="none" transform="translate(-120.30499267578125,21.62770179748535)" style="fill: rgb(55, 104, 136);"></path></g><g class="path" style="transform-origin: -37.995px 3.3777px; animation: 1s linear -0.4125s infinite normal forwards running static-ce02ae40-1660-456c-991e-06f257979884;"><path d="M94.90-5.77L96.00-0.88L96.00-0.88Q94.32-0.36 92.53 0L92.53 0L92.53 0Q90.74 0.36 88.59 0.66L88.59 0.66L88.59 0.66Q86.43 0.95 84.10 0.95L84.10 0.95L84.10 0.95Q80.45 0.95 77.31-0.07L77.31-0.07L77.31-0.07Q74.17-1.09 71.83-3.36L71.83-3.36L71.83-3.36Q69.50-5.62 68.15-9.23L68.15-9.23L68.15-9.23Q66.80-12.85 66.80-18.10L66.80-18.10L66.80-18.10Q66.80-22.85 68.11-26.46L68.11-26.46L68.11-26.46Q69.42-30.08 71.72-32.52L71.72-32.52L71.72-32.52Q74.02-34.97 77.12-36.21L77.12-36.21L77.12-36.21Q80.23-37.45 83.88-37.45L83.88-37.45L83.88-37.45Q87.45-37.45 90.08-36.06L90.08-36.06L90.08-36.06Q92.71-34.67 94.43-32.30L94.43-32.30L94.43-32.30Q96.14-29.93 96.98-26.75L96.98-26.75L96.98-26.75Q97.82-23.58 97.82-20.07L97.82-20.07L96.72-16.86L73.15-16.86L73.15-16.86Q73.15-14.60 73.73-12.34L73.73-12.34L73.73-12.34Q74.31-10.07 75.74-8.25L75.74-8.25L75.74-8.25Q77.16-6.42 79.46-5.29L79.46-5.29L79.46-5.29Q81.76-4.16 85.19-4.16L85.19-4.16L85.19-4.16Q87.38-4.16 89.21-4.42L89.21-4.42L89.21-4.42Q91.03-4.67 92.38-5.00L92.38-5.00L92.38-5.00Q93.73-5.33 94.90-5.77L94.90-5.77zM73.36-21.54L91.76-21.54L91.76-21.54Q91.76-22.05 91.54-23.80L91.54-23.80L91.54-23.80Q91.32-25.55 90.52-27.45L90.52-27.45L90.52-27.45Q89.72-29.35 88.04-30.84L88.04-30.84L88.04-30.84Q86.36-32.34 83.58-32.34L83.58-32.34L83.58-32.34Q80.52-32.34 78.55-31.06L78.55-31.06L78.55-31.06Q76.58-29.78 75.41-28.03L75.41-28.03L75.41-28.03Q74.24-26.28 73.80-24.45L73.80-24.45L73.80-24.45Q73.36-22.63 73.36-21.54L73.36-21.54" fill="#8cd0e5" stroke="none" stroke-width="none" transform="translate(-120.30499267578125,21.62770179748535)" style="fill: rgb(130, 107, 136);"></path></g><g class="path" style="transform-origin: 0.765011px 11.2227px; animation: 1s linear -0.33s infinite normal forwards running static-ce02ae40-1660-456c-991e-06f257979884;"><path d="M105.85 16.64L105.85-28.25L105.85-28.25Q105.85-30.88 105.48-36.06L105.48-36.06L110.89-36.79L111.54-32.85L111.54-32.85Q113.00-34.09 114.57-35.08L114.57-35.08L114.57-35.08Q116.14-36.06 118.00-36.76L118.00-36.76L118.00-36.76Q119.87-37.45 121.98-37.45L121.98-37.45L121.98-37.45Q124.98-37.45 127.64-36.43L127.64-36.43L127.64-36.43Q130.30-35.41 132.31-33.14L132.31-33.14L132.31-33.14Q134.32-30.88 135.49-27.27L135.49-27.27L135.49-27.27Q136.66-23.65 136.66-18.40L136.66-18.40L136.66-18.40Q136.66-13.07 135.09-9.38L135.09-9.38L135.09-9.38Q133.52-5.69 131.00-3.39L131.00-3.39L131.00-3.39Q128.48-1.09 125.30-0.07L125.30-0.07L125.30-0.07Q122.13 0.95 118.84 0.95L118.84 0.95L118.84 0.95Q115.34 0.88 111.69 0.07L111.69 0.07L111.69 15.91L105.85 16.64zM118.84-4.16L118.84-4.16L118.84-4.16Q121.91-4.16 124.10-5.26L124.10-5.26L124.10-5.26Q126.29-6.35 127.71-8.29L127.71-8.29L127.71-8.29Q129.14-10.22 129.79-12.74L129.79-12.74L129.79-12.74Q130.45-15.26 130.45-18.10L130.45-18.10L130.45-18.10Q130.45-20.66 129.98-23.21L129.98-23.21L129.98-23.21Q129.50-25.77 128.44-27.78L128.44-27.78L128.44-27.78Q127.38-29.78 125.63-31.06L125.63-31.06L125.63-31.06Q123.88-32.34 121.33-32.34L121.33-32.34L121.33-32.34Q119.43-32.34 117.75-31.65L117.75-31.65L117.75-31.65Q116.07-30.95 114.57-29.97L114.57-29.97L114.57-29.97Q113.08-28.98 111.69-27.74L111.69-27.74L111.69-5.33L111.69-5.33Q112.49-5.04 113.48-4.78L113.48-4.78L113.48-4.78Q114.46-4.53 115.81-4.34L115.81-4.34L115.81-4.34Q117.16-4.16 118.84-4.16" fill="#8cd0e5" stroke="none" stroke-width="none" transform="translate(-120.30499267578125,21.62770179748535)" style="fill: rgb(222, 120, 106);"></path></g><g class="path" style="transform-origin: 45.19px -2.8273px; animation: 1s linear -0.2475s infinite normal forwards running static-ce02ae40-1660-456c-991e-06f257979884;"><path d="M145.42-49.79L151.55-49.79L151.55-18.69L151.55-18.69Q151.55-14.53 152.75-11.86L152.75-11.86L152.75-11.86Q153.96-9.20 155.93-7.66L155.93-7.66L155.93-7.66Q157.90-6.13 160.42-5.55L160.42-5.55L160.42-5.55Q162.94-4.96 165.56-4.96L165.56-4.96L165.56-4.96Q168.19-4.96 170.67-5.55L170.67-5.55L170.67-5.55Q173.16-6.13 175.13-7.66L175.13-7.66L175.13-7.66Q177.10-9.20 178.27-11.86L178.27-11.86L178.27-11.86Q179.43-14.53 179.43-18.69L179.43-18.69L179.43-49.79L185.57-49.79L185.57-17.15L185.57-17.15Q185.57-13.36 184.14-10.07L184.14-10.07L184.14-10.07Q182.72-6.79 180.09-4.34L180.09-4.34L180.09-4.34Q177.46-1.90 173.74-0.51L173.74-0.51L173.74-0.51Q170.02 0.88 165.49 0.88L165.49 0.88L165.49 0.88Q155.78 0.88 150.60-3.83L150.60-3.83L150.60-3.83Q145.42-8.54 145.42-17.15L145.42-17.15L145.42-49.79" fill="#8cd0e5" stroke="none" stroke-width="none" transform="translate(-120.30499267578125,21.62770179748535)" style="fill: rgb(248, 185, 118);"></path></g><g class="path" style="transform-origin: 91.21px 11.2227px; animation: 1s linear -0.165s infinite normal forwards running static-ce02ae40-1660-456c-991e-06f257979884;"><path d="M196.30 16.64L196.30-28.25L196.30-28.25Q196.30-30.88 195.93-36.06L195.93-36.06L201.33-36.79L201.99-32.85L201.99-32.85Q203.45-34.09 205.02-35.08L205.02-35.08L205.02-35.08Q206.59-36.06 208.45-36.76L208.45-36.76L208.45-36.76Q210.31-37.45 212.43-37.45L212.43-37.45L212.43-37.45Q215.42-37.45 218.09-36.43L218.09-36.43L218.09-36.43Q220.75-35.41 222.76-33.14L222.76-33.14L222.76-33.14Q224.77-30.88 225.93-27.27L225.93-27.27L225.93-27.27Q227.10-23.65 227.10-18.40L227.10-18.40L227.10-18.40Q227.10-13.07 225.53-9.38L225.53-9.38L225.53-9.38Q223.96-5.69 221.45-3.39L221.45-3.39L221.45-3.39Q218.93-1.09 215.75-0.07L215.75-0.07L215.75-0.07Q212.58 0.95 209.29 0.95L209.29 0.95L209.29 0.95Q205.79 0.88 202.14 0.07L202.14 0.07L202.14 15.91L196.30 16.64zM209.29-4.16L209.29-4.16L209.29-4.16Q212.36-4.16 214.55-5.26L214.55-5.26L214.55-5.26Q216.74-6.35 218.16-8.29L218.16-8.29L218.16-8.29Q219.58-10.22 220.24-12.74L220.24-12.74L220.24-12.74Q220.90-15.26 220.90-18.10L220.90-18.10L220.90-18.10Q220.90-20.66 220.42-23.21L220.42-23.21L220.42-23.21Q219.95-25.77 218.89-27.78L218.89-27.78L218.89-27.78Q217.83-29.78 216.08-31.06L216.08-31.06L216.08-31.06Q214.33-32.34 211.77-32.34L211.77-32.34L211.77-32.34Q209.87-32.34 208.20-31.65L208.20-31.65L208.20-31.65Q206.52-30.95 205.02-29.97L205.02-29.97L205.02-29.97Q203.52-28.98 202.14-27.74L202.14-27.74L202.14-5.33L202.14-5.33Q202.94-5.04 203.93-4.78L203.93-4.78L203.93-4.78Q204.91-4.53 206.26-4.34L206.26-4.34L206.26-4.34Q207.61-4.16 209.29-4.16" fill="#8cd0e5" stroke="none" stroke-width="none" transform="translate(-120.30499267578125,21.62770179748535)" style="fill: rgb(252, 221, 201);"></path></g><g class="path" style="transform-origin: 119.135px -11.9923px; animation: 1s linear -0.0825s infinite normal forwards running static-ce02ae40-1660-456c-991e-06f257979884;"><path d="M237.18-13.29L235.72-53.14L243.16-53.95L241.92-13.29L237.18-13.29" fill="#8cd0e5" stroke="none" stroke-width="none" transform="translate(-120.30499267578125,21.62770179748535)" style="fill: rgb(140, 208, 229);"></path></g><g class="path" style="transform-origin: 119.17px 17.3227px; animation: 1s linear 0s infinite normal forwards running static-ce02ae40-1660-456c-991e-06f257979884;"><path d="M235.06-4.31L235.06-4.31L235.06-4.31Q235.06-6.06 236.30-7.34L236.30-7.34L236.30-7.34Q237.54-8.61 239.37-8.61L239.37-8.61L239.37-8.61Q241.26-8.61 242.58-7.34L242.58-7.34L242.58-7.34Q243.89-6.06 243.89-4.31L243.89-4.31L243.89-4.31Q243.89-2.48 242.58-1.24L242.58-1.24L242.58-1.24Q241.26 0 239.37 0L239.37 0L239.37 0Q237.54 0 236.30-1.24L236.30-1.24L236.30-1.24Q235.06-2.48 235.06-4.31" fill="#8cd0e5" stroke="none" stroke-width="none" transform="translate(-120.30499267578125,21.62770179748535)" style="fill: rgb(55, 104, 136);"></path></g></g>
</g>
</g>
<style id="static-ce02ae40-1660-456c-991e-06f257979884" data-anikit=""> @keyframes static-ce02ae40-1660-456c-991e-06f257979884 { 0% { } 100% { } } </style></svg>