M48
; DRILL file {KiCad 9.0.7} date 2026-03-27T14:11:07+0000
; FORMAT={-:-/ absolute / inch / decimal}
; #@! TF.CreationDate,2026-03-27T14:11:07+00:00
; #@! TF.GenerationSoftware,Kicad,Pcbnew,9.0.7
; #@! TF.FileFunction,MixedPlating,1,4
FMAT,2
INCH
; #@! TA.AperFunction,Plated,PTH,ComponentDrill
T1C0.0079
; #@! TA.AperFunction,Plated,PTH,ViaDrill
T2C0.0098
; #@! TA.AperFunction,Plated,PTH,ViaDrill
T3C0.0118
; #@! TA.AperFunction,Plated,PTH,ComponentDrill
T4C0.0118
; #@! TA.AperFunction,Plated,PTH,ComponentDrill
T5C0.0236
; #@! TA.AperFunction,Plated,PTH,ComponentDrill
T6C0.0335
; #@! TA.AperFunction,Plated,PTH,ComponentDrill
T7C0.0358
; #@! TA.AperFunction,Plated,PTH,ComponentDrill
T8C0.0394
; #@! TA.AperFunction,Plated,PTH,ComponentDrill
T9C0.0433
; #@! TA.AperFunction,Plated,PTH,ComponentDrill
T10C0.0512
; #@! TA.AperFunction,Plated,PTH,ComponentDrill
T11C0.0551
; #@! TA.AperFunction,Plated,PTH,ComponentDrill
T12C0.0630
; #@! TA.AperFunction,Plated,PTH,ComponentDrill
T13C0.0720
; #@! TA.AperFunction,NonPlated,NPTH,ComponentDrill
T14C0.0256
; #@! TA.AperFunction,NonPlated,NPTH,ComponentDrill
T15C0.0866
; #@! TA.AperFunction,NonPlated,NPTH,ComponentDrill
T16C0.1260
%
G90
G05
T1
X2.6978Y-3.0536
T2
X2.2953Y-2.374
X2.4193Y-2.1801
X2.4242Y-2.1339
X2.4626Y-2.0197
X2.4921Y-2.1939
X2.563Y-4.9793
X2.7421Y-4.5965
X2.751Y-2.2146
X2.7677Y-4.9793
X2.7756Y-4.563
X2.8366Y-2.1063
X2.9449Y-4.4055
X2.9803Y-2.5679
X2.9961Y-4.6033
X3.0354Y-4.1969
X3.0354Y-4.2362
X3.0492Y-4.3327
X3.064Y-4.1033
X3.0945Y-4.628
X3.0955Y-3.9636
X3.1417Y-4.9239
X3.1592Y-4.209
X3.1614Y-3.0354
X3.1654Y-4.4094
X3.1676Y-2.563
X3.1693Y-4.4606
X3.1752Y-3.9616
X3.19Y-4.378
X3.1988Y-3.9862
X3.2008Y-3.7165
X3.2087Y-3.6575
X3.2146Y-2.6033
X3.2146Y-4.7815
X3.2235Y-2.8683
X3.2244Y-3.9213
X3.2264Y-3.7953
X3.2451Y-2.9144
X3.2451Y-3.0354
X3.2559Y-3.9213
X3.2648Y-3.7402
X3.2677Y-3.6575
X3.2883Y-3.8889
X3.2884Y-2.9744
X3.3031Y-3.0945
X3.3031Y-3.1457
X3.3031Y-4.1614
X3.3248Y-4.6378
X3.3386Y-3.3268
X3.3652Y-4.6732
X3.3701Y-3.315
X3.3738Y-4.0159
X3.378Y-4.4655
X3.3996Y-4.625
X3.4124Y-3.498
X3.4213Y-4.5709
X3.4252Y-3.8858
X3.4331Y-4.9724
X3.437Y-3.0433
X3.4685Y-4.1693
X3.4715Y-4.438
X3.5161Y-3.9806
X3.5276Y-2.5827
X3.5354Y-4.5512
X3.5591Y-2.7402
X3.5601Y-4.2375
X3.563Y-2.8465
X3.563Y-3.0974
X3.5748Y-4.1535
X3.5787Y-2.5591
X3.5906Y-2.8701
X3.5945Y-4.0945
X3.5995Y-3.942
X3.6024Y-3.1024
X3.6063Y-4.4305
X3.6102Y-2.7205
X3.6142Y-4.5984
X3.6171Y-4.0709
X3.6417Y-2.5827
X3.646Y-4.0629
X3.6535Y-3.1417
X3.6555Y-3.0689
X3.6614Y-4.1024
X3.6614Y-4.7195
X3.6654Y-3.3701
X3.6732Y-4.0433
X3.6793Y-3.0238
X3.7116Y-3.2756
X3.7421Y-3.2746
X3.748Y-4.2598
X3.7795Y-3.0472
X3.7795Y-3.0827
X3.7835Y-3.7402
X3.7874Y-4.2598
X3.8297Y-3.4459
X3.8386Y-4.063
X3.8543Y-3.5787
X3.877Y-2.9744
X3.8858Y-4.1181
X3.9016Y-4.188
X3.9075Y-3.4232
X3.9203Y-2.9163
X3.9203Y-3.0325
X3.937Y-4.6024
X3.9409Y-2.8701
X3.9409Y-4.4606
X3.9469Y-2.6014
X3.9567Y-4.563
X3.9882Y-4.5866
X4.0Y-2.8701
X4.0673Y-4.5512
X4.1654Y-4.0079
X4.1772Y-3.7992
X4.315Y-3.5108
T3
X2.3396Y-3.4213
X2.3425Y-3.6516
X2.3533Y-3.1024
X2.3632Y-2.4744
X2.3711Y-3.4724
X2.3967Y-2.126
X2.3986Y-4.1526
X2.3996Y-2.4016
X2.4085Y-3.6486
X2.4114Y-3.1486
X2.439Y-3.6988
X2.4744Y-3.1161
X2.5236Y-2.9478
X2.5276Y-3.2323
X2.5335Y-3.0295
X2.5482Y-3.9498
X2.5561Y-3.1191
X2.5915Y-3.253
X2.5915Y-3.2844
X2.5915Y-3.3159
X2.5915Y-3.3514
X2.5915Y-3.3829
X2.5915Y-3.4134
X2.5925Y-3.4409
X2.5925Y-3.5108
X2.5935Y-3.5472
X2.5935Y-3.5797
X2.623Y-3.1909
X2.7362Y-3.623
X2.7421Y-3.9695
X2.7913Y-3.9272
X2.7963Y-3.812
X2.8553Y-4.6742
X2.8583Y-3.3583
X2.8593Y-3.064
X2.8593Y-3.1043
X2.8593Y-5.003
X2.9035Y-2.2057
X3.0463Y-4.4104
X3.0492Y-4.064
X3.0522Y-2.8602
X3.0522Y-4.0157
X3.0551Y-2.8061
X3.06Y-3.9567
X3.1201Y-2.7057
X3.122Y-2.6693
X3.1299Y-2.3839
X3.1467Y-3.7372
X3.1604Y-4.5866
X3.1676Y-3.3651
X3.1791Y-3.872
X3.2001Y-3.7487
X3.406Y-4.406
X3.4075Y-3.0059
X3.4104Y-2.9557
X3.4222Y-2.9813
X3.5226Y-2.9035
X3.5344Y-2.9272
X3.5394Y-3.3337
X3.563Y-2.9665
X3.563Y-3.0138
X3.5699Y-2.3711
X3.5866Y-2.9902
X3.5955Y-4.873
X3.5994Y-2.3711
X3.6102Y-2.9665
X3.6102Y-3.0138
X3.6378Y-2.9272
X3.6486Y-2.9045
X3.748Y-2.9803
X3.7598Y-2.9577
X3.7608Y-3.003
X3.8937Y-3.9114
X3.9449Y-3.5394
X3.9921Y-4.1457
X4.002Y-2.373
X4.0262Y-4.1841
X4.0512Y-4.1417
X4.0906Y-4.1565
T4
X3.3358Y-4.1427
X3.3358Y-4.1929
X3.3358Y-4.2431
X3.386Y-4.1427
X3.386Y-4.1929
X3.386Y-4.2431
X3.4362Y-4.1427
X3.4362Y-4.1929
X3.4362Y-4.2431
T6
X3.7126Y-4.6339
X3.7126Y-4.8307
T7
X4.2175Y-2.1063
X4.2175Y-2.2047
X4.2667Y-2.1555
X4.2667Y-2.2539
T8
X3.723Y-5.0472
X3.823Y-5.0472
X3.923Y-5.0472
X3.9963Y-4.2539
X4.023Y-5.0472
X4.0433Y-4.4984
X4.0433Y-4.5984
X4.0433Y-4.6984
X4.0963Y-4.2539
X4.123Y-5.0472
X4.1433Y-4.4984
X4.1433Y-4.5984
X4.1433Y-4.6984
X4.1734Y-2.7992
X4.1734Y-2.9764
X4.1963Y-4.2539
X4.2963Y-4.2539
X4.2963Y-4.402
X4.2963Y-4.502
X4.2963Y-4.602
X4.2963Y-4.702
X4.2963Y-4.802
T9
X3.8098Y-3.3374
X3.9083Y-3.3374
X4.0067Y-3.3374
X4.252Y-3.5827
X4.252Y-3.6811
X4.252Y-3.7795
T10
X3.5047Y-3.5531
X3.5047Y-3.8091
X3.6819Y-3.5531
X3.6819Y-3.8091
X4.0754Y-2.7498
X4.0754Y-3.0258
T11
X3.2795Y-2.2028
X3.4764Y-2.2028
X3.6732Y-2.2028
X3.8701Y-2.2028
T12
X3.7114Y-3.4321
X3.7114Y-3.9301
X4.1051Y-3.4321
X4.1051Y-3.9301
T13
X2.5046Y-2.5087
X2.6046Y-2.2087
X2.7046Y-2.5087
T14
X3.1169Y-4.8829
X3.3444Y-4.8829
T15
X3.937Y-3.6752
T16
X2.339Y-5.0035
X3.0098Y-2.0906
X4.2673Y-5.0035
X4.2677Y-2.5079
T5
X3.0606Y-4.8415G85X3.0606Y-4.8848
G05
X3.0606Y-5.012G85X3.0606Y-5.0435
G05
X3.4007Y-4.8415G85X3.4007Y-4.8848
G05
X3.4007Y-5.012G85X3.4007Y-5.0435
G05
T13
X2.5046Y-4.3197G85X2.5046Y-4.3984
G05
X2.6046Y-4.6197G85X2.6046Y-4.6984
G05
X2.7046Y-4.3197G85X2.7046Y-4.3984
G05
T15
X3.0Y-3.5118G85X3.0Y-3.5906
G05
M30
